<svg width="1441" height="640" viewBox="0 0 1441 640" fill="none" xmlns="http://www.w3.org/2000/svg">
<path d="M1440.22 0.114258H0.162109V639.019H1440.22V0.114258Z" fill="#FFF9F4"/>
<path d="M304.914 100.408H168.838V199.63H304.914V100.408Z" fill="#A87546"/>
<path d="M296.82 111.238H177.344V190.239H296.82V111.238Z" fill="#FCF4EA"/>
<path d="M276.851 124.368H197.145V178.568H276.851V124.368Z" fill="white"/>
<path d="M203.696 124.368H205.689C204.668 142.434 204.988 160.55 206.646 178.568H204.653C202.995 160.55 202.676 142.434 203.696 124.368V124.368Z" fill="#FE6F8B"/>
<path d="M211.797 124.368C211.829 142.429 211.861 160.496 211.893 178.568H209.9C209.868 160.506 209.837 142.44 209.805 124.368C209.805 123.076 211.797 123.092 211.797 124.368Z" fill="#3B322D"/>
<path d="M217.073 124.368H219.065C218.826 142.43 218.587 160.496 218.348 178.568H216.355C216.61 160.507 216.849 142.44 217.073 124.368Z" fill="#FE6F8B"/>
<path d="M231.34 124.368H233.333C233.556 142.43 233.774 160.496 233.986 178.568H231.994C231.77 160.491 231.552 142.424 231.34 124.368Z" fill="#3B322D"/>
<path d="M235.004 124.368H236.997C238.633 142.388 238.915 160.506 237.842 178.568H235.849C236.923 160.506 236.64 142.388 235.004 124.368V124.368Z" fill="#FE6F8B"/>
<path d="M240.49 124.368H242.482C242.45 142.43 242.424 160.496 242.403 178.568H240.41C240.426 160.507 240.453 142.44 240.49 124.368Z" fill="#3B322D"/>
<path d="M244.984 124.368H246.977C247.376 142.43 247.779 160.496 248.189 178.568H246.196C245.797 160.507 245.394 142.44 244.984 124.368Z" fill="#FE6F8B"/>
<path d="M252.874 124.368H254.867C254.532 142.446 254.187 160.512 253.831 178.568H251.838C252.189 160.491 252.534 142.424 252.874 124.368Z" fill="#3B322D"/>
<path d="M261.676 124.368H263.668C263.748 142.43 263.839 160.496 263.939 178.568H261.947C261.867 160.507 261.777 142.44 261.676 124.368Z" fill="#FE6F8B"/>
<path d="M269.646 124.368H271.639C271.543 142.43 271.452 160.496 271.368 178.568H269.375C269.471 160.507 269.561 142.44 269.646 124.368Z" fill="#3B322D"/>
<path d="M732.592 547.127H732.598C772.09 551.449 794.848 556.527 794.848 561.96C794.848 577.697 603.971 590.456 368.509 590.456C367.188 590.456 365.87 590.456 364.552 590.455C363.543 590.456 362.532 590.456 361.52 590.456C209.362 590.456 75.8231 585.129 0.376953 577.113V546.811C75.822 538.794 209.362 533.466 361.52 533.466C362.84 533.466 364.159 533.467 365.476 533.468C366.486 533.467 367.496 533.466 368.509 533.466C522.664 533.466 657.707 538.934 732.592 547.127Z" fill="#F8CDAE"/>
<path d="M524.367 508.375L538.843 554.82H528.589L506.875 509.581L524.367 508.375Z" fill="#C37F39"/>
<path d="M251.128 508.375L236.652 554.82H246.906L268.621 509.581L251.128 508.375Z" fill="#C37F39"/>
<path d="M249.125 350.968C258.797 343.275 272.362 343.373 284.68 344.371C317.903 347.061 351.032 353.633 384.294 351.485C417.065 349.369 449.131 338.816 481.961 339.609C492.337 339.86 503.183 341.444 511.551 347.584C524.86 357.349 528.246 375.461 530.61 391.798C542.006 383.997 558.529 386.704 568.832 395.899C579.136 405.095 583.777 419.393 583.922 433.202C584.066 447.011 580.197 460.533 575.801 473.624C570.779 488.579 563.915 504.568 549.849 511.71C541.035 516.185 530.752 516.413 520.868 516.548C430.763 517.776 340.656 519.005 250.542 519.05C241.908 519.054 232.873 518.952 225.259 514.881C217.283 510.617 212.06 502.619 207.823 494.629C200.045 479.952 194.427 464.23 191.142 447.948C189.079 437.713 187.963 427.041 190.378 416.883C192.794 406.725 199.235 397.093 208.834 392.986C214.987 390.354 221.108 390.951 227.295 392.925C235.183 395.442 236.166 394.131 236.58 385.534C237.186 372.973 238.516 359.407 249.125 350.968Z" fill="#FDE0A5"/>
<path d="M245.685 488.617C242.144 474.844 238.602 461.071 235.061 447.299L229.786 426.785C228.23 420.73 226.914 414.396 223.73 408.938C220.758 403.845 215.751 399.541 209.661 399.144C209.177 399.112 209.179 399.867 209.661 399.898C215.182 400.258 219.834 404.092 222.669 408.639C225.991 413.968 227.328 420.252 228.872 426.258C232.302 439.594 235.731 452.931 239.16 466.267C241.092 473.784 243.025 481.3 244.958 488.817C245.079 489.287 245.806 489.088 245.685 488.617Z" fill="#4D2C13"/>
<path d="M554.999 390.504C546.87 400.727 540.029 411.91 534.628 423.802C529.221 435.692 525.274 448.194 522.876 461.034C521.765 467.002 520.999 473.028 520.579 479.084C518.191 469.434 514.535 460.143 509.706 451.454C507.948 448.293 506.038 445.223 503.977 442.245C503.703 441.849 503.049 442.225 503.326 442.626C510.569 453.112 515.967 464.76 519.285 477.065C519.698 478.597 520.076 480.137 520.42 481.685C520.401 482.034 520.383 482.383 520.367 482.731C520.363 482.78 520.37 482.828 520.386 482.874C520.403 482.919 520.429 482.96 520.463 482.995C520.497 483.029 520.538 483.056 520.583 483.073C520.628 483.091 520.677 483.098 520.725 483.095C520.987 484.344 521.228 485.597 521.448 486.855C485.926 485.582 450.389 484.917 414.837 484.86C378.725 484.805 342.62 485.382 306.52 486.588C286.265 487.265 266.017 488.141 245.777 489.216C245.295 489.241 245.292 489.995 245.777 489.97C281.839 488.059 317.926 486.775 354.039 486.118C390.145 485.465 426.256 485.442 462.37 486.05C482.114 486.382 501.854 486.904 521.589 487.614C521.695 487.883 522.059 487.847 522.221 487.636C522.53 487.648 522.839 487.658 523.148 487.669C523.634 487.687 523.633 486.933 523.148 486.915C522.837 486.904 522.526 486.893 522.215 486.882C521.911 485.122 521.564 483.37 521.176 481.627C521.854 469.063 524.023 456.624 527.638 444.573C531.353 432.163 536.554 420.248 543.127 409.085C546.837 402.788 550.982 396.757 555.532 391.037C555.831 390.661 555.301 390.124 554.999 390.504Z" fill="#4D2C13"/>
<path d="M501.479 439.676C471.343 439.256 441.208 438.835 411.072 438.415C381.591 438.003 352.062 437.304 322.604 438.936C306.143 439.848 289.715 441.519 273.473 444.385C273.434 444.392 273.396 444.406 273.361 444.425C273.505 444.117 273.054 443.742 272.73 444.015C262.218 452.948 254.196 464.448 249.443 477.399C248.108 481.041 247.045 484.778 246.263 488.578C246.165 489.052 246.892 489.254 246.99 488.779C249.787 475.319 256.037 462.819 265.128 452.507C267.631 449.674 270.336 447.026 273.222 444.584C273.2 444.651 273.197 444.721 273.211 444.79C273.224 444.858 273.255 444.921 273.301 444.974C273.346 445.027 273.404 445.067 273.469 445.092C273.534 445.116 273.605 445.123 273.673 445.112C302.747 439.982 332.324 438.75 361.796 438.682C391.546 438.613 421.305 439.312 451.051 439.727C467.86 439.961 484.669 440.196 501.479 440.43C501.964 440.437 501.964 439.683 501.479 439.676Z" fill="#4D2C13"/>
<path d="M334.834 362.02C321.031 358.459 306.452 358.429 292.552 361.488C278.588 364.55 265.478 370.675 254.167 379.419C247.874 384.3 242.27 390.01 237.508 396.395C237.476 396.434 237.454 396.48 237.444 396.529C237.434 396.578 237.436 396.629 237.449 396.677C237.462 396.725 237.487 396.77 237.521 396.806C237.555 396.843 237.597 396.871 237.644 396.889C237.579 396.959 237.542 397.051 237.538 397.147C237.535 397.243 237.567 397.337 237.627 397.411C242.187 403.092 246.747 408.774 251.308 414.455C251.611 414.833 252.142 414.297 251.841 413.921C247.28 408.24 242.72 402.559 238.16 396.878C238.145 396.86 238.129 396.843 238.111 396.828C238.128 396.812 238.144 396.794 238.159 396.775C246.588 385.447 257.828 376.365 270.447 370.082C283.121 363.756 297.041 360.322 311.202 360.026C319.1 359.871 326.982 360.787 334.633 362.747C335.103 362.868 335.304 362.141 334.834 362.02Z" fill="#4D2C13"/>
<path d="M527.158 394.862C523.756 397.029 520.875 399.921 518.72 403.331C516.565 406.74 515.19 410.584 514.693 414.586C514.634 415.067 515.389 415.063 515.447 414.586C515.939 410.715 517.277 406.999 519.367 403.702C521.457 400.406 524.247 397.61 527.539 395.513C527.948 395.255 527.57 394.602 527.158 394.862Z" fill="#4D2C13"/>
<path d="M381.586 455.57C381.566 455.087 380.812 455.084 380.832 455.57C381.246 465.22 381.659 474.871 382.073 484.521C382.094 485.004 382.848 485.007 382.827 484.521C382.413 474.871 382 465.22 381.586 455.57Z" fill="#4D2C13"/>
<path d="M529.708 389.894C525.423 379.892 518.49 371.247 509.657 364.892C500.102 358.007 488.557 354.222 476.793 353.925C469.917 353.748 463.062 354.768 456.536 356.939C456.078 357.092 456.274 357.821 456.736 357.666C468.312 353.831 480.791 353.668 492.463 357.199C502.998 360.4 512.435 366.698 519.6 375.041C523.517 379.602 526.706 384.741 529.056 390.275C529.245 390.72 529.895 390.336 529.708 389.894Z" fill="#4D2C13"/>
<path d="M387.322 354.447C385.958 357.282 384.593 360.118 383.229 362.953C383.019 363.388 383.669 363.771 383.88 363.334C385.244 360.498 386.609 357.663 387.973 354.827C388.183 354.392 387.533 354.009 387.322 354.447Z" fill="#4D2C13"/>
<path d="M384.408 369.345C383.442 364.92 382.213 360.556 380.728 356.276C380.57 355.821 379.842 356.017 380.001 356.477C385.14 371.345 387.171 387.111 385.967 402.796C385.62 407.279 385.006 411.737 384.129 416.146C384.035 416.62 384.762 416.823 384.856 416.347C387.927 400.814 387.774 384.816 384.408 369.345V369.345Z" fill="#4D2C13"/>
<path d="M566.809 446.128C557.627 441.652 551.932 431.937 552.605 421.731C552.813 418.595 553.601 415.525 554.929 412.677C555.133 412.24 554.483 411.856 554.278 412.296C551.915 417.367 551.219 423.055 552.291 428.546C553.094 432.464 554.786 436.147 557.237 439.308C559.689 442.469 562.833 445.026 566.428 446.779C566.863 446.991 567.245 446.341 566.809 446.128Z" fill="#4D2C13"/>
<path d="M219.549 435.004C218.961 432.211 217.819 429.564 216.19 427.219C215.915 426.823 215.262 427.2 215.539 427.6C218.29 431.571 219.583 436.37 219.2 441.186C218.798 445.763 216.862 450.07 213.706 453.409C211.968 455.259 209.905 456.775 207.621 457.881C207.184 458.092 207.566 458.742 208.001 458.532C212.194 456.483 215.611 453.132 217.74 448.979C219.922 444.664 220.56 439.732 219.549 435.004V435.004Z" fill="#4D2C13"/>
<path d="M243.527 496.477C241.918 501.504 240.31 506.53 238.701 511.557C238.553 512.02 239.281 512.218 239.428 511.757C241.037 506.731 242.645 501.704 244.254 496.678C244.402 496.215 243.674 496.016 243.527 496.477Z" fill="#4D2C13"/>
<path d="M528.838 503.063C527.229 500.047 525.62 497.032 524.011 494.016C523.783 493.588 523.132 493.968 523.36 494.396C524.969 497.412 526.578 500.428 528.187 503.443C528.416 503.872 529.067 503.491 528.838 503.063Z" fill="#4D2C13"/>
<path d="M529.687 550.106C525.427 539.868 521.166 529.63 516.906 519.392C516.722 518.95 515.992 519.144 516.179 519.592C520.439 529.83 524.7 540.069 528.96 550.307C529.144 550.748 529.874 550.554 529.687 550.106Z" fill="#4D2C13"/>
<path d="M255.699 521.855C251.508 532.039 247.318 542.224 243.127 552.408C242.943 552.856 243.672 553.052 243.854 552.608C248.045 542.424 252.236 532.24 256.426 522.056C256.611 521.607 255.881 521.412 255.699 521.855Z" fill="#4D2C13"/>
<path d="M116.347 369.413C116.314 369.224 116.281 369.036 116.246 368.849C116.161 369.103 116.077 369.359 115.993 369.615C115.843 370.066 115.694 370.516 115.546 370.967C115.579 371.148 115.611 371.328 115.641 371.509C115.655 371.449 115.676 371.392 115.703 371.337L115.73 371.287C115.748 371.256 115.769 371.226 115.792 371.198C115.804 371.184 115.816 371.171 115.828 371.157C115.84 371.144 115.852 371.131 115.866 371.12C115.879 371.106 115.894 371.093 115.91 371.082C115.92 371.073 115.929 371.065 115.94 371.058C115.999 371.014 116.064 370.98 116.133 370.957C116.149 370.95 116.166 370.944 116.183 370.94C116.275 370.913 116.373 370.905 116.469 370.916C116.476 370.916 116.482 370.917 116.489 370.919C116.508 370.921 116.528 370.925 116.547 370.93C116.572 370.934 116.595 370.94 116.618 370.949C116.529 370.437 116.439 369.924 116.347 369.413ZM108.48 359.528C108.461 359.519 108.442 359.508 108.424 359.496C108.412 359.491 108.401 359.484 108.391 359.477C108.374 359.466 108.358 359.454 108.343 359.442C108.336 359.438 108.329 359.432 108.323 359.427C108.316 359.422 108.31 359.416 108.303 359.41C108.262 359.375 108.224 359.336 108.19 359.293C108.174 359.272 108.159 359.251 108.144 359.229C108.129 359.208 108.115 359.185 108.103 359.162C108.091 359.141 108.081 359.119 108.071 359.097C108.064 359.083 108.058 359.068 108.053 359.053C108.05 359.045 108.047 359.036 108.044 359.027C108.039 359.016 108.036 359.004 108.034 358.991C108.028 358.979 108.024 358.966 108.022 358.952C108.015 358.932 108.011 358.912 108.008 358.892C108.008 358.89 108.006 358.887 108.006 358.886C107.966 359.045 107.928 359.205 107.89 359.367V359.37L108.341 362.049C108.531 361.238 108.725 360.428 108.922 359.62C108.769 359.629 108.617 359.597 108.48 359.528V359.528ZM116.347 369.413C116.314 369.224 116.281 369.036 116.246 368.849C116.161 369.103 116.077 369.359 115.993 369.615C115.843 370.066 115.694 370.516 115.546 370.967C115.579 371.148 115.611 371.328 115.641 371.509C115.655 371.449 115.676 371.392 115.703 371.337L115.73 371.287C115.748 371.256 115.769 371.226 115.792 371.198C115.804 371.184 115.816 371.171 115.828 371.157C115.84 371.144 115.852 371.131 115.866 371.12C115.879 371.106 115.894 371.093 115.91 371.082C115.92 371.073 115.929 371.065 115.94 371.058C115.999 371.014 116.064 370.98 116.133 370.957C116.149 370.95 116.166 370.944 116.183 370.94C116.275 370.913 116.373 370.905 116.469 370.916C116.476 370.916 116.482 370.917 116.489 370.919C116.508 370.921 116.528 370.925 116.547 370.93C116.572 370.934 116.595 370.94 116.618 370.949C116.529 370.437 116.439 369.924 116.347 369.413ZM108.48 359.528C108.461 359.519 108.442 359.508 108.424 359.496C108.412 359.491 108.401 359.484 108.391 359.477C108.374 359.466 108.358 359.454 108.343 359.442C108.336 359.438 108.329 359.432 108.323 359.427C108.316 359.422 108.31 359.416 108.303 359.41C108.262 359.375 108.224 359.336 108.19 359.293C108.174 359.273 108.158 359.251 108.144 359.229C108.129 359.208 108.115 359.185 108.103 359.162C108.091 359.141 108.08 359.119 108.071 359.097C108.064 359.083 108.058 359.068 108.053 359.053C108.05 359.045 108.047 359.036 108.044 359.027C108.039 359.016 108.036 359.004 108.034 358.991C108.028 358.979 108.024 358.966 108.022 358.952C108.016 358.932 108.011 358.912 108.008 358.892C108.008 358.89 108.006 358.887 108.006 358.886C107.966 359.045 107.928 359.205 107.89 359.367V359.37L108.341 362.049C108.531 361.238 108.725 360.428 108.922 359.62C108.769 359.629 108.617 359.597 108.48 359.528V359.528ZM175.074 229.409C171.459 233.051 167.987 236.822 164.658 240.723C164.658 240.723 164.658 240.723 164.658 240.723C164.658 240.723 164.657 240.723 164.657 240.724C164.657 240.724 164.657 240.724 164.657 240.724C164.657 240.724 164.657 240.724 164.657 240.725C163.665 241.883 162.687 243.052 161.722 244.232C161.721 244.234 161.721 244.235 161.719 244.235C161.433 244.586 161.147 244.938 160.863 245.291C154.818 252.792 149.255 260.668 144.208 268.873C135.382 283.185 128.047 298.39 121.958 314.056C120.329 318.245 118.791 322.466 117.344 326.72C117.098 327.439 116.855 328.158 116.615 328.876V328.878C116.41 329.493 116.207 330.108 116.005 330.723C115.861 331.159 115.72 331.593 115.579 332.029C115.605 331.596 115.629 331.165 115.655 330.732C115.673 330.423 115.689 330.114 115.708 329.805C115.733 329.357 115.76 328.908 115.786 328.46C116.243 320.549 116.7 312.639 117.157 304.729C117.748 294.486 118.339 284.242 118.931 273.999C118.969 273.352 119.007 272.706 119.045 272.06C119.043 272.06 119.045 272.058 119.045 272.058C119.043 272.057 119.043 272.057 119.045 272.055C119.182 269.665 119.32 267.275 119.459 264.885C119.459 264.885 119.459 264.884 119.458 264.884C119.458 264.883 119.458 264.883 119.458 264.883C119.458 264.882 119.458 264.882 119.458 264.881C119.459 264.881 119.459 264.881 119.459 264.88C119.459 264.88 119.459 264.88 119.458 264.879C119.458 264.879 119.458 264.879 119.458 264.878C119.458 264.878 119.458 264.877 119.458 264.877C119.459 264.876 119.459 264.876 119.459 264.876C119.82 258.634 120.18 252.393 120.54 246.152C120.547 246.088 120.54 246.023 120.52 245.962C120.5 245.901 120.468 245.845 120.425 245.797C120.382 245.749 120.33 245.71 120.271 245.684C120.213 245.657 120.149 245.643 120.085 245.642C120.011 245.633 119.937 245.64 119.866 245.661C119.795 245.682 119.729 245.718 119.672 245.766C119.615 245.814 119.569 245.872 119.535 245.939C119.502 246.005 119.483 246.078 119.479 246.152L118.395 264.918V264.92L117.912 273.275L115.346 317.711V317.723L114.652 329.71L114.577 331.004L114.462 333.009L114.4 334.066C114.402 334.069 114.4 334.074 114.4 334.078L114.281 336.129C113.583 338.387 112.906 340.65 112.251 342.92C112.052 343.609 111.855 344.298 111.66 344.987C111.555 345.359 111.45 345.732 111.347 346.104C111.268 345.792 111.189 345.481 111.11 345.169C110.859 344.179 110.604 343.19 110.342 342.203C110.327 342.141 110.311 342.081 110.294 342.021C109.902 340.532 109.499 339.047 109.086 337.565V337.56C107.439 331.643 105.635 325.774 103.674 319.952C103.457 319.308 102.432 319.584 102.65 320.234C104.7 326.316 106.576 332.451 108.281 338.64C108.61 339.833 108.932 341.027 109.247 342.223C109.772 344.209 110.279 346.199 110.767 348.193C109.861 351.507 108.999 354.833 108.181 358.169V358.171C108.123 358.409 108.064 358.647 108.006 358.886C107.966 359.045 107.928 359.205 107.89 359.367V359.37C107.492 361.003 107.105 362.637 106.729 364.272C106.47 365.398 106.215 366.526 105.965 367.654C103.335 379.504 101.178 391.453 99.3539 403.453C98.9663 389.919 98.441 376.39 97.778 362.865C97.2668 352.436 96.6742 342.013 96.0002 331.595V331.593C95.6443 326.098 95.2653 320.606 94.8632 315.116V315.115C94.8044 314.315 94.7451 313.516 94.6852 312.717C94.6867 312.715 94.6852 312.715 94.6852 312.715C94.4892 310.07 94.2876 307.428 94.0805 304.787C93.6583 299.402 93.214 294.017 92.7475 288.634C92.1323 281.54 91.4794 274.45 90.7887 267.364C90.5942 265.367 90.3967 263.371 90.1961 261.376C90.5067 259.737 90.8168 258.097 91.1265 256.455L91.2984 255.546L91.6724 253.571V253.569L95.7966 231.749L101.325 202.5L101.884 199.543L104.706 184.612C104.832 183.944 103.808 183.658 103.682 184.33C102.804 188.976 101.926 193.622 101.047 198.267C100.725 199.977 100.401 201.687 100.078 203.397C98.2395 213.119 96.4018 222.84 94.5646 232.561C93.4231 238.598 92.2816 244.637 91.1401 250.676C91.1416 250.676 91.1401 250.677 91.1401 250.677C90.9591 251.639 90.7777 252.601 90.5957 253.563V253.566C90.3363 254.937 90.077 256.307 89.8176 257.677C89.4557 254.133 89.0847 250.591 88.7047 247.049C88.6323 246.376 87.5708 246.369 87.6431 247.049C88.1558 251.806 88.651 256.567 89.1285 261.331C88.8736 262.677 88.6188 264.024 88.3639 265.372C86.8349 273.464 85.3053 281.556 83.7753 289.648C83.4616 291.31 83.1474 292.971 82.8328 294.632C82.7423 295.112 82.6518 295.59 82.5614 296.069C81.6204 301.045 80.6799 306.022 79.74 310.998L77.8324 321.091L77.0483 325.243C76.7709 323.571 76.4853 321.9 76.1918 320.231V320.229C75.563 316.632 74.897 313.041 74.1938 309.457C70.9984 293.162 67.0617 277.037 62.3836 261.082C62.3082 260.824 62.2328 260.567 62.1574 260.311C61.3129 257.451 60.4448 254.598 59.5532 251.752V251.751C58.0015 246.791 56.3769 241.855 54.6795 236.941C53.829 234.479 52.9609 232.023 52.0752 229.573C52.0751 229.569 52.0735 229.565 52.0707 229.561C50.0018 223.842 47.8354 218.158 45.5715 212.511C44.7904 210.563 43.9977 208.618 43.1935 206.678C43.1337 206.54 43.0227 206.429 42.8837 206.37C42.7447 206.311 42.5883 206.308 42.447 206.362C42.3856 206.377 42.3283 206.406 42.2795 206.447C42.2307 206.487 42.1915 206.538 42.1647 206.595C42.138 206.653 42.1244 206.715 42.125 206.779C42.1256 206.842 42.1403 206.905 42.1681 206.962C45.3091 214.541 48.2747 222.188 51.0649 229.905C51.0658 229.906 51.0663 229.907 51.0664 229.908C51.9456 232.337 52.8071 234.773 53.651 237.216C53.6661 237.259 53.6812 237.305 53.6963 237.348C55.3143 242.033 56.8665 246.74 58.3528 251.469C58.6544 252.425 58.9525 253.382 59.247 254.34C60.0357 256.9 60.8058 259.467 61.5572 262.039C65.514 275.588 68.9371 289.278 71.8263 303.108C72.9724 308.588 74.0329 314.085 75.0081 319.599C75.5208 322.488 76.0093 325.383 76.4738 328.282C76.2551 329.44 76.0365 330.598 75.8178 331.755V331.756C74.8588 336.83 73.8992 341.905 72.9392 346.979C71.4103 344.803 69.7186 342.746 67.8785 340.827C67.8785 340.825 67.8785 340.825 67.877 340.825C66.0611 338.929 64.1053 337.173 62.0262 335.57C61.7804 335.38 61.5331 335.193 61.2827 335.006H61.2813C61.1591 334.914 61.0354 334.823 60.9118 334.734C60.5846 334.495 60.2543 334.259 59.9211 334.032C59.719 333.888 59.5139 333.75 59.3089 333.613C59.1143 333.48 58.9198 333.35 58.7223 333.223C58.683 333.196 58.6438 333.171 58.6047 333.147C58.6031 333.145 58.6016 333.144 58.6001 333.144C58.4765 333.062 58.3513 332.982 58.2261 332.902C57.9577 332.732 57.6878 332.563 57.4164 332.397C57.3259 332.341 57.2354 332.287 57.1449 332.233C57.0831 332.195 57.0213 332.157 56.9595 332.121C56.958 332.12 56.9565 332.12 56.955 332.118C56.7046 331.969 56.4518 331.822 56.1964 331.676L56.1949 331.675C56.0713 331.604 55.9492 331.533 55.824 331.464C55.8104 331.456 55.7984 331.449 55.7848 331.441C54.5151 330.729 53.2158 330.074 51.8868 329.475H51.8852C51.451 329.277 51.0152 329.087 50.5733 328.905C49.0714 328.277 47.5409 327.724 45.9816 327.244C45.3272 327.042 45.0467 328.068 45.6981 328.268C46.4521 328.501 47.1991 328.751 47.939 329.019C48.515 329.227 49.086 329.447 49.652 329.678C49.6613 329.681 49.6703 329.685 49.6791 329.689C49.937 329.793 50.1948 329.9 50.4497 330.01C51.2142 330.334 51.9692 330.679 52.7146 331.043C53.1549 331.259 53.5917 331.48 54.025 331.706C54.7639 332.094 55.4922 332.5 56.21 332.923C56.2101 332.925 56.2107 332.926 56.2115 332.926C56.4046 333.038 56.5946 333.154 56.7861 333.272H56.7906C60.569 335.572 64.0343 338.351 67.1004 341.54C67.1019 341.54 67.1019 341.541 67.1034 341.543C69.153 343.672 71.0143 345.975 72.6662 348.425C72.6421 348.553 72.618 348.681 72.5938 348.81C72.1701 351.049 71.7469 353.288 71.3242 355.527C70.1389 361.796 68.9542 368.064 67.7699 374.332C63.8312 395.168 59.7356 415.99 56.6443 436.975C54.6538 450.49 53.0992 464.09 52.3316 477.728C52.22 479.704 52.126 481.679 52.0496 483.655C51.9667 485.746 51.9049 487.838 51.8641 489.931C51.8234 491.927 51.8028 493.925 51.8023 495.923C51.8023 498.015 51.8249 500.106 51.8702 502.198C51.9033 503.819 51.9516 505.44 52.0149 507.061C52.0421 507.741 53.1037 507.745 53.0765 507.061C53.0132 505.447 52.9649 503.834 52.9318 502.22C52.885 500.127 52.8624 498.036 52.8639 495.946C52.8639 493.936 52.8845 491.927 52.9257 489.92C52.9664 487.827 53.0283 485.735 53.1112 483.644C53.1881 481.672 53.2821 479.7 53.3932 477.728C55.2193 445.399 61.4682 413.366 67.4774 381.58C69.0849 373.072 70.6928 364.564 72.3013 356.055C72.6768 354.071 73.0523 352.086 73.4277 350.1C73.4519 349.969 73.4775 349.839 73.5016 349.708C73.6615 349.963 73.8213 350.216 73.9766 350.474C75.2867 352.639 76.4266 354.901 77.3861 357.242C77.389 357.246 77.3911 357.251 77.3921 357.256C77.3923 357.256 77.3925 357.256 77.3926 357.256C77.3927 357.257 77.3928 357.257 77.3928 357.257C77.3928 357.257 77.3927 357.258 77.3926 357.258C77.3925 357.258 77.3923 357.258 77.3921 357.259C77.4751 357.456 77.5535 357.654 77.6319 357.853C77.9169 358.572 78.1843 359.298 78.4341 360.032C78.4602 360.116 78.5076 360.192 78.5718 360.253C78.636 360.314 78.7148 360.357 78.8005 360.379C79.1625 360.471 79.6118 360.201 79.458 359.75C79.2258 359.07 78.9795 358.396 78.7191 357.728V357.726C78.6136 357.458 78.5065 357.192 78.3964 356.925C78.3934 356.915 78.3874 356.906 78.3844 356.897C77.1352 353.861 75.5944 350.954 73.7836 348.215C74.708 343.325 75.6324 338.434 76.5567 333.543V333.542C76.6924 332.824 76.8282 332.109 76.9639 331.391C77.2519 333.255 77.5294 335.12 77.7963 336.986C78.5819 342.442 79.2836 347.909 79.9013 353.388C80.0235 354.467 80.1421 355.548 80.2572 356.63C80.4744 358.661 80.6795 360.692 80.8725 362.723V362.725C80.9735 363.788 81.072 364.851 81.168 365.914C82.2884 378.46 82.972 391.037 83.2188 403.643C83.5445 420.434 83.0841 437.215 81.8375 453.987C81.6807 456.08 81.5118 458.173 81.3309 460.265C81.3203 460.339 81.3288 460.414 81.3554 460.484C81.3821 460.553 81.4261 460.615 81.4832 460.663C80.12 466.333 78.8413 472.021 77.647 477.728C77.2504 479.627 76.8633 481.527 76.4859 483.428C76.4331 483.689 76.3818 483.949 76.3305 484.209C75.9686 486.043 75.6168 487.878 75.275 489.715C74.8723 491.861 74.4823 494.009 74.1048 496.16C73.7384 498.248 73.3835 500.339 73.0402 502.433C72.9784 502.799 72.9196 503.166 72.8593 503.532C72.7507 504.2 73.7731 504.488 73.8831 503.814C73.9585 503.354 74.0339 502.894 74.1093 502.435C74.4547 500.341 74.8115 498.25 75.18 496.161C75.56 494.007 75.9521 491.854 76.3562 489.704C76.7482 487.607 77.1534 485.511 77.5716 483.418C77.9486 481.519 78.3356 479.623 78.7327 477.728C81.6958 463.567 85.1832 449.529 89.1948 435.614C89.8538 433.33 90.5268 431.049 91.214 428.771C91.6965 427.17 92.1866 425.571 92.6842 423.975C92.6857 423.973 92.6842 423.973 92.6842 423.973C92.9798 423.023 93.2778 422.074 93.5784 421.126C94.0308 419.698 94.4882 418.272 94.9506 416.847C95.1633 416.195 94.1379 415.916 93.9268 416.565C93.1803 418.861 92.4485 421.162 91.7312 423.468C91.4658 424.318 91.2024 425.17 90.941 426.024C90.6741 426.897 90.4092 427.77 90.1463 428.643C87.4863 437.477 85.0354 446.369 82.7936 455.32C83.9607 440.146 84.4845 424.941 84.3649 409.706C84.2261 392.836 83.2998 375.995 81.5857 359.186C81.3837 357.204 81.171 355.224 80.9479 353.244V353.241C80.782 351.783 80.6106 350.326 80.4337 348.87V348.867C79.6013 341.997 78.6387 335.143 77.5459 328.306C77.9682 326.071 78.3904 323.836 78.8126 321.6C80.3477 313.487 81.8813 305.375 83.4134 297.263C83.5053 296.781 83.5958 296.3 83.6863 295.817C84.003 294.147 84.3186 292.476 84.6333 290.805C86.1895 282.576 87.7447 274.348 89.2989 266.12C89.3667 265.767 89.4331 265.416 89.4994 265.063C89.5431 265.505 89.5869 265.948 89.6291 266.39C90.3891 274.141 91.1029 281.896 91.7704 289.656C92.3736 296.66 92.94 303.668 93.4698 310.68C93.5286 311.465 93.5875 312.251 93.6463 313.037C94.0821 318.898 94.4917 324.761 94.8753 330.627C95.2884 336.954 95.6714 343.283 96.0243 349.613C96.258 353.817 96.4787 358.022 96.6863 362.227C97.4644 377.993 98.055 393.767 98.4581 409.55C98.1927 411.403 97.9349 413.257 97.6846 415.112C97.573 415.936 97.4629 416.759 97.3543 417.581V417.582C97.1824 418.882 97.014 420.183 96.8491 421.483C96.5838 423.569 96.3264 425.655 96.0771 427.741C94.0866 444.368 92.544 461.047 91.0752 477.728C91.0164 478.395 90.9576 479.062 90.8988 479.729L90.5867 483.299C90.4811 484.496 90.3765 485.694 90.273 486.892C90.2142 487.572 91.2758 487.569 91.3346 486.892C91.4402 485.69 91.5447 484.489 91.6482 483.288C91.8111 481.435 91.974 479.582 92.1368 477.728C93.5664 461.506 95.0637 445.288 96.9758 429.114C97.0452 428.521 97.1161 427.929 97.1885 427.337C97.6378 423.59 98.1133 419.846 98.6149 416.105C98.6934 419.639 98.7627 423.173 98.8231 426.705V426.707C98.9693 435.296 99.0598 443.886 99.0945 452.475C99.1005 454.096 99.104 455.717 99.105 457.338C98.0254 464.124 97.0231 470.92 96.0982 477.728C95.8464 479.57 95.6011 481.411 95.3623 483.253C95.3593 483.281 95.3548 483.309 95.3518 483.336C95.2643 484.012 96.3274 484.004 96.4134 483.336C96.4179 483.306 96.4209 483.275 96.4254 483.244C96.6637 481.405 96.9085 479.566 97.1598 477.728C97.7735 473.223 98.4214 468.721 99.1035 464.223C99.0945 468.724 99.0703 473.226 99.0312 477.728C99.0161 479.559 98.9975 481.39 98.9753 483.22C98.9527 485.312 98.9261 487.404 98.8954 489.496C98.8638 491.633 98.8291 493.769 98.7914 495.905C98.7552 497.998 98.7145 500.091 98.6692 502.183C98.6135 504.903 98.5516 507.624 98.4838 510.345C98.4823 510.383 98.4823 510.422 98.4807 510.46C98.474 510.55 98.4936 510.64 98.5373 510.72C98.5809 510.799 98.6467 510.864 98.7265 510.906C98.8074 510.953 98.899 510.978 98.9924 510.979C99.0858 510.98 99.1779 510.957 99.2599 510.912C99.3418 510.867 99.4108 510.802 99.4603 510.723C99.5098 510.644 99.538 510.553 99.5423 510.46C99.6117 507.693 99.675 504.926 99.7323 502.16C99.7761 500.067 99.8168 497.974 99.8545 495.882C99.8922 493.75 99.9264 491.618 99.957 489.487C99.9872 487.396 100.014 485.304 100.038 483.211C100.06 481.384 100.078 479.556 100.094 477.728C100.152 470.943 100.175 464.157 100.165 457.371C101.96 446.107 103.968 434.879 106.191 423.688C106.759 420.825 107.341 417.964 107.937 415.108C108.723 411.34 109.534 407.577 110.371 403.819C110.02 409.919 109.667 416.019 109.314 422.118V422.12C108.693 432.87 108.072 443.62 107.452 454.369C107.002 462.156 106.552 469.942 106.102 477.728C105.998 479.538 105.893 481.348 105.788 483.158C105.668 485.251 105.547 487.344 105.426 489.436C105.304 491.543 105.183 493.649 105.061 495.754C104.939 497.849 104.818 499.943 104.698 502.038C104.488 505.674 104.278 509.31 104.068 512.946C104.028 513.63 105.09 513.626 105.129 512.946C105.34 509.3 105.551 505.654 105.761 502.009C105.882 499.915 106.003 497.82 106.125 495.726C106.245 493.627 106.366 491.527 106.488 489.427C106.609 487.334 106.729 485.241 106.85 483.148C106.955 481.341 107.06 479.535 107.163 477.728C108.246 458.992 109.328 440.255 110.41 421.518C110.66 417.202 110.91 412.887 111.158 408.571L111.799 397.498C112.937 392.535 114.118 387.584 115.341 382.643C115.423 382.312 115.504 381.98 115.587 381.648C115.78 380.868 115.975 380.089 116.172 379.311C116.275 378.899 116.378 378.487 116.483 378.076H116.484C116.531 377.886 116.579 377.694 116.627 377.504C116.667 377.755 116.704 378.003 116.742 378.254C116.777 378.475 116.81 378.697 116.843 378.919C117.366 382.379 117.837 385.848 118.254 389.325C118.713 393.151 119.109 396.983 119.443 400.823V400.825L119.533 401.901C119.891 406.176 120.169 410.457 120.369 414.745V414.746C121.065 429.669 120.803 444.621 119.583 459.511C119.082 465.6 118.419 471.672 117.592 477.728C117.351 479.506 117.095 481.283 116.825 483.057C116.505 485.155 116.166 487.249 115.809 489.341C115.457 491.381 115.089 493.419 114.703 495.454C114.477 496.644 114.245 497.833 114.007 499.021C113.872 499.687 114.895 499.974 115.03 499.302C115.29 498.009 115.542 496.713 115.787 495.415C116.17 493.391 116.535 491.364 116.881 489.332C117.238 487.24 117.575 485.145 117.893 483.047C118.161 481.277 118.415 479.504 118.656 477.728C120.851 461.547 121.903 445.232 121.804 428.903C121.774 423.898 121.636 418.894 121.389 413.892C121.192 409.813 120.921 405.739 120.577 401.668C120.528 401.099 120.479 400.532 120.429 399.965C119.779 392.67 118.901 385.399 117.796 378.154C117.728 377.721 117.662 377.289 117.592 376.856C117.493 376.212 117.391 375.569 117.286 374.927C117.396 374.499 117.506 374.069 117.618 373.641C117.721 373.243 117.824 372.845 117.927 372.448C119.669 365.745 121.487 359.065 123.381 352.406V352.404C123.472 352.082 123.564 351.762 123.656 351.441C123.964 350.366 124.273 349.292 124.583 348.218C124.975 346.869 125.37 345.52 125.769 344.173C125.775 344.143 125.784 344.114 125.794 344.085C125.984 343.438 126.176 342.792 126.369 342.146C126.4 342.036 126.434 341.926 126.467 341.816C126.786 340.741 127.109 339.666 127.433 338.592C127.8 337.376 128.17 336.161 128.543 334.947C128.753 334.259 128.964 333.573 129.178 332.887V332.886C129.383 332.216 129.591 331.55 129.801 330.882C129.918 330.5 130.038 330.12 130.157 329.739C130.17 329.695 130.184 329.651 130.197 329.609C130.336 329.17 130.473 328.73 130.612 328.291V328.289C130.977 327.131 131.344 325.975 131.714 324.82C131.855 324.379 131.995 323.94 132.137 323.502C132.554 322.2 132.975 320.9 133.399 319.601C133.667 318.777 133.937 317.955 134.208 317.135C134.451 316.396 134.696 315.658 134.941 314.92V314.919C135.336 313.726 135.735 312.534 136.136 311.345C136.354 310.696 135.329 310.417 135.112 311.063C134.592 312.61 134.075 314.157 133.563 315.706V315.707C133.53 315.801 133.5 315.894 133.47 315.988C132.606 318.602 131.754 321.221 130.914 323.843C130.912 323.847 130.911 323.851 130.909 323.855C130.897 323.892 130.885 323.928 130.874 323.966C130.782 324.251 130.69 324.538 130.6 324.823C130.39 325.477 130.182 326.132 129.976 326.788C129.81 327.311 129.644 327.835 129.48 328.36C129.455 328.434 129.433 328.51 129.409 328.585C128.72 330.775 128.04 332.967 127.37 335.163C127.102 336.033 126.836 336.903 126.574 337.774C126.455 338.168 126.336 338.561 126.218 338.954C126.118 339.284 126.019 339.613 125.921 339.943C125.805 340.33 125.689 340.715 125.574 341.102V341.104C125.562 341.145 125.55 341.184 125.538 341.225C125.462 341.475 125.389 341.724 125.313 341.976C125.107 342.672 124.9 343.369 124.695 344.067C123.95 346.594 123.216 349.125 122.493 351.658C122.475 351.723 122.456 351.788 122.437 351.853V351.854C121.762 354.225 121.096 356.598 120.441 358.973C120.357 359.278 120.273 359.582 120.189 359.885C119.967 360.685 119.752 361.484 119.533 362.285C119.53 362.289 119.529 362.293 119.529 362.298C119.156 363.664 118.787 365.032 118.422 366.401C118.342 366.706 118.26 367.009 118.179 367.314C117.814 368.686 117.453 370.06 117.095 371.435C117.025 371.699 116.957 371.963 116.888 372.226C116.878 372.264 116.869 372.303 116.858 372.341L116.845 372.264C116.781 371.89 116.718 371.519 116.651 371.145V371.144C116.641 371.079 116.63 371.014 116.618 370.949C116.529 370.437 116.439 369.924 116.347 369.413C116.314 369.224 116.281 369.036 116.246 368.849C116.241 368.822 116.237 368.796 116.231 368.77C116.189 368.524 116.143 368.28 116.097 368.036C116.032 367.668 115.964 367.301 115.894 366.935C115.656 365.649 115.409 364.365 115.154 363.084V363.082C115.086 362.729 115.015 362.377 114.944 362.025C114.714 360.875 114.477 359.726 114.234 358.578C114.186 358.349 114.135 358.121 114.086 357.892C114.364 353.082 114.642 348.271 114.92 343.461C115.058 341.08 115.195 338.699 115.332 336.318C116.274 333.278 117.259 330.252 118.285 327.24C118.606 326.293 118.933 325.347 119.265 324.403C119.265 324.403 119.266 324.402 119.266 324.401C119.266 324.401 119.266 324.4 119.266 324.399C119.685 323.196 120.114 321.995 120.553 320.796C126.326 304.94 133.337 289.516 141.824 274.923C147.604 264.937 154.125 255.399 161.33 246.387C161.376 246.33 161.421 246.274 161.466 246.218C161.854 245.737 162.243 245.257 162.635 244.779C165.479 241.304 168.436 237.923 171.506 234.637C172.922 233.122 174.362 231.629 175.825 230.16C176.306 229.674 175.556 228.922 175.074 229.409V229.409ZM111.336 387.098C111.14 390.512 110.943 393.925 110.745 397.338C108.694 406.274 106.78 415.24 105.004 424.234C103.639 431.137 102.356 438.056 101.153 444.989C100.809 446.969 100.473 448.95 100.146 450.932C100.106 442.72 100.017 434.509 99.8771 426.298C99.8062 422.168 99.7223 418.039 99.6253 413.911C99.6253 413.911 99.6268 413.911 99.6253 413.909C99.6102 413.24 99.5946 412.569 99.5785 411.898L99.5197 409.563C101.331 396.91 103.483 384.305 106.147 371.803C106.402 370.607 106.662 369.412 106.927 368.217C107.384 366.159 107.855 364.104 108.341 362.052V362.049C108.531 361.238 108.725 360.428 108.922 359.62C109.059 359.055 109.198 358.489 109.338 357.924C109.964 355.392 110.614 352.866 111.288 350.348C111.894 352.887 112.471 355.432 113.019 357.984C112.975 358.751 112.931 359.52 112.886 360.288C112.856 360.789 112.827 361.291 112.799 361.791C112.496 367.027 112.193 372.263 111.891 377.498C111.879 377.711 111.867 377.923 111.855 378.138C111.761 379.748 111.668 381.358 111.576 382.968V382.969C111.496 384.344 111.416 385.72 111.336 387.096V387.098ZM112.613 383.397C112.625 383.197 112.636 382.996 112.648 382.796C112.666 382.479 112.684 382.161 112.702 381.844C112.755 380.927 112.808 380.01 112.862 379.094V379.092C113.162 373.891 113.462 368.691 113.762 363.492C113.774 363.295 113.785 363.096 113.797 362.898V362.897C113.808 362.723 113.817 362.548 113.827 362.375V362.374C113.835 362.242 113.842 362.111 113.85 361.98C113.866 362.066 113.884 362.15 113.901 362.236C114.011 362.779 114.119 363.323 114.225 363.866C114.691 366.228 115.131 368.595 115.546 370.967C115.579 371.148 115.611 371.328 115.641 371.509V371.51C115.676 371.706 115.711 371.904 115.744 372.101V372.103C115.813 372.504 115.882 372.908 115.95 373.311V373.312C116.036 373.829 116.122 374.347 116.207 374.864C116.011 375.633 115.81 376.402 115.616 377.171C115.599 377.239 115.581 377.307 115.564 377.375C115.542 377.465 115.517 377.557 115.495 377.648C114.346 382.183 113.233 386.728 112.158 391.282C112.31 388.654 112.462 386.026 112.613 383.397V383.397ZM113.45 350.526L113.245 354.063C112.803 352.107 112.344 350.156 111.867 348.208C112.327 346.53 112.798 344.855 113.281 343.185V343.183C113.524 342.339 113.77 341.496 114.02 340.655C113.969 341.537 113.918 342.418 113.868 343.3C113.728 345.708 113.588 348.116 113.45 350.526V350.526ZM108.48 359.528C108.461 359.519 108.442 359.508 108.424 359.496C108.412 359.491 108.401 359.484 108.391 359.477C108.374 359.466 108.358 359.454 108.343 359.442C108.336 359.438 108.329 359.432 108.323 359.427C108.316 359.422 108.31 359.416 108.303 359.41C108.262 359.375 108.224 359.336 108.19 359.293C108.174 359.273 108.158 359.251 108.144 359.229C108.129 359.208 108.115 359.185 108.103 359.162C108.091 359.141 108.081 359.119 108.071 359.097C108.064 359.083 108.058 359.068 108.053 359.053C108.05 359.045 108.047 359.036 108.044 359.027C108.039 359.016 108.036 359.004 108.034 358.991C108.028 358.979 108.024 358.966 108.022 358.952C108.015 358.932 108.011 358.912 108.008 358.892C108.008 358.89 108.006 358.887 108.006 358.886C107.966 359.045 107.928 359.205 107.89 359.367V359.37L108.341 362.049C108.531 361.238 108.725 360.428 108.922 359.62C108.769 359.629 108.617 359.597 108.48 359.528V359.528ZM116.347 369.413C116.314 369.224 116.281 369.036 116.246 368.849C116.161 369.103 116.077 369.359 115.993 369.615C115.843 370.066 115.694 370.516 115.546 370.967C115.579 371.148 115.611 371.328 115.641 371.509C115.655 371.449 115.676 371.392 115.703 371.337L115.73 371.287C115.748 371.256 115.769 371.226 115.792 371.198C115.804 371.184 115.816 371.171 115.828 371.157C115.84 371.144 115.852 371.131 115.866 371.12C115.879 371.106 115.894 371.093 115.91 371.082C115.92 371.073 115.929 371.065 115.94 371.058C115.999 371.014 116.064 370.98 116.133 370.957C116.149 370.95 116.166 370.944 116.183 370.94C116.275 370.913 116.373 370.905 116.469 370.916C116.476 370.916 116.482 370.917 116.489 370.919C116.508 370.921 116.528 370.925 116.547 370.93C116.572 370.934 116.595 370.94 116.618 370.949C116.529 370.437 116.439 369.924 116.347 369.413V369.413ZM108.48 359.528C108.461 359.519 108.442 359.508 108.424 359.496C108.412 359.491 108.401 359.484 108.391 359.477C108.374 359.466 108.358 359.454 108.343 359.442C108.336 359.438 108.329 359.432 108.323 359.427C108.316 359.422 108.31 359.416 108.303 359.41C108.262 359.375 108.224 359.336 108.19 359.293C108.174 359.272 108.159 359.251 108.144 359.229C108.129 359.208 108.115 359.185 108.103 359.162C108.091 359.141 108.081 359.119 108.071 359.097C108.064 359.083 108.058 359.068 108.053 359.053C108.05 359.045 108.047 359.036 108.044 359.027C108.039 359.016 108.036 359.004 108.034 358.991C108.028 358.979 108.024 358.966 108.022 358.952C108.015 358.932 108.011 358.912 108.008 358.892C108.008 358.89 108.006 358.887 108.006 358.886C107.966 359.045 107.928 359.205 107.89 359.367V359.37L108.341 362.049C108.531 361.238 108.725 360.428 108.922 359.62C108.769 359.629 108.617 359.597 108.48 359.528V359.528ZM116.347 369.413C116.314 369.224 116.281 369.036 116.246 368.849C116.161 369.103 116.077 369.359 115.993 369.615C115.843 370.066 115.694 370.516 115.546 370.967C115.579 371.148 115.611 371.328 115.641 371.509C115.655 371.449 115.676 371.392 115.703 371.337L115.73 371.287C115.748 371.256 115.769 371.226 115.792 371.198C115.804 371.184 115.816 371.171 115.828 371.157C115.84 371.144 115.852 371.131 115.866 371.12C115.879 371.106 115.894 371.093 115.91 371.082C115.92 371.073 115.929 371.065 115.94 371.058C115.999 371.014 116.064 370.98 116.133 370.957C116.149 370.95 116.166 370.944 116.183 370.94C116.275 370.913 116.373 370.905 116.469 370.916C116.476 370.916 116.482 370.917 116.489 370.919C116.508 370.921 116.528 370.925 116.547 370.93C116.572 370.934 116.595 370.94 116.618 370.949C116.529 370.437 116.439 369.924 116.347 369.413V369.413Z" fill="#18442F"/>
<path d="M80.2576 356.63C79.9138 357.164 79.3831 357.551 78.7692 357.714C78.7527 357.719 78.7361 357.723 78.7195 357.726V357.728C78.3786 357.815 78.0278 357.857 77.676 357.853H77.6322C77.4799 357.851 77.3231 357.842 77.1572 357.827C75.7443 357.697 74.069 356.983 72.3017 356.055C71.979 355.886 71.6532 355.708 71.3245 355.528C68.3523 353.885 65.2143 351.851 62.684 351.124C55.1156 348.95 47.2426 347.95 39.6984 345.694C39.629 345.675 39.5627 345.653 39.4948 345.634C39.05 345.5 38.6096 345.361 38.1693 345.218C34.257 343.94 30.4678 342.312 26.8477 340.355C26.5566 340.198 26.2686 340.039 25.9806 339.877C25.8524 339.809 25.7258 339.738 25.5976 339.665C25.3985 339.552 25.2 339.438 25.002 339.323V338.845L25.9278 337.824L26.2566 337.462L26.8748 336.779L27.4252 336.172C27.4267 336.172 27.4267 336.172 27.4267 336.17L27.579 336.001C27.579 336 27.5805 336 27.5805 335.998L27.8957 335.65L28.6497 334.82L29.2287 334.181L30.1501 333.163L30.3687 332.923L31.0473 332.172L31.1785 332.029L32.991 330.028L33.0966 329.912L33.8264 329.107L32.6397 329.059L31.6475 329.019L30.7336 328.982L30.5904 328.976L28.6437 328.897L25.5493 328.771C25.4022 328.765 25.2631 328.702 25.161 328.596C25.059 328.49 25.002 328.349 25.002 328.202V302.507L28.897 308.679L28.0209 304.577L27.8384 303.73L26.3908 296.945C29.9402 297.194 33.4588 297.773 36.9011 298.673C36.9931 298.698 37.0851 298.722 37.1771 298.746C37.6415 298.868 38.1055 298.997 38.5689 299.132C42.0381 300.145 45.4081 301.472 48.6375 303.095C48.7762 303.163 48.9134 303.232 49.0507 303.303C49.0657 303.331 49.0823 303.36 49.0989 303.389C50.7607 306.302 52.4601 309.304 54.0736 312.165C54.0736 312.165 54.0737 312.165 54.0737 312.166C54.0738 312.166 54.0739 312.166 54.0741 312.166C54.0742 312.166 54.0744 312.166 54.0745 312.166C54.0747 312.166 54.0749 312.167 54.0751 312.167C54.2003 312.393 54.3285 312.616 54.4536 312.838C55.4172 314.548 56.3461 316.199 57.2132 317.744C57.3911 318.061 57.569 318.375 57.7409 318.684C60.4145 323.444 62.4065 327.018 62.8378 327.795C62.8378 327.795 62.8378 327.798 62.8393 327.798C62.8951 327.899 62.9252 327.952 62.9252 327.952C62.9388 327.846 62.9434 327.608 62.9434 327.257V327.255C62.9479 327.02 62.9448 326.733 62.9418 326.402C62.9388 326.088 62.9343 325.735 62.9283 325.341C62.9252 325.198 62.9222 325.049 62.9207 324.895C62.9117 324.441 62.9026 323.945 62.8906 323.41C62.886 323.23 62.883 323.045 62.877 322.855C62.8695 322.481 62.8589 322.09 62.8499 321.683C62.8393 321.244 62.8277 320.788 62.8152 320.315C62.8076 319.969 62.7971 319.614 62.788 319.252C62.7714 318.655 62.7538 318.039 62.7352 317.405C62.7262 317.045 62.7156 316.681 62.7051 316.31C62.6734 315.193 62.6387 314.03 62.6026 312.838C63.2796 313.475 63.9401 314.129 64.584 314.799C64.685 314.9 64.783 315.004 64.8811 315.109C65.5958 315.859 66.2885 316.632 66.959 317.425C70.5982 321.742 73.5832 326.57 75.8182 331.755V331.756C76.0745 332.347 76.3208 332.942 76.5571 333.542V333.543C77.0049 334.677 77.4181 335.825 77.7966 336.986C78.8585 340.242 79.6385 343.584 80.1279 346.974C80.2123 347.556 80.3224 348.197 80.434 348.867V348.87C80.7073 350.313 80.8791 351.774 80.9482 353.241V353.244C80.9769 354.579 80.811 355.785 80.2576 356.63Z" fill="#35684F"/>
<path d="M160.054 335.864C162.334 334.652 164.544 333.313 166.674 331.853C157.238 330.091 149.356 328.58 148.523 328.299C148.523 328.299 166.015 323.019 181.606 318.138C187.775 310.658 192.369 302.008 195.113 292.708L180.434 292.645L196.566 286.793C197.838 280.581 198.527 274.238 200.298 268.15C202.326 261.176 206.069 254.299 212.327 250.612C194.547 250.185 176.848 255.64 161.99 265.387L154.729 293.211L145.088 279.704C140.551 284.619 136.617 290.058 133.37 295.906C128.706 304.337 125.457 313.486 120.885 321.967C118.265 326.826 110.587 332.817 109.1 337.521C107.06 343.974 116.151 343.533 121.298 343.903C134.622 344.859 148.238 342.132 160.054 335.864Z" fill="#35684F"/>
<path d="M164.46 213.544C165.21 212.044 166.045 210.587 166.96 209.181C168.253 215.281 169.359 220.376 169.554 220.913C169.554 220.913 172.708 209.47 175.631 199.267C180.392 195.143 185.937 192.023 191.934 190.094L192.206 199.626L195.753 189.057C199.767 188.133 203.875 187.585 207.801 186.339C212.298 184.912 216.706 182.372 219.002 178.25C219.559 189.791 216.296 201.371 210.2 211.174L192.244 216.329L201.169 222.377C198.048 225.401 194.578 228.042 190.831 230.243C185.429 233.405 179.538 235.659 174.102 238.763C170.988 240.541 167.219 245.622 164.187 246.662C160.028 248.088 160.171 242.177 159.85 238.84C159.019 230.202 160.575 221.316 164.46 213.544Z" fill="#4DB27C"/>
<path d="M86.1962 173.058C86.167 171.381 86.2324 169.703 86.392 168.034C90.3629 172.842 93.702 176.846 94.1238 177.231C94.1238 177.231 91.6203 165.628 89.4878 155.231C91.7981 149.371 95.2682 144.038 99.6899 139.552L104.345 147.875L102.595 136.865C105.725 134.187 109.113 131.8 112.016 128.877C115.341 125.53 118.072 121.238 118.198 116.522C124.036 126.492 126.505 138.268 125.641 149.779L112.112 162.662L122.823 163.891C121.457 168.016 119.604 171.963 117.303 175.649C113.978 180.953 109.801 185.678 106.42 190.946C104.483 193.964 103.494 200.213 101.289 202.538C98.2629 205.728 95.6528 200.423 93.8232 197.614C89.0869 190.342 86.3516 181.746 86.1962 173.058Z" fill="#4DB27C"/>
<path d="M112.648 247.96C113 245.402 113.207 242.827 113.269 240.245C106.319 246.866 100.482 252.374 99.7671 252.885C99.7671 252.885 105.719 235.61 110.884 220.112C108.426 210.732 104.1 201.945 98.1641 194.278L89.5242 206.146L94.2162 189.639C89.9226 184.973 85.1826 180.703 81.2814 175.705C76.8127 169.98 73.4254 162.92 74.0964 155.688C63.3478 169.858 57.416 187.402 56.627 205.154L74.9434 227.323L58.3483 227.238C59.6796 233.793 61.7887 240.166 64.6308 246.221C68.7404 254.936 74.2586 262.924 78.461 271.595C80.8685 276.562 81.2342 286.294 84.1793 290.252C88.2194 295.682 93.1806 288.051 96.4916 284.093C105.063 273.847 110.819 261.21 112.648 247.96Z" fill="#35684F"/>
<path d="M160.825 192.295C160.811 193.197 160.782 194.098 160.738 195C160.666 196.515 160.552 198.027 160.395 199.536C160.393 199.536 160.393 199.536 160.395 199.537C160.374 199.745 160.352 199.951 160.329 200.158V200.159C160.307 200.36 160.284 200.559 160.261 200.758L159.223 201.667L158.543 202.26L157.771 202.935L155.474 204.944L151.26 208.63L147.66 211.776L147.165 212.21H147.163L146.459 212.827L146.088 213.151L143.875 215.085L143.065 215.794L141.697 216.991L140.566 217.979L141.674 218.155L146.166 218.863L146.719 218.95L155.48 220.334C155.155 221.184 154.816 222.029 154.463 222.869C154.393 223.04 154.32 223.208 154.248 223.378C153.879 224.239 153.494 225.093 153.094 225.94C153.092 225.946 153.088 225.951 153.086 225.956C152.972 226.198 152.857 226.44 152.739 226.681C152.678 226.808 152.615 226.935 152.554 227.062C152.28 227.618 151.999 228.171 151.711 228.721C151.428 229.266 151.137 229.806 150.838 230.343V230.345C150.354 231.22 149.852 232.084 149.332 232.939C149.219 233.124 149.107 233.308 148.994 233.493C148.755 233.876 148.515 234.258 148.269 234.637C148.173 234.787 148.076 234.936 147.977 235.087C147.739 235.452 147.495 235.816 147.248 236.178C147.185 236.272 147.122 236.365 147.057 236.458C146.708 236.967 146.352 237.472 145.991 237.973C145.708 238.367 145.421 238.759 145.132 239.147C144.93 239.42 144.727 239.69 144.519 239.961C144.279 240.282 144.033 240.603 143.786 240.922C142.341 242.793 140.846 244.629 139.344 246.459C139.006 246.872 138.668 247.284 138.329 247.696C135.776 250.807 133.236 253.926 130.921 257.216C128.032 261.323 126.278 270.007 123.053 273.129C118.631 277.414 115.294 269.834 112.901 265.797C106.706 255.34 103.389 243.15 103.689 230.987C103.747 228.638 103.938 226.295 104.26 223.968C106.946 227.516 109.413 230.761 111.263 233.165C111.619 233.627 111.952 234.057 112.259 234.454C112.55 234.83 112.817 235.174 113.061 235.485L113.063 235.486C113.184 235.644 113.301 235.791 113.41 235.931C113.998 236.675 114.389 237.152 114.533 237.295C114.533 237.295 114.443 236.777 114.283 235.845C114.222 235.483 114.149 235.058 114.066 234.576C113.172 229.318 111.134 217.292 109.352 206.238C112.932 198.177 118.104 190.921 124.557 184.907L130.577 196.829L129.494 187.476L129.288 185.689L128.783 181.32C132.476 178.423 136.396 175.804 140.012 172.817C140.432 172.471 140.846 172.12 141.256 171.763V171.761C141.654 171.415 142.048 171.063 142.438 170.704C145.595 167.785 148.424 164.291 150.139 160.388C150.358 159.892 150.558 159.389 150.74 158.881C151.33 157.239 151.693 155.524 151.821 153.784C152.855 155.736 153.8 157.729 154.655 159.763C154.818 160.15 154.976 160.535 155.134 160.925V160.926C155.383 161.548 155.624 162.173 155.858 162.801C156.166 163.633 156.46 164.47 156.74 165.313C156.838 165.607 156.935 165.901 157.027 166.197C157.326 167.131 157.607 168.07 157.869 169.013C158.095 169.82 158.307 170.63 158.504 171.442C158.631 171.96 158.753 172.482 158.871 173.004C159.006 173.613 159.134 174.224 159.257 174.836C159.325 175.175 159.391 175.514 159.454 175.854C159.454 175.854 159.456 175.854 159.454 175.856C159.805 177.745 160.089 179.646 160.306 181.557C160.375 182.164 160.436 182.774 160.492 183.383C160.612 184.694 160.7 186.007 160.757 187.324C160.781 187.853 160.799 188.383 160.811 188.912C160.84 190.04 160.845 191.167 160.825 192.295Z" fill="#558D71"/>
<path d="M58.8357 227.242C58.7453 227.565 58.6503 227.888 58.5537 228.209C58.4211 228.646 58.2828 229.081 58.1391 229.513C57.3414 231.914 56.4803 235.678 54.6798 236.941C54.3892 237.153 54.0521 237.293 53.6967 237.348C53.095 237.44 52.4058 237.284 51.6127 236.79C48.6345 234.943 45.8569 228.61 42.9721 225.957C37.9371 221.325 32.21 217.489 27.2232 212.804L27.2003 212.782C26.5034 212.121 25.9489 211.325 25.5709 210.443C25.1928 209.56 24.9992 208.609 25.002 207.649V199.229L29.1096 197.632C27.8653 196.945 26.8279 195.937 26.1055 194.713C25.383 193.489 25.002 192.093 25.002 190.672V164.531C27.3348 165.605 29.7068 166.6 32.0169 167.719L33.2203 179.844L35.8335 169.755C41.7532 173.271 46.9013 177.947 50.9688 183.503C51.5976 195.085 52.1676 208.046 52.1676 208.046C52.4888 207.551 54.6723 202.905 57.3323 197.169C57.4846 196.842 57.6379 196.512 57.7922 196.178C58.4241 197.9 58.9583 199.655 59.3922 201.437C60.079 204.27 60.513 207.159 60.689 210.07C61.0368 215.857 60.4103 221.662 58.8357 227.242V227.242Z" fill="#558D71"/>
<path d="M109.002 291.314C107.928 288.989 106.723 286.727 105.394 284.538C103.132 293.785 101.203 301.508 100.879 302.317C100.879 302.317 96.6096 284.706 92.632 268.999C85.5623 262.48 77.2489 257.456 68.1903 254.228L67.3226 268.761L62.4116 252.465C56.3297 250.865 50.087 249.834 44.1552 247.747C37.3605 245.356 30.7553 241.272 27.4472 234.873C26.0496 252.456 30.4806 270.282 39.3175 285.53L66.4731 294.247L52.5682 303.053C57.1864 307.816 62.3568 312.01 67.9694 315.546C76.0634 320.627 84.9449 324.346 93.0927 329.34C97.7603 332.2 103.272 340.133 107.849 341.863C114.127 344.237 114.189 335.21 114.837 330.134C116.515 316.991 114.562 303.358 109.002 291.314Z" fill="#558D71"/>
<path d="M144.656 363.238C144.652 364.009 144.635 364.779 144.604 365.549C144.597 365.731 144.589 365.916 144.579 366.099C144.505 367.664 144.376 369.225 144.191 370.783C144.039 372.072 143.851 373.355 143.627 374.632C143.532 375.174 143.43 375.713 143.322 376.251C143.186 376.936 143.038 377.618 142.879 378.297C142.764 378.791 142.644 379.286 142.519 379.777C142.429 380.129 142.337 380.479 142.241 380.828C141.838 381.185 141.433 381.542 141.027 381.902C140.76 382.14 140.493 382.375 140.226 382.613H140.224C139.22 383.501 138.211 384.39 137.207 385.274C136.814 385.621 136.422 385.967 136.029 386.312C126.546 394.658 117.808 402.243 117.808 402.243C118.629 402.164 125.961 400.429 134.721 398.314C134.403 398.832 134.079 399.346 133.749 399.855C133.604 400.081 133.455 400.304 133.306 400.526C132.447 401.813 131.543 403.069 130.592 404.292C122.88 414.202 112.265 421.769 100.485 426.07C95.9338 427.732 88.3166 431.602 87.5852 425.29C87.051 420.69 91.3248 412.609 91.703 407.44C92.3592 398.42 91.6277 389.334 92.3825 380.32C92.9162 374.064 94.1957 367.893 96.1937 361.94L109.643 369.804L108.8 364.794L108.519 363.112L105.17 343.183C111.205 333.708 119.053 325.519 128.261 319.086C128.389 318.999 128.514 318.912 128.642 318.826C129.497 318.237 130.364 317.667 131.243 317.114C131.436 316.992 131.632 316.87 131.827 316.75C132.309 316.45 132.796 316.156 133.286 315.868C133.661 315.647 134.038 315.429 134.418 315.213C134.687 315.061 134.957 314.91 135.228 314.762C135.229 314.762 135.23 314.762 135.231 314.761C135.232 314.761 135.233 314.76 135.233 314.76C135.339 314.699 135.447 314.641 135.552 314.582C137.845 313.331 140.199 312.197 142.607 311.185C141.569 312.66 140.738 314.271 140.138 315.972C139.961 316.461 139.803 316.958 139.661 317.461C139.274 318.841 139.001 320.251 138.846 321.676V321.678C138.785 322.207 138.739 322.737 138.708 323.27C138.695 323.467 138.684 323.664 138.675 323.859C138.659 324.25 138.648 324.643 138.647 325.034C138.643 325.475 138.648 325.916 138.661 326.357C138.682 327.176 138.734 327.993 138.81 328.805C138.865 329.428 138.935 330.045 139.019 330.657C139.027 330.715 139.036 330.772 139.043 330.829C139.138 331.512 139.246 332.193 139.367 332.871C139.432 333.232 139.499 333.591 139.568 333.949C139.667 334.451 139.769 334.951 139.876 335.449C140.077 336.376 140.29 337.3 140.516 338.223C140.674 338.873 140.837 339.524 141.004 340.175C141.144 340.727 141.285 341.278 141.429 341.829C141.493 342.079 141.556 342.328 141.622 342.577C141.943 343.826 142.264 345.076 142.565 346.329C142.673 346.772 142.779 347.213 142.877 347.656C142.924 347.848 142.967 348.039 143.01 348.231L142.587 348.642L141.382 349.809L141.011 350.167L140.056 351.094L139.867 351.277L139.767 351.374C139.767 351.374 139.767 351.374 139.767 351.374C139.767 351.375 139.767 351.375 139.766 351.375C139.766 351.375 139.766 351.375 139.766 351.375C139.766 351.375 139.765 351.376 139.765 351.376L139.285 351.842L138.777 352.333L135.94 355.083L133.095 357.842L132.926 358.005L131.877 359.021L131.546 359.34C131.545 359.34 131.545 359.341 131.545 359.341C131.545 359.341 131.545 359.341 131.544 359.341C131.544 359.341 131.544 359.341 131.544 359.342C131.544 359.342 131.544 359.342 131.544 359.342L131.442 359.443L131.815 359.276C131.815 359.275 131.816 359.275 131.817 359.274C131.818 359.274 131.819 359.274 131.82 359.274L132.238 359.09L132.741 358.865C132.743 358.865 132.744 358.865 132.745 358.864L134.997 357.867L136.506 357.196L136.592 357.159L137.739 356.65L138.164 356.461L139.658 355.8L139.663 355.798L141.791 354.853L142.252 354.649L144.039 353.857C144.059 354.005 144.08 354.152 144.098 354.301C144.209 355.144 144.304 355.989 144.381 356.838C144.426 357.32 144.465 357.802 144.498 358.285C144.503 358.344 144.507 358.403 144.51 358.46C144.584 359.559 144.63 360.659 144.649 361.759C144.656 362.25 144.659 362.743 144.656 363.238Z" fill="#4DB27C"/>
<path d="M54.0069 236.586C50.3993 222.489 45.2465 208.833 38.6421 195.867C38.3319 195.258 37.4154 195.794 37.7251 196.403C44.2848 209.289 49.4018 222.859 52.9829 236.868C53.1521 237.53 54.1766 237.249 54.0069 236.586Z" fill="#18442F"/>
<path d="M93.005 260.826C90.4024 246.664 87.7999 232.503 85.1974 218.342C84.4574 214.316 83.7175 210.289 82.9776 206.263C82.8542 205.592 81.8306 205.876 81.9536 206.545C84.5561 220.707 87.1586 234.868 89.7612 249.029C90.5011 253.056 91.241 257.082 91.981 261.108C92.1043 261.779 93.1279 261.495 93.005 260.826Z" fill="#18442F"/>
<path d="M113.358 140.99C105.184 151.999 100.132 165.007 98.7317 178.646C98.3298 182.581 98.2416 186.541 98.4679 190.489C98.5064 191.168 99.5685 191.173 99.5298 190.489C98.5316 172.942 103.753 155.604 114.275 141.526C114.684 140.979 113.762 140.449 113.358 140.99Z" fill="#18442F"/>
<path d="M143.702 177.783C142.249 190.852 133.538 201.577 128.188 213.196C122.772 224.996 119.5 237.666 118.525 250.613C117.965 258.024 118.173 265.474 119.145 272.842C119.233 273.51 120.296 273.519 120.207 272.842C118.479 259.673 119.19 246.298 122.303 233.386C123.854 226.934 126.001 220.639 128.717 214.584C131.368 208.69 134.708 203.17 137.763 197.486C141.085 191.304 143.981 184.825 144.764 177.783C144.84 177.105 143.777 177.11 143.702 177.783Z" fill="#18442F"/>
<path d="M198.804 198.474C182.57 210.888 169.614 227.08 161.062 245.641C160.778 246.257 161.693 246.797 161.979 246.177C170.449 227.78 183.273 211.722 199.34 199.391C199.875 198.981 199.347 198.058 198.804 198.474Z" fill="#18442F"/>
<path d="M104.53 331.288C98.2087 317.923 90.6136 305.197 81.8507 293.289C79.407 289.971 76.8758 286.72 74.257 283.536C73.8231 283.007 73.0756 283.762 73.5062 284.286C82.8209 295.628 91.0256 307.837 98.0075 320.745C99.9762 324.387 101.845 328.08 103.613 331.824C103.906 332.441 104.822 331.903 104.53 331.288Z" fill="#18442F"/>
<path d="M180.415 270.771C170.659 283.154 160.903 295.536 151.148 307.919C148.391 311.417 145.635 314.915 142.879 318.414C142.461 318.945 143.207 319.701 143.63 319.164C153.386 306.782 163.142 294.399 172.898 282.016C175.654 278.518 178.41 275.02 181.166 271.522C181.584 270.991 180.838 270.234 180.415 270.771Z" fill="#18442F"/>
<path d="M81.7737 365.271C77.0468 351.061 67.8483 338.508 55.8279 329.593C52.3543 327.019 48.6537 324.766 44.7717 322.863C44.1605 322.563 43.6217 323.479 44.2358 323.78C57.57 330.377 68.5545 340.913 75.7016 353.961C77.7284 357.666 79.418 361.546 80.7497 365.554C80.9644 366.199 81.9903 365.922 81.7737 365.271Z" fill="#18442F"/>
<path d="M126.032 339.218C121.804 352.019 117.576 364.821 113.348 377.622C109.753 388.509 106.151 399.481 100.796 409.657C97.7818 415.385 94.2031 420.809 89.8722 425.63C89.4166 426.137 90.1652 426.89 90.6231 426.381C98.2702 417.869 103.497 407.606 107.66 397.025C112.238 385.39 115.87 373.369 119.789 361.503C122.211 354.169 124.634 346.835 127.056 339.5C127.271 338.85 126.246 338.571 126.032 339.218Z" fill="#18442F"/>
<path d="M132.51 477.729L131.714 482.92L130.749 489.203L129.889 494.813L128.919 501.134L119.801 560.56L118.84 566.833L117.987 572.392H54.5202L53.5861 566.72L52.5517 560.443L42.9177 501.98L41.8797 495.677L40.9495 490.03L39.9167 483.764L38.9219 477.729H132.51Z" fill="#FE6F8B"/>
<path d="M131.715 482.92L130.75 489.203C126.713 489.239 122.677 489.276 118.642 489.314C104.073 489.449 89.5046 489.583 74.9365 489.718C63.6067 489.822 52.278 489.926 40.9506 490.03L39.918 483.764C45.262 483.716 50.606 483.667 55.9501 483.617C70.5175 483.483 85.0862 483.348 99.656 483.214C110.342 483.115 121.029 483.017 131.715 482.92Z" fill="white"/>
<path d="M129.888 494.813L128.918 501.134C124.445 501.351 119.97 501.54 115.492 501.701C100.889 502.229 86.2792 502.473 71.6628 502.432C62.079 502.403 52.497 502.253 42.9169 501.98L41.8789 495.677C45.3908 495.781 48.9039 495.868 52.4182 495.937C67.0286 496.229 81.6403 496.236 96.2532 495.957C107.47 495.743 118.682 495.362 129.888 494.813Z" fill="white"/>
<path d="M119.8 560.56L118.839 566.833C116.376 566.829 113.912 566.825 111.448 566.82L53.5852 566.72L52.5508 560.444C56.527 560.451 60.5038 560.458 64.4812 560.465C82.9209 560.498 101.361 560.529 119.8 560.56Z" fill="#DDB891"/>
<path d="M56.7746 509.574C55.1336 509.574 53.5615 511.017 53.6374 512.711C53.7136 514.411 55.0159 515.848 56.7746 515.848C58.4157 515.848 59.9877 514.405 59.9119 512.711C59.8357 511.011 58.5334 509.574 56.7746 509.574Z" fill="#DDB891"/>
<path d="M72.5477 538.392C72.4224 538.005 72.1989 537.657 71.899 537.382C71.6242 537.082 71.2764 536.859 70.8894 536.734C70.5177 536.538 70.1004 536.444 69.6806 536.463L68.8467 536.575C68.3231 536.72 67.8461 536.998 67.4623 537.382C67.2988 537.594 67.1353 537.805 66.9718 538.017C66.6904 538.497 66.5426 539.044 66.5434 539.601V539.869C66.5244 540.289 66.6177 540.706 66.8136 541.078C66.9389 541.465 67.1624 541.813 67.4623 542.088C67.7371 542.388 68.085 542.611 68.472 542.736C68.8437 542.932 69.2609 543.026 69.6806 543.007C69.9587 542.969 70.2367 542.932 70.5147 542.895C71.0382 542.75 71.5153 542.472 71.899 542.088C72.0625 541.876 72.226 541.664 72.3896 541.453C72.6709 540.973 72.8187 540.426 72.8179 539.869V539.601C72.8369 539.181 72.7436 538.764 72.5477 538.392V538.392Z" fill="white"/>
<path d="M115.809 549.84C115.668 549.461 115.447 549.117 115.161 548.83C114.874 548.544 114.53 548.323 114.151 548.182C113.779 547.986 113.362 547.893 112.942 547.912L112.108 548.024C111.585 548.168 111.108 548.446 110.724 548.83C110.56 549.042 110.397 549.254 110.233 549.465C109.952 549.946 109.804 550.492 109.805 551.049V551.318C109.796 551.935 109.976 552.541 110.32 553.053C110.665 553.566 111.158 553.96 111.734 554.185C112.105 554.381 112.522 554.474 112.942 554.455C113.22 554.418 113.498 554.38 113.776 554.343C114.3 554.198 114.777 553.92 115.161 553.536C115.324 553.324 115.488 553.113 115.651 552.901C115.932 552.421 116.08 551.874 116.079 551.318V551.049C116.098 550.629 116.005 550.212 115.809 549.84V549.84Z" fill="white"/>
<path d="M98.6297 510.696C98.5044 510.309 98.2809 509.961 97.981 509.686C97.7063 509.386 97.3584 509.163 96.9714 509.037C96.5997 508.841 96.1824 508.748 95.7627 508.767L94.9287 508.879C94.4051 509.024 93.9281 509.302 93.5443 509.686L93.0538 510.321C92.7725 510.801 92.6246 511.348 92.6255 511.904V512.173C92.6064 512.593 92.6997 513.01 92.8957 513.382C93.0209 513.769 93.2444 514.117 93.5443 514.391C93.8191 514.691 94.167 514.915 94.554 515.04C94.9257 515.236 95.3429 515.329 95.7627 515.31C96.0407 515.273 96.3187 515.236 96.5967 515.198C97.1203 515.054 97.5973 514.776 97.981 514.391C98.1446 514.18 98.3081 513.968 98.4716 513.757C98.7529 513.276 98.9008 512.73 98.8999 512.173V511.904C98.9189 511.485 98.8257 511.067 98.6297 510.696V510.696Z" fill="#DDB891"/>
<path d="M105.175 536.194C103.534 536.194 101.962 537.637 102.038 539.331C102.114 541.031 103.416 542.468 105.175 542.468C106.816 542.468 108.388 541.025 108.312 539.331C108.236 537.631 106.934 536.194 105.175 536.194Z" fill="#DDB891"/>
<path d="M80.1653 519.523C78.5243 519.523 76.9521 520.966 77.028 522.66C77.1042 524.36 78.4065 525.797 80.1653 525.797C81.8063 525.797 83.3784 524.354 83.3025 522.66C83.2263 520.96 81.924 519.523 80.1653 519.523Z" fill="white"/>
<path d="M119.159 506.885C117.518 506.885 115.946 508.328 116.022 510.022C116.098 511.722 117.401 513.16 119.159 513.16C120.8 513.16 122.372 511.717 122.297 510.022C122.22 508.323 120.918 506.885 119.159 506.885Z" fill="#DDB891"/>
<path d="M94.327 549.147C94.2017 548.76 93.9782 548.412 93.6783 548.138C93.4035 547.838 93.0556 547.614 92.6686 547.489C92.297 547.293 91.8797 547.2 91.46 547.219C91.1819 547.256 90.9039 547.293 90.6259 547.331C90.1024 547.475 89.6253 547.753 89.2416 548.138C89.0781 548.349 88.9146 548.561 88.751 548.772C88.4697 549.253 88.3219 549.799 88.3227 550.356V550.894C88.3037 551.313 88.397 551.731 88.5929 552.102C88.7182 552.489 88.9417 552.837 89.2416 553.112C89.5164 553.412 89.8643 553.635 90.2512 553.761C90.623 553.957 91.0402 554.05 91.46 554.031L92.294 553.919C92.8175 553.774 93.2946 553.496 93.6783 553.112C93.8418 552.9 94.0053 552.689 94.1689 552.477C94.4502 551.997 94.598 551.45 94.5972 550.894V550.356C94.6162 549.936 94.5229 549.519 94.327 549.147V549.147Z" fill="#DDB891"/>
<path d="M61.7918 551.567C61.6666 551.18 61.4431 550.832 61.1431 550.558C60.8684 550.258 60.5205 550.034 60.1335 549.909C59.7618 549.713 59.3446 549.62 58.9248 549.639L58.0908 549.751C57.5673 549.895 57.0902 550.173 56.7065 550.558C56.543 550.769 56.3794 550.981 56.2159 551.192C55.9346 551.673 55.7867 552.219 55.7876 552.776V553.045C55.7686 553.464 55.8618 553.882 56.0578 554.253C56.183 554.64 56.4066 554.988 56.7065 555.263C56.9812 555.563 57.3291 555.786 57.7161 555.912C58.0878 556.108 58.505 556.201 58.9248 556.182C59.2028 556.145 59.4808 556.107 59.7588 556.07C60.2824 555.925 60.7594 555.647 61.1431 555.263C61.3067 555.051 61.4702 554.84 61.6337 554.628C61.915 554.148 62.0629 553.601 62.062 553.045V552.776C62.081 552.356 61.9878 551.939 61.7918 551.567V551.567Z" fill="#DDB891"/>
<path d="M438.978 198.542C437.214 183.579 430.473 169.012 417.873 160.219C412.06 156.163 405.236 153.474 398.149 152.888C397.882 152.865 397.615 152.847 397.347 152.832C397.009 152.731 396.67 152.633 396.329 152.539C396.243 152.512 396.15 152.515 396.066 152.547C395.981 152.579 395.91 152.639 395.865 152.717C395.839 152.661 395.803 152.611 395.758 152.57C395.712 152.529 395.658 152.498 395.6 152.479C395.542 152.46 395.481 152.453 395.42 152.459C395.359 152.465 395.3 152.484 395.246 152.514C395.42 141.325 395.592 130.135 395.763 118.945C395.794 117.008 396.371 2.21261 396.401 0.274902H395.159C394.995 10.9044 394.771 134.39 394.608 145.019C394.569 147.602 394.53 150.185 394.489 152.769L394.47 152.788C388.696 152.981 383.046 154.513 377.965 157.264C373.097 159.891 368.754 163.393 365.155 167.595C364.177 168.729 363.254 169.906 362.388 171.126C357.854 177.511 354.952 184.977 353.383 192.62C349.923 209.455 352.927 226.685 357.242 243.066C357.81 245.224 358.398 247.375 359.006 249.521C359.032 249.625 359.098 249.715 359.19 249.77C359.206 249.865 359.256 249.952 359.331 250.012C359.407 250.073 359.502 250.104 359.598 250.099L400.681 249.633C400.76 249.706 400.865 249.746 400.972 249.744C401.08 249.743 401.183 249.701 401.261 249.627L415.521 249.465C419.494 249.42 423.468 249.375 427.444 249.33C427.488 249.386 427.544 249.431 427.608 249.462C427.673 249.493 427.743 249.508 427.814 249.507C427.886 249.507 427.956 249.49 428.019 249.458C428.083 249.425 428.138 249.379 428.181 249.322C429.17 249.31 430.16 249.299 431.15 249.289C431.796 249.28 431.701 248.128 430.858 248.484L430.793 248.421C434.079 239.507 436.89 230.236 438.366 220.805C439.518 213.451 439.859 205.999 438.978 198.542ZM359.828 249.224C355.283 233.033 351.335 216.211 353.211 199.29C354.471 187.92 358.529 176.698 365.929 168.076C368.272 165.334 370.945 162.893 373.888 160.807C379.422 156.894 385.915 154.267 392.701 153.743C381.146 160.427 371.726 170.252 365.532 182.077C358.67 195.201 356.353 210.309 358.679 224.918C360.027 233.436 362.948 241.628 367.294 249.078C367.306 249.099 367.321 249.119 367.337 249.138L359.828 249.224ZM375.23 249.049L367.995 249.131C368.058 249.067 368.098 248.983 368.107 248.893C368.116 248.804 368.095 248.713 368.046 248.638C360.41 235.586 357.305 220.048 359.199 205.055C360.698 193.177 365.491 181.875 372.745 172.397C373.989 170.772 375.303 169.203 376.688 167.69C381.553 162.369 387.225 157.847 393.497 154.292C385.041 163.236 378.53 173.836 374.375 185.423C369.707 198.54 368.224 212.579 370.049 226.382C371.075 234.172 373.131 241.79 376.163 249.039L375.23 249.049ZM377.085 249.028C377.078 248.996 377.068 248.965 377.054 248.935C371.564 235.89 369.3 221.715 370.454 207.609C371.362 196.812 374.285 186.28 379.074 176.559C380.117 174.432 381.246 172.348 382.46 170.307C385.827 164.656 389.821 159.403 394.367 154.649C394.358 154.712 394.362 154.777 394.381 154.839C394.388 154.866 394.396 154.893 394.403 154.92C394.394 154.944 394.385 154.97 394.376 154.994C394.277 155.01 394.185 155.058 394.116 155.132C394.047 155.205 394.005 155.3 393.996 155.4C393.969 155.677 393.945 155.955 393.918 156.232C390.863 164.529 388.421 173.038 386.612 181.692C386.015 184.55 385.487 187.422 385.028 190.309C383.052 202.727 382.364 215.315 382.975 227.875C383.323 234.934 384.085 241.966 385.258 248.936C382.533 248.966 379.808 248.997 377.085 249.028V249.028ZM386.093 248.926C386.111 248.861 386.114 248.793 386.102 248.727C382.422 226.672 382.858 204.128 387.388 182.232C387.951 179.51 388.576 176.802 389.263 174.106C390.499 169.262 391.94 164.478 393.586 159.753C392.811 168.263 392.214 176.786 391.796 185.324C391.688 187.53 391.592 189.736 391.51 191.943C391.047 204.146 390.953 216.355 391.228 228.57C391.378 235.338 391.644 242.101 392.024 248.859C390.047 248.882 388.07 248.904 386.093 248.926V248.926ZM400.565 248.763C398.009 248.791 395.452 248.82 392.895 248.849C392.226 236.803 391.911 224.745 391.951 212.675C391.985 203.754 392.214 194.837 392.641 185.924C392.797 182.636 392.981 179.351 393.191 176.068C393.61 169.514 394.136 162.97 394.77 156.434C394.779 156.409 394.788 156.383 394.798 156.356C397.935 167.821 400.169 179.515 401.479 191.33C401.518 191.684 401.556 192.038 401.592 192.393C402.855 204.311 403.179 216.31 402.561 228.279C402.207 235.132 401.541 241.96 400.565 248.763V248.763ZM408.506 248.672C406.15 248.699 403.795 248.726 401.441 248.752C403.165 236.668 403.92 224.465 403.698 212.26C403.579 205.857 403.192 199.467 402.537 193.088C401.925 187.094 401.076 181.131 399.99 175.199C398.743 168.383 397.185 161.635 395.317 154.955C395.322 154.944 395.326 154.932 395.331 154.92C403.168 162.006 405.772 173.028 407.295 183.116C408.038 188.041 408.631 192.987 409.073 197.956C409.875 206.968 410.193 216.017 410.027 225.064C409.885 232.92 409.379 240.758 408.507 248.576C408.503 248.608 408.502 248.64 408.506 248.672V248.672ZM409.361 248.663C409.369 248.635 409.376 248.605 409.38 248.576C410.953 234.422 411.336 220.161 410.523 205.943C410.383 203.511 410.208 201.081 409.999 198.654C409.596 194.009 409.067 189.378 408.411 184.76C407.614 179.15 406.61 173.53 404.704 168.177C402.89 163.089 400.207 158.282 396.257 154.586C401.657 156.164 406.346 159.56 409.988 163.828C414.359 168.95 417.084 175.252 418.871 181.692C420.792 188.614 421.839 195.814 422.383 202.966C422.522 204.773 422.622 206.582 422.682 208.392C423.158 221.955 421.517 235.509 417.817 248.567C414.999 248.598 412.18 248.631 409.361 248.663V248.663ZM427.568 248.457C424.62 248.49 421.673 248.523 418.727 248.556C422.327 235.721 423.963 222.415 423.579 209.09C423.537 207.649 423.471 206.208 423.382 204.768C422.928 197.497 421.943 190.188 420.153 183.122C418.478 176.504 415.91 169.992 411.699 164.558C407.761 159.474 402.414 155.382 396.175 153.655C396.517 153.666 396.86 153.679 397.201 153.699C409.502 157.414 419.429 166.611 425.729 177.659C432.595 189.695 434.785 203.594 433.961 217.286C433.874 218.741 433.753 220.192 433.599 221.639C432.631 230.773 430.436 239.742 427.568 248.457V248.457ZM431.975 242.469C431.31 244.439 430.616 246.399 429.893 248.348C429.883 248.375 429.876 248.403 429.872 248.431C429.41 248.436 428.949 248.441 428.487 248.446C431.713 238.601 434.092 228.317 434.797 217.951C435.245 211.766 435.01 205.551 434.097 199.418C432.004 185.765 425.705 172.673 415.451 163.276C411.25 159.392 406.384 156.297 401.085 154.139C405.399 154.889 409.559 156.351 413.393 158.467C419.724 161.958 425.115 166.929 429.107 172.957C433.296 179.257 435.977 186.458 437.387 193.869C439.049 202.609 438.885 211.453 437.57 220.168C436.427 227.751 434.412 235.235 431.975 242.469V242.469Z" fill="#BC7123"/>
<path d="M557.184 207.947C589.177 207.947 615.112 182.012 615.112 150.019C615.112 118.026 589.177 92.0908 557.184 92.0908C525.191 92.0908 499.256 118.026 499.256 150.019C499.256 182.012 525.191 207.947 557.184 207.947Z" fill="#FDD076"/>
<path d="M616.258 124.889C609.773 109.444 597.54 97.124 582.141 90.5304C570.386 85.5312 557.401 84.1775 544.868 86.6446C532.335 89.1117 520.832 95.286 511.849 104.367C504.399 111.855 498.895 121.053 495.817 131.157C492.739 141.261 492.18 151.965 494.19 162.335C496.2 172.705 500.717 182.425 507.348 190.647C513.978 198.87 522.52 205.345 532.228 209.507C543.982 214.507 556.967 215.86 569.5 213.393C582.033 210.926 593.536 204.752 602.519 195.67C611.541 186.547 617.66 174.956 620.105 162.36C622.55 149.764 621.212 136.726 616.258 124.889V124.889ZM557.184 213.075C522.664 213.075 494.58 184.788 494.58 150.019C494.58 115.25 522.664 86.9626 557.184 86.9626C591.704 86.9626 619.788 115.25 619.788 150.019C619.788 184.788 591.704 213.075 557.184 213.075Z" fill="#FDD076"/>
<path d="M558.213 94.8605C558.183 93.4071 555.921 93.402 555.951 94.8605C556.03 98.5806 556.109 102.301 556.187 106.021C556.218 107.474 558.48 107.479 558.449 106.021C558.371 102.301 558.292 98.5806 558.213 94.8605Z" fill="#C37F39"/>
<path d="M611.85 147.161L602.501 146.83C601.045 146.779 601.047 149.041 602.501 149.092C605.617 149.203 608.733 149.313 611.85 149.423C613.305 149.474 613.303 147.212 611.85 147.161Z" fill="#C37F39"/>
<path d="M559.449 192.879V204.038C559.449 205.493 561.711 205.496 561.711 204.038V192.879C561.711 191.424 559.449 191.421 559.449 192.879Z" fill="#C37F39"/>
<path d="M516.241 146.046L502.672 146.416C501.219 146.456 501.213 148.718 502.672 148.678L516.241 148.308C517.694 148.269 517.7 146.007 516.241 146.046Z" fill="#C37F39"/>
<path d="M587.858 174.058L559.106 150.051C558.955 149.921 558.774 149.833 558.579 149.793C558.351 141.133 558.122 132.473 557.893 123.813C557.855 122.36 555.593 122.354 555.631 123.813C555.862 132.561 556.093 141.309 556.324 150.057C556.323 150.299 556.404 150.535 556.555 150.725C556.705 150.916 556.915 151.049 557.151 151.105C557.206 151.321 557.331 151.513 557.507 151.65C567.091 159.652 576.674 167.655 586.258 175.657C587.368 176.584 588.977 174.992 587.858 174.058Z" fill="#C37F39"/>
<path d="M724.713 468.427C726.315 468.896 727.801 469.696 729.075 470.774C730.349 471.852 731.383 473.185 732.112 474.687C732.321 475.122 731.671 475.505 731.461 475.068C730.781 473.65 729.811 472.392 728.615 471.373C727.418 470.354 726.02 469.598 724.513 469.154C724.048 469.018 724.246 468.29 724.713 468.427Z" fill="#4D2C13"/>
<path d="M730.029 458.894C731.932 459.714 733.836 460.534 735.739 461.355C736.183 461.546 735.8 462.196 735.358 462.006C733.455 461.185 731.552 460.365 729.649 459.545C729.204 459.353 729.588 458.704 730.029 458.894Z" fill="#4D2C13"/>
<path d="M666.097 436.85L591.604 430.517L591.303 435.946L607.588 438.962L601.255 558.692H610.906L625.081 439.565L639.859 441.676L676.049 558.994L683.589 558.692L656.748 443.485L665.795 444.088L666.097 436.85Z" fill="#A87546"/>
<path d="M596.504 432.025V436.549C596.501 436.647 596.459 436.739 596.389 436.807C596.319 436.875 596.225 436.913 596.127 436.913C596.029 436.913 595.935 436.875 595.865 436.807C595.795 436.739 595.753 436.647 595.75 436.549V432.025C595.753 431.928 595.795 431.835 595.865 431.767C595.935 431.699 596.029 431.661 596.127 431.661C596.225 431.661 596.319 431.699 596.389 431.767C596.459 431.835 596.501 431.928 596.504 432.025V432.025Z" fill="#4D2C13"/>
<path d="M606.331 509.773C607.473 495.077 608.616 480.381 609.759 465.685C610.405 457.387 611.05 449.089 611.695 440.792C611.733 440.311 612.487 440.307 612.449 440.792C611.306 455.488 610.163 470.184 609.02 484.879C607.878 499.575 606.735 514.271 605.592 528.967C604.946 537.265 604.301 545.563 603.656 553.86C603.618 554.341 602.864 554.345 602.902 553.86C604.045 539.164 605.188 524.469 606.331 509.773Z" fill="#4D2C13"/>
<path d="M644.468 442.258C648.068 454.953 651.668 467.648 655.268 480.343C658.868 493.039 662.468 505.734 666.068 518.429C668.094 525.573 670.119 532.717 672.145 539.861C672.168 539.956 672.153 540.057 672.103 540.141C672.053 540.225 671.973 540.287 671.879 540.313C671.784 540.339 671.684 540.327 671.598 540.28C671.512 540.233 671.448 540.155 671.418 540.062C667.818 527.367 664.218 514.671 660.618 501.976C657.018 489.281 653.418 476.586 649.818 463.89C647.792 456.746 645.767 449.602 643.741 442.458C643.718 442.363 643.733 442.263 643.783 442.179C643.833 442.094 643.913 442.033 644.007 442.007C644.102 441.981 644.202 441.992 644.288 442.039C644.374 442.086 644.439 442.164 644.468 442.258V442.258Z" fill="#4D2C13"/>
<path d="M673.95 541.717C675.248 546.343 676.546 550.97 677.844 555.597C677.867 555.692 677.852 555.793 677.802 555.877C677.752 555.961 677.672 556.023 677.578 556.049C677.483 556.075 677.383 556.063 677.297 556.016C677.211 555.969 677.146 555.891 677.117 555.798L673.223 541.917C673.2 541.822 673.216 541.722 673.265 541.637C673.315 541.553 673.396 541.492 673.49 541.466C673.584 541.44 673.685 541.451 673.771 541.498C673.857 541.545 673.921 541.623 673.95 541.717V541.717Z" fill="#4D2C13"/>
<path d="M639.858 440.997H643.477C643.575 441 643.668 441.041 643.736 441.111C643.804 441.182 643.842 441.276 643.842 441.374C643.842 441.471 643.804 441.565 643.736 441.636C643.668 441.706 643.575 441.747 643.477 441.751H639.858C639.761 441.747 639.668 441.706 639.6 441.636C639.532 441.565 639.494 441.471 639.494 441.374C639.494 441.276 639.532 441.182 639.6 441.111C639.668 441.041 639.761 441 639.858 440.997Z" fill="#4D2C13"/>
<path d="M608.774 438.464L625.382 439.19C625.865 439.211 625.868 439.965 625.382 439.944L608.774 439.218C608.29 439.197 608.288 438.443 608.774 438.464Z" fill="#4D2C13"/>
<path d="M712.658 369.427C699.871 369.008 686.063 369.951 676.096 377.972C670.091 382.804 666.116 389.79 663.673 397.1C661.229 404.41 660.2 412.105 659.182 419.745C657.306 433.836 655.429 447.927 653.552 462.018C652.788 467.757 652.133 474.04 655.224 478.936C658.416 483.99 664.67 486.068 670.508 487.354C684.834 490.504 699.607 491.08 714.135 489.057C722.245 487.924 730.516 485.853 736.975 480.82C747.411 472.688 751.003 458.723 753.638 445.758C757.199 428.242 760.427 410.273 760.085 392.327C759.85 380.003 755.005 374.285 742.802 372.303C732.826 370.702 722.757 369.741 712.658 369.427V369.427Z" fill="#FDD076"/>
<path d="M611.835 470.186C607.173 470.107 604.737 470.094 600.978 473.805C598.343 476.407 597.458 484.487 599.021 488.348C600.103 491.021 602.364 492.371 604.512 493.325C621.459 500.852 638.476 496.319 656.252 498.465C661.246 499.067 667.951 498.947 672.62 496.485C682.898 491.062 673.313 475.821 666.25 474.121C662.462 473.21 659.091 469.242 655.264 469.181C649.086 469.082 618.751 470.303 611.835 470.186Z" fill="#FDD076"/>
<path d="M678.902 406.11C679.667 407.186 681.103 407.271 682.132 406.519C683.198 405.738 683.555 404.263 682.677 403.202C681.889 402.249 680.442 401.947 679.385 402.615C679.316 402.694 679.233 402.76 679.14 402.808C678.245 403.67 678.192 405.112 678.902 406.11ZM679.673 403.341C679.682 403.323 679.696 403.307 679.712 403.294C679.728 403.281 679.746 403.272 679.766 403.266C680.126 403.052 680.549 402.97 680.963 403.033C681.376 403.095 681.756 403.3 682.036 403.611C682.712 404.345 682.432 405.373 681.671 405.921C679.948 407.162 678.292 404.671 679.673 403.341V403.341Z" fill="#4D2C13"/>
<path d="M681.796 400.792C683.004 398.38 684.213 395.969 685.422 393.557C685.639 393.123 686.29 393.504 686.073 393.937C684.864 396.349 683.655 398.761 682.447 401.172C682.229 401.606 681.579 401.225 681.796 400.792Z" fill="#4D2C13"/>
<path d="M680.649 396.739V400.66C680.645 400.758 680.604 400.85 680.534 400.918C680.463 400.986 680.369 401.024 680.272 401.024C680.174 401.024 680.08 400.986 680.009 400.918C679.939 400.85 679.898 400.758 679.895 400.66V396.739C679.898 396.641 679.939 396.549 680.009 396.481C680.08 396.413 680.174 396.375 680.272 396.375C680.369 396.375 680.463 396.413 680.534 396.481C680.604 396.549 680.645 396.641 680.649 396.739Z" fill="#4D2C13"/>
<path d="M675.492 397.138C676.573 398.862 677.655 400.586 678.736 402.311C678.994 402.723 678.342 403.102 678.085 402.691C677.003 400.967 675.922 399.243 674.841 397.518C674.582 397.106 675.234 396.727 675.492 397.138Z" fill="#4D2C13"/>
<path d="M684.906 403.35C685.811 402.847 686.716 402.345 687.62 401.842C688.045 401.606 688.426 402.257 688.001 402.493C687.096 402.996 686.191 403.498 685.287 404.001C684.862 404.237 684.481 403.586 684.906 403.35Z" fill="#4D2C13"/>
<path d="M672.843 409.382C674.35 408.277 675.858 407.171 677.366 406.065C677.758 405.778 678.135 406.432 677.747 406.716C676.239 407.822 674.731 408.928 673.223 410.033C672.831 410.321 672.455 409.667 672.843 409.382Z" fill="#4D2C13"/>
<path d="M682.749 407.797L684.558 413.829C684.698 414.295 683.971 414.494 683.831 414.03C683.228 412.019 682.625 410.008 682.022 407.998C681.882 407.532 682.609 407.333 682.749 407.797Z" fill="#4D2C13"/>
<path d="M716.601 405.808C717.366 406.884 718.803 406.97 719.831 406.217C720.897 405.437 721.254 403.962 720.376 402.901C719.588 401.947 718.141 401.645 717.085 402.314C717.015 402.393 716.932 402.458 716.839 402.506C715.944 403.368 715.891 404.81 716.601 405.808ZM717.372 403.039C717.382 403.021 717.395 403.005 717.411 402.992C717.427 402.98 717.445 402.97 717.465 402.965C717.825 402.751 718.248 402.668 718.662 402.731C719.076 402.794 719.455 402.998 719.735 403.31C720.411 404.043 720.131 405.071 719.37 405.619C717.647 406.86 715.991 404.369 717.372 403.039V403.039Z" fill="#4D2C13"/>
<path d="M719.495 400.49C720.703 398.078 721.912 395.667 723.121 393.255C723.338 392.821 723.989 393.203 723.772 393.636C722.563 396.047 721.355 398.459 720.146 400.87C719.928 401.304 719.278 400.923 719.495 400.49Z" fill="#4D2C13"/>
<path d="M718.346 396.438V400.359C718.342 400.456 718.301 400.549 718.231 400.617C718.161 400.685 718.067 400.723 717.969 400.723C717.871 400.723 717.777 400.685 717.707 400.617C717.636 400.549 717.595 400.456 717.592 400.359V396.438C717.595 396.34 717.636 396.248 717.707 396.18C717.777 396.112 717.871 396.074 717.969 396.074C718.067 396.074 718.161 396.112 718.231 396.18C718.301 396.248 718.342 396.34 718.346 396.438V396.438Z" fill="#4D2C13"/>
<path d="M713.191 396.837C714.272 398.561 715.354 400.286 716.435 402.01C716.694 402.422 716.042 402.801 715.784 402.391C714.703 400.666 713.621 398.942 712.54 397.217C712.281 396.805 712.934 396.426 713.191 396.837Z" fill="#4D2C13"/>
<path d="M722.605 403.049C723.51 402.546 724.415 402.044 725.32 401.541C725.744 401.305 726.125 401.956 725.7 402.192C724.795 402.695 723.891 403.197 722.986 403.7C722.561 403.936 722.181 403.285 722.605 403.049Z" fill="#4D2C13"/>
<path d="M710.542 409.081C712.05 407.975 713.558 406.869 715.066 405.763C715.457 405.476 715.834 406.13 715.446 406.414C713.938 407.52 712.43 408.626 710.922 409.732C710.531 410.019 710.154 409.365 710.542 409.081Z" fill="#4D2C13"/>
<path d="M720.446 407.496L722.256 413.528C722.395 413.994 721.668 414.193 721.529 413.728C720.925 411.718 720.322 409.707 719.719 407.697C719.579 407.231 720.307 407.032 720.446 407.496Z" fill="#4D2C13"/>
<path d="M703.494 451.628C704.258 452.704 705.695 452.79 706.723 452.037C707.79 451.256 708.146 449.781 707.269 448.72C706.48 447.767 705.034 447.465 703.977 448.134C703.908 448.212 703.825 448.278 703.731 448.326C702.837 449.188 702.784 450.63 703.494 451.628ZM704.264 448.859C704.274 448.841 704.288 448.825 704.304 448.812C704.32 448.8 704.338 448.79 704.358 448.785C704.718 448.57 705.14 448.488 705.554 448.551C705.968 448.614 706.348 448.818 706.627 449.13C707.304 449.863 707.024 450.891 706.263 451.439C704.539 452.68 702.884 450.189 704.264 448.859V448.859Z" fill="#4D2C13"/>
<path d="M706.391 446.31C707.6 443.898 708.809 441.487 710.017 439.075C710.235 438.641 710.885 439.023 710.668 439.456L707.042 446.69C706.825 447.124 706.174 446.743 706.391 446.31Z" fill="#4D2C13"/>
<path d="M705.242 442.257V446.178C705.239 446.276 705.198 446.368 705.127 446.436C705.057 446.504 704.963 446.542 704.865 446.542C704.767 446.542 704.674 446.504 704.603 446.436C704.533 446.368 704.492 446.276 704.488 446.178V442.257C704.492 442.159 704.533 442.067 704.603 441.999C704.674 441.931 704.767 441.893 704.865 441.893C704.963 441.893 705.057 441.931 705.127 441.999C705.198 442.067 705.239 442.159 705.242 442.257V442.257Z" fill="#4D2C13"/>
<path d="M700.084 442.656C701.165 444.381 702.246 446.105 703.328 447.829C703.586 448.242 702.934 448.62 702.677 448.21C701.595 446.486 700.514 444.761 699.433 443.037C699.174 442.625 699.826 442.246 700.084 442.656Z" fill="#4D2C13"/>
<path d="M709.498 448.868C710.403 448.366 711.308 447.863 712.212 447.36C712.637 447.124 713.017 447.775 712.593 448.011C711.688 448.514 710.783 449.017 709.878 449.519C709.454 449.755 709.073 449.104 709.498 448.868Z" fill="#4D2C13"/>
<path d="M697.434 454.9C698.942 453.794 700.45 452.688 701.958 451.583C702.35 451.295 702.726 451.949 702.339 452.234C700.831 453.339 699.323 454.445 697.815 455.551C697.423 455.838 697.047 455.184 697.434 454.9Z" fill="#4D2C13"/>
<path d="M707.339 453.316L709.148 459.348C709.288 459.813 708.561 460.012 708.421 459.548C707.818 457.538 707.215 455.527 706.611 453.516C706.472 453.051 707.199 452.852 707.339 453.316Z" fill="#4D2C13"/>
<path d="M729.216 443.793C728.387 452.862 727.478 463.224 720.165 468.652C715.447 472.155 709.197 472.617 703.324 472.815C693.299 473.154 683.27 473.108 673.239 472.676C666.644 472.392 659.892 471.959 653.576 473.876C647.26 475.794 641.361 480.652 640.3 487.167C639.822 490.107 640.451 493.346 642.507 495.501C645.217 498.341 649.56 498.676 653.483 498.831C683.835 500.025 714.187 501.219 744.539 502.414C748.034 502.551 751.709 502.651 754.817 501.048C760.725 498 762.173 490.343 762.803 483.726C765.8 452.214 765.797 420.503 765.792 388.849C765.792 386.069 765.768 383.181 764.567 380.673C762.453 376.258 756.518 373.385 751.711 373.704C747.324 373.995 745.814 377.386 744.315 381.048C739.135 393.696 735.303 406.987 732.622 420.379C731.073 428.118 729.936 435.933 729.216 443.793V443.793Z" fill="#DDB891"/>
<path d="M728.949 464.466C737.832 467.28 745.726 472.572 751.704 479.719C752.012 480.089 751.482 480.625 751.17 480.252C745.284 473.199 737.505 467.974 728.749 465.193C728.288 465.047 728.485 464.319 728.949 464.466Z" fill="#4D2C13"/>
<path d="M746.259 376.273C747.751 375.185 749.467 374.444 751.282 374.106C753.097 373.767 754.965 373.838 756.749 374.315C758.533 374.792 760.188 375.662 761.592 376.862C762.996 378.061 764.114 379.559 764.864 381.247C765.062 381.685 764.412 382.069 764.212 381.627C763.528 380.103 762.531 378.741 761.285 377.628C760.04 376.515 758.574 375.676 756.983 375.167C753.479 374.078 749.603 374.798 746.639 376.924C746.244 377.208 745.868 376.554 746.259 376.273Z" fill="#4D2C13"/>
<path d="M742.099 437.454L667.606 431.12L667.305 436.549L683.591 439.565L677.257 559.295H686.908L701.083 440.168L715.86 442.279L752.051 559.597L759.591 559.295L732.75 444.088L741.797 444.692L742.099 437.454Z" fill="#C37F39"/>
<path d="M682.332 510.376C683.475 495.68 684.618 480.984 685.761 466.288C686.407 457.99 687.052 449.692 687.697 441.395C687.735 440.914 688.489 440.91 688.451 441.395C687.308 456.091 686.165 470.787 685.022 485.483C683.88 500.178 682.737 514.874 681.594 529.57C680.948 537.868 680.303 546.166 679.658 554.463C679.62 554.944 678.866 554.948 678.904 554.463C680.047 539.767 681.19 525.072 682.332 510.376Z" fill="#4D2C13"/>
<path d="M720.468 442.861C724.068 455.556 727.668 468.251 731.268 480.946C734.868 493.642 738.468 506.337 742.068 519.032C744.094 526.176 746.12 533.32 748.145 540.464C748.168 540.56 748.153 540.66 748.103 540.744C748.053 540.828 747.973 540.89 747.879 540.916C747.784 540.942 747.684 540.93 747.598 540.883C747.512 540.836 747.448 540.758 747.418 540.665C743.818 527.97 740.218 515.274 736.618 502.579C733.018 489.884 729.418 477.189 725.818 464.493C723.792 457.349 721.767 450.205 719.741 443.061C719.718 442.966 719.733 442.866 719.783 442.782C719.833 442.697 719.913 442.636 720.008 442.61C720.102 442.584 720.202 442.595 720.288 442.642C720.374 442.689 720.439 442.767 720.468 442.861V442.861Z" fill="#4D2C13"/>
<path d="M749.952 542.321C751.25 546.947 752.548 551.574 753.846 556.201C753.869 556.296 753.854 556.397 753.804 556.481C753.754 556.565 753.674 556.627 753.579 556.653C753.485 556.679 753.384 556.667 753.299 556.62C753.213 556.573 753.148 556.495 753.119 556.402L749.225 542.521C749.202 542.426 749.218 542.326 749.267 542.241C749.317 542.157 749.398 542.096 749.492 542.07C749.586 542.044 749.687 542.055 749.773 542.102C749.859 542.149 749.923 542.227 749.952 542.321V542.321Z" fill="#4D2C13"/>
<path d="M715.86 441.601H719.479C719.577 441.604 719.67 441.645 719.738 441.715C719.805 441.786 719.843 441.88 719.843 441.978C719.843 442.075 719.805 442.169 719.738 442.24C719.67 442.31 719.577 442.351 719.479 442.355H715.86C715.762 442.351 715.67 442.31 715.602 442.24C715.534 442.169 715.496 442.075 715.496 441.978C715.496 441.88 715.534 441.786 715.602 441.715C715.67 441.645 715.762 441.604 715.86 441.601V441.601Z" fill="#4D2C13"/>
<path d="M684.774 439.067L701.382 439.793C701.865 439.814 701.868 440.568 701.382 440.547C695.846 440.305 690.31 440.063 684.774 439.821C684.29 439.8 684.288 439.046 684.774 439.067Z" fill="#4D2C13"/>
<path d="M400.059 383.278L383.891 422.145L385.134 427.741L402.857 384.522L400.059 383.278Z" fill="#25110E"/>
<path d="M338.184 429.296L385.134 427.741L383.89 422.144L340.982 421.833L338.184 429.296Z" fill="#25110E"/>
<path d="M249.714 431.889L523.213 431.889V427.536L249.714 427.536V431.889Z" fill="#A87546"/>
<path d="M331.835 435.932H441.396V430.957H331.835V435.932Z" fill="#A87546"/>
<path d="M383.258 561.547H389.166V435.309H383.258V561.547Z" fill="#A87546"/>
<path d="M412.665 557.839H358.379V561.486H412.665V557.839Z" fill="#A87546"/>
<path d="M440.673 430.877C413.321 430.956 385.97 431.035 358.618 431.114C350.897 431.136 343.176 431.159 335.454 431.181C334.189 431.184 334.186 431.938 335.454 431.935C362.806 431.856 390.158 431.777 417.509 431.698C425.231 431.676 432.952 431.654 440.673 431.631C441.939 431.628 441.942 430.874 440.673 430.877Z" fill="#4D2C13"/>
<path d="M388.339 435.826C386.797 435.885 385.255 435.943 383.713 436.002C383.23 436.02 383.227 436.774 383.713 436.756L388.339 436.58C388.822 436.562 388.825 435.808 388.339 435.826Z" fill="#4D2C13"/>
<path d="M389.041 557.755C387.198 557.792 385.355 557.829 383.512 557.866C383.028 557.876 383.026 558.63 383.512 558.62C385.355 558.583 387.198 558.546 389.041 558.509C389.526 558.5 389.528 557.746 389.041 557.755Z" fill="#4D2C13"/>
</svg>
