<svg width="2494" height="955" viewBox="0 0 2494 955" fill="none" xmlns="http://www.w3.org/2000/svg">
<path d="M2493.41 0.547363H0.820312V955H2493.41V0.547363Z" fill="#FFF9F4"/>
<path d="M625.548 150.375H422.266V298.602H625.548V150.375Z" fill="#A87546"/>
<path d="M613.457 166.555H434.973V284.574H613.457V166.555Z" fill="#FCF4EA"/>
<path d="M583.625 186.169H464.553V267.138H583.625V186.169Z" fill="white"/>
<path d="M474.34 186.169H477.317C475.792 213.157 476.269 240.221 478.746 267.138H475.769C473.293 240.221 472.815 213.157 474.34 186.169V186.169Z" fill="#FE6F8B"/>
<path d="M486.442 186.169C486.489 213.151 486.537 240.14 486.585 267.138H483.608C483.56 240.156 483.513 213.166 483.465 186.169C483.465 184.239 486.442 184.263 486.442 186.169Z" fill="#3B322D"/>
<path d="M494.323 186.169H497.3C496.943 213.151 496.586 240.141 496.229 267.138H493.252C493.633 240.156 493.99 213.167 494.323 186.169Z" fill="#FE6F8B"/>
<path d="M515.637 186.169H518.614C518.947 213.151 519.273 240.141 519.59 267.138H516.613C516.28 240.132 515.954 213.143 515.637 186.169Z" fill="#3B322D"/>
<path d="M521.111 186.169H524.088C526.533 213.089 526.954 240.155 525.35 267.138H522.374C523.978 240.155 523.556 213.089 521.111 186.169V186.169Z" fill="#FE6F8B"/>
<path d="M529.306 186.169H532.283C532.235 213.151 532.196 240.141 532.164 267.138H529.188C529.211 240.156 529.251 213.167 529.306 186.169Z" fill="#3B322D"/>
<path d="M536.02 186.169H538.996C539.592 213.151 540.195 240.141 540.806 267.138H537.829C537.234 240.156 536.631 213.167 536.02 186.169Z" fill="#FE6F8B"/>
<path d="M547.806 186.169H550.782C550.282 213.175 549.766 240.165 549.235 267.138H546.258C546.782 240.132 547.298 213.143 547.806 186.169Z" fill="#3B322D"/>
<path d="M560.955 186.169H563.932C564.051 213.151 564.186 240.141 564.337 267.138H561.36C561.241 240.156 561.106 213.167 560.955 186.169Z" fill="#FE6F8B"/>
<path d="M572.862 186.169H575.838C575.695 213.151 575.561 240.141 575.434 267.138H572.457C572.6 240.156 572.735 213.167 572.862 186.169Z" fill="#3B322D"/>
<path d="M1264.46 817.723H1264.45C1152.58 805.484 950.843 797.316 720.553 797.316C719.041 797.316 717.531 797.316 716.023 797.318C714.055 797.316 712.085 797.316 710.112 797.316C358.359 797.316 73.209 816.376 73.209 839.885C73.209 848.001 107.207 855.589 166.204 862.045H166.213C278.082 874.284 479.822 882.452 710.112 882.452C711.625 882.452 713.135 882.451 714.642 882.45C716.61 882.451 718.581 882.452 720.553 882.452C1072.31 882.452 1357.46 863.392 1357.46 839.883C1357.46 831.766 1323.46 824.179 1264.46 817.723Z" fill="#F8CDAE"/>
<path d="M953.387 759.833L975.013 829.215H959.695L927.256 761.635L953.387 759.833Z" fill="#C37F39"/>
<path d="M545.2 759.833L523.574 829.215H538.892L571.331 761.635L545.2 759.833Z" fill="#C37F39"/>
<path d="M542.207 524.684C556.656 513.191 576.921 513.338 595.323 514.828C644.955 518.847 694.445 528.666 744.135 525.457C793.092 522.296 840.995 506.53 890.039 507.716C905.54 508.09 921.742 510.456 934.243 519.629C954.125 534.217 959.182 561.274 962.715 585.679C979.739 574.026 1004.42 578.069 1019.81 591.806C1035.21 605.543 1042.14 626.903 1042.36 647.533C1042.57 668.162 1036.79 688.362 1030.22 707.919C1022.72 730.26 1012.47 754.145 991.455 764.814C978.288 771.5 962.927 771.841 948.162 772.042C813.555 773.877 678.944 775.712 544.325 775.779C531.427 775.786 517.929 775.633 506.554 769.552C494.639 763.182 486.836 751.234 480.507 739.297C468.888 717.372 460.495 693.885 455.587 669.562C452.506 654.271 450.839 638.328 454.447 623.154C458.055 607.979 467.677 593.59 482.018 587.455C491.21 583.522 500.354 584.414 509.596 587.363C521.38 591.123 522.848 589.164 523.467 576.322C524.372 557.557 526.36 537.29 542.207 524.684Z" fill="#FDE0A5"/>
<path d="M537.068 730.316C531.778 709.741 526.487 689.167 521.197 668.592L513.317 637.947C510.991 628.901 509.027 619.438 504.269 611.285C499.83 603.676 492.349 597.247 483.253 596.654C482.529 596.607 482.532 597.733 483.253 597.78C491.5 598.318 498.45 604.046 502.685 610.839C507.648 618.799 509.645 628.187 511.952 637.159C517.074 657.082 522.197 677.005 527.32 696.928C530.207 708.157 533.094 719.386 535.982 730.616C536.162 731.317 537.249 731.02 537.068 730.316Z" fill="#4D2C13"/>
<path d="M999.149 583.746C987.006 599.018 976.785 615.725 968.718 633.49C960.639 651.252 954.744 669.929 951.161 689.11C949.502 698.025 948.356 707.029 947.73 716.075C944.163 701.659 938.701 687.78 931.487 674.8C928.86 670.077 926.007 665.491 922.928 661.042C922.519 660.45 921.542 661.012 921.956 661.611C932.776 677.276 940.839 694.676 945.797 713.059C946.413 715.347 946.978 717.648 947.492 719.961C947.464 720.482 947.437 721.003 947.413 721.524C947.407 721.596 947.417 721.668 947.442 721.736C947.466 721.804 947.505 721.866 947.556 721.917C947.607 721.969 947.668 722.009 947.736 722.035C947.803 722.06 947.876 722.071 947.948 722.066C948.34 723.933 948.7 725.805 949.028 727.684C895.962 725.783 842.873 724.789 789.763 724.703C735.816 724.622 681.878 725.483 627.95 727.286C597.69 728.297 567.442 729.606 537.207 731.211C536.485 731.249 536.481 732.375 537.207 732.337C591.079 729.482 644.989 727.564 698.938 726.583C752.877 725.607 806.821 725.573 860.772 726.481C890.267 726.977 919.756 727.757 949.238 728.818C949.396 729.22 949.94 729.167 950.182 728.851C950.644 728.868 951.106 728.883 951.568 728.9C952.293 728.927 952.292 727.8 951.568 727.774C951.103 727.757 950.638 727.741 950.174 727.725C949.719 725.095 949.202 722.478 948.622 719.873C949.634 701.105 952.875 682.523 958.275 664.52C963.825 645.981 971.594 628.18 981.414 611.505C986.957 602.097 993.149 593.088 999.945 584.543C1000.39 583.981 999.6 583.179 999.149 583.746Z" fill="#4D2C13"/>
<path d="M919.195 657.205C874.176 656.576 829.157 655.948 784.138 655.32C740.096 654.705 695.984 653.661 651.977 656.098C627.385 657.46 602.843 659.957 578.58 664.239C578.522 664.25 578.465 664.27 578.413 664.298C578.628 663.838 577.954 663.278 577.471 663.686C561.767 677.03 549.782 694.211 542.682 713.557C540.687 718.999 539.099 724.581 537.931 730.258C537.786 730.966 538.871 731.268 539.018 730.558C543.195 710.451 552.533 691.777 566.114 676.372C569.853 672.14 573.894 668.184 578.205 664.536C578.173 664.636 578.167 664.741 578.188 664.843C578.209 664.945 578.255 665.04 578.323 665.119C578.39 665.198 578.477 665.258 578.574 665.294C578.672 665.33 578.777 665.341 578.88 665.325C622.312 657.661 666.497 655.82 710.524 655.718C754.967 655.616 799.424 656.659 843.862 657.28C868.973 657.63 894.084 657.98 919.195 658.331C919.92 658.341 919.921 657.215 919.195 657.205Z" fill="#4D2C13"/>
<path d="M670.245 541.195C649.625 535.876 627.847 535.83 607.082 540.4C586.22 544.975 566.635 554.124 549.739 567.187C540.337 574.479 531.965 583.009 524.851 592.547C524.804 592.605 524.771 592.674 524.756 592.747C524.741 592.82 524.743 592.896 524.763 592.968C524.783 593.04 524.82 593.107 524.871 593.162C524.921 593.217 524.985 593.259 525.055 593.285C524.958 593.39 524.902 593.527 524.897 593.67C524.892 593.814 524.939 593.954 525.029 594.065C531.841 602.552 538.654 611.039 545.467 619.526C545.92 620.092 546.713 619.29 546.263 618.73C539.45 610.243 532.638 601.756 525.825 593.269C525.803 593.242 525.778 593.217 525.752 593.194C525.778 593.17 525.802 593.144 525.823 593.115C538.417 576.192 555.208 562.625 574.058 553.238C592.992 543.789 613.786 538.658 634.942 538.215C646.74 537.985 658.515 539.352 669.946 542.281C670.648 542.462 670.948 541.376 670.245 541.195Z" fill="#4D2C13"/>
<path d="M957.557 590.257C952.475 593.495 948.17 597.814 944.951 602.908C941.732 608.002 939.678 613.743 938.934 619.723C938.848 620.441 939.975 620.435 940.061 619.723C940.796 613.939 942.796 608.387 945.918 603.463C949.04 598.539 953.207 594.362 958.125 591.23C958.737 590.844 958.172 589.869 957.557 590.257Z" fill="#4D2C13"/>
<path d="M740.09 680.948C740.059 680.226 738.932 680.222 738.964 680.948C739.581 695.365 740.199 709.781 740.817 724.198C740.847 724.92 741.974 724.924 741.943 724.198C741.325 709.781 740.708 695.365 740.09 680.948Z" fill="#4D2C13"/>
<path d="M961.365 582.835C954.964 567.892 944.608 554.978 931.412 545.485C917.138 535.199 899.891 529.545 882.318 529.101C872.045 528.836 861.805 530.36 852.055 533.604C851.371 533.832 851.664 534.921 852.354 534.69C869.648 528.961 888.289 528.717 905.726 533.992C921.465 538.775 935.562 548.183 946.266 560.645C952.117 567.46 956.882 575.136 960.393 583.403C960.675 584.069 961.646 583.495 961.365 582.835Z" fill="#4D2C13"/>
<path d="M748.657 529.881C746.619 534.117 744.58 538.353 742.542 542.588C742.229 543.239 743.2 543.811 743.514 543.157C745.553 538.921 747.591 534.685 749.63 530.449C749.943 529.799 748.972 529.227 748.657 529.881Z" fill="#4D2C13"/>
<path d="M744.305 552.137C742.861 545.526 741.025 539.007 738.807 532.614C738.572 531.934 737.483 532.226 737.721 532.914C745.398 555.126 748.432 578.678 746.634 602.11C746.115 608.806 745.199 615.466 743.888 622.053C743.748 622.761 744.833 623.064 744.974 622.353C749.561 599.149 749.334 575.25 744.305 552.137V552.137Z" fill="#4D2C13"/>
<path d="M1016.79 666.843C1003.07 660.156 994.567 645.643 995.572 630.396C995.883 625.711 997.06 621.125 999.045 616.87C999.349 616.217 998.379 615.645 998.072 616.301C994.542 623.876 993.502 632.374 995.103 640.576C996.303 646.431 998.831 651.931 1002.49 656.654C1006.15 661.377 1010.85 665.195 1016.22 667.816C1016.87 668.132 1017.44 667.161 1016.79 666.843Z" fill="#4D2C13"/>
<path d="M498.024 650.224C497.145 646.051 495.439 642.097 493.007 638.594C492.596 638.003 491.619 638.566 492.034 639.163C496.142 645.095 498.074 652.265 497.503 659.459C496.902 666.297 494.01 672.731 489.294 677.719C486.699 680.483 483.617 682.748 480.204 684.399C479.552 684.715 480.122 685.687 480.773 685.372C487.036 682.311 492.141 677.305 495.322 671.102C498.581 664.655 499.534 657.287 498.024 650.224V650.224Z" fill="#4D2C13"/>
<path d="M533.844 742.059C531.441 749.568 529.038 757.077 526.635 764.586C526.414 765.278 527.501 765.574 527.721 764.885C530.124 757.376 532.527 749.867 534.93 742.358C535.151 741.666 534.064 741.37 533.844 742.059Z" fill="#4D2C13"/>
<path d="M960.067 751.897C957.664 747.392 955.26 742.887 952.857 738.382C952.515 737.742 951.543 738.31 951.884 738.95C954.288 743.455 956.691 747.96 959.095 752.465C959.436 753.105 960.409 752.537 960.067 751.897Z" fill="#4D2C13"/>
<path d="M961.335 822.174C954.97 806.879 948.605 791.585 942.241 776.29C941.966 775.63 940.876 775.92 941.155 776.589C947.519 791.884 953.884 807.179 960.249 822.473C960.523 823.133 961.613 822.843 961.335 822.174Z" fill="#4D2C13"/>
<path d="M552.028 779.971C545.768 795.185 539.508 810.399 533.247 825.613C532.972 826.283 534.061 826.575 534.334 825.913C540.594 810.698 546.854 795.484 553.114 780.27C553.39 779.6 552.301 779.308 552.028 779.971Z" fill="#4D2C13"/>
<path d="M343.854 552.238C343.804 551.957 343.755 551.675 343.703 551.396C343.577 551.776 343.451 552.158 343.324 552.54C343.101 553.214 342.879 553.887 342.658 554.561C342.707 554.831 342.754 555.099 342.8 555.37C342.82 555.281 342.851 555.195 342.892 555.113L342.932 555.038C342.96 554.992 342.991 554.947 343.025 554.905C343.043 554.885 343.061 554.865 343.079 554.845C343.096 554.824 343.115 554.805 343.135 554.788C343.155 554.768 343.177 554.749 343.2 554.732C343.216 554.718 343.23 554.707 343.246 554.696C343.333 554.631 343.431 554.58 343.534 554.545C343.558 554.535 343.583 554.526 343.608 554.52C343.747 554.48 343.893 554.468 344.036 554.484C344.046 554.485 344.056 554.486 344.066 554.489C344.095 554.492 344.125 554.497 344.153 554.505C344.19 554.511 344.225 554.521 344.259 554.534C344.126 553.768 343.991 553.003 343.854 552.238ZM332.101 537.472C332.072 537.458 332.045 537.442 332.018 537.425C332.001 537.416 331.984 537.407 331.969 537.395C331.944 537.379 331.92 537.362 331.896 537.343C331.886 537.337 331.876 537.329 331.867 537.321C331.857 537.313 331.847 537.305 331.838 537.296C331.775 537.244 331.719 537.185 331.669 537.12C331.644 537.089 331.622 537.057 331.599 537.026C331.577 536.993 331.556 536.959 331.538 536.924C331.521 536.893 331.505 536.861 331.491 536.828C331.48 536.807 331.471 536.785 331.464 536.762C331.459 536.751 331.455 536.737 331.45 536.724C331.443 536.707 331.438 536.688 331.435 536.67C331.426 536.651 331.42 536.631 331.417 536.611C331.407 536.582 331.401 536.552 331.396 536.521C331.396 536.519 331.394 536.514 331.394 536.512C331.333 536.751 331.277 536.99 331.221 537.231V537.235L331.894 541.238C332.178 540.026 332.467 538.817 332.761 537.609C332.533 537.622 332.305 537.575 332.101 537.472V537.472ZM343.854 552.238C343.804 551.957 343.755 551.675 343.703 551.396C343.577 551.776 343.451 552.158 343.324 552.54C343.101 553.214 342.879 553.887 342.658 554.561C342.707 554.831 342.754 555.099 342.8 555.37C342.82 555.281 342.851 555.195 342.892 555.113L342.932 555.038C342.96 554.992 342.991 554.947 343.025 554.905C343.043 554.885 343.061 554.865 343.079 554.845C343.096 554.824 343.115 554.805 343.135 554.788C343.155 554.768 343.177 554.749 343.2 554.732C343.216 554.718 343.23 554.707 343.246 554.696C343.333 554.631 343.431 554.58 343.534 554.545C343.558 554.535 343.583 554.526 343.608 554.52C343.747 554.48 343.893 554.468 344.036 554.484C344.046 554.485 344.056 554.486 344.066 554.489C344.095 554.492 344.125 554.497 344.153 554.505C344.19 554.511 344.225 554.521 344.259 554.534C344.126 553.768 343.991 553.003 343.854 552.238ZM332.101 537.472C332.072 537.458 332.045 537.442 332.018 537.425C332.001 537.416 331.984 537.407 331.969 537.395C331.944 537.379 331.92 537.362 331.896 537.343C331.886 537.337 331.876 537.329 331.867 537.321C331.857 537.313 331.847 537.305 331.838 537.296C331.775 537.244 331.719 537.185 331.669 537.12C331.644 537.09 331.621 537.059 331.599 537.026C331.577 536.993 331.556 536.959 331.538 536.924C331.52 536.893 331.504 536.861 331.491 536.828C331.48 536.807 331.471 536.785 331.464 536.762C331.459 536.751 331.455 536.737 331.45 536.724C331.443 536.707 331.438 536.688 331.435 536.67C331.426 536.651 331.42 536.631 331.417 536.611C331.408 536.582 331.401 536.552 331.396 536.521C331.396 536.519 331.394 536.514 331.394 536.512C331.333 536.751 331.277 536.99 331.221 537.231V537.235L331.894 541.238C332.178 540.026 332.467 538.817 332.761 537.609C332.533 537.622 332.305 537.575 332.101 537.472V537.472ZM431.585 343.089C426.185 348.529 420.999 354.163 416.026 359.991C416.026 359.991 416.025 359.991 416.025 359.991C416.025 359.991 416.024 359.991 416.024 359.991C416.024 359.991 416.024 359.992 416.024 359.992C416.024 359.992 416.024 359.992 416.024 359.993C414.541 361.723 413.08 363.469 411.64 365.233C411.638 365.235 411.638 365.237 411.635 365.237C411.207 365.762 410.781 366.288 410.356 366.814C401.326 378.02 393.015 389.786 385.475 402.044C372.29 423.424 361.332 446.138 352.236 469.542C349.803 475.8 347.505 482.106 345.343 488.46C344.976 489.534 344.613 490.608 344.255 491.681V491.683C343.948 492.603 343.644 493.522 343.342 494.441C343.128 495.092 342.917 495.741 342.707 496.392C342.745 495.745 342.781 495.101 342.82 494.454C342.847 493.992 342.872 493.531 342.899 493.069C342.937 492.4 342.977 491.729 343.016 491.059C343.698 479.242 344.381 467.425 345.063 455.609C345.947 440.306 346.83 425.003 347.715 409.701C347.771 408.735 347.828 407.769 347.884 406.804C347.882 406.804 347.884 406.802 347.884 406.802C347.882 406.799 347.882 406.799 347.884 406.797C348.089 403.227 348.295 399.656 348.503 396.086C348.503 396.085 348.502 396.085 348.502 396.084C348.502 396.083 348.502 396.083 348.502 396.082C348.502 396.082 348.502 396.081 348.502 396.08C348.502 396.08 348.503 396.079 348.503 396.079C348.503 396.078 348.502 396.078 348.502 396.077C348.502 396.077 348.502 396.076 348.502 396.075C348.502 396.075 348.502 396.074 348.502 396.074C348.502 396.073 348.503 396.072 348.503 396.072C349.042 386.748 349.58 377.424 350.119 368.1C350.128 368.005 350.118 367.908 350.088 367.817C350.058 367.726 350.01 367.642 349.946 367.57C349.882 367.498 349.804 367.441 349.716 367.401C349.629 367.361 349.534 367.34 349.438 367.339C349.328 367.326 349.217 367.336 349.11 367.368C349.004 367.399 348.906 367.453 348.821 367.524C348.736 367.595 348.667 367.683 348.617 367.782C348.568 367.881 348.539 367.99 348.533 368.1L346.913 396.135V396.137L346.192 408.62L342.358 475.002V475.02L341.322 492.927L341.209 494.86L341.038 497.856L340.946 499.435C340.948 499.439 340.946 499.446 340.946 499.453L340.768 502.517C339.725 505.889 338.714 509.27 337.735 512.661C337.438 513.69 337.144 514.72 336.852 515.749C336.695 516.305 336.538 516.862 336.384 517.418C336.267 516.952 336.149 516.486 336.03 516.022C335.656 514.542 335.274 513.065 334.884 511.591C334.861 511.498 334.836 511.408 334.811 511.318C334.226 509.095 333.624 506.876 333.007 504.661V504.655C330.547 495.815 327.852 487.047 324.922 478.35C324.598 477.388 323.066 477.8 323.392 478.771C326.454 487.856 329.258 497.022 331.804 506.267C332.295 508.049 332.776 509.833 333.248 511.62C334.032 514.587 334.789 517.559 335.519 520.538C334.165 525.49 332.877 530.458 331.655 535.442V535.444C331.568 535.8 331.48 536.156 331.394 536.512C331.333 536.751 331.277 536.99 331.221 537.231V537.235C330.626 539.675 330.048 542.116 329.486 544.559C329.099 546.242 328.718 547.926 328.344 549.612C324.415 567.313 321.194 585.164 318.468 603.091C317.889 582.873 317.104 562.662 316.114 542.457C315.35 526.877 314.465 511.306 313.458 495.743V495.741C312.926 487.532 312.36 479.327 311.76 471.125V471.123C311.672 469.929 311.583 468.735 311.494 467.541C311.496 467.539 311.494 467.539 311.494 467.539C311.201 463.588 310.9 459.64 310.59 455.694C309.96 447.65 309.296 439.606 308.599 431.563C307.68 420.967 306.704 410.375 305.673 399.789C305.382 396.806 305.087 393.825 304.787 390.844C305.251 388.395 305.715 385.945 306.177 383.493L306.434 382.135L306.993 379.184V379.181L313.154 346.585L321.412 302.889L322.248 298.472L326.463 276.168C326.652 275.17 325.123 274.742 324.933 275.746C323.622 282.687 322.31 289.627 320.998 296.566C320.516 299.12 320.033 301.675 319.549 304.229C316.803 318.753 314.058 333.275 311.314 347.797C309.608 356.816 307.903 365.837 306.198 374.858C306.2 374.858 306.198 374.861 306.198 374.861C305.927 376.298 305.656 377.735 305.384 379.172V379.177C304.997 381.225 304.609 383.271 304.222 385.318C303.681 380.024 303.127 374.731 302.559 369.441C302.451 368.436 300.865 368.425 300.974 369.441C301.74 376.548 302.479 383.66 303.193 390.776C302.812 392.788 302.431 394.8 302.05 396.813C299.766 408.901 297.481 420.99 295.195 433.079C294.727 435.562 294.258 438.044 293.787 440.525C293.652 441.241 293.517 441.955 293.382 442.671C291.976 450.105 290.571 457.539 289.167 464.973L286.318 480.051L285.146 486.254C284.732 483.756 284.305 481.26 283.867 478.766V478.764C282.927 473.389 281.932 468.025 280.882 462.671C276.108 438.328 270.227 414.239 263.239 390.404C263.126 390.019 263.013 389.635 262.901 389.253C261.639 384.98 260.342 380.718 259.01 376.467V376.465C256.692 369.055 254.265 361.681 251.73 354.341C250.459 350.662 249.162 346.993 247.839 343.334C247.839 343.327 247.837 343.321 247.832 343.316C244.742 334.772 241.505 326.281 238.123 317.845C236.956 314.934 235.772 312.03 234.571 309.131C234.481 308.924 234.316 308.759 234.108 308.671C233.9 308.583 233.667 308.579 233.456 308.658C233.364 308.681 233.278 308.725 233.205 308.785C233.132 308.846 233.074 308.921 233.034 309.007C232.994 309.093 232.974 309.187 232.975 309.282C232.975 309.376 232.997 309.47 233.039 309.555C237.731 320.877 242.162 332.302 246.33 343.83C246.331 343.831 246.332 343.832 246.332 343.834C247.645 347.463 248.932 351.102 250.193 354.751C250.216 354.816 250.238 354.884 250.261 354.949C252.678 361.948 254.997 368.98 257.217 376.043C257.668 377.471 258.113 378.901 258.553 380.332C259.731 384.158 260.882 387.992 262.004 391.835C267.915 412.075 273.029 432.526 277.345 453.187C279.057 461.373 280.641 469.585 282.098 477.823C282.864 482.139 283.594 486.462 284.288 490.794C283.961 492.524 283.635 494.253 283.308 495.982V495.984C281.875 503.564 280.442 511.144 279.008 518.725C276.724 515.474 274.196 512.402 271.447 509.534C271.447 509.532 271.447 509.532 271.445 509.532C268.732 506.699 265.811 504.075 262.705 501.681C262.338 501.397 261.968 501.118 261.594 500.838H261.592C261.409 500.701 261.225 500.566 261.04 500.433C260.551 500.075 260.058 499.723 259.56 499.383C259.258 499.169 258.952 498.962 258.645 498.757C258.355 498.559 258.064 498.365 257.769 498.176C257.71 498.135 257.652 498.097 257.593 498.061C257.591 498.059 257.589 498.056 257.587 498.056C257.402 497.935 257.215 497.815 257.028 497.696C256.627 497.441 256.224 497.19 255.818 496.941C255.683 496.858 255.548 496.777 255.413 496.696C255.32 496.639 255.228 496.583 255.136 496.529C255.133 496.527 255.131 496.527 255.129 496.524C254.755 496.301 254.377 496.081 253.996 495.864L253.994 495.862C253.809 495.756 253.626 495.65 253.439 495.547C253.419 495.536 253.401 495.524 253.381 495.513C251.484 494.45 249.543 493.471 247.558 492.576H247.555C246.907 492.28 246.256 491.997 245.595 491.724C243.352 490.787 241.065 489.96 238.736 489.244C237.758 488.942 237.339 490.474 238.312 490.773C239.439 491.12 240.555 491.494 241.66 491.895C242.521 492.206 243.374 492.534 244.219 492.88C244.233 492.884 244.246 492.889 244.26 492.895C244.645 493.051 245.03 493.211 245.411 493.375C246.553 493.86 247.681 494.374 248.794 494.918C249.452 495.24 250.105 495.571 250.752 495.909C251.856 496.488 252.944 497.094 254.016 497.727C254.016 497.729 254.017 497.731 254.018 497.732C254.307 497.899 254.591 498.072 254.877 498.248H254.883C260.528 501.684 265.705 505.836 270.285 510.599C270.287 510.599 270.287 510.602 270.29 510.604C273.351 513.784 276.132 517.224 278.6 520.885C278.564 521.077 278.528 521.268 278.492 521.46C277.859 524.805 277.226 528.15 276.595 531.495C274.824 540.86 273.054 550.224 271.285 559.587C265.401 590.714 259.283 621.82 254.665 653.168C251.691 673.359 249.369 693.676 248.222 714.05C248.055 717.001 247.915 719.952 247.801 722.903C247.677 726.027 247.585 729.153 247.524 732.279C247.463 735.261 247.432 738.245 247.431 741.231C247.431 744.355 247.465 747.48 247.533 750.604C247.582 753.026 247.654 755.448 247.749 757.869C247.79 758.885 249.376 758.892 249.335 757.869C249.24 755.459 249.168 753.049 249.119 750.638C249.049 747.511 249.015 744.387 249.017 741.265C249.017 738.262 249.048 735.261 249.11 732.263C249.171 729.136 249.263 726.011 249.387 722.887C249.502 719.941 249.642 716.995 249.808 714.05C252.536 665.754 261.871 617.9 270.848 570.415C273.25 557.706 275.652 544.995 278.055 532.284C278.616 529.319 279.176 526.354 279.737 523.388C279.773 523.192 279.812 522.998 279.848 522.802C280.087 523.183 280.325 523.561 280.557 523.947C282.514 527.18 284.217 530.56 285.651 534.057C285.655 534.063 285.658 534.07 285.66 534.077C285.66 534.077 285.66 534.078 285.66 534.078C285.661 534.078 285.661 534.079 285.661 534.079C285.661 534.08 285.661 534.08 285.66 534.081C285.66 534.081 285.66 534.081 285.66 534.082C285.784 534.377 285.901 534.672 286.018 534.969C286.444 536.044 286.843 537.129 287.216 538.224C287.255 538.35 287.326 538.464 287.422 538.555C287.518 538.646 287.636 538.71 287.764 538.742C288.304 538.88 288.976 538.477 288.746 537.803C288.399 536.787 288.031 535.78 287.642 534.782V534.78C287.484 534.379 287.324 533.982 287.16 533.584C287.156 533.568 287.147 533.554 287.142 533.541C285.276 529.006 282.974 524.662 280.269 520.572C281.65 513.267 283.031 505.96 284.412 498.653V498.651C284.614 497.579 284.817 496.511 285.02 495.439C285.45 498.223 285.865 501.009 286.263 503.796C287.437 511.947 288.485 520.114 289.408 528.299C289.591 529.912 289.768 531.526 289.94 533.142C290.264 536.177 290.571 539.211 290.859 542.245V542.248C291.01 543.836 291.157 545.424 291.3 547.012C292.974 565.754 293.996 584.542 294.364 603.375C294.851 628.458 294.163 653.528 292.301 678.583C292.066 681.71 291.814 684.836 291.544 687.961C291.528 688.072 291.541 688.184 291.58 688.288C291.62 688.392 291.686 688.484 291.771 688.556C289.735 697.026 287.825 705.524 286.04 714.05C285.448 716.886 284.87 719.724 284.306 722.565C284.227 722.955 284.15 723.342 284.074 723.732C283.533 726.471 283.008 729.213 282.497 731.956C281.895 735.162 281.313 738.371 280.749 741.585C280.201 744.705 279.671 747.828 279.158 750.956C279.066 751.503 278.978 752.051 278.888 752.598C278.726 753.596 280.253 754.026 280.418 753.019C280.53 752.332 280.643 751.645 280.756 750.958C281.271 747.831 281.805 744.708 282.355 741.587C282.923 738.368 283.508 735.152 284.112 731.941C284.698 728.807 285.303 725.677 285.928 722.549C286.491 719.713 287.069 716.88 287.662 714.05C292.089 692.895 297.299 671.924 303.292 651.136C304.276 647.724 305.282 644.316 306.308 640.914C307.029 638.521 307.761 636.133 308.504 633.748C308.507 633.745 308.504 633.746 308.504 633.746C308.946 632.326 309.391 630.909 309.84 629.492C310.516 627.359 311.199 625.228 311.89 623.099C312.208 622.126 310.676 621.709 310.361 622.678C309.246 626.109 308.152 629.547 307.081 632.991C306.684 634.261 306.291 635.534 305.9 636.809C305.502 638.113 305.106 639.418 304.713 640.722C300.739 653.918 297.078 667.203 293.729 680.575C295.473 657.906 296.255 635.192 296.076 612.433C295.869 587.229 294.485 562.072 291.925 536.96C291.623 534 291.305 531.042 290.972 528.085V528.08C290.724 525.902 290.468 523.725 290.203 521.55V521.545C288.96 511.282 287.522 501.043 285.89 490.83C286.52 487.491 287.151 484.152 287.782 480.812C290.075 468.692 292.366 456.574 294.655 444.456C294.792 443.735 294.927 443.016 295.063 442.295C295.536 439.799 296.007 437.303 296.477 434.807C298.802 422.514 301.125 410.222 303.447 397.931C303.548 397.403 303.648 396.879 303.747 396.351C303.812 397.011 303.877 397.674 303.94 398.334C305.076 409.913 306.142 421.498 307.139 433.091C308.04 443.554 308.887 454.024 309.678 464.498C309.766 465.671 309.854 466.845 309.942 468.019C310.593 476.775 311.205 485.534 311.778 494.297C312.395 503.749 312.967 513.203 313.494 522.66C313.843 528.941 314.173 535.222 314.483 541.504C315.645 565.056 316.528 588.621 317.13 612.198C316.734 614.967 316.348 617.737 315.974 620.509C315.808 621.739 315.643 622.968 315.481 624.196V624.199C315.224 626.14 314.973 628.083 314.726 630.026C314.33 633.142 313.945 636.258 313.573 639.375C310.599 664.213 308.295 689.13 306.101 714.05C306.013 715.045 305.925 716.042 305.837 717.039L305.371 722.371C305.213 724.16 305.057 725.949 304.902 727.739C304.814 728.755 306.4 728.751 306.488 727.739C306.646 725.944 306.802 724.149 306.957 722.356C307.2 719.587 307.443 716.818 307.687 714.05C309.822 689.815 312.059 665.587 314.916 641.425C315.019 640.54 315.125 639.655 315.233 638.771C315.905 633.173 316.615 627.58 317.364 621.991C317.481 627.271 317.585 632.55 317.675 637.827V637.83C317.894 650.661 318.029 663.492 318.081 676.324C318.09 678.745 318.095 681.167 318.096 683.589C316.483 693.726 314.986 703.88 313.604 714.05C313.228 716.8 312.862 719.552 312.505 722.304C312.501 722.344 312.494 722.387 312.489 722.428C312.359 723.437 313.947 723.426 314.075 722.428C314.082 722.383 314.087 722.335 314.093 722.29C314.449 719.542 314.815 716.795 315.19 714.05C316.107 707.319 317.075 700.594 318.094 693.875C318.081 700.599 318.045 707.324 317.986 714.05C317.963 716.785 317.936 719.519 317.903 722.254C317.869 725.379 317.829 728.504 317.783 731.63C317.736 734.822 317.684 738.013 317.628 741.204C317.574 744.331 317.513 747.457 317.445 750.582C317.362 754.646 317.27 758.71 317.168 762.776C317.166 762.832 317.166 762.891 317.164 762.947C317.154 763.082 317.183 763.217 317.248 763.335C317.313 763.453 317.412 763.55 317.531 763.614C317.652 763.683 317.789 763.721 317.928 763.722C318.068 763.724 318.205 763.69 318.328 763.623C318.45 763.556 318.553 763.458 318.627 763.34C318.701 763.222 318.743 763.086 318.75 762.947C318.853 758.813 318.948 754.68 319.034 750.548C319.099 747.421 319.16 744.295 319.216 741.17C319.272 737.985 319.323 734.8 319.369 731.616C319.414 728.492 319.455 725.367 319.491 722.241C319.522 719.51 319.55 716.78 319.574 714.05C319.66 703.913 319.695 693.775 319.68 683.638C322.361 666.811 325.361 650.038 328.682 633.32C329.531 629.042 330.401 624.769 331.29 620.502C332.464 614.872 333.676 609.251 334.926 603.638C334.401 612.75 333.875 621.863 333.347 630.975V630.977C332.419 647.036 331.492 663.095 330.565 679.153C329.894 690.786 329.222 702.418 328.549 714.05C328.393 716.753 328.237 719.457 328.08 722.162C327.9 725.288 327.72 728.414 327.54 731.54C327.357 734.687 327.176 737.833 326.995 740.979C326.812 744.108 326.631 747.237 326.452 750.366C326.139 755.797 325.825 761.229 325.51 766.662C325.451 767.682 327.037 767.678 327.096 766.662C327.411 761.215 327.726 755.768 328.04 750.323C328.22 747.194 328.401 744.065 328.583 740.936C328.763 737.8 328.944 734.664 329.126 731.526C329.306 728.4 329.486 725.273 329.666 722.146C329.824 719.447 329.98 716.748 330.135 714.05C331.752 686.06 333.369 658.069 334.985 630.078C335.359 623.631 335.731 617.184 336.102 610.736L337.06 594.195C338.76 586.781 340.524 579.384 342.351 572.004C342.473 571.508 342.595 571.012 342.718 570.517C343.007 569.352 343.298 568.188 343.592 567.025C343.746 566.41 343.9 565.795 344.057 565.18H344.059C344.129 564.896 344.201 564.61 344.273 564.326C344.331 564.7 344.388 565.072 344.444 565.446C344.496 565.777 344.545 566.108 344.595 566.439C345.377 571.609 346.079 576.791 346.703 581.985C347.388 587.7 347.98 593.426 348.479 599.162V599.164L348.614 600.773C349.148 607.159 349.564 613.555 349.862 619.959V619.961C350.903 642.255 350.51 664.592 348.688 686.835C347.94 695.931 346.949 705.003 345.715 714.05C345.354 716.706 344.972 719.359 344.568 722.011C344.09 725.144 343.584 728.273 343.05 731.398C342.525 734.446 341.974 737.49 341.398 740.53C341.06 742.308 340.713 744.084 340.358 745.858C340.157 746.854 341.684 747.282 341.887 746.279C342.275 744.346 342.652 742.411 343.018 740.472C343.59 737.449 344.135 734.419 344.651 731.384C345.185 728.26 345.689 725.13 346.163 721.995C346.564 719.35 346.944 716.702 347.303 714.05C350.582 689.877 352.154 665.503 352.006 641.11C351.961 633.633 351.755 626.158 351.387 618.686C351.092 612.593 350.687 606.505 350.173 600.424C350.101 599.574 350.027 598.727 349.952 597.88C348.981 586.982 347.67 576.121 346.019 565.297C345.917 564.651 345.818 564.004 345.715 563.358C345.566 562.396 345.413 561.435 345.257 560.476C345.422 559.837 345.586 559.195 345.753 558.555C345.906 557.96 346.06 557.366 346.215 556.773C348.816 546.76 351.532 536.779 354.363 526.832V526.83C354.498 526.348 354.635 525.87 354.773 525.391C355.232 523.784 355.694 522.18 356.158 520.577C356.744 518.56 357.334 516.546 357.929 514.533C357.939 514.488 357.952 514.445 357.967 514.402C358.251 513.435 358.537 512.47 358.825 511.505C358.873 511.34 358.922 511.176 358.972 511.012C359.449 509.405 359.931 507.8 360.416 506.195C360.963 504.38 361.516 502.565 362.074 500.751C362.387 499.723 362.703 498.698 363.022 497.673V497.671C363.328 496.671 363.639 495.675 363.952 494.677C364.128 494.107 364.306 493.54 364.484 492.97C364.504 492.904 364.525 492.839 364.545 492.776C364.752 492.12 364.957 491.463 365.164 490.807V490.805C365.709 489.075 366.258 487.347 366.811 485.621C367.021 484.964 367.231 484.307 367.442 483.653C368.066 481.709 368.694 479.766 369.327 477.825C369.728 476.595 370.132 475.367 370.537 474.142C370.9 473.038 371.265 471.935 371.632 470.832V470.83C372.222 469.048 372.817 467.269 373.416 465.491C373.743 464.523 372.211 464.106 371.886 465.07C371.109 467.381 370.338 469.693 369.573 472.006V472.008C369.523 472.148 369.478 472.288 369.433 472.427C368.142 476.334 366.87 480.245 365.615 484.162C365.613 484.168 365.611 484.174 365.608 484.18C365.59 484.236 365.572 484.29 365.556 484.346C365.419 484.772 365.281 485.2 365.146 485.626C364.833 486.604 364.522 487.582 364.214 488.561C363.966 489.343 363.719 490.126 363.473 490.911C363.436 491.021 363.403 491.134 363.367 491.246C362.337 494.517 361.322 497.793 360.321 501.073C359.92 502.373 359.524 503.673 359.132 504.974C358.954 505.562 358.776 506.15 358.6 506.736C358.451 507.229 358.303 507.72 358.156 508.214C357.983 508.793 357.809 509.367 357.638 509.946V509.948C357.62 510.009 357.602 510.068 357.584 510.129C357.471 510.503 357.361 510.874 357.248 511.25C356.94 512.291 356.632 513.333 356.325 514.375C355.212 518.15 354.116 521.93 353.036 525.715C353.009 525.812 352.979 525.909 352.952 526.006V526.008C351.943 529.549 350.949 533.094 349.97 536.643C349.844 537.098 349.718 537.552 349.594 538.006C349.263 539.2 348.94 540.394 348.614 541.59C348.609 541.596 348.607 541.603 348.607 541.61C348.051 543.651 347.499 545.694 346.954 547.74C346.834 548.195 346.712 548.647 346.591 549.103C346.046 551.152 345.506 553.205 344.971 555.259C344.867 555.653 344.765 556.048 344.662 556.442C344.647 556.498 344.633 556.557 344.617 556.613L344.597 556.498C344.503 555.939 344.408 555.385 344.309 554.827V554.824C344.293 554.727 344.277 554.631 344.259 554.534C344.126 553.768 343.991 553.003 343.854 552.238C343.804 551.957 343.755 551.675 343.703 551.396C343.696 551.355 343.689 551.317 343.68 551.279C343.617 550.911 343.55 550.546 343.48 550.182C343.383 549.632 343.282 549.084 343.178 548.537C342.822 546.616 342.453 544.698 342.072 542.784V542.781C341.97 542.254 341.865 541.727 341.759 541.202C341.414 539.483 341.06 537.767 340.698 536.053C340.626 535.71 340.549 535.37 340.477 535.028C340.891 527.842 341.307 520.655 341.723 513.469C341.928 509.912 342.133 506.355 342.338 502.798C343.746 498.257 345.216 493.736 346.749 489.237C347.228 487.822 347.716 486.41 348.213 485C348.214 484.999 348.214 484.998 348.215 484.997C348.215 484.995 348.215 484.994 348.215 484.993C348.841 483.195 349.482 481.401 350.137 479.611C358.762 455.924 369.235 432.881 381.913 411.082C390.548 396.164 400.289 381.914 411.054 368.452C411.122 368.366 411.189 368.283 411.257 368.199C411.836 367.481 412.418 366.764 413.003 366.05C417.251 360.858 421.669 355.807 426.255 350.899C428.371 348.635 430.521 346.405 432.707 344.21C433.426 343.485 432.306 342.361 431.585 343.089V343.089ZM336.368 578.658C336.075 583.758 335.781 588.857 335.485 593.956C332.421 607.306 329.563 620.699 326.909 634.135C324.87 644.448 322.952 654.783 321.156 665.141C320.642 668.099 320.14 671.059 319.651 674.019C319.592 661.751 319.459 649.484 319.25 637.219C319.144 631.049 319.019 624.88 318.874 618.713C318.874 618.713 318.876 618.713 318.874 618.711C318.851 617.711 318.828 616.709 318.804 615.706L318.716 612.219C321.421 593.316 324.636 574.486 328.617 555.809C328.997 554.022 329.385 552.237 329.781 550.452C330.464 547.377 331.168 544.307 331.894 541.243V541.238C332.178 540.026 332.467 538.817 332.761 537.609C332.966 536.764 333.174 535.92 333.383 535.075C334.318 531.293 335.289 527.52 336.296 523.757C337.202 527.551 338.064 531.354 338.882 535.165C338.817 536.312 338.751 537.459 338.684 538.607C338.639 539.355 338.596 540.105 338.553 540.853C338.1 548.675 337.648 556.496 337.197 564.317C337.179 564.635 337.161 564.953 337.143 565.272C337.003 567.678 336.864 570.083 336.726 572.488V572.49C336.607 574.545 336.487 576.6 336.368 578.656V578.658ZM338.276 573.13C338.294 572.83 338.31 572.531 338.328 572.231C338.355 571.758 338.382 571.283 338.409 570.81C338.488 569.44 338.567 568.07 338.648 566.701V566.698C339.096 558.929 339.544 551.161 339.993 543.394C340.011 543.099 340.026 542.802 340.044 542.507V542.504C340.06 542.245 340.074 541.984 340.09 541.725V541.723C340.101 541.527 340.112 541.331 340.123 541.135C340.148 541.263 340.175 541.389 340.2 541.518C340.364 542.329 340.526 543.14 340.684 543.953C341.38 547.481 342.038 551.017 342.658 554.561C342.707 554.831 342.754 555.099 342.8 555.37V555.372C342.851 555.665 342.903 555.96 342.953 556.255V556.257C343.056 556.856 343.16 557.46 343.261 558.062V558.064C343.39 558.836 343.517 559.609 343.644 560.382C343.351 561.531 343.052 562.68 342.761 563.828C342.736 563.93 342.709 564.031 342.685 564.133C342.651 564.268 342.615 564.405 342.581 564.54C340.864 571.316 339.203 578.106 337.596 584.909C337.823 580.983 338.05 577.056 338.276 573.13V573.13ZM339.526 524.023L339.22 529.308C338.56 526.386 337.874 523.471 337.161 520.561C337.848 518.054 338.552 515.552 339.274 513.057V513.055C339.637 511.793 340.005 510.534 340.378 509.277C340.301 510.595 340.225 511.912 340.15 513.228C339.941 516.826 339.733 520.424 339.526 524.023V524.023ZM332.101 537.472C332.072 537.458 332.045 537.442 332.018 537.425C332.001 537.416 331.984 537.407 331.969 537.395C331.944 537.379 331.92 537.362 331.896 537.343C331.886 537.337 331.876 537.329 331.867 537.321C331.857 537.313 331.847 537.305 331.838 537.296C331.775 537.244 331.719 537.185 331.669 537.12C331.644 537.09 331.621 537.059 331.599 537.026C331.577 536.993 331.556 536.959 331.538 536.924C331.521 536.893 331.505 536.861 331.491 536.828C331.48 536.807 331.471 536.785 331.464 536.762C331.459 536.751 331.455 536.737 331.45 536.724C331.443 536.707 331.438 536.688 331.435 536.67C331.426 536.651 331.42 536.631 331.417 536.611C331.407 536.582 331.401 536.552 331.396 536.521C331.396 536.519 331.394 536.514 331.394 536.512C331.333 536.751 331.277 536.99 331.221 537.231V537.235L331.894 541.238C332.178 540.026 332.467 538.817 332.761 537.609C332.533 537.622 332.305 537.575 332.101 537.472V537.472ZM343.854 552.238C343.804 551.957 343.755 551.675 343.703 551.396C343.577 551.776 343.451 552.158 343.324 552.54C343.101 553.214 342.879 553.887 342.658 554.561C342.707 554.831 342.754 555.099 342.8 555.37C342.82 555.281 342.851 555.195 342.892 555.113L342.932 555.038C342.96 554.992 342.991 554.947 343.025 554.905C343.043 554.885 343.061 554.865 343.079 554.845C343.096 554.824 343.115 554.805 343.135 554.788C343.155 554.768 343.177 554.749 343.2 554.732C343.216 554.718 343.23 554.707 343.246 554.696C343.333 554.631 343.431 554.58 343.534 554.545C343.558 554.535 343.583 554.526 343.608 554.52C343.747 554.48 343.893 554.468 344.036 554.484C344.046 554.485 344.056 554.486 344.066 554.489C344.095 554.492 344.125 554.497 344.153 554.505C344.19 554.511 344.225 554.521 344.259 554.534C344.126 553.768 343.991 553.003 343.854 552.238V552.238ZM332.101 537.472C332.072 537.458 332.045 537.442 332.018 537.425C332.001 537.416 331.984 537.407 331.969 537.395C331.944 537.379 331.92 537.362 331.896 537.343C331.886 537.337 331.876 537.329 331.867 537.321C331.857 537.313 331.847 537.305 331.838 537.296C331.775 537.244 331.719 537.185 331.669 537.12C331.644 537.089 331.622 537.057 331.599 537.026C331.577 536.993 331.556 536.959 331.538 536.924C331.521 536.893 331.505 536.861 331.491 536.828C331.48 536.807 331.471 536.785 331.464 536.762C331.459 536.751 331.455 536.737 331.45 536.724C331.443 536.707 331.438 536.688 331.435 536.67C331.426 536.651 331.42 536.631 331.417 536.611C331.407 536.582 331.401 536.552 331.396 536.521C331.396 536.519 331.394 536.514 331.394 536.512C331.333 536.751 331.277 536.99 331.221 537.231V537.235L331.894 541.238C332.178 540.026 332.467 538.817 332.761 537.609C332.533 537.622 332.305 537.575 332.101 537.472V537.472ZM343.854 552.238C343.804 551.957 343.755 551.675 343.703 551.396C343.577 551.776 343.451 552.158 343.324 552.54C343.101 553.214 342.879 553.887 342.658 554.561C342.707 554.831 342.754 555.099 342.8 555.37C342.82 555.281 342.851 555.195 342.892 555.113L342.932 555.038C342.96 554.992 342.991 554.947 343.025 554.905C343.043 554.885 343.061 554.865 343.079 554.845C343.096 554.824 343.115 554.805 343.135 554.788C343.155 554.768 343.177 554.749 343.2 554.732C343.216 554.718 343.23 554.707 343.246 554.696C343.333 554.631 343.431 554.58 343.534 554.545C343.558 554.535 343.583 554.526 343.608 554.52C343.747 554.48 343.893 554.468 344.036 554.484C344.046 554.485 344.056 554.486 344.066 554.489C344.095 554.492 344.125 554.497 344.153 554.505C344.19 554.511 344.225 554.521 344.259 554.534C344.126 553.768 343.991 553.003 343.854 552.238V552.238Z" fill="#18442F"/>
<path d="M289.94 533.143C289.427 533.941 288.634 534.518 287.717 534.762C287.692 534.769 287.667 534.776 287.642 534.78V534.783C287.133 534.913 286.609 534.976 286.084 534.97H286.018C285.791 534.967 285.556 534.954 285.309 534.931C283.198 534.738 280.695 533.67 278.055 532.284C277.573 532.032 277.086 531.766 276.595 531.496C272.155 529.043 267.467 526.004 263.687 524.918C252.381 521.67 240.62 520.176 229.349 516.806C229.246 516.777 229.147 516.745 229.045 516.716C228.381 516.515 227.723 516.308 227.065 516.094C221.22 514.186 215.56 511.754 210.152 508.829C209.717 508.595 209.287 508.358 208.857 508.115C208.665 508.014 208.476 507.908 208.284 507.8C207.987 507.631 207.69 507.46 207.395 507.288V506.574L208.778 505.049L209.269 504.509L210.192 503.488L211.015 502.58C211.017 502.58 211.017 502.58 211.017 502.578L211.244 502.326C211.244 502.323 211.247 502.323 211.247 502.321L211.717 501.801L212.844 500.562L213.709 499.607L215.085 498.086L215.412 497.728L216.426 496.606L216.622 496.392L219.329 493.403L219.487 493.229L220.577 492.026L218.804 491.954L217.322 491.896L215.957 491.839L215.743 491.83L212.835 491.713L208.212 491.524C207.993 491.516 207.785 491.422 207.632 491.264C207.48 491.105 207.395 490.894 207.395 490.674V452.289L213.213 461.509L211.904 455.382L211.632 454.116L209.469 443.981C214.772 444.353 220.028 445.217 225.171 446.562C225.308 446.598 225.445 446.634 225.583 446.67C226.277 446.853 226.97 447.045 227.662 447.247C232.845 448.761 237.879 450.743 242.703 453.167C242.911 453.269 243.116 453.372 243.321 453.478C243.343 453.521 243.368 453.564 243.393 453.607C245.875 457.959 248.414 462.444 250.824 466.717C250.824 466.718 250.824 466.718 250.825 466.718C250.825 466.718 250.825 466.719 250.825 466.719C250.825 466.719 250.825 466.719 250.826 466.719C250.826 466.719 250.826 466.72 250.827 466.719C251.014 467.057 251.205 467.391 251.392 467.722C252.832 470.277 254.219 472.743 255.514 475.052C255.78 475.525 256.046 475.994 256.303 476.456C260.297 483.567 263.273 488.906 263.917 490.066C263.917 490.066 263.917 490.071 263.919 490.071C264.003 490.222 264.048 490.301 264.048 490.301C264.068 490.143 264.075 489.787 264.075 489.262V489.26C264.081 488.909 264.077 488.481 264.072 487.985C264.068 487.516 264.061 486.989 264.052 486.401C264.048 486.187 264.043 485.964 264.041 485.735C264.027 485.056 264.014 484.315 263.996 483.516C263.989 483.248 263.985 482.97 263.976 482.687C263.964 482.128 263.949 481.545 263.935 480.936C263.919 480.281 263.902 479.6 263.883 478.893C263.872 478.375 263.856 477.846 263.843 477.305C263.818 476.413 263.792 475.493 263.764 474.545C263.75 474.007 263.735 473.464 263.719 472.91C263.671 471.241 263.62 469.504 263.566 467.722C264.577 468.675 265.564 469.652 266.526 470.653C266.677 470.804 266.823 470.959 266.969 471.115C268.037 472.236 269.072 473.39 270.074 474.575C275.51 481.023 279.969 488.236 283.308 495.982V495.984C283.691 496.867 284.059 497.756 284.412 498.652V498.654C285.081 500.348 285.698 502.062 286.264 503.797C287.85 508.662 289.015 513.654 289.747 518.719C289.873 519.588 290.037 520.546 290.204 521.546V521.55C290.612 523.706 290.869 525.889 290.972 528.081V528.085C291.015 530.079 290.767 531.881 289.94 533.143Z" fill="#35684F"/>
<path d="M409.147 502.12C412.554 500.311 415.856 498.311 419.037 496.129C404.941 493.497 393.166 491.239 391.922 490.82C391.922 490.82 418.053 482.931 441.344 475.641C450.559 464.465 457.423 451.544 461.523 437.651L439.593 437.557L463.692 428.814C465.592 419.533 466.622 410.059 469.267 400.964C472.297 390.546 477.889 380.272 487.237 374.763C460.676 374.126 434.236 382.275 412.04 396.836L401.193 438.403L386.79 418.224C380.012 425.566 374.135 433.692 369.284 442.427C362.318 455.024 357.464 468.691 350.633 481.361C346.72 488.619 335.249 497.568 333.028 504.596C329.981 514.237 343.561 513.578 351.25 514.129C371.155 515.558 391.496 511.485 409.147 502.12Z" fill="#35684F"/>
<path d="M415.728 319.387C416.85 317.146 418.097 314.97 419.463 312.87C421.395 321.983 423.047 329.594 423.339 330.396C423.339 330.396 428.05 313.301 432.417 298.06C439.53 291.898 447.813 287.237 456.771 284.355L457.178 298.596L462.477 282.807C468.474 281.427 474.611 280.608 480.476 278.747C487.194 276.614 493.778 272.821 497.208 266.663C498.041 283.903 493.166 301.203 484.059 315.848L457.235 323.548L470.567 332.584C465.906 337.101 460.721 341.046 455.125 344.335C447.054 349.057 438.254 352.425 430.134 357.062C425.482 359.718 419.85 367.309 415.321 368.862C409.108 370.993 409.322 362.163 408.842 357.178C407.601 344.273 409.925 330.998 415.728 319.387Z" fill="#4DB27C"/>
<path d="M298.813 258.907C298.769 256.401 298.867 253.895 299.105 251.4C305.037 258.583 310.026 264.565 310.656 265.14C310.656 265.14 306.916 247.807 303.73 232.276C307.181 223.521 312.365 215.554 318.971 208.852L325.925 221.286L323.311 204.838C327.987 200.838 333.048 197.271 337.384 192.906C342.352 187.905 346.431 181.494 346.62 174.448C355.341 189.343 359.03 206.934 357.739 224.131L337.529 243.376L353.529 245.212C351.489 251.374 348.721 257.271 345.283 262.777C340.316 270.7 334.076 277.76 329.025 285.629C326.131 290.137 324.654 299.473 321.359 302.947C316.839 307.712 312.94 299.787 310.207 295.59C303.131 284.727 299.045 271.885 298.813 258.907Z" fill="#4DB27C"/>
<path d="M338.328 370.802C338.854 366.981 339.164 363.133 339.256 359.277C328.874 369.167 320.154 377.396 319.085 378.16C319.085 378.16 327.977 352.353 335.692 329.199C332.021 315.187 325.558 302.061 316.69 290.607L303.783 308.336L310.793 283.677C304.379 276.706 297.298 270.328 291.47 262.861C284.794 254.308 279.734 243.762 280.736 232.958C264.679 254.125 255.817 280.335 254.639 306.855L282.001 339.972L257.21 339.846C259.199 349.638 262.35 359.158 266.596 368.204C272.735 381.223 280.978 393.156 287.256 406.109C290.853 413.529 291.399 428.068 295.799 433.981C301.834 442.093 309.246 430.694 314.192 424.781C326.997 409.475 335.595 390.596 338.328 370.802Z" fill="#35684F"/>
<path d="M410.3 287.645C410.278 288.992 410.235 290.339 410.169 291.686C410.062 293.949 409.891 296.207 409.657 298.461C409.654 298.461 409.654 298.461 409.657 298.464C409.625 298.775 409.593 299.083 409.558 299.391V299.393C409.526 299.693 409.491 299.991 409.456 300.288L407.906 301.646L406.891 302.532L405.736 303.539L402.306 306.541L396.01 312.047L390.632 316.747L389.893 317.395H389.89L388.838 318.317L388.283 318.801L384.979 321.691L383.768 322.749L381.725 324.538L380.035 326.014L381.69 326.276L388.401 327.334L389.226 327.465L402.314 329.533C401.829 330.802 401.323 332.064 400.795 333.32C400.691 333.574 400.581 333.826 400.474 334.08C399.922 335.365 399.347 336.641 398.749 337.907C398.747 337.915 398.741 337.923 398.739 337.931C398.567 338.293 398.396 338.654 398.219 339.013C398.128 339.203 398.034 339.393 397.943 339.583C397.533 340.414 397.114 341.239 396.685 342.061C396.261 342.875 395.827 343.683 395.38 344.484V344.487C394.657 345.794 393.907 347.086 393.131 348.362C392.962 348.638 392.793 348.914 392.625 349.19C392.268 349.763 391.909 350.333 391.543 350.898C391.398 351.123 391.253 351.346 391.106 351.571C390.75 352.117 390.387 352.661 390.016 353.202C389.922 353.341 389.829 353.48 389.732 353.619C389.21 354.38 388.679 355.134 388.139 355.882C387.716 356.472 387.288 357.056 386.856 357.637C386.553 358.044 386.251 358.448 385.94 358.852C385.581 359.332 385.214 359.811 384.845 360.288C382.686 363.084 380.453 365.826 378.208 368.56C377.705 369.176 377.2 369.792 376.693 370.408C372.879 375.055 369.084 379.715 365.627 384.629C361.31 390.764 358.69 403.737 353.873 408.402C347.266 414.803 342.282 403.48 338.707 397.449C329.451 381.828 324.497 363.617 324.944 345.446C325.031 341.938 325.317 338.437 325.798 334.961C329.81 340.261 333.495 345.108 336.259 348.7C336.792 349.391 337.288 350.032 337.748 350.625C338.182 351.188 338.581 351.701 338.945 352.165L338.948 352.168C339.13 352.403 339.304 352.623 339.467 352.832C340.346 353.943 340.929 354.656 341.144 354.87C341.144 354.87 341.01 354.096 340.771 352.703C340.68 352.163 340.571 351.528 340.447 350.807C339.111 342.953 336.066 324.988 333.404 308.475C338.753 296.431 346.479 285.593 356.119 276.608L365.113 294.418L363.495 280.446L363.187 277.776L362.432 271.249C367.949 266.922 373.806 263.009 379.207 258.547C379.834 258.03 380.453 257.505 381.066 256.973V256.97C381.66 256.453 382.249 255.926 382.831 255.39C387.547 251.03 391.773 245.81 394.336 239.98C394.663 239.238 394.962 238.487 395.233 237.728C396.114 235.275 396.658 232.713 396.848 230.114C398.393 233.03 399.804 236.007 401.082 239.045C401.326 239.624 401.561 240.2 401.797 240.781V240.783C402.169 241.713 402.53 242.647 402.879 243.585C403.34 244.827 403.779 246.078 404.197 247.337C404.344 247.776 404.488 248.215 404.625 248.657C405.072 250.052 405.492 251.455 405.884 252.864C406.221 254.069 406.537 255.279 406.832 256.493C407.022 257.267 407.204 258.046 407.381 258.826C407.582 259.736 407.774 260.649 407.957 261.563C408.058 262.069 408.157 262.576 408.251 263.084C408.251 263.084 408.254 263.084 408.251 263.087C408.776 265.909 409.2 268.748 409.523 271.603C409.628 272.511 409.719 273.421 409.802 274.332C409.981 276.29 410.113 278.252 410.198 280.218C410.233 281.008 410.26 281.801 410.278 282.591C410.321 284.276 410.328 285.96 410.3 287.645Z" fill="#558D71"/>
<path d="M257.938 339.852C257.803 340.334 257.661 340.816 257.517 341.296C257.319 341.949 257.112 342.598 256.898 343.244C255.706 346.83 254.42 352.453 251.73 354.341C251.296 354.658 250.792 354.866 250.261 354.949C249.362 355.087 248.333 354.852 247.148 354.116C242.699 351.356 238.549 341.895 234.24 337.932C226.718 331.012 218.162 325.281 210.713 318.282L210.679 318.25C209.638 317.263 208.809 316.073 208.244 314.755C207.68 313.436 207.39 312.016 207.395 310.581V298.003L213.531 295.617C211.672 294.591 210.122 293.085 209.043 291.257C207.964 289.428 207.395 287.343 207.395 285.22V246.168C210.879 247.772 214.423 249.259 217.874 250.931L219.672 269.045L223.576 253.972C232.419 259.225 240.11 266.211 246.186 274.51C247.125 291.813 247.977 311.175 247.977 311.175C248.457 310.436 251.719 303.495 255.692 294.926C255.92 294.437 256.149 293.944 256.38 293.446C257.323 296.017 258.121 298.64 258.77 301.301C259.796 305.534 260.444 309.85 260.707 314.198C261.227 322.844 260.291 331.516 257.938 339.852V339.852Z" fill="#558D71"/>
<path d="M332.881 435.568C331.276 432.095 329.477 428.715 327.492 425.445C324.111 439.259 321.23 450.796 320.746 452.005C320.746 452.005 314.368 425.696 308.426 402.232C297.865 392.493 285.445 384.987 271.913 380.165L270.617 401.876L263.28 377.532C254.194 375.141 244.869 373.602 236.007 370.483C225.856 366.911 215.989 360.81 211.047 351.251C208.959 377.518 215.579 404.149 228.78 426.927L269.348 439.949L248.575 453.105C255.474 460.219 263.198 466.485 271.583 471.768C283.674 479.358 296.942 484.914 309.114 492.374C316.087 496.647 324.32 508.497 331.158 511.082C340.537 514.628 340.63 501.144 341.598 493.56C344.104 473.927 341.187 453.56 332.881 435.568Z" fill="#558D71"/>
<path d="M386.144 543.014C386.139 544.165 386.113 545.316 386.067 546.465C386.056 546.739 386.045 547.015 386.029 547.288C385.919 549.626 385.726 551.958 385.451 554.286C385.223 556.211 384.942 558.128 384.607 560.035C384.465 560.844 384.313 561.65 384.152 562.454C383.948 563.477 383.728 564.495 383.49 565.509C383.319 566.249 383.139 566.988 382.952 567.721C382.818 568.246 382.68 568.769 382.537 569.291C381.934 569.824 381.33 570.359 380.724 570.895C380.325 571.251 379.926 571.602 379.527 571.958H379.524C378.024 573.284 376.516 574.612 375.017 575.933C374.43 576.452 373.844 576.969 373.257 577.483C359.09 589.952 346.037 601.283 346.037 601.283C347.264 601.165 358.217 598.573 371.302 595.413C370.828 596.187 370.344 596.955 369.851 597.716C369.634 598.053 369.412 598.386 369.189 598.718C367.906 600.64 366.555 602.516 365.135 604.344C353.613 619.149 337.757 630.453 320.159 636.878C313.359 639.36 301.98 645.142 300.887 635.713C300.089 628.841 306.474 616.768 307.039 609.047C308.019 595.571 306.926 581.998 308.054 568.533C308.851 559.186 310.763 549.968 313.747 541.074L333.838 552.823L332.58 545.338L332.159 542.826L327.157 513.054C336.173 498.9 347.896 486.666 361.653 477.055C361.843 476.926 362.031 476.795 362.221 476.666C363.498 475.788 364.794 474.935 366.107 474.109C366.396 473.927 366.688 473.745 366.98 473.565C367.7 473.118 368.427 472.679 369.16 472.248C369.72 471.918 370.283 471.592 370.85 471.27C371.251 471.042 371.655 470.818 372.06 470.595C372.062 470.595 372.063 470.595 372.064 470.595C372.066 470.594 372.067 470.594 372.068 470.593C372.226 470.502 372.387 470.416 372.545 470.327C375.969 468.458 379.486 466.764 383.083 465.252C381.533 467.456 380.292 469.862 379.395 472.403C379.13 473.134 378.895 473.876 378.683 474.628C378.105 476.69 377.697 478.796 377.465 480.925V480.927C377.373 481.717 377.305 482.51 377.258 483.305C377.24 483.6 377.223 483.895 377.21 484.187C377.186 484.77 377.17 485.357 377.167 485.941C377.162 486.599 377.169 487.258 377.189 487.917C377.221 489.141 377.298 490.362 377.411 491.575C377.494 492.505 377.598 493.427 377.724 494.342C377.735 494.428 377.748 494.513 377.759 494.599C377.901 495.619 378.063 496.636 378.244 497.649C378.34 498.188 378.44 498.724 378.544 499.259C378.691 500.009 378.845 500.756 379.004 501.5C379.304 502.885 379.623 504.266 379.961 505.643C380.196 506.616 380.439 507.588 380.689 508.56C380.898 509.385 381.109 510.209 381.324 511.032C381.42 511.404 381.514 511.776 381.613 512.149C382.092 514.015 382.572 515.882 383.022 517.754C383.182 518.415 383.34 519.074 383.488 519.735C383.557 520.022 383.622 520.309 383.686 520.595L383.054 521.208L381.254 522.952L380.7 523.488L379.272 524.872L378.991 525.145L378.841 525.29C378.841 525.29 378.841 525.291 378.841 525.291C378.841 525.291 378.841 525.291 378.84 525.292C378.84 525.292 378.84 525.292 378.839 525.292C378.839 525.292 378.839 525.292 378.838 525.292L378.121 525.989L377.363 526.723L373.123 530.831L368.873 534.952L368.622 535.196L367.055 536.714L366.559 537.191C366.559 537.191 366.559 537.191 366.558 537.191C366.558 537.192 366.558 537.192 366.557 537.192C366.557 537.192 366.557 537.193 366.557 537.193C366.557 537.193 366.557 537.194 366.557 537.194L366.404 537.344L366.961 537.095C366.962 537.094 366.963 537.093 366.965 537.093C366.966 537.092 366.968 537.092 366.969 537.092L367.593 536.816L368.346 536.482C368.348 536.481 368.35 536.48 368.351 536.479L371.715 534.99L373.97 533.988L374.098 533.932L375.812 533.172L376.447 532.89L378.678 531.902L378.686 531.899L381.865 530.488L382.553 530.183L385.223 528.999C385.252 529.221 385.285 529.441 385.311 529.663C385.477 530.922 385.618 532.185 385.734 533.453C385.801 534.173 385.859 534.893 385.909 535.614C385.917 535.702 385.922 535.791 385.927 535.876C386.037 537.518 386.106 539.161 386.133 540.804C386.144 541.538 386.15 542.274 386.144 543.014Z" fill="#4DB27C"/>
<path d="M250.724 353.811C245.335 332.751 237.637 312.351 227.771 292.981C227.307 292.071 225.938 292.873 226.401 293.781C236.2 313.031 243.844 333.305 249.194 354.232C249.447 355.221 250.977 354.802 250.724 353.811Z" fill="#18442F"/>
<path d="M308.984 390.022C305.096 368.867 301.208 347.711 297.32 326.556C296.215 320.541 295.109 314.526 294.004 308.512C293.82 307.509 292.291 307.934 292.474 308.933C296.362 330.089 300.25 351.244 304.138 372.399C305.243 378.414 306.349 384.429 307.454 390.444C307.638 391.446 309.167 391.022 308.984 390.022Z" fill="#18442F"/>
<path d="M339.387 211.002C327.177 227.446 319.629 246.88 317.538 267.255C316.937 273.133 316.805 279.048 317.143 284.947C317.201 285.962 318.788 285.968 318.73 284.947C317.239 258.733 325.038 232.833 340.757 211.802C341.368 210.984 339.992 210.192 339.387 211.002Z" fill="#18442F"/>
<path d="M384.72 265.965C382.549 285.489 369.536 301.51 361.544 318.868C353.452 336.496 348.564 355.423 347.108 374.764C346.272 385.836 346.582 396.964 348.034 407.973C348.165 408.97 349.753 408.983 349.62 407.973C347.039 388.299 348.101 368.319 352.752 349.03C355.069 339.39 358.277 329.987 362.334 320.942C366.294 312.137 371.284 303.89 375.847 295.398C380.81 286.163 385.137 276.485 386.306 265.965C386.419 264.951 384.832 264.959 384.72 265.965Z" fill="#18442F"/>
<path d="M467.036 296.875C442.784 315.42 423.429 339.608 410.653 367.337C410.228 368.258 411.595 369.064 412.023 368.137C424.677 340.654 443.833 316.665 467.837 298.244C468.636 297.632 467.846 296.253 467.036 296.875Z" fill="#18442F"/>
<path d="M326.202 495.284C316.758 475.318 305.412 456.308 292.321 438.518C288.67 433.561 284.889 428.704 280.977 423.947C280.329 423.158 279.212 424.286 279.855 425.069C293.77 442.011 306.027 460.25 316.457 479.535C319.398 484.974 322.19 490.491 324.832 496.085C325.269 497.007 326.637 496.203 326.202 495.284Z" fill="#18442F"/>
<path d="M439.563 404.879C424.989 423.377 410.415 441.875 395.841 460.374C391.724 465.6 387.606 470.826 383.489 476.052C382.864 476.845 383.979 477.975 384.611 477.173C399.185 458.675 413.759 440.177 428.333 421.678C432.45 416.453 436.568 411.227 440.685 406.001C441.31 405.207 440.195 404.077 439.563 404.879Z" fill="#18442F"/>
<path d="M292.205 546.052C285.143 524.824 271.402 506.07 253.445 492.752C248.256 488.907 242.727 485.542 236.928 482.699C236.015 482.251 235.21 483.618 236.127 484.069C256.047 493.924 272.457 509.663 283.134 529.155C286.162 534.69 288.686 540.486 290.675 546.473C290.996 547.437 292.528 547.024 292.205 546.052Z" fill="#18442F"/>
<path d="M358.322 507.131C352.006 526.255 345.69 545.379 339.374 564.503C334.003 580.767 328.622 597.157 320.622 612.36C316.12 620.916 310.773 629.019 304.304 636.221C303.623 636.978 304.741 638.104 305.425 637.342C316.849 624.626 324.657 609.295 330.877 593.488C337.716 576.107 343.141 558.149 348.996 540.422C352.615 529.466 356.233 518.509 359.852 507.553C360.173 506.581 358.641 506.165 358.322 507.131Z" fill="#18442F"/>
<path d="M367.999 714.05L366.81 721.806L365.369 731.192L364.084 739.572L362.635 749.015L349.014 837.791L347.578 847.162L346.304 855.466H251.492L250.096 846.993L248.551 837.617L234.159 750.279L232.608 740.863L231.218 732.427L229.676 723.067L228.189 714.05H367.999Z" fill="#FE6F8B"/>
<path d="M366.812 721.806L365.371 731.192C359.34 731.246 353.311 731.301 347.283 731.358C325.519 731.559 303.755 731.76 281.992 731.961C265.066 732.116 248.142 732.272 231.22 732.427L229.678 723.067C237.661 722.995 245.644 722.922 253.628 722.847C275.39 722.647 297.154 722.446 318.92 722.245C334.884 722.098 350.848 721.951 366.812 721.806Z" fill="white"/>
<path d="M364.083 739.572L362.634 749.015C355.952 749.339 349.267 749.621 342.578 749.861C320.762 750.651 298.937 751.015 277.101 750.954C262.784 750.911 248.47 750.686 234.158 750.279L232.607 740.863C237.854 741.018 243.102 741.148 248.352 741.251C270.178 741.688 292.006 741.698 313.836 741.281C330.593 740.962 347.342 740.392 364.083 739.572Z" fill="white"/>
<path d="M349.012 837.791L347.576 847.162C343.897 847.157 340.216 847.15 336.535 847.143L250.094 846.993L248.549 837.617C254.489 837.628 260.43 837.639 266.372 837.649C293.918 837.698 321.465 837.745 349.012 837.791Z" fill="#DDB891"/>
<path d="M254.859 761.623C252.407 761.623 250.059 763.779 250.172 766.31C250.286 768.849 252.231 770.997 254.859 770.997C257.31 770.997 259.659 768.841 259.545 766.31C259.432 763.771 257.486 761.623 254.859 761.623Z" fill="#DDB891"/>
<path d="M278.423 804.674C278.235 804.096 277.901 803.576 277.453 803.166C277.043 802.717 276.523 802.384 275.945 802.197C275.39 801.904 274.767 801.765 274.139 801.793L272.894 801.96C272.111 802.176 271.399 802.591 270.826 803.166C270.581 803.482 270.337 803.798 270.093 804.114C269.672 804.831 269.452 805.648 269.453 806.48V806.881C269.424 807.508 269.564 808.132 269.856 808.687C270.044 809.265 270.377 809.785 270.826 810.195C271.236 810.643 271.756 810.977 272.334 811.164C272.889 811.457 273.512 811.596 274.139 811.568C274.555 811.512 274.97 811.456 275.385 811.4C276.168 811.185 276.88 810.769 277.453 810.195C277.698 809.879 277.942 809.563 278.186 809.247C278.607 808.529 278.827 807.713 278.826 806.881V806.48C278.855 805.852 278.715 805.229 278.423 804.674V804.674Z" fill="white"/>
<path d="M343.05 821.776C342.839 821.21 342.509 820.695 342.081 820.268C341.654 819.84 341.139 819.51 340.573 819.299C340.018 819.006 339.394 818.867 338.767 818.895L337.521 819.063C336.739 819.278 336.027 819.694 335.453 820.268C335.209 820.584 334.965 820.9 334.72 821.216C334.3 821.934 334.079 822.75 334.081 823.582V823.984C334.067 824.906 334.335 825.811 334.85 826.576C335.365 827.342 336.102 827.932 336.962 828.267C337.517 828.559 338.14 828.699 338.767 828.67C339.183 828.614 339.598 828.559 340.013 828.503C340.795 828.287 341.508 827.872 342.081 827.298C342.325 826.981 342.57 826.665 342.814 826.349C343.234 825.632 343.455 824.815 343.454 823.984V823.582C343.482 822.955 343.343 822.331 343.05 821.776V821.776Z" fill="white"/>
<path d="M317.385 763.3C317.198 762.721 316.864 762.202 316.416 761.791C316.006 761.343 315.486 761.009 314.908 760.822C314.353 760.53 313.729 760.39 313.102 760.419L311.856 760.586C311.074 760.802 310.362 761.217 309.788 761.791L309.056 762.74C308.635 763.457 308.414 764.274 308.416 765.105V765.507C308.387 766.134 308.527 766.757 308.819 767.313C309.007 767.891 309.34 768.41 309.788 768.821C310.199 769.269 310.719 769.603 311.297 769.79C311.852 770.083 312.475 770.222 313.102 770.194C313.518 770.138 313.933 770.082 314.348 770.026C315.13 769.81 315.843 769.395 316.416 768.821C316.661 768.505 316.905 768.189 317.149 767.872C317.569 767.155 317.79 766.338 317.789 765.507V765.105C317.817 764.478 317.678 763.855 317.385 763.3V763.3Z" fill="#DDB891"/>
<path d="M327.163 801.391C324.712 801.391 322.363 803.546 322.477 806.077C322.59 808.616 324.536 810.764 327.163 810.764C329.615 810.764 331.963 808.608 331.85 806.077C331.736 803.538 329.791 801.391 327.163 801.391Z" fill="#DDB891"/>
<path d="M289.802 776.486C287.35 776.486 285.002 778.642 285.115 781.172C285.229 783.712 287.175 785.859 289.802 785.859C292.253 785.859 294.602 783.704 294.489 781.172C294.375 778.633 292.429 776.486 289.802 776.486Z" fill="white"/>
<path d="M348.056 757.607C345.604 757.607 343.256 759.763 343.369 762.294C343.483 764.833 345.428 766.98 348.056 766.98C350.507 766.98 352.856 764.825 352.742 762.294C352.629 759.754 350.683 757.607 348.056 757.607Z" fill="#DDB891"/>
<path d="M310.958 820.741C310.771 820.163 310.437 819.643 309.989 819.233C309.578 818.785 309.058 818.451 308.48 818.264C307.925 817.971 307.302 817.832 306.675 817.86C306.259 817.916 305.844 817.972 305.429 818.028C304.647 818.243 303.934 818.659 303.361 819.233C303.116 819.549 302.872 819.865 302.628 820.181C302.208 820.899 301.987 821.715 301.988 822.547V823.35C301.96 823.977 302.099 824.601 302.392 825.156C302.579 825.734 302.913 826.254 303.361 826.664C303.771 827.112 304.291 827.446 304.869 827.633C305.424 827.926 306.048 828.065 306.675 828.037L307.921 827.869C308.703 827.654 309.415 827.238 309.989 826.664C310.233 826.348 310.477 826.032 310.721 825.716C311.142 824.998 311.363 824.182 311.361 823.35V822.547C311.39 821.92 311.25 821.297 310.958 820.741V820.741Z" fill="#DDB891"/>
<path d="M262.354 824.357C262.167 823.779 261.833 823.259 261.385 822.849C260.975 822.401 260.455 822.067 259.877 821.88C259.322 821.587 258.698 821.448 258.071 821.476L256.825 821.643C256.043 821.859 255.33 822.275 254.757 822.849C254.513 823.165 254.269 823.481 254.024 823.797C253.604 824.515 253.383 825.331 253.384 826.163V826.564C253.356 827.191 253.495 827.815 253.788 828.37C253.975 828.948 254.309 829.468 254.757 829.878C255.168 830.326 255.687 830.66 256.265 830.847C256.821 831.14 257.444 831.279 258.071 831.251C258.486 831.195 258.902 831.139 259.317 831.084C260.099 830.868 260.812 830.453 261.385 829.878C261.629 829.562 261.874 829.246 262.118 828.93C262.538 828.212 262.759 827.396 262.758 826.564V826.163C262.786 825.536 262.647 824.912 262.354 824.357V824.357Z" fill="#DDB891"/>
<path d="M825.826 296.977C823.19 274.623 813.12 252.862 794.297 239.727C785.613 233.667 775.419 229.65 764.831 228.774C764.433 228.74 764.034 228.713 763.633 228.691C763.128 228.54 762.622 228.394 762.112 228.254C761.984 228.213 761.845 228.217 761.719 228.265C761.593 228.313 761.487 228.403 761.419 228.519C761.381 228.436 761.327 228.361 761.259 228.3C761.191 228.239 761.111 228.192 761.024 228.164C760.937 228.135 760.845 228.125 760.754 228.134C760.663 228.143 760.575 228.17 760.495 228.215C760.754 211.5 761.012 194.784 761.268 178.068C761.313 175.173 762.175 3.68232 762.22 0.787598H760.365C760.119 16.6669 759.785 201.14 759.542 217.019C759.483 220.878 759.424 224.737 759.364 228.596L759.335 228.626C750.709 228.913 742.268 231.202 734.679 235.311C727.406 239.236 720.919 244.468 715.542 250.744C714.08 252.439 712.702 254.197 711.409 256.02C704.635 265.558 700.301 276.711 697.955 288.13C692.788 313.279 697.275 339.019 703.72 363.49C704.569 366.714 705.448 369.928 706.356 373.134C706.395 373.289 706.494 373.423 706.631 373.505C706.654 373.648 706.73 373.777 706.842 373.867C706.955 373.958 707.097 374.004 707.241 373.996L768.614 373.3C768.732 373.409 768.888 373.469 769.049 373.467C769.21 373.466 769.364 373.403 769.481 373.291L790.782 373.05C796.718 372.983 802.656 372.915 808.595 372.848C808.66 372.931 808.744 372.999 808.84 373.045C808.936 373.091 809.042 373.114 809.148 373.113C809.255 373.112 809.359 373.087 809.454 373.039C809.549 372.991 809.632 372.921 809.696 372.836C811.174 372.818 812.652 372.802 814.132 372.787C815.096 372.774 814.954 371.053 813.695 371.584L813.598 371.489C818.506 358.174 822.705 344.324 824.911 330.236C826.632 319.249 827.141 308.116 825.826 296.977ZM707.584 372.69C700.794 348.503 694.896 323.372 697.699 298.094C699.582 281.109 705.644 264.344 716.698 251.463C720.198 247.367 724.192 243.72 728.588 240.605C736.855 234.759 746.555 230.835 756.692 230.051C739.431 240.037 725.358 254.714 716.105 272.379C705.853 291.985 702.393 314.554 705.867 336.379C707.881 349.104 712.246 361.343 718.737 372.471C718.756 372.503 718.778 372.533 718.802 372.562L707.584 372.69ZM730.593 372.429L719.784 372.55C719.879 372.455 719.938 372.329 719.952 372.195C719.966 372.061 719.934 371.927 719.861 371.814C708.453 352.317 703.815 329.105 706.644 306.706C708.883 288.962 716.045 272.078 726.88 257.919C728.739 255.491 730.702 253.147 732.771 250.886C740.039 242.938 748.513 236.183 757.882 230.871C745.249 244.233 735.522 260.069 729.315 277.378C722.342 296.974 720.127 317.946 722.852 338.566C724.385 350.203 727.457 361.585 731.987 372.413L730.593 372.429ZM733.363 372.397C733.353 372.349 733.338 372.302 733.318 372.257C725.117 352.771 721.734 331.594 723.458 310.522C724.814 294.392 729.182 278.658 736.335 264.137C737.894 260.958 739.58 257.845 741.394 254.797C746.424 246.355 752.391 238.508 759.182 231.405C759.168 231.5 759.175 231.597 759.202 231.689C759.213 231.729 759.224 231.77 759.236 231.811C759.222 231.847 759.209 231.885 759.195 231.921C759.046 231.944 758.91 232.016 758.807 232.126C758.704 232.236 758.641 232.377 758.627 232.527C758.587 232.941 758.551 233.356 758.51 233.77C753.947 246.165 750.299 258.877 747.596 271.805C746.704 276.074 745.915 280.364 745.231 284.677C742.278 303.228 741.25 322.034 742.162 340.796C742.682 351.342 743.821 361.848 745.573 372.26C741.502 372.305 737.433 372.351 733.363 372.397V372.397ZM746.821 372.244C746.847 372.147 746.852 372.045 746.835 371.947C741.337 339 741.988 305.321 748.756 272.611C749.596 268.545 750.53 264.499 751.556 260.472C753.403 253.236 755.556 246.089 758.015 239.03C756.857 251.742 755.966 264.475 755.341 277.23C755.179 280.525 755.036 283.822 754.913 287.119C754.221 305.348 754.081 323.586 754.492 341.835C754.717 351.945 755.113 362.048 755.681 372.145C752.728 372.179 749.774 372.212 746.821 372.244V372.244ZM768.44 372.001C764.622 372.043 760.803 372.086 756.983 372.129C755.983 354.134 755.513 336.121 755.573 318.089C755.622 304.762 755.966 291.441 756.602 278.126C756.837 273.215 757.111 268.307 757.425 263.402C758.051 253.612 758.837 243.835 759.783 234.072C759.797 234.034 759.81 233.996 759.826 233.955C764.512 251.083 767.849 268.552 769.805 286.202C769.864 286.731 769.92 287.261 769.974 287.79C771.861 305.595 772.345 323.52 771.423 341.4C770.893 351.638 769.899 361.839 768.44 372.001V372.001ZM780.303 371.865C776.784 371.906 773.266 371.946 769.749 371.985C772.324 353.932 773.452 335.702 773.121 317.469C772.943 307.905 772.365 298.358 771.387 288.829C770.472 279.874 769.204 270.966 767.582 262.105C765.719 251.923 763.392 241.842 760.601 231.862C760.608 231.847 760.614 231.829 760.621 231.811C772.328 242.396 776.219 258.861 778.494 273.932C779.605 281.289 780.49 288.678 781.15 296.1C782.348 309.564 782.824 323.082 782.576 336.597C782.364 348.334 781.607 360.042 780.305 371.721C780.299 371.769 780.298 371.817 780.303 371.865V371.865ZM781.58 371.852C781.593 371.809 781.603 371.766 781.61 371.721C783.96 350.577 784.531 329.273 783.317 308.033C783.108 304.399 782.846 300.769 782.533 297.143C781.932 290.205 781.141 283.286 780.161 276.387C778.972 268.007 777.471 259.611 774.624 251.614C771.914 244.013 767.906 236.832 762.004 231.31C770.071 233.669 777.077 238.742 782.517 245.117C789.048 252.77 793.119 262.184 795.788 271.805C798.658 282.145 800.221 292.902 801.035 303.586C801.242 306.285 801.39 308.987 801.481 311.691C802.192 331.953 799.74 352.201 794.213 371.708C790.003 371.755 785.792 371.803 781.58 371.852V371.852ZM808.779 371.543C804.375 371.593 799.973 371.642 795.572 371.692C800.95 352.518 803.394 332.64 802.821 312.734C802.758 310.581 802.66 308.429 802.526 306.278C801.848 295.416 800.377 284.497 797.703 273.941C795.2 264.053 791.364 254.326 785.074 246.208C779.19 238.614 771.202 232.5 761.883 229.92C762.394 229.936 762.905 229.957 763.414 229.986C781.792 235.536 796.621 249.276 806.033 265.779C816.29 283.76 819.561 304.523 818.331 324.978C818.2 327.152 818.02 329.319 817.79 331.481C816.344 345.126 813.064 358.525 808.779 371.543V371.543ZM815.364 362.598C814.371 365.542 813.334 368.47 812.253 371.381C812.239 371.421 812.228 371.463 812.221 371.505C811.532 371.512 810.843 371.519 810.154 371.528C814.972 356.82 818.527 341.456 819.579 325.971C820.249 316.732 819.898 307.448 818.533 298.285C815.407 277.89 805.997 258.332 790.679 244.293C784.403 238.491 777.133 233.867 769.217 230.644C775.663 231.763 781.876 233.948 787.604 237.109C797.061 242.324 805.116 249.751 811.079 258.755C817.337 268.167 821.343 278.924 823.449 289.996C825.931 303.052 825.686 316.264 823.722 329.283C822.014 340.611 819.004 351.792 815.364 362.598V362.598Z" fill="#BC7123"/>
<path d="M1002.41 311.027C1050.21 311.027 1088.95 272.282 1088.95 224.489C1088.95 176.695 1050.21 137.95 1002.41 137.95C954.62 137.95 915.875 176.695 915.875 224.489C915.875 272.282 954.62 311.027 1002.41 311.027Z" fill="#FDD076"/>
<path d="M1090.66 186.947C1080.98 163.874 1062.7 145.47 1039.7 135.62C1022.14 128.151 1002.74 126.129 984.015 129.814C965.292 133.5 948.107 142.724 934.688 156.29C923.559 167.476 915.336 181.216 910.738 196.311C906.139 211.406 905.305 227.396 908.308 242.887C911.31 258.379 918.058 272.9 927.963 285.183C937.868 297.467 950.628 307.14 965.131 313.358C982.691 320.826 1002.09 322.848 1020.81 319.163C1039.53 315.477 1056.72 306.253 1070.14 292.687C1083.62 279.057 1092.76 261.742 1096.41 242.925C1100.06 224.107 1098.06 204.63 1090.66 186.947V186.947ZM1002.41 318.688C950.845 318.688 908.89 276.429 908.89 224.489C908.89 172.548 950.845 130.29 1002.41 130.29C1053.98 130.29 1095.94 172.548 1095.94 224.489C1095.94 276.429 1053.98 318.688 1002.41 318.688Z" fill="#FDD076"/>
<path d="M1003.95 142.088C1003.9 139.917 1000.52 139.909 1000.57 142.088C1000.69 147.645 1000.81 153.203 1000.92 158.76C1000.97 160.931 1004.35 160.939 1004.3 158.76C1004.18 153.203 1004.07 147.645 1003.95 142.088Z" fill="#C37F39"/>
<path d="M1084.08 220.219L1070.11 219.725C1067.94 219.648 1067.94 223.027 1070.11 223.104C1074.77 223.269 1079.42 223.433 1084.08 223.598C1086.25 223.674 1086.25 220.295 1084.08 220.219Z" fill="#C37F39"/>
<path d="M1005.8 288.517V305.187C1005.8 307.361 1009.18 307.365 1009.18 305.187V288.517C1009.18 286.343 1005.8 286.339 1005.8 288.517Z" fill="#C37F39"/>
<path d="M941.248 218.554L920.977 219.107C918.806 219.166 918.798 222.545 920.977 222.486L941.248 221.933C943.418 221.874 943.427 218.495 941.248 218.554Z" fill="#C37F39"/>
<path d="M1048.23 260.4L1005.28 224.536C1005.06 224.343 1004.79 224.21 1004.5 224.15C1004.15 211.214 1003.81 198.277 1003.47 185.34C1003.41 183.169 1000.03 183.161 1000.09 185.34C1000.44 198.408 1000.78 211.477 1001.13 224.545C1001.13 224.907 1001.25 225.259 1001.47 225.544C1001.7 225.828 1002.01 226.028 1002.36 226.11C1002.45 226.433 1002.63 226.72 1002.89 226.925C1017.21 238.88 1031.53 250.834 1045.85 262.789C1047.5 264.174 1049.91 261.795 1048.23 260.4Z" fill="#C37F39"/>
<path d="M1252.68 700.154C1255.07 700.855 1257.29 702.05 1259.2 703.66C1261.1 705.271 1262.65 707.262 1263.73 709.506C1264.05 710.156 1263.08 710.728 1262.76 710.074C1261.75 707.957 1260.3 706.077 1258.51 704.555C1256.72 703.033 1254.63 701.904 1252.38 701.24C1251.69 701.036 1251.98 699.949 1252.68 700.154Z" fill="#4D2C13"/>
<path d="M1260.62 685.913C1263.47 687.138 1266.31 688.363 1269.15 689.589C1269.82 689.875 1269.24 690.845 1268.58 690.561C1265.74 689.336 1262.9 688.111 1260.05 686.885C1259.39 686.599 1259.96 685.628 1260.62 685.913Z" fill="#4D2C13"/>
<path d="M1165.11 652.982L1053.83 643.521L1053.38 651.631L1077.71 656.136L1068.25 835.001H1082.67L1103.84 657.037L1125.92 660.191L1179.98 835.451L1191.25 835.001L1151.15 662.894L1164.66 663.795L1165.11 652.982Z" fill="#A87546"/>
<path d="M1061.15 645.773V652.532C1061.15 652.678 1061.09 652.816 1060.98 652.917C1060.87 653.019 1060.73 653.076 1060.59 653.076C1060.44 653.076 1060.3 653.019 1060.2 652.917C1060.09 652.816 1060.03 652.678 1060.03 652.532V645.773C1060.03 645.628 1060.09 645.489 1060.2 645.388C1060.3 645.286 1060.44 645.229 1060.59 645.229C1060.73 645.229 1060.87 645.286 1060.98 645.388C1061.09 645.489 1061.15 645.628 1061.15 645.773V645.773Z" fill="#4D2C13"/>
<path d="M1075.83 761.92C1077.54 739.966 1079.25 718.011 1080.95 696.057C1081.92 683.662 1082.88 671.266 1083.85 658.87C1083.9 658.152 1085.03 658.146 1084.97 658.87C1083.26 680.824 1081.56 702.778 1079.85 724.732C1078.14 746.686 1076.43 768.64 1074.73 790.594C1073.76 802.99 1072.8 815.386 1071.84 827.782C1071.78 828.5 1070.65 828.506 1070.71 827.782C1072.42 805.828 1074.12 783.874 1075.83 761.92Z" fill="#4D2C13"/>
<path d="M1132.8 661.06C1138.18 680.026 1143.56 698.991 1148.94 717.956C1154.31 736.921 1159.69 755.887 1165.07 774.852C1168.1 785.524 1171.12 796.197 1174.15 806.869C1174.18 807.012 1174.16 807.161 1174.09 807.287C1174.01 807.413 1173.89 807.505 1173.75 807.544C1173.61 807.582 1173.46 807.565 1173.33 807.495C1173.2 807.425 1173.11 807.308 1173.06 807.169C1167.69 788.204 1162.31 769.238 1156.93 750.273C1151.55 731.308 1146.17 712.342 1140.8 693.377C1137.77 682.705 1134.74 672.032 1131.72 661.36C1131.68 661.218 1131.71 661.068 1131.78 660.942C1131.85 660.816 1131.97 660.724 1132.12 660.686C1132.26 660.647 1132.41 660.664 1132.53 660.734C1132.66 660.804 1132.76 660.921 1132.8 661.06V661.06Z" fill="#4D2C13"/>
<path d="M1176.85 809.641C1178.79 816.553 1180.73 823.465 1182.66 830.377C1182.7 830.519 1182.68 830.669 1182.6 830.795C1182.53 830.92 1182.41 831.012 1182.27 831.051C1182.13 831.09 1181.98 831.073 1181.85 831.003C1181.72 830.933 1181.62 830.816 1181.58 830.676L1175.76 809.94C1175.73 809.798 1175.75 809.648 1175.82 809.523C1175.9 809.397 1176.02 809.305 1176.16 809.266C1176.3 809.227 1176.45 809.245 1176.58 809.315C1176.71 809.384 1176.8 809.502 1176.85 809.641V809.641Z" fill="#4D2C13"/>
<path d="M1125.92 659.177H1131.32C1131.47 659.182 1131.61 659.243 1131.71 659.348C1131.81 659.453 1131.87 659.594 1131.87 659.74C1131.87 659.886 1131.81 660.026 1131.71 660.131C1131.61 660.236 1131.47 660.298 1131.32 660.303H1125.92C1125.77 660.298 1125.63 660.236 1125.53 660.131C1125.43 660.026 1125.37 659.886 1125.37 659.74C1125.37 659.594 1125.43 659.453 1125.53 659.348C1125.63 659.243 1125.77 659.182 1125.92 659.177Z" fill="#4D2C13"/>
<path d="M1079.48 655.393L1104.29 656.477C1105.01 656.509 1105.02 657.635 1104.29 657.604L1079.48 656.519C1078.76 656.487 1078.75 655.361 1079.48 655.393Z" fill="#4D2C13"/>
<path d="M1234.67 552.259C1215.57 551.633 1194.94 553.042 1180.05 565.024C1171.08 572.243 1165.14 582.679 1161.49 593.6C1157.84 604.52 1156.3 616.015 1154.78 627.428C1151.98 648.478 1149.18 669.529 1146.37 690.579C1145.23 699.154 1144.25 708.539 1148.87 715.853C1153.64 723.403 1162.98 726.508 1171.7 728.429C1193.11 733.134 1215.17 733.995 1236.88 730.973C1248.99 729.28 1261.35 726.186 1271 718.667C1286.59 706.519 1291.95 685.658 1295.89 666.29C1301.21 640.122 1306.03 613.279 1305.52 586.469C1305.17 568.059 1297.93 559.516 1279.7 556.556C1264.8 554.163 1249.76 552.728 1234.67 552.259V552.259Z" fill="#FDD076"/>
<path d="M1084.05 702.782C1077.09 702.665 1073.45 702.645 1067.83 708.189C1063.9 712.075 1062.57 724.146 1064.91 729.914C1066.53 733.906 1069.9 735.923 1073.11 737.349C1098.43 748.593 1123.85 741.822 1150.41 745.027C1157.87 745.927 1167.88 745.748 1174.86 742.069C1190.21 733.968 1175.9 711.2 1165.34 708.661C1159.68 707.299 1154.65 701.372 1148.93 701.281C1139.7 701.133 1094.39 702.957 1084.05 702.782Z" fill="#FDD076"/>
<path d="M1184.25 607.059C1185.39 608.666 1187.54 608.794 1189.07 607.67C1190.66 606.504 1191.2 604.301 1189.89 602.716C1188.71 601.291 1186.55 600.84 1184.97 601.839C1184.87 601.957 1184.74 602.054 1184.6 602.126C1183.27 603.414 1183.19 605.568 1184.25 607.059ZM1185.4 602.922C1185.41 602.896 1185.43 602.872 1185.46 602.853C1185.48 602.834 1185.51 602.82 1185.54 602.811C1186.07 602.491 1186.71 602.368 1187.32 602.462C1187.94 602.556 1188.51 602.862 1188.93 603.327C1189.94 604.423 1189.52 605.958 1188.38 606.777C1185.81 608.63 1183.34 604.91 1185.4 602.922V602.922Z" fill="#4D2C13"/>
<path d="M1188.57 599.115C1190.37 595.512 1192.18 591.91 1193.98 588.307C1194.31 587.659 1195.28 588.228 1194.96 588.875C1193.15 592.478 1191.35 596.081 1189.54 599.683C1189.21 600.331 1188.24 599.762 1188.57 599.115Z" fill="#4D2C13"/>
<path d="M1186.85 593.06V598.917C1186.85 599.063 1186.79 599.201 1186.68 599.303C1186.58 599.404 1186.44 599.461 1186.29 599.461C1186.14 599.461 1186 599.404 1185.9 599.303C1185.79 599.201 1185.73 599.063 1185.73 598.917V593.06C1185.73 592.914 1185.79 592.776 1185.9 592.674C1186 592.573 1186.14 592.516 1186.29 592.516C1186.44 592.516 1186.58 592.573 1186.68 592.674C1186.79 592.776 1186.85 592.914 1186.85 593.06Z" fill="#4D2C13"/>
<path d="M1179.15 593.656C1180.76 596.232 1182.38 598.808 1184 601.384C1184.38 602 1183.41 602.566 1183.02 601.952C1181.41 599.376 1179.79 596.8 1178.18 594.224C1177.79 593.609 1178.76 593.043 1179.15 593.656Z" fill="#4D2C13"/>
<path d="M1193.21 602.937C1194.57 602.186 1195.92 601.435 1197.27 600.684C1197.9 600.332 1198.47 601.304 1197.84 601.656C1196.49 602.407 1195.13 603.158 1193.78 603.909C1193.15 604.261 1192.58 603.289 1193.21 602.937Z" fill="#4D2C13"/>
<path d="M1175.19 611.948C1177.45 610.296 1179.7 608.644 1181.95 606.992C1182.54 606.563 1183.1 607.54 1182.52 607.964C1180.27 609.616 1178.01 611.268 1175.76 612.92C1175.18 613.349 1174.61 612.372 1175.19 611.948Z" fill="#4D2C13"/>
<path d="M1189.99 609.58L1192.69 618.591C1192.9 619.287 1191.82 619.584 1191.61 618.89C1190.71 615.887 1189.81 612.883 1188.91 609.88C1188.7 609.184 1189.78 608.887 1189.99 609.58Z" fill="#4D2C13"/>
<path d="M1240.56 606.609C1241.71 608.216 1243.85 608.344 1245.39 607.22C1246.98 606.054 1247.51 603.85 1246.2 602.265C1245.02 600.841 1242.86 600.39 1241.29 601.389C1241.18 601.506 1241.06 601.604 1240.92 601.676C1239.58 602.964 1239.5 605.118 1240.56 606.609ZM1241.71 602.472C1241.73 602.445 1241.75 602.422 1241.77 602.403C1241.8 602.383 1241.82 602.369 1241.85 602.361C1242.39 602.041 1243.02 601.918 1243.64 602.012C1244.26 602.106 1244.83 602.411 1245.24 602.877C1246.25 603.972 1245.84 605.508 1244.7 606.327C1242.12 608.18 1239.65 604.459 1241.71 602.472V602.472Z" fill="#4D2C13"/>
<path d="M1244.89 598.664C1246.69 595.061 1248.5 591.458 1250.3 587.856C1250.63 587.208 1251.6 587.777 1251.27 588.424C1249.47 592.027 1247.66 595.629 1245.86 599.232C1245.53 599.88 1244.56 599.31 1244.89 598.664Z" fill="#4D2C13"/>
<path d="M1243.17 592.61V598.467C1243.16 598.613 1243.1 598.751 1243 598.853C1242.89 598.954 1242.75 599.011 1242.61 599.011C1242.46 599.011 1242.32 598.954 1242.21 598.853C1242.11 598.751 1242.05 598.613 1242.04 598.467V592.61C1242.05 592.464 1242.11 592.326 1242.21 592.224C1242.32 592.123 1242.46 592.066 1242.61 592.066C1242.75 592.066 1242.89 592.123 1243 592.224C1243.1 592.326 1243.16 592.464 1243.17 592.61V592.61Z" fill="#4D2C13"/>
<path d="M1235.47 593.207C1237.08 595.782 1238.7 598.358 1240.31 600.934C1240.7 601.55 1239.73 602.116 1239.34 601.503C1237.73 598.927 1236.11 596.351 1234.5 593.775C1234.11 593.159 1235.08 592.593 1235.47 593.207Z" fill="#4D2C13"/>
<path d="M1249.53 602.486C1250.88 601.735 1252.24 600.985 1253.59 600.234C1254.22 599.881 1254.79 600.854 1254.16 601.206C1252.8 601.957 1251.45 602.708 1250.1 603.459C1249.47 603.811 1248.9 602.839 1249.53 602.486Z" fill="#4D2C13"/>
<path d="M1231.51 611.498C1233.76 609.846 1236.02 608.194 1238.27 606.542C1238.85 606.113 1239.42 607.09 1238.84 607.514C1236.58 609.166 1234.33 610.818 1232.08 612.47C1231.49 612.899 1230.93 611.923 1231.51 611.498Z" fill="#4D2C13"/>
<path d="M1246.31 609.13L1249.01 618.141C1249.22 618.837 1248.13 619.134 1247.92 618.44C1247.02 615.437 1246.12 612.433 1245.22 609.429C1245.01 608.734 1246.1 608.436 1246.31 609.13Z" fill="#4D2C13"/>
<path d="M1220.98 675.059C1222.12 676.666 1224.27 676.793 1225.81 675.669C1227.4 674.503 1227.93 672.3 1226.62 670.715C1225.44 669.29 1223.28 668.839 1221.7 669.838C1221.6 669.956 1221.48 670.053 1221.34 670.125C1220 671.413 1219.92 673.568 1220.98 675.059ZM1222.13 670.922C1222.15 670.895 1222.17 670.871 1222.19 670.852C1222.21 670.833 1222.24 670.819 1222.27 670.811C1222.81 670.491 1223.44 670.367 1224.06 670.461C1224.68 670.555 1225.24 670.861 1225.66 671.326C1226.67 672.422 1226.25 673.957 1225.12 674.776C1222.54 676.63 1220.07 672.909 1222.13 670.922V670.922Z" fill="#4D2C13"/>
<path d="M1225.31 667.113C1227.11 663.511 1228.92 659.908 1230.73 656.305C1231.05 655.657 1232.02 656.227 1231.7 656.874L1226.28 667.682C1225.96 668.33 1224.99 667.76 1225.31 667.113Z" fill="#4D2C13"/>
<path d="M1223.59 661.06V666.917C1223.59 667.063 1223.53 667.201 1223.42 667.302C1223.32 667.404 1223.18 667.461 1223.03 667.461C1222.88 667.461 1222.74 667.404 1222.64 667.302C1222.53 667.201 1222.47 667.063 1222.47 666.917V661.06C1222.47 660.914 1222.53 660.775 1222.64 660.674C1222.74 660.572 1222.88 660.516 1223.03 660.516C1223.18 660.516 1223.32 660.572 1223.42 660.674C1223.53 660.775 1223.59 660.914 1223.59 661.06V661.06Z" fill="#4D2C13"/>
<path d="M1215.89 661.655C1217.5 664.231 1219.12 666.807 1220.73 669.383C1221.12 669.999 1220.15 670.565 1219.76 669.952C1218.15 667.376 1216.53 664.8 1214.92 662.224C1214.53 661.608 1215.5 661.042 1215.89 661.655Z" fill="#4D2C13"/>
<path d="M1229.95 670.935C1231.3 670.184 1232.65 669.434 1234.01 668.683C1234.64 668.33 1235.21 669.303 1234.57 669.655C1233.22 670.406 1231.87 671.157 1230.52 671.908C1229.89 672.26 1229.32 671.288 1229.95 670.935Z" fill="#4D2C13"/>
<path d="M1211.93 679.946C1214.18 678.294 1216.43 676.642 1218.69 674.99C1219.27 674.561 1219.83 675.538 1219.26 675.963C1217 677.615 1214.75 679.267 1212.5 680.919C1211.91 681.348 1211.35 680.371 1211.93 679.946Z" fill="#4D2C13"/>
<path d="M1226.73 677.579L1229.43 686.59C1229.64 687.286 1228.55 687.583 1228.34 686.89C1227.44 683.886 1226.54 680.882 1225.64 677.879C1225.43 677.183 1226.52 676.886 1226.73 677.579Z" fill="#4D2C13"/>
<path d="M1259.41 663.353C1258.17 676.902 1256.81 692.381 1245.89 700.49C1238.84 705.724 1229.5 706.413 1220.73 706.709C1205.75 707.216 1190.77 707.147 1175.78 706.501C1165.93 706.076 1155.85 705.43 1146.41 708.294C1136.97 711.159 1128.16 718.417 1126.58 728.149C1125.86 732.542 1126.8 737.379 1129.88 740.599C1133.92 744.842 1140.41 745.343 1146.27 745.574C1191.61 747.358 1236.96 749.142 1282.3 750.926C1287.52 751.131 1293.01 751.28 1297.65 748.885C1306.48 744.333 1308.64 732.894 1309.58 723.009C1314.06 675.934 1314.06 628.561 1314.05 581.274C1314.05 577.12 1314.01 572.805 1312.22 569.059C1309.06 562.463 1300.19 558.172 1293.01 558.648C1286.46 559.083 1284.2 564.149 1281.96 569.62C1274.23 588.514 1268.5 608.369 1264.5 628.375C1262.18 639.936 1260.48 651.612 1259.41 663.353V663.353Z" fill="#DDB891"/>
<path d="M1259.01 694.237C1272.28 698.441 1284.07 706.346 1293 717.023C1293.46 717.576 1292.67 718.377 1292.21 717.82C1283.41 707.283 1271.79 699.477 1258.71 695.323C1258.02 695.105 1258.32 694.018 1259.01 694.237Z" fill="#4D2C13"/>
<path d="M1284.87 562.487C1287.1 560.861 1289.66 559.755 1292.37 559.248C1295.08 558.742 1297.87 558.849 1300.54 559.562C1303.2 560.274 1305.68 561.574 1307.77 563.365C1309.87 565.157 1311.54 567.396 1312.66 569.916C1312.96 570.572 1311.99 571.145 1311.69 570.485C1310.67 568.209 1309.18 566.173 1307.32 564.51C1305.46 562.848 1303.27 561.595 1300.89 560.834C1295.65 559.207 1289.86 560.282 1285.44 563.459C1284.85 563.883 1284.28 562.906 1284.87 562.487Z" fill="#4D2C13"/>
<path d="M1278.65 653.884L1167.37 644.422L1166.92 652.532L1191.25 657.037L1181.79 835.902H1196.21L1217.38 657.938L1239.46 661.092L1293.52 836.352L1304.79 835.902L1264.69 663.795L1278.2 664.697L1278.65 653.884Z" fill="#C37F39"/>
<path d="M1189.37 762.821C1191.08 740.866 1192.78 718.912 1194.49 696.958C1195.45 684.562 1196.42 672.167 1197.38 659.771C1197.44 659.053 1198.57 659.047 1198.51 659.771C1196.8 681.725 1195.09 703.679 1193.39 725.633C1191.68 747.587 1189.97 769.541 1188.26 791.495C1187.3 803.891 1186.34 816.287 1185.37 828.683C1185.32 829.401 1184.19 829.407 1184.25 828.683C1185.95 806.729 1187.66 784.775 1189.37 762.821Z" fill="#4D2C13"/>
<path d="M1246.34 661.961C1251.72 680.926 1257.1 699.891 1262.47 718.857C1267.85 737.822 1273.23 756.787 1278.61 775.752C1281.63 786.425 1284.66 797.097 1287.69 807.77C1287.72 807.912 1287.7 808.062 1287.62 808.187C1287.55 808.313 1287.43 808.405 1287.29 808.444C1287.15 808.483 1287 808.465 1286.87 808.396C1286.74 808.326 1286.64 808.209 1286.6 808.069C1281.22 789.104 1275.84 770.139 1270.47 751.173C1265.09 732.208 1259.71 713.243 1254.33 694.278C1251.31 683.605 1248.28 672.933 1245.25 662.26C1245.22 662.118 1245.24 661.968 1245.32 661.843C1245.39 661.717 1245.51 661.625 1245.65 661.586C1245.79 661.547 1245.94 661.565 1246.07 661.634C1246.2 661.704 1246.3 661.821 1246.34 661.961V661.961Z" fill="#4D2C13"/>
<path d="M1290.38 810.543C1292.32 817.455 1294.26 824.367 1296.2 831.279C1296.24 831.421 1296.21 831.571 1296.14 831.696C1296.06 831.822 1295.94 831.914 1295.8 831.953C1295.66 831.992 1295.51 831.974 1295.38 831.905C1295.26 831.835 1295.16 831.718 1295.12 831.578L1289.3 810.842C1289.26 810.7 1289.29 810.55 1289.36 810.425C1289.44 810.299 1289.56 810.207 1289.7 810.168C1289.84 810.129 1289.99 810.146 1290.12 810.216C1290.24 810.286 1290.34 810.403 1290.38 810.543V810.543Z" fill="#4D2C13"/>
<path d="M1239.46 660.078H1244.86C1245.01 660.083 1245.15 660.145 1245.25 660.25C1245.35 660.355 1245.41 660.495 1245.41 660.641C1245.41 660.787 1245.35 660.928 1245.25 661.033C1245.15 661.138 1245.01 661.199 1244.86 661.204H1239.46C1239.31 661.199 1239.17 661.138 1239.07 661.033C1238.97 660.928 1238.91 660.787 1238.91 660.641C1238.91 660.495 1238.97 660.355 1239.07 660.25C1239.17 660.145 1239.31 660.083 1239.46 660.078V660.078Z" fill="#4D2C13"/>
<path d="M1193.02 656.293L1217.83 657.378C1218.55 657.41 1218.55 658.536 1217.83 658.504C1209.56 658.143 1201.29 657.781 1193.02 657.419C1192.29 657.388 1192.29 656.261 1193.02 656.293Z" fill="#4D2C13"/>
<path d="M767.687 572.951L743.533 631.013L745.391 639.374L771.867 574.809L767.687 572.951Z" fill="#25110E"/>
<path d="M675.252 641.697L745.391 639.374L743.533 631.013L679.432 630.549L675.252 641.697Z" fill="#25110E"/>
<path d="M543.087 645.57H951.664V639.067H543.087V645.57Z" fill="#A87546"/>
<path d="M665.766 651.609H829.439V644.177H665.766V651.609Z" fill="#A87546"/>
<path d="M742.589 839.264H751.414V650.679H742.589V839.264Z" fill="#A87546"/>
<path d="M786.519 833.724H705.422V839.173H786.519V833.724Z" fill="#A87546"/>
<path d="M828.359 644.059C787.498 644.176 746.638 644.294 705.778 644.412C694.243 644.445 682.708 644.478 671.174 644.512C669.283 644.517 669.278 645.644 671.174 645.638C712.034 645.52 752.894 645.402 793.755 645.285C805.289 645.252 816.824 645.218 828.359 645.185C830.25 645.179 830.254 644.053 828.359 644.059Z" fill="#4D2C13"/>
<path d="M750.178 651.451C747.874 651.539 745.571 651.627 743.268 651.714C742.545 651.742 742.542 652.868 743.268 652.84L750.178 652.578C750.9 652.55 750.904 651.424 750.178 651.451Z" fill="#4D2C13"/>
<path d="M751.227 833.601C748.474 833.656 745.721 833.711 742.968 833.766C742.244 833.781 742.241 834.907 742.968 834.892C745.721 834.837 748.474 834.782 751.227 834.727C751.951 834.713 751.953 833.586 751.227 833.601Z" fill="#4D2C13"/>
</svg>
