<svg width="1441" height="639" viewBox="0 0 1441 639" fill="none" xmlns="http://www.w3.org/2000/svg">
<path d="M1440.55 0.0947266H0.5V639H1440.55V0.0947266Z" fill="#FFF9F4"/>
<path d="M305.252 100.388H169.176V199.61H305.252V100.388Z" fill="#A87546"/>
<path d="M297.158 111.219H177.682V190.22H297.158V111.219Z" fill="#FCF4EA"/>
<path d="M277.189 124.349H197.482V178.549H277.189V124.349Z" fill="white"/>
<path d="M204.034 124.349H206.027C205.006 142.414 205.326 160.531 206.983 178.549H204.991C203.333 160.531 203.014 142.414 204.034 124.349V124.349Z" fill="#FE6F8B"/>
<path d="M212.135 124.348C212.167 142.41 212.199 160.477 212.231 178.548H210.238C210.206 160.487 210.174 142.42 210.143 124.348C210.143 123.057 212.135 123.073 212.135 124.348Z" fill="#3B322D"/>
<path d="M217.411 124.349H219.403C219.164 142.41 218.925 160.477 218.686 178.549H216.693C216.948 160.487 217.187 142.421 217.411 124.349Z" fill="#FE6F8B"/>
<path d="M231.678 124.349H233.67C233.894 142.41 234.112 160.477 234.324 178.549H232.331C232.108 160.471 231.89 142.405 231.678 124.349Z" fill="#3B322D"/>
<path d="M235.342 124.349H237.334C238.971 142.369 239.253 160.486 238.179 178.549H236.187C237.261 160.486 236.978 142.369 235.342 124.349V124.349Z" fill="#FE6F8B"/>
<path d="M240.828 124.349H242.82C242.788 142.41 242.762 160.477 242.741 178.549H240.748C240.764 160.487 240.791 142.421 240.828 124.349Z" fill="#3B322D"/>
<path d="M245.322 124.349H247.315C247.713 142.41 248.117 160.477 248.526 178.549H246.534C246.135 160.487 245.731 142.421 245.322 124.349Z" fill="#FE6F8B"/>
<path d="M253.212 124.349H255.204C254.87 142.426 254.524 160.493 254.168 178.549H252.176C252.526 160.471 252.872 142.405 253.212 124.349Z" fill="#3B322D"/>
<path d="M262.014 124.349H264.006C264.086 142.41 264.176 160.477 264.277 178.549H262.285C262.205 160.487 262.115 142.421 262.014 124.349Z" fill="#FE6F8B"/>
<path d="M269.984 124.349H271.976C271.881 142.41 271.79 160.477 271.706 178.549H269.713C269.808 160.487 269.899 142.421 269.984 124.349Z" fill="#3B322D"/>
<path d="M732.93 547.107H732.936C772.428 551.429 795.186 556.508 795.186 561.941C795.186 577.678 604.308 590.437 368.847 590.437C367.526 590.436 366.208 590.436 364.89 590.435C363.881 590.436 362.87 590.437 361.858 590.437C209.7 590.437 76.161 585.11 0.714844 577.093V546.791C76.1599 538.775 209.7 533.447 361.858 533.447C363.178 533.447 364.497 533.447 365.814 533.448C366.823 533.447 367.834 533.447 368.847 533.447C523.002 533.447 658.045 538.915 732.93 547.107Z" fill="#F8CDAE"/>
<path d="M524.705 508.355L539.181 554.8H528.927L507.213 509.562L524.705 508.355Z" fill="#C37F39"/>
<path d="M251.466 508.355L236.99 554.8H247.244L268.958 509.562L251.466 508.355Z" fill="#C37F39"/>
<path d="M249.463 350.949C259.134 343.255 272.7 343.354 285.018 344.351C318.241 347.041 351.369 353.614 384.632 351.466C417.403 349.35 449.469 338.796 482.299 339.59C492.675 339.841 503.521 341.424 511.889 347.564C525.198 357.33 528.583 375.442 530.948 391.778C542.344 383.978 558.867 386.684 569.17 395.88C579.473 405.075 584.115 419.373 584.26 433.183C584.404 446.992 580.535 460.513 576.139 473.605C571.117 488.56 564.253 504.549 550.187 511.69C541.373 516.165 531.09 516.394 521.206 516.528C431.101 517.757 340.993 518.985 250.88 519.03C242.246 519.035 233.211 518.932 225.597 514.862C217.621 510.597 212.398 502.599 208.16 494.609C200.383 479.933 194.765 464.211 191.48 447.929C189.417 437.693 188.301 427.021 190.716 416.863C193.131 406.705 199.573 397.073 209.172 392.967C215.325 390.334 221.446 390.931 227.633 392.905C235.521 395.422 236.504 394.111 236.918 385.515C237.524 372.954 238.854 359.387 249.463 350.949Z" fill="#FDE0A5"/>
<path d="M246.023 488.597C242.482 474.825 238.94 461.052 235.399 447.279L230.124 426.766C228.567 420.711 227.252 414.376 224.068 408.918C221.096 403.825 216.089 399.521 209.999 399.124C209.515 399.093 209.517 399.847 209.999 399.878C215.52 400.238 220.172 404.072 223.007 408.62C226.329 413.948 227.666 420.233 229.21 426.239C232.639 439.575 236.069 452.911 239.498 466.247C241.43 473.764 243.363 481.281 245.296 488.798C245.417 489.267 246.144 489.068 246.023 488.597Z" fill="#4D2C13"/>
<path d="M555.336 390.484C547.208 400.707 540.367 411.891 534.966 423.782C529.559 435.673 525.612 448.174 523.214 461.014C522.103 466.982 521.336 473.009 520.917 479.064C518.529 469.415 514.873 460.124 510.044 451.435C508.286 448.274 506.376 445.204 504.315 442.226C504.041 441.829 503.387 442.206 503.664 442.606C510.907 453.093 516.304 464.74 519.623 477.045C520.035 478.577 520.414 480.117 520.758 481.666C520.739 482.014 520.721 482.363 520.705 482.712C520.701 482.76 520.708 482.809 520.724 482.854C520.741 482.9 520.767 482.941 520.801 482.975C520.835 483.01 520.876 483.037 520.921 483.054C520.966 483.071 521.015 483.078 521.063 483.075C521.325 484.324 521.566 485.578 521.786 486.836C486.264 485.563 450.727 484.898 415.175 484.84C379.063 484.786 342.957 485.362 306.858 486.569C286.602 487.246 266.355 488.122 246.115 489.196C245.632 489.222 245.629 489.976 246.115 489.95C282.177 488.039 318.264 486.755 354.377 486.098C390.483 485.445 426.594 485.422 462.708 486.03C482.452 486.363 502.192 486.884 521.927 487.595C522.033 487.864 522.397 487.828 522.559 487.617C522.868 487.628 523.177 487.638 523.486 487.65C523.971 487.667 523.971 486.913 523.486 486.896C523.175 486.884 522.864 486.874 522.553 486.863C522.249 485.103 521.902 483.351 521.514 481.607C522.192 469.043 524.361 456.605 527.976 444.554C531.691 432.144 536.892 420.228 543.465 409.066C547.175 402.769 551.32 396.738 555.87 391.018C556.169 390.642 555.639 390.105 555.336 390.484Z" fill="#4D2C13"/>
<path d="M501.817 439.657C471.681 439.236 441.546 438.816 411.41 438.395C381.929 437.984 352.4 437.285 322.942 438.916C306.481 439.828 290.052 441.5 273.811 444.366C273.772 444.373 273.734 444.386 273.699 444.405C273.843 444.097 273.392 443.722 273.068 443.996C262.556 452.928 254.534 464.429 249.781 477.379C248.445 481.022 247.382 484.759 246.601 488.559C246.503 489.032 247.23 489.235 247.328 488.759C250.124 475.3 256.375 462.8 265.466 452.488C267.969 449.655 270.674 447.007 273.559 444.565C273.538 444.631 273.535 444.702 273.548 444.77C273.562 444.838 273.593 444.902 273.639 444.955C273.684 445.007 273.742 445.048 273.807 445.072C273.872 445.096 273.943 445.103 274.011 445.093C303.085 439.962 332.662 438.73 362.133 438.662C391.883 438.593 421.643 439.292 451.389 439.707C468.198 439.942 485.007 440.176 501.817 440.411C502.302 440.418 502.302 439.664 501.817 439.657Z" fill="#4D2C13"/>
<path d="M335.172 362C321.369 358.44 306.79 358.409 292.89 361.468C278.926 364.531 265.816 370.655 254.505 379.399C248.212 384.28 242.608 389.991 237.845 396.375C237.814 396.414 237.792 396.46 237.782 396.509C237.772 396.558 237.773 396.609 237.787 396.657C237.8 396.706 237.825 396.75 237.859 396.787C237.893 396.824 237.935 396.852 237.982 396.869C237.917 396.94 237.88 397.031 237.876 397.127C237.873 397.223 237.905 397.317 237.965 397.392C242.525 403.073 247.085 408.754 251.646 414.435C251.949 414.813 252.48 414.277 252.179 413.902C247.618 408.221 243.058 402.54 238.498 396.859C238.483 396.841 238.466 396.824 238.449 396.808C238.466 396.792 238.482 396.775 238.497 396.756C246.926 385.427 258.166 376.345 270.785 370.062C283.459 363.737 297.379 360.302 311.54 360.006C319.438 359.852 327.319 360.767 334.971 362.727C335.441 362.849 335.642 362.122 335.172 362Z" fill="#4D2C13"/>
<path d="M527.496 394.843C524.094 397.01 521.213 399.902 519.058 403.311C516.903 406.721 515.528 410.564 515.031 414.567C514.972 415.048 515.727 415.043 515.785 414.567C516.277 410.695 517.615 406.979 519.705 403.683C521.795 400.386 524.585 397.591 527.877 395.494C528.286 395.236 527.908 394.583 527.496 394.843Z" fill="#4D2C13"/>
<path d="M381.924 455.551C381.904 455.067 381.15 455.065 381.17 455.551C381.584 465.201 381.997 474.851 382.411 484.502C382.431 484.985 383.185 484.988 383.165 484.502C382.751 474.851 382.338 465.201 381.924 455.551Z" fill="#4D2C13"/>
<path d="M530.045 389.875C525.76 379.872 518.828 371.228 509.995 364.873C500.44 357.987 488.895 354.202 477.131 353.905C470.255 353.728 463.4 354.748 456.874 356.92C456.416 357.073 456.612 357.801 457.074 357.647C468.65 353.812 481.129 353.649 492.801 357.18C503.336 360.381 512.773 366.679 519.938 375.021C523.855 379.583 527.044 384.721 529.394 390.255C529.583 390.7 530.233 390.317 530.045 389.875Z" fill="#4D2C13"/>
<path d="M387.66 354.427C386.295 357.263 384.931 360.098 383.566 362.934C383.357 363.369 384.007 363.752 384.217 363.314C385.582 360.479 386.946 357.643 388.311 354.808C388.52 354.372 387.871 353.99 387.66 354.427Z" fill="#4D2C13"/>
<path d="M384.746 369.326C383.78 364.9 382.551 360.536 381.066 356.257C380.908 355.801 380.18 355.997 380.339 356.457C385.478 371.326 387.509 387.091 386.305 402.777C385.958 407.259 385.344 411.717 384.467 416.127C384.373 416.601 385.1 416.804 385.194 416.327C388.265 400.795 388.112 384.797 384.746 369.326V369.326Z" fill="#4D2C13"/>
<path d="M567.147 446.109C557.964 441.633 552.27 431.918 552.943 421.711C553.15 418.575 553.939 415.505 555.267 412.657C555.471 412.22 554.821 411.837 554.616 412.277C552.253 417.347 551.557 423.036 552.629 428.526C553.432 432.445 555.124 436.127 557.575 439.288C560.026 442.45 563.171 445.006 566.766 446.76C567.201 446.972 567.583 446.322 567.147 446.109Z" fill="#4D2C13"/>
<path d="M219.887 434.984C219.298 432.191 218.157 429.544 216.528 427.2C216.253 426.804 215.599 427.18 215.877 427.58C218.627 431.551 219.921 436.351 219.538 441.166C219.136 445.743 217.2 450.05 214.043 453.389C212.306 455.24 210.243 456.755 207.958 457.861C207.522 458.073 207.904 458.723 208.339 458.512C212.532 456.463 215.949 453.112 218.078 448.96C220.26 444.645 220.898 439.713 219.887 434.984V434.984Z" fill="#4D2C13"/>
<path d="M243.865 496.458C242.256 501.484 240.648 506.511 239.039 511.537C238.891 512.001 239.619 512.199 239.766 511.738C241.375 506.711 242.983 501.685 244.592 496.658C244.74 496.195 244.012 495.997 243.865 496.458Z" fill="#4D2C13"/>
<path d="M529.176 503.043C527.567 500.028 525.958 497.012 524.349 493.996C524.121 493.568 523.47 493.949 523.698 494.377C525.307 497.393 526.916 500.408 528.525 503.424C528.753 503.852 529.405 503.472 529.176 503.043Z" fill="#4D2C13"/>
<path d="M530.025 550.087C525.765 539.849 521.504 529.61 517.244 519.372C517.06 518.931 516.33 519.125 516.517 519.573C520.777 529.811 525.038 540.049 529.298 550.287C529.482 550.729 530.212 550.535 530.025 550.087Z" fill="#4D2C13"/>
<path d="M256.037 521.836C251.846 532.02 247.656 542.204 243.465 552.388C243.281 552.837 244.01 553.032 244.192 552.589C248.383 542.405 252.573 532.22 256.764 522.036C256.949 521.588 256.219 521.392 256.037 521.836Z" fill="#4D2C13"/>
<path d="M116.685 369.393C116.652 369.205 116.618 369.016 116.584 368.829C116.499 369.084 116.415 369.339 116.33 369.595C116.181 370.046 116.032 370.497 115.884 370.948C115.917 371.129 115.949 371.308 115.979 371.489C115.993 371.43 116.014 371.372 116.041 371.317L116.068 371.267C116.086 371.236 116.107 371.207 116.13 371.179C116.142 371.165 116.154 371.151 116.166 371.138C116.177 371.124 116.19 371.111 116.204 371.1C116.217 371.086 116.232 371.074 116.247 371.062C116.258 371.053 116.267 371.046 116.278 371.038C116.336 370.995 116.402 370.961 116.471 370.937C116.487 370.93 116.503 370.925 116.52 370.921C116.613 370.894 116.711 370.886 116.807 370.897C116.814 370.897 116.82 370.898 116.827 370.9C116.846 370.902 116.866 370.905 116.885 370.91C116.91 370.914 116.933 370.921 116.956 370.93C116.867 370.417 116.777 369.905 116.685 369.393ZM108.818 359.509C108.798 359.499 108.78 359.489 108.762 359.477C108.75 359.471 108.739 359.465 108.729 359.457C108.712 359.447 108.696 359.435 108.681 359.423C108.674 359.418 108.667 359.413 108.661 359.407C108.654 359.402 108.648 359.397 108.641 359.391C108.6 359.356 108.562 359.316 108.528 359.273C108.512 359.252 108.497 359.231 108.482 359.21C108.467 359.188 108.453 359.166 108.441 359.142C108.429 359.121 108.418 359.099 108.409 359.077C108.402 359.063 108.396 359.049 108.391 359.034C108.388 359.026 108.385 359.017 108.382 359.008C108.377 358.996 108.374 358.984 108.371 358.972C108.366 358.959 108.362 358.946 108.359 358.932C108.353 358.913 108.349 358.893 108.346 358.872C108.346 358.871 108.344 358.868 108.344 358.866C108.304 359.026 108.266 359.186 108.228 359.347V359.35L108.679 362.03C108.869 361.219 109.063 360.409 109.26 359.6C109.107 359.609 108.954 359.578 108.818 359.509V359.509ZM116.685 369.393C116.652 369.205 116.618 369.016 116.584 368.829C116.499 369.084 116.415 369.339 116.33 369.595C116.181 370.046 116.032 370.497 115.884 370.948C115.917 371.129 115.949 371.308 115.979 371.489C115.993 371.43 116.014 371.372 116.041 371.317L116.068 371.267C116.086 371.236 116.107 371.207 116.13 371.179C116.142 371.165 116.154 371.151 116.166 371.138C116.177 371.124 116.19 371.111 116.204 371.1C116.217 371.086 116.232 371.074 116.247 371.062C116.258 371.053 116.267 371.046 116.278 371.038C116.336 370.995 116.402 370.961 116.471 370.937C116.487 370.93 116.503 370.925 116.52 370.921C116.613 370.894 116.711 370.886 116.807 370.897C116.814 370.897 116.82 370.898 116.827 370.9C116.846 370.902 116.866 370.905 116.885 370.91C116.91 370.914 116.933 370.921 116.956 370.93C116.867 370.417 116.777 369.905 116.685 369.393ZM108.818 359.509C108.798 359.499 108.78 359.489 108.762 359.477C108.75 359.471 108.739 359.465 108.729 359.457C108.712 359.447 108.696 359.435 108.681 359.423C108.674 359.418 108.667 359.413 108.661 359.407C108.654 359.402 108.648 359.397 108.641 359.391C108.6 359.356 108.562 359.316 108.528 359.273C108.512 359.253 108.496 359.232 108.482 359.21C108.467 359.188 108.453 359.166 108.441 359.142C108.429 359.121 108.418 359.1 108.409 359.077C108.402 359.063 108.396 359.049 108.391 359.034C108.388 359.026 108.385 359.017 108.382 359.008C108.377 358.996 108.374 358.984 108.371 358.972C108.366 358.959 108.362 358.946 108.359 358.932C108.353 358.913 108.349 358.893 108.346 358.872C108.346 358.871 108.344 358.868 108.344 358.866C108.304 359.026 108.266 359.186 108.228 359.347V359.35L108.679 362.03C108.869 361.219 109.063 360.409 109.26 359.6C109.107 359.609 108.954 359.578 108.818 359.509V359.509ZM175.412 229.389C171.797 233.031 168.325 236.802 164.996 240.704C164.996 240.704 164.996 240.704 164.996 240.704C164.996 240.704 164.995 240.704 164.995 240.704C164.995 240.704 164.995 240.704 164.995 240.704C164.995 240.705 164.995 240.705 164.995 240.705C164.003 241.863 163.024 243.032 162.06 244.213C162.059 244.214 162.059 244.216 162.057 244.216C161.771 244.567 161.485 244.919 161.201 245.271C155.156 252.772 149.593 260.649 144.546 268.854C135.72 283.166 128.385 298.37 122.296 314.036C120.667 318.225 119.129 322.447 117.682 326.7C117.436 327.419 117.193 328.138 116.953 328.857V328.858C116.748 329.473 116.545 330.089 116.342 330.704C116.199 331.14 116.057 331.574 115.917 332.01C115.943 331.577 115.967 331.146 115.993 330.713C116.011 330.404 116.027 330.095 116.045 329.785C116.071 329.338 116.098 328.888 116.124 328.44C116.581 320.53 117.038 312.619 117.495 304.71C118.086 294.466 118.677 284.223 119.269 273.979C119.307 273.332 119.345 272.686 119.382 272.04C119.381 272.04 119.382 272.039 119.382 272.039C119.381 272.037 119.381 272.037 119.382 272.036C119.52 269.646 119.658 267.255 119.797 264.865C119.797 264.865 119.797 264.865 119.796 264.864C119.796 264.864 119.796 264.864 119.796 264.863C119.796 264.863 119.796 264.862 119.796 264.862C119.797 264.861 119.797 264.861 119.797 264.861C119.797 264.861 119.797 264.86 119.796 264.86C119.796 264.859 119.796 264.859 119.796 264.859C119.796 264.858 119.796 264.858 119.796 264.857C119.797 264.857 119.797 264.857 119.797 264.856C120.158 258.615 120.518 252.374 120.878 246.132C120.885 246.068 120.878 246.004 120.858 245.943C120.838 245.881 120.806 245.825 120.763 245.777C120.72 245.729 120.668 245.691 120.609 245.664C120.551 245.637 120.487 245.623 120.423 245.622C120.349 245.614 120.275 245.62 120.204 245.642C120.132 245.663 120.067 245.699 120.01 245.746C119.953 245.794 119.907 245.853 119.873 245.919C119.84 245.986 119.821 246.058 119.817 246.132L118.733 264.899V264.9L118.25 273.256L115.683 317.692V317.704L114.99 329.69L114.914 330.984L114.8 332.99L114.738 334.047C114.74 334.05 114.738 334.054 114.738 334.059L114.619 336.11C113.921 338.367 113.244 340.631 112.589 342.9C112.39 343.589 112.193 344.278 111.998 344.967C111.893 345.34 111.788 345.712 111.684 346.085C111.606 345.773 111.527 345.461 111.448 345.15C111.197 344.159 110.942 343.17 110.68 342.184C110.665 342.122 110.648 342.062 110.632 342.001C110.24 340.513 109.837 339.028 109.424 337.545V337.541C107.777 331.624 105.973 325.754 104.012 319.932C103.795 319.289 102.769 319.565 102.988 320.214C105.037 326.296 106.914 332.431 108.619 338.62C108.948 339.813 109.27 341.008 109.585 342.203C110.11 344.189 110.617 346.179 111.105 348.173C110.199 351.488 109.337 354.813 108.519 358.15V358.151C108.46 358.39 108.402 358.628 108.344 358.866C108.304 359.026 108.266 359.186 108.228 359.347V359.35C107.83 360.983 107.443 362.617 107.067 364.253C106.808 365.379 106.553 366.506 106.303 367.635C103.673 379.484 101.516 391.433 99.6917 403.433C99.3042 389.9 98.7789 376.37 98.1159 362.846C97.6047 352.417 97.0121 341.993 96.3381 331.575V331.574C95.9822 326.079 95.6032 320.586 95.2011 315.097V315.095C95.1423 314.296 95.083 313.497 95.0231 312.697C95.0246 312.696 95.0231 312.696 95.0231 312.696C94.8271 310.051 94.6255 307.408 94.4184 304.767C93.9962 299.382 93.5519 293.998 93.0854 288.614C92.4702 281.521 91.8172 274.431 91.1266 267.344C90.9321 265.348 90.7345 263.352 90.534 261.356C90.8446 259.717 91.1547 258.077 91.4644 256.436L91.6363 255.527L92.0103 253.551V253.55L96.1345 231.73L101.663 202.48L102.222 199.523L105.043 184.593C105.17 183.925 104.146 183.638 104.02 184.311C103.142 188.957 102.264 193.602 101.385 198.247C101.062 199.957 100.739 201.667 100.416 203.377C98.5774 213.099 96.7397 222.82 94.9025 232.541C93.761 238.579 92.6195 244.617 91.4779 250.656C91.4795 250.656 91.4779 250.657 91.4779 250.657C91.297 251.62 91.1155 252.582 90.9336 253.544V253.547C90.6742 254.917 90.4149 256.288 90.1555 257.657C89.7936 254.114 89.4226 250.571 89.0426 247.029C88.9702 246.357 87.9087 246.349 87.981 247.029C88.4937 251.787 88.9889 256.548 89.4664 261.311C89.2115 262.658 88.9567 264.005 88.7018 265.352C87.1728 273.444 85.6432 281.536 84.1131 289.629C83.7995 291.291 83.4853 292.952 83.1707 294.613C83.0802 295.092 82.9897 295.57 82.8993 296.05C81.9583 301.026 81.0178 306.002 80.0779 310.978L78.1703 321.071L77.3862 325.224C77.1087 323.552 76.8232 321.881 76.5297 320.211V320.21C75.9009 316.612 75.2349 313.021 74.5317 309.437C71.3363 293.142 67.3996 277.017 62.7214 261.062C62.6461 260.804 62.5707 260.548 62.4953 260.292C61.6508 257.431 60.7827 254.578 59.891 251.733V251.731C58.3394 246.772 56.7148 241.835 55.0174 236.922C54.1669 234.459 53.2988 232.003 52.4131 229.554C52.413 229.549 52.4114 229.545 52.4086 229.542C50.3397 223.822 48.1733 218.139 45.9094 212.491C45.1283 210.543 44.3356 208.599 43.5314 206.659C43.4715 206.52 43.3606 206.41 43.2216 206.351C43.0826 206.292 42.9262 206.289 42.7849 206.342C42.7234 206.358 42.6662 206.387 42.6174 206.427C42.5685 206.467 42.5293 206.518 42.5026 206.576C42.4759 206.633 42.4623 206.696 42.4629 206.759C42.4635 206.823 42.4782 206.885 42.5059 206.942C45.647 214.521 48.6126 222.169 51.4028 229.886C51.4037 229.886 51.4042 229.887 51.4043 229.889C52.2834 232.318 53.145 234.754 53.9889 237.196C54.004 237.24 54.0191 237.285 54.0342 237.329C55.6522 242.014 57.2044 246.721 58.6907 251.449C58.9923 252.405 59.2904 253.362 59.5849 254.32C60.3736 256.881 61.1436 259.447 61.8951 262.02C65.8519 275.569 69.275 289.258 72.1642 303.089C73.3102 308.569 74.3708 314.066 75.346 319.58C75.8587 322.469 76.3472 325.363 76.8117 328.262C76.593 329.42 76.3744 330.578 76.1557 331.735V331.737C75.1967 336.811 74.2371 341.885 73.2771 346.959C71.7482 344.784 70.0565 342.727 68.2164 340.807C68.2164 340.805 68.2164 340.805 68.2149 340.805C66.399 338.91 64.4432 337.153 62.3641 335.55C62.1183 335.36 61.871 335.173 61.6206 334.986H61.6191C61.497 334.894 61.3733 334.804 61.2497 334.715C60.9225 334.475 60.5922 334.24 60.259 334.012C60.0569 333.869 59.8518 333.73 59.6467 333.593C59.4522 333.46 59.2577 333.331 59.0601 333.204C59.0209 333.177 58.9817 333.151 58.9425 333.127C58.941 333.126 58.9395 333.124 58.938 333.124C58.8144 333.043 58.6892 332.963 58.564 332.883C58.2956 332.712 58.0257 332.544 57.7543 332.378C57.6638 332.322 57.5733 332.267 57.4828 332.213C57.421 332.175 57.3592 332.138 57.2974 332.102C57.2959 332.1 57.2943 332.1 57.2929 332.099C57.0425 331.949 56.7897 331.802 56.5343 331.657L56.5328 331.655C56.4092 331.584 56.287 331.514 56.1619 331.444C56.1483 331.437 56.1362 331.429 56.1227 331.422C54.853 330.71 53.5536 330.054 52.2246 329.455H52.2231C51.7888 329.258 51.3531 329.068 50.9112 328.885C49.4093 328.258 47.8788 327.704 46.3195 327.225C45.6651 327.023 45.3846 328.048 46.036 328.249C46.79 328.481 47.5369 328.731 48.2768 329C48.8529 329.208 49.4239 329.427 49.9899 329.659C49.9992 329.662 50.0082 329.665 50.017 329.669C50.2749 329.773 50.5327 329.88 50.7876 329.99C51.5521 330.315 52.3071 330.659 53.0525 331.023C53.4928 331.239 53.9296 331.46 54.3629 331.687C55.1018 332.074 55.8301 332.48 56.5479 332.904C56.548 332.905 56.5486 332.906 56.5494 332.907C56.7425 333.018 56.9325 333.135 57.1239 333.252H57.1285C60.9069 335.553 64.3722 338.332 67.4383 341.52C67.4398 341.52 67.4398 341.522 67.4413 341.523C69.4909 343.652 71.3522 345.955 73.0041 348.406C72.98 348.534 72.9559 348.662 72.9317 348.79C72.508 351.029 72.0848 353.269 71.662 355.508C70.4768 361.776 69.2921 368.044 68.1078 374.312C64.1691 395.149 60.0735 415.971 56.9822 436.955C54.9917 450.471 53.437 464.071 52.6695 477.709C52.5579 479.684 52.4639 481.66 52.3875 483.635C52.3046 485.727 52.2427 487.819 52.202 489.911C52.1613 491.908 52.1407 493.905 52.1402 495.904C52.1402 497.995 52.1628 500.087 52.208 502.178C52.2412 503.799 52.2895 505.42 52.3528 507.041C52.38 507.721 53.4416 507.726 53.4144 507.041C53.3511 505.428 53.3028 503.814 53.2696 502.201C53.2229 500.108 53.2003 498.016 53.2018 495.926C53.2018 493.916 53.2224 491.908 53.2636 489.901C53.3043 487.808 53.3662 485.715 53.4491 483.624C53.526 481.652 53.62 479.68 53.7311 477.709C55.5572 445.38 61.8061 413.347 67.8153 381.561C69.4228 373.053 71.0307 364.545 72.6392 356.036C73.0147 354.051 73.3902 352.066 73.7656 350.081C73.7898 349.95 73.8154 349.82 73.8395 349.689C73.9994 349.944 74.1592 350.197 74.3145 350.455C75.6246 352.619 76.7645 354.882 77.724 357.222C77.7269 357.227 77.7289 357.231 77.73 357.236C77.7302 357.236 77.7304 357.236 77.7305 357.237C77.7306 357.237 77.7307 357.237 77.7307 357.238C77.7307 357.238 77.7306 357.238 77.7305 357.238C77.7304 357.239 77.7302 357.239 77.73 357.239C77.813 357.437 77.8914 357.634 77.9698 357.833C78.2548 358.552 78.5222 359.279 78.772 360.012C78.7981 360.097 78.8455 360.173 78.9097 360.234C78.9739 360.294 79.0527 360.338 79.1384 360.359C79.5003 360.451 79.9497 360.181 79.7959 359.73C79.5637 359.05 79.3174 358.376 79.057 357.708V357.707C78.9515 357.438 78.8444 357.173 78.7343 356.906C78.7313 356.895 78.7253 356.886 78.7223 356.877C77.4731 353.841 75.9323 350.934 74.1215 348.196C75.0459 343.306 75.9703 338.415 76.8946 333.524V333.522C77.0303 332.804 77.1661 332.09 77.3018 331.372C77.5898 333.236 77.8672 335.1 78.1342 336.966C78.9198 342.422 79.6215 347.889 80.2392 353.368C80.3614 354.448 80.48 355.529 80.5951 356.61C80.8123 358.641 81.0174 360.673 81.2104 362.704V362.705C81.3114 363.768 81.4099 364.832 81.5059 365.895C82.6263 378.441 83.3099 391.017 83.5567 403.623C83.8824 420.414 83.422 437.196 82.1754 453.968C82.0186 456.061 81.8497 458.153 81.6688 460.245C81.6582 460.319 81.6667 460.394 81.6933 460.464C81.72 460.534 81.764 460.595 81.8211 460.643C80.4579 466.313 79.1792 472.002 77.9849 477.709C77.5883 479.607 77.2012 481.507 76.8238 483.409C76.771 483.67 76.7197 483.929 76.6684 484.19C76.3065 486.024 75.9547 487.859 75.6129 489.695C75.2102 491.841 74.8202 493.99 74.4427 496.14C74.0763 498.229 73.7214 500.32 73.3781 502.413C73.3163 502.78 73.2575 503.146 73.1971 503.513C73.0886 504.181 74.1109 504.469 74.221 503.795C74.2964 503.335 74.3718 502.875 74.4472 502.415C74.7925 500.322 75.1494 498.231 75.5179 496.142C75.8979 493.987 76.29 491.835 76.6941 489.685C77.0861 487.587 77.4913 485.492 77.9095 483.398C78.2864 481.5 78.6735 479.603 79.0706 477.709C82.0337 463.548 85.5211 449.51 89.5327 435.595C90.1917 433.31 90.8647 431.029 91.5518 428.752C92.0344 427.15 92.5245 425.551 93.0221 423.955C93.0236 423.954 93.0221 423.954 93.0221 423.954C93.3176 423.004 93.6157 422.055 93.9163 421.107C94.3687 419.679 94.8261 418.252 95.2885 416.827C95.5012 416.176 94.4757 415.897 94.2646 416.545C93.5182 418.842 92.7864 421.143 92.0691 423.448C91.8037 424.299 91.5403 425.151 91.2789 426.004C91.012 426.877 90.7471 427.751 90.4842 428.624C87.8242 437.457 85.3733 446.35 83.1315 455.301C84.2986 440.126 84.8224 424.922 84.7028 409.687C84.564 392.816 83.6377 375.976 81.9236 359.166C81.7216 357.185 81.5089 355.204 81.2858 353.225V353.222C81.1199 351.764 80.9485 350.307 80.7715 348.85V348.847C79.9392 341.977 78.9766 335.124 77.8838 328.287C78.306 326.052 78.7283 323.816 79.1505 321.581C80.6856 313.468 82.2192 305.356 83.7513 297.244C83.8432 296.761 83.9337 296.28 84.0242 295.798C84.3409 294.127 84.6565 292.456 84.9712 290.785C86.5274 282.557 88.0826 274.328 89.6368 266.1C89.7046 265.748 89.771 265.396 89.8373 265.043C89.881 265.485 89.9248 265.928 89.967 266.37C90.727 274.121 91.4408 281.876 92.1083 289.636C92.7115 296.641 93.2779 303.649 93.8077 310.66C93.8665 311.446 93.9253 312.231 93.9841 313.017C94.42 318.878 94.8296 324.742 95.2131 330.607C95.6263 336.935 96.0093 343.263 96.3622 349.594C96.5959 353.798 96.8166 358.003 97.0242 362.208C97.8023 377.973 98.3929 393.747 98.796 409.53C98.5306 411.383 98.2728 413.238 98.0225 415.093C97.9109 415.916 97.8008 416.739 97.6922 417.561V417.563C97.5203 418.863 97.3519 420.163 97.187 421.464C96.9216 423.549 96.6643 425.635 96.415 427.722C94.4245 444.349 92.8819 461.028 91.4131 477.709C91.3543 478.375 91.2955 479.042 91.2367 479.71L90.9245 483.279C90.819 484.476 90.7144 485.674 90.6109 486.873C90.5521 487.553 91.6137 487.55 91.6725 486.873C91.778 485.671 91.8826 484.469 91.9861 483.269C92.149 481.415 92.3119 479.562 92.4747 477.709C93.9043 461.486 95.4016 445.268 97.3137 429.094C97.3831 428.502 97.4539 427.909 97.5263 427.318C97.9757 423.571 98.4512 419.826 98.9528 416.085C99.0312 419.62 99.1006 423.153 99.1609 426.686V426.688C99.3072 435.277 99.3977 443.866 99.4324 452.455C99.4384 454.076 99.4419 455.697 99.4429 457.318C98.3632 464.104 97.361 470.901 96.4361 477.709C96.1842 479.55 95.9389 481.392 95.7002 483.234C95.6972 483.261 95.6926 483.29 95.6896 483.317C95.6022 483.992 96.6653 483.985 96.7512 483.317C96.7558 483.287 96.7588 483.255 96.7633 483.225C97.0016 481.385 97.2463 479.546 97.4977 477.709C98.1114 473.203 98.7593 468.701 99.4414 464.204C99.4324 468.705 99.4082 473.207 99.369 477.709C99.354 479.539 99.3354 481.37 99.3132 483.201C99.2906 485.292 99.264 487.384 99.2333 489.477C99.2016 491.614 99.167 493.75 99.1293 495.886C99.0931 497.979 99.0524 500.071 99.0071 502.163C98.9513 504.883 98.8895 507.604 98.8216 510.326C98.8202 510.363 98.8202 510.403 98.8186 510.44C98.8119 510.53 98.8315 510.621 98.8752 510.7C98.9188 510.779 98.9846 510.844 99.0644 510.887C99.1453 510.933 99.2369 510.958 99.3303 510.959C99.4237 510.96 99.5158 510.938 99.5978 510.893C99.6797 510.848 99.7487 510.783 99.7982 510.703C99.8477 510.624 99.8759 510.534 99.8802 510.44C99.9496 507.673 100.013 504.907 100.07 502.141C100.114 500.047 100.155 497.955 100.192 495.863C100.23 493.731 100.264 491.599 100.295 489.468C100.325 487.376 100.352 485.284 100.376 483.192C100.397 481.364 100.416 479.536 100.432 477.709C100.489 470.923 100.513 464.137 100.503 457.352C102.297 446.087 104.306 434.86 106.529 423.669C107.097 420.805 107.679 417.945 108.275 415.088C109.061 411.32 109.872 407.557 110.709 403.8C110.357 409.9 110.005 415.999 109.652 422.099V422.1C109.03 432.85 108.41 443.6 107.789 454.349C107.34 462.136 106.89 469.923 106.44 477.709C106.336 479.518 106.231 481.328 106.126 483.139C106.006 485.232 105.885 487.324 105.764 489.416C105.642 491.523 105.52 493.629 105.399 495.735C105.277 497.829 105.156 499.924 105.036 502.018C104.826 505.654 104.616 509.29 104.406 512.927C104.366 513.61 105.428 513.607 105.467 512.927C105.678 509.281 105.889 505.635 106.099 501.99C106.22 499.895 106.341 497.801 106.462 495.706C106.583 493.607 106.704 491.508 106.826 489.407C106.946 487.314 107.067 485.221 107.188 483.128C107.293 481.322 107.398 479.515 107.501 477.709C108.584 458.973 109.666 440.236 110.748 421.499C110.998 417.183 111.248 412.867 111.496 408.551L112.137 397.479C113.275 392.516 114.456 387.564 115.679 382.624C115.76 382.292 115.842 381.96 115.925 381.629C116.118 380.849 116.313 380.07 116.51 379.291C116.612 378.88 116.716 378.468 116.82 378.056H116.822C116.869 377.866 116.917 377.675 116.965 377.485C117.004 377.735 117.042 377.984 117.08 378.234C117.115 378.456 117.148 378.678 117.181 378.899C117.704 382.36 118.175 385.829 118.592 389.306C119.051 393.131 119.447 396.964 119.781 400.804V400.805L119.871 401.882C120.228 406.157 120.507 410.438 120.706 414.725V414.726C121.403 429.65 121.141 444.602 119.921 459.491C119.42 465.58 118.757 471.653 117.93 477.709C117.689 479.487 117.433 481.263 117.163 483.038C116.843 485.135 116.504 487.23 116.146 489.321C115.795 491.362 115.427 493.399 115.041 495.435C114.815 496.624 114.583 497.813 114.344 499.001C114.21 499.668 115.233 499.954 115.368 499.283C115.628 497.989 115.88 496.693 116.125 495.395C116.508 493.372 116.873 491.344 117.219 489.312C117.576 487.221 117.913 485.126 118.23 483.027C118.499 481.257 118.753 479.484 118.993 477.709C121.189 461.528 122.241 445.212 122.142 428.883C122.112 423.878 121.974 418.875 121.727 413.873C121.53 409.794 121.259 405.719 120.915 401.648C120.866 401.08 120.817 400.512 120.767 399.946C120.117 392.65 119.239 385.38 118.134 378.135C118.066 377.702 118 377.269 117.93 376.836C117.831 376.192 117.729 375.55 117.624 374.908C117.734 374.479 117.844 374.05 117.956 373.621C118.059 373.223 118.162 372.826 118.265 372.429C120.007 365.726 121.825 359.045 123.719 352.386V352.385C123.81 352.062 123.902 351.743 123.994 351.421C124.301 350.346 124.611 349.272 124.921 348.199C125.313 346.849 125.708 345.501 126.106 344.153C126.113 344.124 126.122 344.094 126.132 344.066C126.322 343.419 126.514 342.772 126.707 342.126C126.738 342.016 126.771 341.906 126.805 341.796C127.124 340.721 127.446 339.646 127.771 338.572C128.138 337.357 128.508 336.142 128.881 334.927C129.091 334.24 129.302 333.553 129.516 332.868V332.866C129.721 332.197 129.929 331.53 130.139 330.862C130.256 330.481 130.375 330.101 130.495 329.719C130.508 329.675 130.522 329.632 130.535 329.589C130.674 329.151 130.811 328.71 130.95 328.271V328.27C131.315 327.112 131.682 325.955 132.052 324.8C132.192 324.36 132.333 323.921 132.474 323.482C132.892 322.181 133.313 320.881 133.737 319.581C134.005 318.758 134.275 317.936 134.546 317.116C134.789 316.377 135.033 315.638 135.279 314.901V314.899C135.674 313.706 136.072 312.515 136.474 311.325C136.692 310.677 135.667 310.398 135.45 311.043C134.929 312.59 134.413 314.138 133.901 315.686V315.688C133.868 315.781 133.838 315.875 133.807 315.968C132.943 318.583 132.091 321.201 131.252 323.823C131.25 323.827 131.249 323.831 131.247 323.835C131.235 323.873 131.223 323.909 131.212 323.947C131.12 324.232 131.028 324.518 130.938 324.803C130.728 325.458 130.52 326.113 130.314 326.768C130.148 327.291 129.982 327.816 129.817 328.341C129.793 328.415 129.771 328.49 129.747 328.565C129.057 330.755 128.378 332.948 127.708 335.143C127.439 336.013 127.174 336.884 126.912 337.755C126.793 338.148 126.674 338.542 126.556 338.934C126.456 339.264 126.357 339.593 126.259 339.923C126.143 340.311 126.026 340.695 125.912 341.083V341.084C125.9 341.125 125.888 341.164 125.876 341.205C125.8 341.455 125.726 341.704 125.651 341.956C125.444 342.653 125.238 343.35 125.033 344.048C124.288 346.575 123.554 349.105 122.831 351.639C122.813 351.703 122.793 351.768 122.775 351.833V351.835C122.1 354.205 121.434 356.578 120.779 358.954C120.694 359.258 120.61 359.562 120.527 359.866C120.305 360.665 120.09 361.464 119.871 362.265C119.868 362.269 119.867 362.274 119.867 362.279C119.494 363.645 119.125 365.013 118.76 366.382C118.68 366.686 118.598 366.989 118.517 367.294C118.152 368.666 117.791 370.04 117.433 371.415C117.363 371.679 117.294 371.943 117.226 372.207C117.216 372.245 117.207 372.284 117.196 372.322L117.182 372.245C117.119 371.871 117.056 371.5 116.989 371.126V371.124C116.979 371.059 116.968 370.995 116.956 370.93C116.867 370.417 116.777 369.905 116.685 369.393C116.652 369.205 116.618 369.016 116.584 368.829C116.579 368.802 116.575 368.776 116.569 368.751C116.526 368.505 116.481 368.261 116.434 368.016C116.37 367.648 116.302 367.281 116.232 366.916C115.994 365.629 115.747 364.346 115.492 363.064V363.063C115.424 362.71 115.353 362.357 115.282 362.006C115.052 360.855 114.815 359.706 114.572 358.559C114.524 358.329 114.473 358.102 114.424 357.872C114.702 353.062 114.98 348.252 115.258 343.441C115.395 341.06 115.533 338.679 115.67 336.298C116.612 333.258 117.597 330.232 118.622 327.22C118.944 326.273 119.27 325.328 119.603 324.384C119.603 324.383 119.604 324.383 119.604 324.382C119.604 324.381 119.604 324.38 119.604 324.379C120.023 323.176 120.452 321.975 120.89 320.777C126.664 304.921 133.675 289.496 142.162 274.904C147.942 264.918 154.462 255.379 161.668 246.367C161.714 246.31 161.759 246.254 161.804 246.199C162.192 245.717 162.581 245.238 162.973 244.76C165.817 241.284 168.774 237.903 171.844 234.618C173.26 233.102 174.699 231.61 176.163 230.14C176.644 229.655 175.894 228.902 175.412 229.389V229.389ZM111.674 387.078C111.478 390.492 111.281 393.906 111.083 397.319C109.032 406.255 107.118 415.22 105.342 424.214C103.977 431.118 102.694 438.036 101.491 444.97C101.147 446.95 100.811 448.931 100.483 450.913C100.444 442.7 100.355 434.489 100.215 426.279C100.144 422.149 100.06 418.019 99.9632 413.891C99.9632 413.891 99.9647 413.891 99.9632 413.89C99.9481 413.22 99.9325 412.55 99.9164 411.878L99.8576 409.544C101.669 396.89 103.82 384.286 106.485 371.783C106.74 370.587 107 369.392 107.265 368.197C107.722 366.139 108.193 364.084 108.679 362.033V362.03C108.869 361.219 109.063 360.409 109.26 359.6C109.397 359.035 109.536 358.47 109.676 357.904C110.302 355.372 110.952 352.847 111.626 350.328C112.232 352.868 112.809 355.413 113.357 357.964C113.313 358.732 113.269 359.5 113.224 360.269C113.194 360.769 113.165 361.271 113.137 361.772C112.833 367.008 112.531 372.243 112.229 377.479C112.217 377.691 112.205 377.904 112.193 378.118C112.099 379.729 112.006 381.339 111.914 382.948V382.95C111.834 384.325 111.754 385.7 111.674 387.077V387.078ZM112.951 383.378C112.963 383.177 112.974 382.977 112.986 382.776C113.004 382.459 113.022 382.141 113.04 381.825C113.093 380.908 113.146 379.991 113.2 379.074V379.073C113.5 373.872 113.8 368.672 114.1 363.473C114.112 363.275 114.123 363.076 114.135 362.879V362.877C114.145 362.704 114.154 362.529 114.165 362.356V362.354C114.173 362.223 114.18 362.092 114.188 361.96C114.204 362.046 114.222 362.131 114.239 362.217C114.349 362.76 114.457 363.303 114.563 363.847C115.029 366.208 115.469 368.575 115.884 370.948C115.917 371.129 115.949 371.308 115.979 371.489V371.491C116.014 371.687 116.048 371.884 116.082 372.082V372.083C116.151 372.484 116.22 372.889 116.288 373.291V373.293C116.374 373.81 116.46 374.327 116.545 374.844C116.348 375.613 116.148 376.382 115.953 377.151C115.937 377.219 115.919 377.287 115.902 377.355C115.88 377.446 115.855 377.538 115.833 377.628C114.684 382.164 113.571 386.709 112.496 391.263C112.648 388.634 112.8 386.006 112.951 383.378V383.378ZM113.788 350.506L113.583 354.044C113.141 352.088 112.682 350.136 112.205 348.188C112.665 346.51 113.136 344.836 113.619 343.165V343.164C113.862 342.319 114.108 341.477 114.358 340.635C114.307 341.517 114.256 342.399 114.206 343.28C114.065 345.688 113.926 348.097 113.788 350.506V350.506ZM108.818 359.509C108.798 359.499 108.78 359.489 108.762 359.477C108.75 359.471 108.739 359.465 108.729 359.457C108.712 359.447 108.696 359.435 108.681 359.423C108.674 359.418 108.667 359.413 108.661 359.407C108.654 359.402 108.648 359.397 108.641 359.391C108.6 359.356 108.562 359.316 108.528 359.273C108.512 359.253 108.496 359.232 108.482 359.21C108.467 359.188 108.453 359.166 108.441 359.142C108.429 359.121 108.418 359.099 108.409 359.077C108.402 359.063 108.396 359.049 108.391 359.034C108.388 359.026 108.385 359.017 108.382 359.008C108.377 358.996 108.374 358.984 108.371 358.972C108.366 358.959 108.362 358.946 108.359 358.932C108.353 358.913 108.349 358.893 108.346 358.872C108.346 358.871 108.344 358.868 108.344 358.866C108.304 359.026 108.266 359.186 108.228 359.347V359.35L108.679 362.03C108.869 361.219 109.063 360.409 109.26 359.6C109.107 359.609 108.954 359.578 108.818 359.509V359.509ZM116.685 369.393C116.652 369.205 116.618 369.016 116.584 368.829C116.499 369.084 116.415 369.339 116.33 369.595C116.181 370.046 116.032 370.497 115.884 370.948C115.917 371.129 115.949 371.308 115.979 371.489C115.993 371.43 116.014 371.372 116.041 371.317L116.068 371.267C116.086 371.236 116.107 371.207 116.13 371.179C116.142 371.165 116.154 371.151 116.166 371.138C116.177 371.124 116.19 371.111 116.204 371.1C116.217 371.086 116.232 371.074 116.247 371.062C116.258 371.053 116.267 371.046 116.278 371.038C116.336 370.995 116.402 370.961 116.471 370.937C116.487 370.93 116.503 370.925 116.52 370.921C116.613 370.894 116.711 370.886 116.807 370.897C116.814 370.897 116.82 370.898 116.827 370.9C116.846 370.902 116.866 370.905 116.885 370.91C116.91 370.914 116.933 370.921 116.956 370.93C116.867 370.417 116.777 369.905 116.685 369.393V369.393ZM108.818 359.509C108.798 359.499 108.78 359.489 108.762 359.477C108.75 359.471 108.739 359.465 108.729 359.457C108.712 359.447 108.696 359.435 108.681 359.423C108.674 359.418 108.667 359.413 108.661 359.407C108.654 359.402 108.648 359.397 108.641 359.391C108.6 359.356 108.562 359.316 108.528 359.273C108.512 359.252 108.497 359.231 108.482 359.21C108.467 359.188 108.453 359.166 108.441 359.142C108.429 359.121 108.418 359.099 108.409 359.077C108.402 359.063 108.396 359.049 108.391 359.034C108.388 359.026 108.385 359.017 108.382 359.008C108.377 358.996 108.374 358.984 108.371 358.972C108.366 358.959 108.362 358.946 108.359 358.932C108.353 358.913 108.349 358.893 108.346 358.872C108.346 358.871 108.344 358.868 108.344 358.866C108.304 359.026 108.266 359.186 108.228 359.347V359.35L108.679 362.03C108.869 361.219 109.063 360.409 109.26 359.6C109.107 359.609 108.954 359.578 108.818 359.509V359.509ZM116.685 369.393C116.652 369.205 116.618 369.016 116.584 368.829C116.499 369.084 116.415 369.339 116.33 369.595C116.181 370.046 116.032 370.497 115.884 370.948C115.917 371.129 115.949 371.308 115.979 371.489C115.993 371.43 116.014 371.372 116.041 371.317L116.068 371.267C116.086 371.236 116.107 371.207 116.13 371.179C116.142 371.165 116.154 371.151 116.166 371.138C116.177 371.124 116.19 371.111 116.204 371.1C116.217 371.086 116.232 371.074 116.247 371.062C116.258 371.053 116.267 371.046 116.278 371.038C116.336 370.995 116.402 370.961 116.471 370.937C116.487 370.93 116.503 370.925 116.52 370.921C116.613 370.894 116.711 370.886 116.807 370.897C116.814 370.897 116.82 370.898 116.827 370.9C116.846 370.902 116.866 370.905 116.885 370.91C116.91 370.914 116.933 370.921 116.956 370.93C116.867 370.417 116.777 369.905 116.685 369.393V369.393Z" fill="#18442F"/>
<path d="M80.5955 356.61C80.2517 357.144 79.721 357.531 79.1071 357.695C79.0905 357.699 79.0739 357.704 79.0574 357.707V357.708C78.7165 357.795 78.3657 357.837 78.0139 357.833H77.9701C77.8178 357.832 77.661 357.823 77.4951 357.808C76.0822 357.678 74.4069 356.963 72.6395 356.036C72.3169 355.867 71.9911 355.689 71.6624 355.508C68.6902 353.866 65.5522 351.832 63.0219 351.105C55.4535 348.93 47.5805 347.931 40.0363 345.675C39.9669 345.655 39.9005 345.634 39.8327 345.614C39.3879 345.48 38.9475 345.341 38.5072 345.198C34.5949 343.921 30.8056 342.293 27.1856 340.335C26.8945 340.178 26.6065 340.02 26.3185 339.857C26.1903 339.789 26.0637 339.718 25.9355 339.646C25.7364 339.533 25.5379 339.419 25.3398 339.304V338.826L26.2657 337.805L26.5944 337.443L27.2127 336.76L27.7631 336.152C27.7646 336.152 27.7646 336.152 27.7646 336.15L27.9169 335.982C27.9169 335.98 27.9184 335.98 27.9184 335.979L28.2336 335.63L28.9875 334.801L29.5666 334.161L30.488 333.144L30.7066 332.904L31.3852 332.153L31.5164 332.01L33.3289 330.009L33.4345 329.892L34.1643 329.087L32.9776 329.039L31.9854 329L31.0715 328.962L30.9283 328.956L28.9815 328.878L25.8872 328.751C25.7401 328.745 25.601 328.683 25.4989 328.577C25.3969 328.471 25.3398 328.329 25.3398 328.182V302.487L29.2349 308.659L28.3588 304.557L28.1763 303.71L26.7287 296.926C30.2781 297.175 33.7967 297.753 37.239 298.654C37.331 298.678 37.423 298.702 37.515 298.726C37.9794 298.848 38.4434 298.977 38.9068 299.112C42.376 300.126 45.746 301.452 48.9754 303.075C49.1141 303.143 49.2513 303.212 49.3885 303.283C49.4036 303.312 49.4202 303.341 49.4368 303.369C51.0986 306.283 52.798 309.285 54.4115 312.146C54.4115 312.146 54.4115 312.146 54.4116 312.146C54.4117 312.146 54.4118 312.146 54.4119 312.147C54.4121 312.147 54.4122 312.147 54.4124 312.147C54.4126 312.147 54.4128 312.147 54.413 312.147C54.5382 312.373 54.6664 312.596 54.7915 312.818C55.7551 314.528 56.684 316.179 57.551 317.725C57.729 318.042 57.9069 318.355 58.0788 318.664C60.7524 323.425 62.7444 326.999 63.1757 327.775C63.1757 327.775 63.1757 327.778 63.1772 327.778C63.233 327.879 63.2631 327.932 63.2631 327.932C63.2767 327.827 63.2812 327.588 63.2812 327.237V327.235C63.2858 327 63.2827 326.714 63.2797 326.382C63.2767 326.068 63.2722 325.715 63.2662 325.322C63.2631 325.179 63.2601 325.029 63.2586 324.876C63.2496 324.422 63.2405 323.926 63.2285 323.39C63.2239 323.211 63.2209 323.025 63.2149 322.835C63.2074 322.461 63.1968 322.071 63.1877 321.664C63.1772 321.225 63.1656 320.769 63.1531 320.296C63.1455 319.949 63.135 319.595 63.1259 319.233C63.1093 318.636 63.0917 318.02 63.0731 317.386C63.0641 317.025 63.0535 316.662 63.043 316.291C63.0113 315.173 62.9766 314.011 62.9404 312.818C63.6175 313.456 64.278 314.11 64.9219 314.78C65.0229 314.881 65.1209 314.985 65.219 315.089C65.9337 315.84 66.6264 316.612 67.2969 317.405C70.9361 321.722 73.921 326.55 76.1561 331.735V331.737C76.4124 332.328 76.6587 332.923 76.895 333.522V333.524C77.3428 334.658 77.756 335.805 78.1345 336.966C79.1964 340.223 79.9764 343.565 80.4658 346.955C80.5502 347.537 80.6603 348.178 80.7719 348.847V348.85C81.0452 350.294 81.217 351.754 81.2861 353.222V353.225C81.3148 354.559 81.1489 355.766 80.5955 356.61Z" fill="#35684F"/>
<path d="M160.391 335.844C162.672 334.633 164.882 333.294 167.012 331.834C157.576 330.071 149.694 328.561 148.861 328.28C148.861 328.28 166.353 322.999 181.944 318.119C188.112 310.638 192.707 301.989 195.451 292.689L180.772 292.626L196.903 286.773C198.175 280.561 198.865 274.219 200.636 268.131C202.664 261.157 206.407 254.279 212.664 250.592C194.885 250.166 177.186 255.621 162.328 265.367L155.067 293.192L145.426 279.684C140.889 284.599 136.955 290.038 133.707 295.886C129.044 304.318 125.795 313.467 121.222 321.948C118.603 326.806 110.924 332.797 109.438 337.501C107.398 343.955 116.489 343.514 121.636 343.883C134.96 344.839 148.576 342.113 160.391 335.844Z" fill="#35684F"/>
<path d="M164.798 213.524C165.548 212.024 166.383 210.568 167.298 209.161C168.591 215.262 169.697 220.357 169.892 220.893C169.892 220.893 173.046 209.45 175.969 199.248C180.73 195.123 186.275 192.003 192.272 190.074L192.544 199.606L196.091 189.038C200.105 188.114 204.213 187.566 208.139 186.32C212.636 184.892 217.044 182.353 219.34 178.231C219.897 189.771 216.634 201.352 210.538 211.155L192.582 216.309L201.506 222.358C198.386 225.382 194.916 228.023 191.169 230.224C185.767 233.385 179.876 235.64 174.44 238.743C171.326 240.521 167.557 245.602 164.525 246.642C160.366 248.069 160.509 242.158 160.188 238.821C159.357 230.183 160.913 221.297 164.798 213.524Z" fill="#4DB27C"/>
<path d="M86.5341 173.039C86.5049 171.361 86.5703 169.684 86.7299 168.014C90.7008 172.822 94.0399 176.826 94.4617 177.211C94.4617 177.211 91.9582 165.608 89.8257 155.212C92.136 149.352 95.6061 144.019 100.028 139.532L104.683 147.855L102.933 136.846C106.063 134.168 109.451 131.78 112.354 128.858C115.679 125.511 118.41 121.219 118.536 116.502C124.373 126.473 126.843 138.248 125.979 149.76L112.45 162.642L123.161 163.871C121.795 167.996 119.942 171.944 117.641 175.63C114.316 180.933 110.139 185.659 106.758 190.927C104.821 193.944 103.832 200.193 101.627 202.519C98.6008 205.709 95.9907 200.403 94.1611 197.594C89.4248 190.323 86.6895 181.726 86.5341 173.039Z" fill="#4DB27C"/>
<path d="M112.986 247.941C113.338 245.383 113.545 242.807 113.607 240.226C106.657 246.847 100.82 252.355 100.105 252.866C100.105 252.866 106.057 235.591 111.222 220.092C108.764 210.712 104.438 201.926 98.502 194.259L89.8621 206.126L94.5541 189.62C90.2605 184.954 85.5205 180.684 81.6193 175.686C77.1506 169.96 73.7633 162.901 74.4342 155.669C63.6857 169.838 57.7538 187.383 56.9648 205.135L75.2813 227.303L58.6861 227.219C60.0174 233.774 62.1266 240.146 64.9687 246.202C69.0783 254.917 74.5965 262.904 78.7989 271.575C81.2063 276.542 81.5721 286.274 84.5172 290.232C88.5573 295.662 93.5185 288.032 96.8295 284.074C105.401 273.828 111.157 261.191 112.986 247.941Z" fill="#35684F"/>
<path d="M161.163 192.275C161.149 193.177 161.12 194.079 161.075 194.98C161.004 196.495 160.89 198.007 160.733 199.516C160.731 199.516 160.731 199.516 160.733 199.518C160.712 199.726 160.69 199.932 160.667 200.138V200.14C160.645 200.341 160.622 200.54 160.599 200.739L159.561 201.648L158.881 202.241L158.109 202.915L155.812 204.925L151.597 208.61L147.998 211.757L147.503 212.19H147.501L146.797 212.807L146.426 213.132L144.213 215.066L143.403 215.774L142.035 216.972L140.904 217.959L142.012 218.135L146.504 218.843L147.057 218.931L155.817 220.315C155.493 221.165 155.154 222.01 154.801 222.85C154.731 223.02 154.658 223.189 154.586 223.359C154.217 224.219 153.832 225.073 153.431 225.921C153.43 225.926 153.426 225.931 153.424 225.937C153.309 226.179 153.195 226.421 153.076 226.661C153.015 226.788 152.953 226.916 152.892 227.043C152.618 227.599 152.337 228.151 152.049 228.701C151.766 229.246 151.475 229.787 151.176 230.324V230.325C150.692 231.2 150.19 232.065 149.67 232.919C149.557 233.104 149.444 233.289 149.331 233.473C149.093 233.857 148.853 234.239 148.607 234.617C148.51 234.768 148.414 234.916 148.315 235.067C148.077 235.433 147.833 235.797 147.585 236.159C147.523 236.252 147.46 236.345 147.395 236.438C147.046 236.948 146.69 237.453 146.329 237.953C146.045 238.348 145.759 238.739 145.47 239.127C145.267 239.4 145.065 239.671 144.857 239.941C144.617 240.262 144.371 240.583 144.124 240.902C142.679 242.774 141.184 244.61 139.681 246.44C139.344 246.852 139.006 247.264 138.667 247.677C136.114 250.787 133.574 253.906 131.259 257.196C128.369 261.303 126.616 269.987 123.391 273.11C118.969 277.394 115.632 269.815 113.239 265.778C107.044 255.321 103.727 243.131 104.026 230.967C104.085 228.619 104.276 226.276 104.598 223.949C107.284 227.496 109.751 230.741 111.601 233.145C111.957 233.608 112.29 234.037 112.597 234.434C112.888 234.811 113.155 235.154 113.399 235.465L113.4 235.467C113.522 235.625 113.639 235.772 113.748 235.911C114.336 236.655 114.727 237.132 114.87 237.276C114.87 237.276 114.781 236.757 114.621 235.825C114.56 235.463 114.487 235.038 114.404 234.556C113.51 229.298 111.472 217.273 109.69 206.219C113.27 198.157 118.442 190.902 124.895 184.888L130.915 196.809L129.832 187.457L129.626 185.669L129.121 181.3C132.814 178.403 136.734 175.784 140.35 172.798C140.77 172.452 141.184 172.1 141.594 171.744V171.742C141.992 171.396 142.386 171.043 142.776 170.684C145.933 167.766 148.761 164.272 150.477 160.369C150.696 159.872 150.896 159.37 151.078 158.861C151.668 157.219 152.031 155.505 152.159 153.765C153.193 155.717 154.138 157.71 154.993 159.743C155.156 160.13 155.314 160.516 155.471 160.905V160.907C155.721 161.529 155.962 162.154 156.196 162.782C156.504 163.614 156.798 164.451 157.078 165.293C157.176 165.587 157.273 165.881 157.365 166.177C157.664 167.111 157.945 168.05 158.207 168.994C158.433 169.8 158.645 170.61 158.842 171.423C158.969 171.941 159.091 172.462 159.209 172.984C159.344 173.594 159.472 174.204 159.595 174.816C159.663 175.155 159.729 175.495 159.792 175.835C159.792 175.835 159.794 175.835 159.792 175.836C160.143 177.726 160.427 179.626 160.643 181.537C160.713 182.145 160.774 182.754 160.83 183.364C160.95 184.674 161.038 185.988 161.095 187.304C161.118 187.833 161.136 188.364 161.149 188.892C161.178 190.02 161.182 191.148 161.163 192.275Z" fill="#558D71"/>
<path d="M59.1736 227.223C59.0831 227.545 58.9882 227.868 58.8916 228.189C58.759 228.627 58.6207 229.061 58.477 229.494C57.6793 231.894 56.8182 235.658 55.0177 236.922C54.7271 237.134 54.39 237.273 54.0345 237.329C53.4329 237.421 52.7437 237.264 51.9506 236.771C48.9724 234.924 46.1947 228.59 43.31 225.938C38.275 221.305 32.5479 217.469 27.5611 212.784L27.5382 212.763C26.8413 212.102 26.2868 211.306 25.9088 210.423C25.5307 209.54 25.3371 208.59 25.3399 207.629V199.21L29.4475 197.613C28.2032 196.926 27.1658 195.918 26.4434 194.693C25.7209 193.469 25.3399 192.074 25.3399 190.653V164.512C27.6726 165.585 30.0447 166.581 32.3548 167.7L33.5582 179.825L36.1714 169.735C42.0911 173.252 47.2392 177.928 51.3067 183.483C51.9355 195.066 52.5055 208.026 52.5055 208.026C52.8267 207.532 55.0102 202.886 57.6702 197.15C57.8225 196.822 57.9758 196.492 58.1301 196.159C58.762 197.88 59.2962 199.636 59.7301 201.417C60.4169 204.251 60.8508 207.14 61.0269 210.05C61.3747 215.838 60.7482 221.643 59.1736 227.223V227.223Z" fill="#558D71"/>
<path d="M109.34 291.294C108.266 288.97 107.061 286.708 105.732 284.518C103.469 293.766 101.541 301.488 101.217 302.298C101.217 302.298 96.9475 284.686 92.9699 268.98C85.9002 262.46 77.5868 257.436 68.5282 254.208L67.6605 268.741L62.7495 252.446C56.6676 250.845 50.4249 249.815 44.4931 247.727C37.6984 245.336 31.0932 241.252 27.7851 234.854C26.3875 252.437 30.8185 270.263 39.6554 285.511L66.811 294.227L52.9061 303.034C57.5243 307.796 62.6946 311.99 68.3073 315.527C76.4013 320.607 85.2828 324.327 93.4306 329.32C98.0982 332.181 103.61 340.113 108.187 341.843C114.465 344.217 114.527 335.191 115.175 330.114C116.853 316.972 114.9 303.339 109.34 291.294Z" fill="#558D71"/>
<path d="M144.994 363.218C144.99 363.989 144.973 364.759 144.942 365.529C144.934 365.712 144.927 365.897 144.917 366.079C144.843 367.645 144.714 369.206 144.529 370.764C144.377 372.053 144.189 373.336 143.965 374.613C143.87 375.154 143.768 375.694 143.66 376.231C143.524 376.916 143.376 377.598 143.217 378.277C143.102 378.772 142.982 379.266 142.857 379.758C142.767 380.109 142.674 380.459 142.579 380.808C142.175 381.165 141.771 381.523 141.365 381.882C141.098 382.121 140.831 382.355 140.564 382.594H140.562C139.558 383.481 138.549 384.37 137.545 385.254C137.152 385.602 136.76 385.948 136.367 386.292C126.884 394.639 118.146 402.224 118.146 402.224C118.967 402.145 126.299 400.41 135.058 398.294C134.741 398.812 134.417 399.326 134.087 399.836C133.942 400.062 133.793 400.284 133.644 400.506C132.785 401.794 131.881 403.049 130.93 404.273C123.218 414.183 112.603 421.75 100.823 426.051C96.2717 427.712 88.6545 431.583 87.9231 425.271C87.3889 420.671 91.6627 412.589 92.0409 407.421C92.697 398.4 91.9656 389.315 92.7204 380.301C93.2541 374.044 94.5336 367.874 96.5316 361.92L109.98 369.785L109.138 364.774L108.856 363.093L105.508 343.163C111.543 333.689 119.391 325.5 128.599 319.066C128.727 318.98 128.852 318.892 128.979 318.806C129.835 318.218 130.702 317.647 131.581 317.094C131.774 316.972 131.97 316.85 132.165 316.73C132.647 316.431 133.134 316.137 133.624 315.848C133.999 315.628 134.376 315.409 134.756 315.194C135.024 315.041 135.295 314.891 135.566 314.742C135.567 314.742 135.568 314.742 135.569 314.742C135.57 314.741 135.57 314.741 135.571 314.74C135.677 314.679 135.785 314.622 135.89 314.563C138.182 313.311 140.537 312.177 142.945 311.166C141.907 312.641 141.076 314.251 140.476 315.952C140.299 316.441 140.141 316.938 139.999 317.442C139.612 318.822 139.339 320.232 139.183 321.656V321.658C139.123 322.187 139.076 322.718 139.045 323.25C139.033 323.447 139.022 323.645 139.013 323.84C138.997 324.231 138.986 324.623 138.984 325.014C138.981 325.455 138.986 325.896 138.999 326.337C139.02 327.156 139.072 327.974 139.148 328.786C139.203 329.408 139.273 330.025 139.357 330.638C139.365 330.695 139.373 330.753 139.381 330.81C139.476 331.493 139.584 332.174 139.705 332.852C139.77 333.212 139.837 333.571 139.906 333.929C140.005 334.431 140.107 334.931 140.214 335.43C140.415 336.356 140.628 337.281 140.854 338.203C141.012 338.854 141.175 339.504 141.342 340.155C141.482 340.707 141.623 341.259 141.767 341.81C141.831 342.059 141.894 342.308 141.96 342.557C142.281 343.807 142.602 345.057 142.903 346.31C143.011 346.752 143.117 347.193 143.215 347.636C143.262 347.828 143.305 348.02 143.348 348.212L142.925 348.622L141.72 349.789L141.349 350.148L140.394 351.075L140.205 351.257L140.105 351.354C140.105 351.354 140.105 351.355 140.105 351.355C140.105 351.355 140.105 351.355 140.104 351.355C140.104 351.356 140.104 351.356 140.104 351.356C140.104 351.356 140.103 351.356 140.103 351.356L139.623 351.822L139.115 352.313L136.278 355.063L133.432 357.822L133.264 357.985L132.215 359.002L131.884 359.321C131.883 359.321 131.883 359.321 131.883 359.321C131.883 359.321 131.883 359.321 131.882 359.321C131.882 359.322 131.882 359.322 131.882 359.322C131.882 359.322 131.882 359.322 131.882 359.323L131.78 359.423L132.153 359.256C132.153 359.256 132.154 359.255 132.155 359.255C132.156 359.255 132.157 359.254 132.158 359.255L132.576 359.07L133.079 358.846C133.081 358.846 133.082 358.845 133.083 358.844L135.335 357.847L136.844 357.177L136.93 357.139L138.077 356.63L138.502 356.442L139.996 355.78L140.001 355.779L142.129 354.834L142.59 354.629L144.377 353.837C144.397 353.986 144.418 354.133 144.436 354.282C144.547 355.124 144.642 355.97 144.719 356.818C144.764 357.301 144.803 357.783 144.836 358.265C144.841 358.324 144.845 358.383 144.848 358.441C144.922 359.54 144.968 360.639 144.986 361.739C144.994 362.231 144.997 362.724 144.994 363.218Z" fill="#4DB27C"/>
<path d="M54.3448 236.566C50.7372 222.469 45.5843 208.814 38.98 195.847C38.6698 195.238 37.7532 195.775 38.063 196.383C44.6227 209.269 49.7397 222.84 53.3208 236.849C53.49 237.51 54.5145 237.23 54.3448 236.566Z" fill="#18442F"/>
<path d="M93.3429 260.806C90.7403 246.645 88.1378 232.484 85.5353 218.322C84.7953 214.296 84.0554 210.27 83.3155 206.244C83.1921 205.572 82.1685 205.857 82.2915 206.526C84.894 220.687 87.4965 234.848 90.099 249.01C90.839 253.036 91.5789 257.062 92.3189 261.089C92.4422 261.76 93.4658 261.475 93.3429 260.806Z" fill="#18442F"/>
<path d="M113.696 140.971C105.522 151.979 100.469 164.988 99.0696 178.627C98.6676 182.561 98.5794 186.521 98.8058 190.469C98.8443 191.149 99.9064 191.153 99.8677 190.469C98.8695 172.922 104.091 155.585 114.613 141.507C115.022 140.959 114.1 140.429 113.696 140.971Z" fill="#18442F"/>
<path d="M144.04 177.763C142.587 190.833 133.876 201.557 128.526 213.177C123.11 224.977 119.838 237.646 118.863 250.593C118.303 258.005 118.511 265.454 119.483 272.823C119.571 273.491 120.634 273.499 120.545 272.823C118.817 259.654 119.528 246.279 122.641 233.367C124.192 226.914 126.339 220.62 129.055 214.565C131.706 208.671 135.046 203.151 138.101 197.466C141.423 191.284 144.319 184.806 145.102 177.763C145.178 177.085 144.115 177.091 144.04 177.763Z" fill="#18442F"/>
<path d="M199.142 198.455C182.908 210.869 169.952 227.06 161.4 245.621C161.115 246.238 162.03 246.778 162.317 246.157C170.787 227.76 183.611 211.702 199.678 199.371C200.213 198.961 199.685 198.038 199.142 198.455Z" fill="#18442F"/>
<path d="M104.868 331.268C98.5466 317.903 90.9515 305.178 82.1886 293.27C79.7449 289.951 77.2137 286.7 74.5949 283.516C74.161 282.988 73.4135 283.743 73.8441 284.267C83.1588 295.608 91.3635 307.817 98.3454 320.726C100.314 324.367 102.183 328.06 103.951 331.804C104.244 332.422 105.159 331.883 104.868 331.268Z" fill="#18442F"/>
<path d="M180.753 270.751C170.997 283.134 161.241 295.517 151.485 307.899C148.729 311.398 145.973 314.896 143.217 318.394C142.799 318.925 143.545 319.682 143.968 319.145C153.724 306.762 163.48 294.38 173.236 281.997C175.992 278.499 178.748 275 181.504 271.502C181.922 270.971 181.176 270.215 180.753 270.751Z" fill="#18442F"/>
<path d="M82.1116 365.252C77.3847 351.042 68.1861 338.488 56.1657 329.573C52.6922 326.999 48.9916 324.747 45.1096 322.844C44.4984 322.544 43.9595 323.459 44.5737 323.761C57.9079 330.358 68.8924 340.894 76.0395 353.941C78.0663 357.646 79.7558 361.526 81.0876 365.534C81.3023 366.179 82.3282 365.903 82.1116 365.252Z" fill="#18442F"/>
<path d="M126.37 339.199C122.142 352 117.914 364.801 113.686 377.603C110.091 388.49 106.489 399.461 101.134 409.638C98.1197 415.365 94.541 420.79 90.2101 425.61C89.7545 426.117 90.5031 426.871 90.961 426.361C98.6081 417.849 103.835 407.586 107.998 397.005C112.576 385.371 116.208 373.35 120.127 361.483C122.549 354.149 124.972 346.815 127.394 339.481C127.609 338.83 126.583 338.552 126.37 339.199Z" fill="#18442F"/>
<path d="M132.847 477.709L132.052 482.9L131.087 489.184L130.227 494.793L129.257 501.114L120.139 560.541L119.178 566.813L118.325 572.372H54.8581L53.924 566.7L52.8896 560.424L43.2556 501.96L42.2176 495.657L41.2874 490.01L40.2546 483.745L39.2598 477.709H132.847Z" fill="#FE6F8B"/>
<path d="M132.053 482.9L131.088 489.184C127.051 489.22 123.015 489.257 118.98 489.295C104.411 489.429 89.8425 489.564 75.2744 489.698C63.9446 489.802 52.6159 489.906 41.2885 490.01L40.2559 483.745C45.5999 483.696 50.9439 483.647 56.288 483.598C70.8554 483.463 85.4241 483.329 99.9939 483.194C110.68 483.096 121.366 482.998 132.053 482.9Z" fill="white"/>
<path d="M130.226 494.793L129.256 501.115C124.783 501.331 120.308 501.52 115.83 501.681C101.227 502.21 86.6171 502.454 72.0007 502.412C62.4169 502.384 52.8349 502.233 43.2548 501.961L42.2168 495.658C45.7287 495.762 49.2418 495.848 52.756 495.917C67.3665 496.21 81.9782 496.216 96.5911 495.937C107.808 495.724 119.02 495.343 130.226 494.793Z" fill="white"/>
<path d="M120.138 560.541L119.177 566.813C116.714 566.81 114.25 566.806 111.786 566.801L53.9231 566.7L52.8887 560.424C56.8649 560.431 60.8417 560.439 64.8191 560.446C83.2588 560.478 101.698 560.51 120.138 560.541Z" fill="#DDB891"/>
<path d="M57.1125 509.554C55.4715 509.554 53.8994 510.997 53.9753 512.691C54.0514 514.391 55.3537 515.829 57.1125 515.829C58.7535 515.829 60.3256 514.386 60.2498 512.691C60.1736 510.992 58.8713 509.554 57.1125 509.554Z" fill="#DDB891"/>
<path d="M72.8856 538.372C72.7603 537.985 72.5368 537.637 72.2369 537.363C71.9621 537.063 71.6143 536.839 71.2273 536.714C70.8555 536.518 70.4383 536.425 70.0185 536.444L69.1846 536.556C68.661 536.7 68.184 536.978 67.8002 537.363C67.6367 537.574 67.4732 537.786 67.3097 537.998C67.0283 538.478 66.8805 539.024 66.8813 539.581V539.85C66.8623 540.27 66.9556 540.687 67.1515 541.059C67.2768 541.446 67.5003 541.793 67.8002 542.068C68.075 542.368 68.4229 542.592 68.8098 542.717C69.1816 542.913 69.5988 543.006 70.0185 542.987C70.2965 542.95 70.5746 542.912 70.8526 542.875C71.3761 542.731 71.8532 542.453 72.2369 542.068C72.4004 541.857 72.5639 541.645 72.7275 541.433C73.0088 540.953 73.1566 540.406 73.1558 539.85V539.581C73.1748 539.161 73.0815 538.744 72.8856 538.372V538.372Z" fill="white"/>
<path d="M116.147 549.821C116.006 549.441 115.785 549.097 115.498 548.811C115.212 548.525 114.868 548.304 114.489 548.162C114.117 547.966 113.7 547.873 113.28 547.892L112.446 548.004C111.923 548.149 111.446 548.427 111.062 548.811C110.898 549.023 110.735 549.234 110.571 549.446C110.29 549.926 110.142 550.473 110.143 551.029V551.298C110.134 551.916 110.314 552.521 110.658 553.034C111.003 553.546 111.496 553.941 112.071 554.165C112.443 554.361 112.86 554.454 113.28 554.435C113.558 554.398 113.836 554.361 114.114 554.323C114.638 554.179 115.115 553.901 115.498 553.517C115.662 553.305 115.826 553.093 115.989 552.882C116.27 552.401 116.418 551.855 116.417 551.298V551.029C116.436 550.61 116.343 550.192 116.147 549.821V549.821Z" fill="white"/>
<path d="M98.9676 510.676C98.8423 510.289 98.6188 509.941 98.3189 509.666C98.0441 509.367 97.6963 509.143 97.3093 509.018C96.9376 508.822 96.5203 508.728 96.1006 508.748L95.2666 508.86C94.743 509.004 94.266 509.282 93.8822 509.666L93.3917 510.301C93.1104 510.782 92.9625 511.328 92.9634 511.885V512.154C92.9443 512.573 93.0376 512.991 93.2336 513.362C93.3588 513.749 93.5823 514.097 93.8822 514.372C94.157 514.672 94.5049 514.895 94.8919 515.021C95.2636 515.217 95.6808 515.31 96.1006 515.291C96.3786 515.254 96.6566 515.216 96.9346 515.179C97.4581 515.034 97.9352 514.756 98.3189 514.372C98.4824 514.16 98.646 513.949 98.8095 513.737C99.0908 513.257 99.2387 512.71 99.2378 512.154V511.885C99.2568 511.465 99.1635 511.048 98.9676 510.676V510.676Z" fill="#DDB891"/>
<path d="M105.513 536.174C103.872 536.174 102.3 537.617 102.376 539.312C102.452 541.011 103.754 542.449 105.513 542.449C107.154 542.449 108.726 541.006 108.65 539.312C108.574 537.612 107.272 536.174 105.513 536.174Z" fill="#DDB891"/>
<path d="M80.5032 519.503C78.8622 519.503 77.29 520.946 77.3659 522.641C77.4421 524.34 78.7444 525.778 80.5032 525.778C82.1441 525.778 83.7163 524.335 83.6404 522.641C83.5642 520.941 82.2619 519.503 80.5032 519.503Z" fill="white"/>
<path d="M119.497 506.866C117.856 506.866 116.284 508.309 116.36 510.003C116.436 511.703 117.738 513.14 119.497 513.14C121.138 513.14 122.71 511.697 122.634 510.003C122.558 508.303 121.256 506.866 119.497 506.866Z" fill="#DDB891"/>
<path d="M94.6649 549.128C94.5396 548.741 94.3161 548.393 94.0162 548.118C93.7414 547.818 93.3935 547.595 93.0065 547.469C92.6348 547.273 92.2176 547.18 91.7979 547.199C91.5198 547.237 91.2418 547.274 90.9638 547.311C90.4403 547.456 89.9632 547.734 89.5795 548.118C89.416 548.33 89.2525 548.541 89.0889 548.753C88.8076 549.233 88.6598 549.78 88.6606 550.336V550.874C88.6416 551.294 88.7349 551.711 88.9308 552.083C89.0561 552.47 89.2796 552.818 89.5795 553.092C89.8543 553.392 90.2021 553.616 90.5891 553.741C90.9609 553.937 91.3781 554.03 91.7979 554.011L92.6318 553.899C93.1554 553.755 93.6325 553.477 94.0162 553.092C94.1797 552.881 94.3432 552.669 94.5067 552.458C94.7881 551.977 94.9359 551.431 94.9351 550.874V550.336C94.9541 549.917 94.8608 549.499 94.6649 549.128V549.128Z" fill="#DDB891"/>
<path d="M62.1297 551.548C62.0045 551.161 61.781 550.813 61.481 550.538C61.2063 550.238 60.8584 550.015 60.4714 549.889C60.0997 549.693 59.6825 549.6 59.2627 549.619L58.4287 549.731C57.9051 549.876 57.4281 550.154 57.0444 550.538C56.8808 550.75 56.7173 550.961 56.5538 551.173C56.2725 551.653 56.1246 552.2 56.1255 552.756V553.025C56.1065 553.445 56.1997 553.862 56.3957 554.234C56.5209 554.621 56.7444 554.969 57.0444 555.244C57.3191 555.543 57.667 555.767 58.054 555.892C58.4257 556.088 58.8429 556.181 59.2627 556.162C59.5407 556.125 59.8187 556.088 60.0967 556.05C60.6202 555.906 61.0973 555.628 61.481 555.244C61.6446 555.032 61.8081 554.82 61.9716 554.609C62.2529 554.128 62.4008 553.582 62.3999 553.025V552.756C62.4189 552.337 62.3257 551.919 62.1297 551.548V551.548Z" fill="#DDB891"/>
<path d="M439.316 198.523C437.552 183.559 430.811 168.993 418.211 160.2C412.398 156.143 405.574 153.455 398.487 152.868C398.22 152.845 397.953 152.827 397.685 152.812C397.347 152.711 397.008 152.614 396.667 152.52C396.581 152.492 396.488 152.495 396.403 152.527C396.319 152.56 396.248 152.62 396.202 152.698C396.177 152.642 396.141 152.592 396.095 152.551C396.05 152.51 395.996 152.479 395.938 152.46C395.88 152.44 395.819 152.434 395.758 152.439C395.697 152.445 395.638 152.464 395.584 152.494C395.758 141.305 395.93 130.116 396.101 118.926C396.132 116.988 396.709 2.19308 396.739 0.255371H395.497C395.333 10.8849 395.109 134.37 394.946 145C394.907 147.583 394.867 150.166 394.827 152.749L394.808 152.769C389.034 152.961 383.383 154.493 378.303 157.244C373.435 159.871 369.092 163.374 365.493 167.575C364.514 168.709 363.592 169.886 362.726 171.107C358.192 177.491 355.29 184.957 353.721 192.601C350.261 209.436 353.265 226.665 357.579 243.046C358.148 245.204 358.736 247.356 359.344 249.502C359.37 249.606 359.436 249.695 359.528 249.751C359.544 249.846 359.594 249.932 359.669 249.993C359.745 250.053 359.84 250.084 359.936 250.079L401.019 249.613C401.098 249.686 401.202 249.726 401.31 249.725C401.418 249.724 401.521 249.682 401.599 249.607L415.858 249.446C419.832 249.401 423.806 249.355 427.782 249.31C427.826 249.366 427.882 249.411 427.946 249.442C428.011 249.473 428.081 249.489 428.152 249.488C428.224 249.487 428.294 249.47 428.357 249.438C428.421 249.406 428.476 249.36 428.519 249.303C429.508 249.291 430.498 249.28 431.488 249.27C432.134 249.261 432.039 248.109 431.196 248.465L431.131 248.401C434.417 239.488 437.228 230.217 438.704 220.786C439.856 213.432 440.197 205.979 439.316 198.523ZM360.166 249.205C355.621 233.014 351.673 216.191 353.549 199.271C354.809 187.901 358.867 176.679 366.267 168.056C368.61 165.314 371.283 162.873 374.226 160.788C379.76 156.875 386.253 154.248 393.039 153.723C381.484 160.407 372.063 170.233 365.87 182.057C359.007 195.181 356.691 210.289 359.016 224.898C360.365 233.416 363.286 241.609 367.631 249.058C367.644 249.08 367.659 249.1 367.675 249.119L360.166 249.205ZM375.568 249.03L368.333 249.111C368.396 249.047 368.436 248.963 368.445 248.874C368.454 248.784 368.433 248.694 368.384 248.618C360.748 235.567 357.643 220.029 359.537 205.035C361.036 193.157 365.829 181.855 373.083 172.378C374.327 170.752 375.641 169.183 377.026 167.67C381.891 162.349 387.563 157.828 393.835 154.272C385.378 163.217 378.867 173.817 374.713 185.404C370.045 198.521 368.562 212.559 370.386 226.362C371.413 234.152 373.469 241.771 376.501 249.019L375.568 249.03ZM377.422 249.009C377.416 248.977 377.406 248.945 377.392 248.915C371.902 235.871 369.638 221.695 370.792 207.59C371.7 196.792 374.623 186.26 379.411 176.54C380.455 174.412 381.584 172.328 382.798 170.288C386.165 164.637 390.159 159.384 394.705 154.629C394.696 154.693 394.7 154.758 394.719 154.819C394.726 154.847 394.734 154.874 394.741 154.901C394.732 154.925 394.723 154.951 394.714 154.975C394.615 154.99 394.523 155.039 394.454 155.112C394.385 155.186 394.343 155.28 394.334 155.38C394.307 155.658 394.283 155.935 394.256 156.213C391.201 164.509 388.759 173.019 386.95 181.673C386.353 184.53 385.825 187.403 385.366 190.289C383.39 202.707 382.701 215.296 383.313 227.855C383.661 234.914 384.423 241.947 385.596 248.917C382.871 248.947 380.146 248.977 377.422 249.009V249.009ZM386.431 248.906C386.449 248.841 386.452 248.773 386.44 248.707C382.76 226.653 383.196 204.108 387.726 182.213C388.289 179.491 388.914 176.782 389.601 174.086C390.837 169.243 392.278 164.459 393.924 159.734C393.149 168.243 392.552 176.767 392.134 185.304C392.025 187.51 391.93 189.717 391.847 191.924C391.385 204.126 391.291 216.335 391.565 228.55C391.716 235.318 391.982 242.081 392.362 248.84C390.385 248.862 388.408 248.884 386.431 248.906V248.906ZM400.903 248.743C398.347 248.772 395.79 248.801 393.233 248.829C392.564 236.784 392.249 224.726 392.289 212.655C392.322 203.734 392.552 194.817 392.978 185.904C393.135 182.617 393.319 179.332 393.529 176.048C393.948 169.495 394.474 162.95 395.108 156.415C395.117 156.389 395.126 156.364 395.136 156.336C398.273 167.802 400.507 179.496 401.817 191.31C401.856 191.665 401.893 192.019 401.93 192.373C403.192 204.291 403.517 216.29 402.899 228.259C402.545 235.113 401.879 241.941 400.903 248.743V248.743ZM408.843 248.653C406.488 248.68 404.133 248.707 401.779 248.733C403.503 236.648 404.258 224.445 404.036 212.24C403.917 205.838 403.53 199.447 402.875 193.068C402.263 187.074 401.414 181.111 400.328 175.18C399.081 168.364 397.523 161.616 395.655 154.935C395.66 154.925 395.664 154.913 395.669 154.901C403.505 161.987 406.11 173.008 407.633 183.096C408.376 188.021 408.969 192.968 409.411 197.936C410.212 206.949 410.531 215.998 410.365 225.044C410.223 232.901 409.717 240.738 408.845 248.556C408.841 248.588 408.84 248.621 408.843 248.653V248.653ZM409.698 248.644C409.707 248.615 409.714 248.586 409.718 248.556C411.291 234.402 411.674 220.141 410.861 205.924C410.721 203.491 410.546 201.061 410.336 198.634C409.934 193.99 409.404 189.358 408.749 184.74C407.952 179.13 406.948 173.51 405.042 168.157C403.228 163.069 400.545 158.262 396.594 154.566C401.994 156.145 406.684 159.541 410.326 163.808C414.697 168.931 417.422 175.232 419.209 181.673C421.13 188.594 422.177 195.795 422.721 202.947C422.86 204.753 422.959 206.562 423.02 208.373C423.496 221.936 421.854 235.49 418.155 248.547C415.337 248.579 412.518 248.611 409.698 248.644V248.644ZM427.905 248.437C424.957 248.47 422.01 248.503 419.064 248.537C422.665 235.702 424.301 222.396 423.917 209.071C423.875 207.629 423.809 206.189 423.719 204.749C423.266 197.478 422.281 190.169 420.491 183.102C418.816 176.484 416.248 169.973 412.037 164.538C408.099 159.455 402.751 155.362 396.513 153.636C396.855 153.646 397.198 153.66 397.538 153.679C409.84 157.395 419.767 166.592 426.067 177.639C432.933 189.676 435.122 203.574 434.299 217.266C434.212 218.722 434.091 220.173 433.937 221.62C432.969 230.753 430.774 239.723 427.905 248.437V248.437ZM432.313 242.449C431.648 244.42 430.954 246.38 430.231 248.329C430.221 248.355 430.214 248.383 430.21 248.411C429.748 248.416 429.287 248.421 428.825 248.427C432.051 238.581 434.43 228.297 435.135 217.931C435.583 211.747 435.348 205.532 434.435 199.399C432.342 185.746 426.043 172.654 415.789 163.256C411.588 159.373 406.722 156.278 401.423 154.12C405.737 154.869 409.897 156.332 413.731 158.447C420.062 161.938 425.453 166.91 429.445 172.937C433.634 179.238 436.315 186.438 437.725 193.85C439.387 202.59 439.223 211.434 437.908 220.148C436.765 227.732 434.75 235.215 432.313 242.449V242.449Z" fill="#BC7123"/>
<path d="M557.522 207.928C589.515 207.928 615.45 181.992 615.45 150C615.45 118.007 589.515 92.0713 557.522 92.0713C525.529 92.0713 499.594 118.007 499.594 150C499.594 181.992 525.529 207.928 557.522 207.928Z" fill="#FDD076"/>
<path d="M616.596 124.869C610.111 109.425 597.877 97.1045 582.479 90.5109C570.724 85.5117 557.739 84.1579 545.206 86.625C532.673 89.0922 521.17 95.2664 512.187 104.348C504.737 111.836 499.233 121.033 496.155 131.137C493.077 141.242 492.518 151.946 494.528 162.315C496.538 172.685 501.055 182.405 507.686 190.628C514.316 198.85 522.858 205.325 532.566 209.488C544.32 214.487 557.305 215.841 569.838 213.374C582.371 210.907 593.874 204.732 602.857 195.651C611.879 186.527 617.998 174.937 620.443 162.34C622.888 149.744 621.55 136.706 616.596 124.869V124.869ZM557.522 213.056C523.002 213.056 494.918 184.768 494.918 149.999C494.918 115.231 523.002 86.9431 557.522 86.9431C592.042 86.9431 620.126 115.231 620.126 149.999C620.126 184.768 592.042 213.056 557.522 213.056Z" fill="#FDD076"/>
<path d="M558.551 94.841C558.521 93.3876 556.259 93.3825 556.289 94.841C556.368 98.5611 556.447 102.281 556.525 106.001C556.556 107.455 558.818 107.46 558.787 106.001C558.709 102.281 558.63 98.5611 558.551 94.841Z" fill="#C37F39"/>
<path d="M612.187 147.141L602.839 146.811C601.383 146.759 601.385 149.021 602.839 149.073C605.955 149.183 609.071 149.293 612.187 149.403C613.643 149.455 613.641 147.193 612.187 147.141Z" fill="#C37F39"/>
<path d="M559.787 192.86V204.018C559.787 205.474 562.049 205.476 562.049 204.018V192.86C562.049 191.404 559.787 191.402 559.787 192.86Z" fill="#C37F39"/>
<path d="M516.579 146.027L503.01 146.397C501.557 146.436 501.551 148.698 503.01 148.659L516.579 148.289C518.032 148.249 518.038 145.987 516.579 146.027Z" fill="#C37F39"/>
<path d="M588.196 174.038L559.444 150.031C559.293 149.902 559.112 149.813 558.917 149.773C558.689 141.113 558.46 132.453 558.231 123.793C558.193 122.341 555.931 122.335 555.969 123.793C556.2 132.541 556.431 141.289 556.662 150.037C556.661 150.28 556.742 150.515 556.892 150.706C557.043 150.896 557.253 151.03 557.489 151.085C557.544 151.301 557.669 151.493 557.845 151.63C567.429 159.633 577.012 167.635 586.596 175.637C587.706 176.564 589.315 174.972 588.196 174.038Z" fill="#C37F39"/>
<path d="M725.051 468.407C726.653 468.877 728.139 469.676 729.413 470.755C730.687 471.833 731.721 473.166 732.449 474.668C732.659 475.103 732.009 475.486 731.798 475.048C731.119 473.631 730.149 472.372 728.952 471.353C727.756 470.335 726.358 469.579 724.851 469.134C724.386 468.998 724.584 468.27 725.051 468.407Z" fill="#4D2C13"/>
<path d="M730.367 458.874C732.27 459.695 734.174 460.515 736.077 461.335C736.521 461.526 736.137 462.176 735.696 461.986C733.793 461.166 731.89 460.346 729.987 459.525C729.542 459.334 729.926 458.684 730.367 458.874Z" fill="#4D2C13"/>
<path d="M666.435 436.831L591.942 430.498L591.641 435.926L607.926 438.942L601.593 558.673H611.244L625.419 439.545L640.196 441.656L676.387 558.974L683.927 558.673L657.086 443.466L666.133 444.069L666.435 436.831Z" fill="#A87546"/>
<path d="M596.842 432.006V436.53C596.838 436.627 596.797 436.72 596.727 436.788C596.657 436.856 596.563 436.894 596.465 436.894C596.367 436.894 596.273 436.856 596.203 436.788C596.132 436.72 596.091 436.627 596.088 436.53V432.006C596.091 431.908 596.132 431.815 596.203 431.747C596.273 431.68 596.367 431.642 596.465 431.642C596.563 431.642 596.657 431.68 596.727 431.747C596.797 431.815 596.838 431.908 596.842 432.006V432.006Z" fill="#4D2C13"/>
<path d="M606.668 509.753C607.811 495.057 608.954 480.361 610.097 465.665C610.743 457.368 611.388 449.07 612.033 440.772C612.071 440.292 612.825 440.287 612.787 440.772C611.644 455.468 610.501 470.164 609.358 484.86C608.215 499.556 607.073 514.252 605.93 528.948C605.284 537.245 604.639 545.543 603.994 553.841C603.956 554.321 603.202 554.326 603.24 553.841C604.383 539.145 605.526 524.449 606.668 509.753Z" fill="#4D2C13"/>
<path d="M644.806 442.238C648.406 454.933 652.006 467.629 655.606 480.324C659.206 493.019 662.806 505.714 666.406 518.41C668.431 525.554 670.457 532.698 672.483 539.842C672.506 539.937 672.491 540.037 672.441 540.121C672.391 540.206 672.311 540.267 672.216 540.293C672.122 540.319 672.022 540.308 671.936 540.261C671.85 540.214 671.785 540.136 671.756 540.042C668.156 527.347 664.556 514.652 660.956 501.957C657.356 489.261 653.756 476.566 650.156 463.871C648.13 456.727 646.105 449.583 644.079 442.439C644.056 442.343 644.071 442.243 644.121 442.159C644.171 442.075 644.251 442.013 644.345 441.987C644.44 441.961 644.54 441.973 644.626 442.02C644.712 442.066 644.776 442.145 644.806 442.238V442.238Z" fill="#4D2C13"/>
<path d="M674.288 541.697C675.586 546.324 676.884 550.951 678.182 555.578C678.205 555.673 678.19 555.773 678.14 555.857C678.09 555.941 678.01 556.003 677.915 556.029C677.821 556.055 677.72 556.043 677.635 555.997C677.549 555.95 677.484 555.871 677.455 555.778L673.561 541.897C673.538 541.802 673.554 541.702 673.603 541.618C673.653 541.534 673.734 541.472 673.828 541.446C673.922 541.42 674.023 541.432 674.109 541.479C674.195 541.525 674.259 541.604 674.288 541.697V541.697Z" fill="#4D2C13"/>
<path d="M640.196 440.977H643.815C643.913 440.98 644.006 441.022 644.074 441.092C644.141 441.162 644.179 441.256 644.179 441.354C644.179 441.452 644.141 441.546 644.074 441.616C644.006 441.686 643.913 441.728 643.815 441.731H640.196C640.098 441.728 640.006 441.686 639.938 441.616C639.87 441.546 639.832 441.452 639.832 441.354C639.832 441.256 639.87 441.162 639.938 441.092C640.006 441.022 640.098 440.98 640.196 440.977Z" fill="#4D2C13"/>
<path d="M609.112 438.444L625.72 439.17C626.203 439.192 626.206 439.946 625.72 439.924L609.112 439.198C608.628 439.177 608.626 438.423 609.112 438.444Z" fill="#4D2C13"/>
<path d="M712.996 369.407C700.209 368.988 686.401 369.931 676.434 377.952C670.429 382.785 666.454 389.77 664.011 397.08C661.567 404.391 660.538 412.085 659.52 419.725C657.643 433.816 655.767 447.907 653.89 461.998C653.126 467.738 652.471 474.02 655.562 478.916C658.754 483.97 665.008 486.049 670.846 487.335C685.172 490.484 699.945 491.061 714.473 489.037C722.583 487.904 730.854 485.833 737.313 480.8C747.749 472.668 751.341 458.704 753.976 445.739C757.537 428.222 760.765 410.254 760.423 392.307C760.188 379.983 755.343 374.265 743.14 372.284C733.164 370.682 723.095 369.721 712.996 369.407V369.407Z" fill="#FDD076"/>
<path d="M612.173 470.167C607.511 470.088 605.075 470.075 601.316 473.786C598.681 476.387 597.795 484.467 599.359 488.328C600.441 491.001 602.702 492.351 604.85 493.305C621.797 500.832 638.814 496.3 656.589 498.445C661.583 499.048 668.289 498.928 672.957 496.465C683.236 491.042 673.651 475.802 666.588 474.102C662.8 473.19 659.429 469.223 655.602 469.161C649.424 469.063 619.089 470.284 612.173 470.167Z" fill="#FDD076"/>
<path d="M679.242 406.091C680.006 407.166 681.443 407.252 682.471 406.499C683.538 405.719 683.894 404.244 683.017 403.183C682.228 402.229 680.782 401.928 679.725 402.596C679.656 402.675 679.573 402.74 679.479 402.788C678.585 403.65 678.532 405.092 679.242 406.091ZM680.013 403.321C680.022 403.303 680.036 403.287 680.052 403.275C680.068 403.262 680.086 403.252 680.106 403.247C680.466 403.033 680.889 402.95 681.302 403.013C681.716 403.076 682.096 403.281 682.375 403.592C683.052 404.326 682.772 405.353 682.011 405.902C680.287 407.142 678.632 404.652 680.013 403.321V403.321Z" fill="#4D2C13"/>
<path d="M682.134 400.772C683.342 398.361 684.551 395.949 685.759 393.537C685.977 393.104 686.628 393.485 686.411 393.918C685.202 396.33 683.993 398.741 682.785 401.153C682.567 401.587 681.917 401.205 682.134 400.772Z" fill="#4D2C13"/>
<path d="M680.986 396.72V400.64C680.983 400.738 680.942 400.831 680.872 400.899C680.801 400.966 680.707 401.004 680.609 401.004C680.512 401.004 680.418 400.966 680.347 400.899C680.277 400.831 680.236 400.738 680.232 400.64V396.72C680.236 396.622 680.277 396.529 680.347 396.461C680.418 396.393 680.512 396.355 680.609 396.355C680.707 396.355 680.801 396.393 680.872 396.461C680.942 396.529 680.983 396.622 680.986 396.72Z" fill="#4D2C13"/>
<path d="M675.83 397.118C676.911 398.843 677.992 400.567 679.074 402.291C679.332 402.703 678.68 403.082 678.423 402.672C677.341 400.947 676.26 399.223 675.179 397.499C674.92 397.087 675.572 396.708 675.83 397.118Z" fill="#4D2C13"/>
<path d="M685.244 403.331C686.149 402.828 687.054 402.325 687.958 401.823C688.383 401.587 688.764 402.238 688.339 402.474C687.434 402.976 686.529 403.479 685.625 403.982C685.2 404.217 684.819 403.567 685.244 403.331Z" fill="#4D2C13"/>
<path d="M673.18 409.363C674.688 408.257 676.196 407.151 677.704 406.045C678.096 405.758 678.472 406.412 678.085 406.697C676.577 407.802 675.069 408.908 673.561 410.014C673.169 410.301 672.793 409.647 673.18 409.363Z" fill="#4D2C13"/>
<path d="M683.087 407.778L684.896 413.81C685.036 414.275 684.308 414.474 684.169 414.01C683.566 411.999 682.963 409.989 682.36 407.978C682.22 407.513 682.947 407.314 683.087 407.778Z" fill="#4D2C13"/>
<path d="M716.939 405.789C717.704 406.865 719.14 406.95 720.169 406.197C721.235 405.417 721.592 403.942 720.714 402.881C719.926 401.928 718.479 401.626 717.423 402.294C717.353 402.373 717.27 402.438 717.177 402.487C716.282 403.348 716.229 404.791 716.939 405.789ZM717.71 403.02C717.72 403.002 717.733 402.986 717.749 402.973C717.765 402.96 717.783 402.951 717.803 402.945C718.163 402.731 718.586 402.648 719 402.711C719.414 402.774 719.793 402.979 720.073 403.29C720.749 404.024 720.469 405.052 719.708 405.6C717.985 406.84 716.329 404.35 717.71 403.02V403.02Z" fill="#4D2C13"/>
<path d="M719.833 400.47C721.041 398.059 722.25 395.647 723.459 393.236C723.676 392.802 724.327 393.183 724.11 393.616C722.901 396.028 721.692 398.439 720.484 400.851C720.266 401.285 719.616 400.903 719.833 400.47Z" fill="#4D2C13"/>
<path d="M718.684 396.418V400.339C718.68 400.437 718.639 400.529 718.569 400.597C718.498 400.665 718.404 400.703 718.307 400.703C718.209 400.703 718.115 400.665 718.045 400.597C717.974 400.529 717.933 400.437 717.93 400.339V396.418C717.933 396.321 717.974 396.228 718.045 396.16C718.115 396.092 718.209 396.054 718.307 396.054C718.404 396.054 718.498 396.092 718.569 396.16C718.639 396.228 718.68 396.321 718.684 396.418V396.418Z" fill="#4D2C13"/>
<path d="M713.529 396.817C714.61 398.542 715.692 400.266 716.773 401.99C717.032 402.403 716.379 402.782 716.122 402.371C715.041 400.647 713.959 398.922 712.878 397.198C712.619 396.786 713.271 396.407 713.529 396.817Z" fill="#4D2C13"/>
<path d="M722.943 403.029C723.848 402.527 724.753 402.024 725.658 401.521C726.082 401.286 726.463 401.936 726.038 402.172C725.133 402.675 724.229 403.178 723.324 403.68C722.899 403.916 722.519 403.265 722.943 403.029Z" fill="#4D2C13"/>
<path d="M710.88 409.061C712.388 407.955 713.895 406.85 715.403 405.744C715.795 405.456 716.172 406.11 715.784 406.395C714.276 407.501 712.768 408.606 711.26 409.712C710.868 409.999 710.492 409.345 710.88 409.061Z" fill="#4D2C13"/>
<path d="M720.784 407.477L722.594 413.508C722.733 413.974 722.006 414.173 721.866 413.709C721.263 411.698 720.66 409.688 720.057 407.677C719.917 407.211 720.645 407.012 720.784 407.477Z" fill="#4D2C13"/>
<path d="M703.831 451.609C704.596 452.684 706.033 452.77 707.061 452.017C708.127 451.237 708.484 449.762 707.607 448.701C706.818 447.747 705.372 447.446 704.315 448.114C704.246 448.193 704.163 448.258 704.069 448.306C703.175 449.168 703.122 450.611 703.831 451.609ZM704.602 448.839C704.612 448.821 704.625 448.806 704.641 448.793C704.658 448.78 704.676 448.771 704.696 448.765C705.055 448.551 705.478 448.468 705.892 448.531C706.306 448.594 706.685 448.799 706.965 449.11C707.642 449.844 707.362 450.872 706.6 451.42C704.877 452.66 703.222 450.17 704.602 448.839V448.839Z" fill="#4D2C13"/>
<path d="M706.729 446.29C707.938 443.879 709.147 441.467 710.355 439.055C710.573 438.622 711.223 439.003 711.006 439.436L707.38 446.671C707.163 447.105 706.512 446.723 706.729 446.29Z" fill="#4D2C13"/>
<path d="M705.58 442.238V446.158C705.577 446.256 705.536 446.349 705.465 446.417C705.395 446.485 705.301 446.523 705.203 446.523C705.105 446.523 705.011 446.485 704.941 446.417C704.871 446.349 704.83 446.256 704.826 446.158V442.238C704.83 442.14 704.871 442.047 704.941 441.979C705.011 441.912 705.105 441.874 705.203 441.874C705.301 441.874 705.395 441.912 705.465 441.979C705.536 442.047 705.577 442.14 705.58 442.238V442.238Z" fill="#4D2C13"/>
<path d="M700.422 442.637C701.503 444.361 702.584 446.085 703.666 447.81C703.924 448.222 703.272 448.601 703.015 448.19C701.933 446.466 700.852 444.742 699.77 443.017C699.512 442.605 700.164 442.226 700.422 442.637Z" fill="#4D2C13"/>
<path d="M709.836 448.849C710.741 448.346 711.645 447.843 712.55 447.341C712.975 447.105 713.355 447.756 712.931 447.992C712.026 448.494 711.121 448.997 710.216 449.5C709.792 449.736 709.411 449.085 709.836 448.849Z" fill="#4D2C13"/>
<path d="M697.772 454.881C699.28 453.775 700.788 452.669 702.296 451.563C702.688 451.276 703.064 451.93 702.677 452.214C701.169 453.32 699.661 454.426 698.153 455.532C697.761 455.819 697.385 455.165 697.772 454.881Z" fill="#4D2C13"/>
<path d="M707.676 453.296L709.486 459.328C709.626 459.794 708.898 459.993 708.759 459.529C708.156 457.518 707.553 455.507 706.949 453.497C706.81 453.031 707.537 452.832 707.676 453.296Z" fill="#4D2C13"/>
<path d="M729.554 443.773C728.724 452.843 727.816 463.204 720.503 468.633C715.784 472.136 709.535 472.597 703.662 472.796C693.637 473.135 683.608 473.088 673.577 472.656C666.982 472.372 660.23 471.939 653.914 473.857C647.598 475.774 641.699 480.632 640.638 487.147C640.16 490.088 640.789 493.326 642.845 495.481C645.555 498.322 649.898 498.657 653.82 498.811C684.173 500.005 714.525 501.2 744.877 502.394C748.372 502.532 752.047 502.631 755.155 501.028C761.063 497.981 762.511 490.324 763.141 483.707C766.138 452.195 766.135 420.484 766.13 388.83C766.129 386.049 766.106 383.161 764.905 380.653C762.791 376.238 756.856 373.365 752.049 373.684C747.662 373.975 746.152 377.367 744.653 381.029C739.473 393.677 735.641 406.967 732.96 420.359C731.411 428.098 730.274 435.914 729.554 443.773V443.773Z" fill="#DDB891"/>
<path d="M729.287 464.447C738.17 467.261 746.064 472.552 752.042 479.7C752.35 480.07 751.82 480.606 751.508 480.233C745.622 473.179 737.843 467.955 729.087 465.174C728.626 465.028 728.823 464.3 729.287 464.447Z" fill="#4D2C13"/>
<path d="M746.597 376.254C748.088 375.166 749.805 374.425 751.62 374.086C753.435 373.747 755.303 373.819 757.087 374.296C758.871 374.773 760.526 375.643 761.93 376.842C763.334 378.041 764.452 379.54 765.201 381.227C765.4 381.666 764.75 382.05 764.55 381.608C763.866 380.084 762.869 378.721 761.623 377.608C760.378 376.495 758.912 375.657 757.321 375.148C753.816 374.058 749.941 374.778 746.977 376.905C746.582 377.188 746.205 376.535 746.597 376.254Z" fill="#4D2C13"/>
<path d="M742.437 437.434L667.944 431.101L667.643 436.529L683.929 439.545L677.595 559.276H687.246L701.421 440.148L716.198 442.259L752.389 559.578L759.929 559.276L733.088 444.069L742.135 444.672L742.437 437.434Z" fill="#C37F39"/>
<path d="M682.67 510.356C683.813 495.66 684.956 480.964 686.099 466.268C686.744 457.971 687.39 449.673 688.035 441.375C688.073 440.895 688.827 440.89 688.789 441.375C687.646 456.071 686.503 470.767 685.36 485.463C684.217 500.159 683.074 514.855 681.932 529.551C681.286 537.849 680.641 546.146 679.996 554.444C679.958 554.924 679.204 554.929 679.242 554.444C680.385 539.748 681.527 525.052 682.67 510.356Z" fill="#4D2C13"/>
<path d="M720.806 442.841C724.406 455.536 728.006 468.232 731.606 480.927C735.206 493.622 738.806 506.317 742.406 519.013C744.432 526.157 746.457 533.301 748.483 540.445C748.506 540.54 748.491 540.64 748.441 540.724C748.391 540.809 748.311 540.87 748.217 540.896C748.122 540.922 748.022 540.911 747.936 540.864C747.85 540.817 747.785 540.739 747.756 540.645C744.156 527.95 740.556 515.255 736.956 502.56C733.356 489.864 729.756 477.169 726.156 464.474C724.13 457.33 722.105 450.186 720.079 443.042C720.056 442.946 720.071 442.846 720.121 442.762C720.171 442.678 720.251 442.616 720.345 442.59C720.44 442.564 720.54 442.576 720.626 442.623C720.712 442.669 720.776 442.748 720.806 442.841V442.841Z" fill="#4D2C13"/>
<path d="M750.29 542.301C751.588 546.928 752.886 551.555 754.184 556.182C754.207 556.277 754.192 556.377 754.142 556.461C754.092 556.545 754.012 556.607 753.917 556.633C753.823 556.659 753.722 556.647 753.636 556.601C753.551 556.554 753.486 556.475 753.457 556.382L749.563 542.501C749.54 542.406 749.555 542.306 749.605 542.222C749.655 542.138 749.736 542.076 749.83 542.05C749.924 542.024 750.025 542.036 750.111 542.083C750.196 542.129 750.261 542.208 750.29 542.301V542.301Z" fill="#4D2C13"/>
<path d="M716.198 441.581H719.817C719.915 441.584 720.007 441.626 720.075 441.696C720.143 441.766 720.181 441.86 720.181 441.958C720.181 442.056 720.143 442.15 720.075 442.22C720.007 442.29 719.915 442.332 719.817 442.335H716.198C716.1 442.332 716.008 442.29 715.94 442.22C715.872 442.15 715.834 442.056 715.834 441.958C715.834 441.86 715.872 441.766 715.94 441.696C716.008 441.626 716.1 441.584 716.198 441.581V441.581Z" fill="#4D2C13"/>
<path d="M685.112 439.047L701.72 439.774C702.203 439.795 702.206 440.549 701.72 440.527C696.184 440.285 690.648 440.043 685.112 439.801C684.628 439.78 684.626 439.026 685.112 439.047Z" fill="#4D2C13"/>
<path d="M400.397 383.259L384.229 422.125L385.472 427.722L403.195 384.503L400.397 383.259Z" fill="#25110E"/>
<path d="M338.521 429.276L385.472 427.722L384.228 422.125L341.32 421.814L338.521 429.276Z" fill="#25110E"/>
<path d="M250.052 431.87L523.551 431.87V427.517L250.052 427.517V431.87Z" fill="#A87546"/>
<path d="M332.173 435.912H441.734V430.937H332.173V435.912Z" fill="#A87546"/>
<path d="M383.596 561.527H389.504V435.29H383.596V561.527Z" fill="#A87546"/>
<path d="M413.003 557.819H358.717V561.467H413.003V557.819Z" fill="#A87546"/>
<path d="M441.011 430.858C413.659 430.937 386.308 431.016 358.956 431.094C351.235 431.117 343.514 431.139 335.792 431.161C334.526 431.165 334.523 431.919 335.792 431.915C363.144 431.836 390.496 431.758 417.847 431.679C425.568 431.656 433.29 431.634 441.011 431.612C442.277 431.608 442.28 430.854 441.011 430.858Z" fill="#4D2C13"/>
<path d="M388.676 435.806C387.135 435.865 385.593 435.924 384.051 435.982C383.567 436.001 383.565 436.755 384.051 436.736L388.676 436.56C389.16 436.542 389.163 435.788 388.676 435.806Z" fill="#4D2C13"/>
<path d="M389.379 557.736C387.536 557.773 385.693 557.81 383.85 557.847C383.366 557.856 383.364 558.61 383.85 558.601C385.693 558.564 387.536 558.527 389.379 558.49C389.864 558.48 389.865 557.726 389.379 557.736Z" fill="#4D2C13"/>
</svg>
