<svg width="239" height="255" viewBox="0 0 239 255" fill="none" xmlns="http://www.w3.org/2000/svg">
<path d="M235.068 63.952C225.56 39.9248 200.366 20.4017 176.794 10.4325C134.299 -7.54011 72.5377 -1.89244 36.4639 28.1771C5.9291 53.6292 -8.88455 92.7106 5.5893 130.959C23.7436 178.932 76.4909 182.092 109.061 216.366C121.731 229.7 130.473 247.886 149.716 252.731C171.268 258.157 192.121 248.705 188.98 225.185C186.569 207.134 172.409 190.268 173.14 171.888C173.783 155.699 184.669 150.083 197.161 143.163C212.148 134.86 225.673 123.147 233.281 107.592C240.796 92.2254 240.384 77.3849 235.068 63.952Z" fill="#E7E2FF" fill-opacity="0.83"/>
<path d="M203.104 42.3315H82.4922V51.7535V51.7547V209.535H91.9576H193.64H203.104V160.352V160.351V42.3315Z" fill="#39D7DC"/>
<path d="M204.019 210.446H81.5742V41.4185H204.019V210.446ZM83.4065 208.622H202.187V43.2427H83.4065V208.622Z" fill="#ACC0E5"/>
<path d="M193.898 62.7195H95.05C94.6083 62.7195 94.1848 62.5448 93.8725 62.2339C93.5602 61.923 93.3848 61.5014 93.3848 61.0617C93.3848 60.622 93.5602 60.2003 93.8725 59.8894C94.1848 59.5785 94.6083 59.4038 95.05 59.4038H193.898C194.339 59.4038 194.763 59.5785 195.075 59.8894C195.387 60.2003 195.563 60.622 195.563 61.0617C195.563 61.5014 195.387 61.923 195.075 62.2339C194.763 62.5448 194.339 62.7195 193.898 62.7195Z" fill="#F8D2C4"/>
<path d="M172.182 72.6587H95.0489C94.83 72.6591 94.6132 72.6166 94.4108 72.5335C94.2085 72.4504 94.0245 72.3284 93.8696 72.1744C93.7147 72.0204 93.5918 71.8376 93.5079 71.6363C93.424 71.435 93.3809 71.2192 93.3809 71.0012C93.3809 70.7833 93.424 70.5675 93.5079 70.3662C93.5918 70.1649 93.7147 69.982 93.8696 69.8281C94.0245 69.6741 94.2085 69.5521 94.4108 69.469C94.6132 69.3859 94.83 69.3433 95.0489 69.3438H172.182C172.4 69.3433 172.617 69.3859 172.82 69.469C173.022 69.5521 173.206 69.6741 173.361 69.8281C173.516 69.982 173.639 70.1649 173.723 70.3662C173.806 70.5675 173.85 70.7833 173.85 71.0012C173.85 71.2192 173.806 71.435 173.723 71.6363C173.639 71.8376 173.516 72.0204 173.361 72.1744C173.206 72.3284 173.022 72.4504 172.82 72.5335C172.617 72.6166 172.4 72.6591 172.182 72.6587V72.6587Z" fill="#F8D2C4"/>
<path d="M180.752 102.664C180.491 102.665 180.233 102.614 179.992 102.514C179.751 102.415 179.532 102.269 179.348 102.085L174.873 97.6298C174.501 97.2587 174.293 96.756 174.293 96.232C174.293 95.708 174.503 95.2056 174.875 94.8351C175.247 94.4646 175.752 94.2563 176.278 94.2559C176.804 94.2555 177.309 94.463 177.682 94.8329L182.157 99.2897C182.435 99.5662 182.624 99.9186 182.7 100.302C182.777 100.686 182.737 101.083 182.587 101.444C182.437 101.806 182.182 102.114 181.855 102.332C181.529 102.549 181.145 102.664 180.752 102.664V102.664Z" fill="#1E3B59"/>
<path d="M180.753 102.664C180.361 102.664 179.977 102.549 179.65 102.331C179.324 102.114 179.069 101.805 178.919 101.444C178.768 101.083 178.729 100.685 178.806 100.302C178.882 99.9185 179.071 99.5663 179.349 99.2898L188.086 90.5892C188.271 90.4055 188.489 90.2598 188.731 90.1604C188.972 90.061 189.23 90.0098 189.491 90.0098C189.752 90.0097 190.01 90.0609 190.251 90.1603C190.492 90.2597 190.711 90.4053 190.895 90.589C191.08 90.7726 191.226 90.9906 191.326 91.2306C191.426 91.4706 191.477 91.7277 191.477 91.9875C191.477 92.2472 191.426 92.5044 191.326 92.7444C191.226 92.9843 191.08 93.2024 190.896 93.3861L182.158 102.085C181.974 102.269 181.755 102.415 181.514 102.515C181.273 102.614 181.014 102.665 180.753 102.664V102.664Z" fill="#1E3B59"/>
<path d="M161.925 94.506H97.281C96.84 94.5051 96.4173 94.3301 96.1057 94.0193C95.7941 93.7085 95.6191 93.2873 95.6191 92.8482C95.6191 92.4091 95.7941 91.9879 96.1057 91.6771C96.4173 91.3663 96.84 91.1913 97.281 91.1904H161.925C162.366 91.1913 162.789 91.3663 163.1 91.6771C163.412 91.9879 163.587 92.4091 163.587 92.8482C163.587 93.2873 163.412 93.7085 163.1 94.0193C162.789 94.3301 162.366 94.5051 161.925 94.506V94.506Z" fill="#1E3B59"/>
<path d="M152.577 102.297H97.2805C96.8388 102.297 96.4153 102.123 96.103 101.812C95.7907 101.501 95.6152 101.079 95.6152 100.639C95.6152 100.2 95.7907 99.778 96.103 99.467C96.4153 99.1561 96.8388 98.9814 97.2805 98.9814H152.577C153.019 98.9814 153.442 99.1561 153.755 99.467C154.067 99.778 154.243 100.2 154.243 100.639C154.243 101.079 154.067 101.501 153.755 101.812C153.442 102.123 153.019 102.297 152.577 102.297V102.297Z" fill="#1E3B59"/>
<path d="M180.752 124.704C180.491 124.705 180.233 124.654 179.992 124.555C179.751 124.455 179.532 124.309 179.348 124.125L174.873 119.67C174.5 119.299 174.291 118.796 174.291 118.272C174.291 117.747 174.5 117.244 174.873 116.873C175.245 116.502 175.751 116.294 176.277 116.294C176.804 116.294 177.31 116.502 177.682 116.873L182.157 121.33C182.435 121.606 182.624 121.959 182.701 122.342C182.777 122.726 182.738 123.123 182.587 123.484C182.437 123.846 182.182 124.154 181.856 124.372C181.529 124.589 181.145 124.705 180.752 124.704Z" fill="#1E3B59"/>
<path d="M180.753 124.704C180.361 124.704 179.977 124.588 179.65 124.371C179.324 124.154 179.069 123.845 178.919 123.484C178.768 123.123 178.729 122.725 178.806 122.342C178.882 121.958 179.071 121.606 179.349 121.33L188.086 112.629C188.459 112.258 188.964 112.05 189.491 112.05C190.018 112.05 190.523 112.258 190.896 112.629C191.268 113 191.477 113.503 191.477 114.028C191.477 114.552 191.268 115.055 190.896 115.426L182.158 124.125C181.974 124.309 181.755 124.455 181.514 124.554C181.273 124.654 181.014 124.705 180.753 124.704V124.704Z" fill="#1E3B59"/>
<path d="M161.925 116.546H97.281C96.84 116.545 96.4173 116.37 96.1057 116.059C95.7941 115.749 95.6191 115.327 95.6191 114.888C95.6191 114.449 95.7941 114.028 96.1057 113.717C96.4173 113.406 96.84 113.231 97.281 113.23H161.925C162.366 113.231 162.789 113.406 163.1 113.717C163.412 114.028 163.587 114.449 163.587 114.888C163.587 115.327 163.412 115.749 163.1 116.059C162.789 116.37 162.366 116.545 161.925 116.546V116.546Z" fill="#1E3B59"/>
<path d="M152.577 124.337H97.2803C96.8387 124.337 96.4152 124.162 96.1029 123.851C95.7907 123.541 95.6152 123.119 95.6152 122.679C95.6152 122.24 95.7907 121.818 96.1029 121.507C96.4152 121.196 96.8387 121.021 97.2803 121.021H152.577C153.019 121.021 153.442 121.196 153.754 121.507C154.067 121.818 154.242 122.24 154.242 122.679C154.242 123.119 154.067 123.541 153.754 123.851C153.442 124.162 153.019 124.337 152.577 124.337V124.337Z" fill="#1E3B59"/>
<path d="M180.753 146.744C180.492 146.745 180.234 146.694 179.993 146.594C179.752 146.495 179.533 146.349 179.349 146.165L174.874 141.71C174.503 141.338 174.296 140.836 174.297 140.313C174.298 139.789 174.507 139.288 174.879 138.918C175.25 138.548 175.754 138.339 176.28 138.338C176.805 138.337 177.31 138.544 177.683 138.913L182.158 143.37C182.436 143.646 182.625 143.998 182.701 144.382C182.778 144.766 182.739 145.163 182.588 145.524C182.438 145.886 182.183 146.194 181.856 146.411C181.53 146.629 181.146 146.744 180.753 146.744V146.744Z" fill="#1E3B59"/>
<path d="M180.753 146.744C180.361 146.744 179.977 146.628 179.65 146.411C179.324 146.194 179.069 145.885 178.919 145.524C178.768 145.163 178.729 144.765 178.806 144.382C178.882 143.998 179.071 143.646 179.349 143.369L188.086 134.669C188.459 134.298 188.964 134.089 189.491 134.089C190.018 134.089 190.523 134.298 190.896 134.669C191.268 135.039 191.477 135.543 191.477 136.067C191.477 136.592 191.268 137.095 190.896 137.466L182.158 146.165C181.974 146.349 181.755 146.495 181.514 146.594C181.273 146.694 181.014 146.745 180.753 146.744Z" fill="#1E3B59"/>
<path d="M161.925 138.586H97.281C96.84 138.585 96.4173 138.41 96.1057 138.099C95.7941 137.788 95.6191 137.367 95.6191 136.928C95.6191 136.489 95.7941 136.067 96.1057 135.757C96.4173 135.446 96.84 135.271 97.281 135.27H161.925C162.366 135.271 162.789 135.446 163.1 135.757C163.412 136.067 163.587 136.489 163.587 136.928C163.587 137.367 163.412 137.788 163.1 138.099C162.789 138.41 162.366 138.585 161.925 138.586V138.586Z" fill="#1E3B59"/>
<path d="M152.577 146.377H97.2803C96.8387 146.377 96.4152 146.202 96.1029 145.892C95.7907 145.581 95.6152 145.159 95.6152 144.719C95.6152 144.28 95.7907 143.858 96.1029 143.547C96.4152 143.236 96.8387 143.062 97.2803 143.062H152.577C153.019 143.062 153.442 143.236 153.754 143.547C154.067 143.858 154.242 144.28 154.242 144.719C154.242 145.159 154.067 145.581 153.754 145.892C153.442 146.202 153.019 146.377 152.577 146.377Z" fill="#1E3B59"/>
<path d="M180.752 168.784C180.491 168.785 180.233 168.734 179.992 168.634C179.751 168.535 179.532 168.389 179.348 168.205L174.873 163.749C174.501 163.378 174.293 162.876 174.293 162.352C174.293 161.828 174.503 161.325 174.875 160.955C175.247 160.584 175.752 160.376 176.278 160.375C176.804 160.375 177.309 160.583 177.682 160.953L182.157 165.409C182.435 165.686 182.624 166.038 182.7 166.422C182.777 166.805 182.738 167.203 182.587 167.564C182.437 167.925 182.182 168.234 181.855 168.451C181.529 168.668 181.145 168.784 180.752 168.784Z" fill="#1E3B59"/>
<path d="M180.753 168.784C180.361 168.784 179.977 168.668 179.65 168.451C179.324 168.234 179.069 167.925 178.919 167.564C178.768 167.203 178.729 166.805 178.806 166.422C178.882 166.038 179.071 165.686 179.349 165.409L188.086 156.709C188.271 156.525 188.49 156.379 188.731 156.28C188.972 156.18 189.23 156.129 189.491 156.129C189.752 156.129 190.01 156.18 190.252 156.279C190.493 156.379 190.712 156.525 190.896 156.708C191.081 156.892 191.227 157.11 191.327 157.35C191.427 157.59 191.478 157.847 191.478 158.107C191.478 158.367 191.427 158.624 191.327 158.864C191.227 159.104 191.08 159.322 190.896 159.506L182.158 168.205C181.974 168.389 181.755 168.535 181.514 168.634C181.273 168.734 181.014 168.785 180.753 168.784V168.784Z" fill="#1E3B59"/>
<path d="M161.925 160.626H97.2812C96.8401 160.625 96.4174 160.45 96.1057 160.139C95.7941 159.828 95.6191 159.407 95.6191 158.968C95.6191 158.529 95.7941 158.108 96.1057 157.797C96.4174 157.486 96.8401 157.311 97.2812 157.31H161.925C162.366 157.311 162.789 157.486 163.101 157.797C163.412 158.108 163.587 158.529 163.587 158.968C163.587 159.407 163.412 159.828 163.101 160.139C162.789 160.45 162.366 160.625 161.925 160.626V160.626Z" fill="#1E3B59"/>
<path d="M152.578 168.417H97.281C96.84 168.416 96.4173 168.241 96.1057 167.93C95.7941 167.62 95.6191 167.198 95.6191 166.759C95.6191 166.32 95.7941 165.899 96.1057 165.588C96.4173 165.277 96.84 165.102 97.281 165.102H152.578C152.797 165.101 153.014 165.144 153.216 165.227C153.418 165.31 153.602 165.432 153.757 165.586C153.912 165.74 154.035 165.923 154.119 166.124C154.203 166.326 154.246 166.541 154.246 166.759C154.246 166.977 154.203 167.193 154.119 167.394C154.035 167.596 153.912 167.779 153.757 167.933C153.602 168.087 153.418 168.209 153.216 168.292C153.014 168.375 152.797 168.418 152.578 168.417V168.417Z" fill="#1E3B59"/>
<path d="M180.753 191.203C180.492 191.204 180.233 191.153 179.992 191.053C179.751 190.954 179.533 190.808 179.348 190.624L174.873 186.169C174.503 185.797 174.296 185.295 174.297 184.772C174.298 184.249 174.507 183.747 174.879 183.377C175.25 183.007 175.754 182.799 176.279 182.798C176.805 182.797 177.309 183.003 177.682 183.372L182.158 187.828C182.435 188.105 182.624 188.457 182.701 188.841C182.778 189.224 182.738 189.622 182.588 189.983C182.437 190.344 182.183 190.653 181.856 190.87C181.529 191.088 181.145 191.203 180.753 191.203Z" fill="#1E3B59"/>
<path d="M180.753 191.204C180.361 191.204 179.977 191.088 179.65 190.871C179.324 190.653 179.069 190.345 178.919 189.983C178.768 189.622 178.729 189.225 178.806 188.841C178.882 188.458 179.071 188.105 179.349 187.829L188.086 179.128C188.459 178.757 188.964 178.549 189.491 178.549C190.018 178.549 190.523 178.758 190.895 179.129C191.268 179.499 191.477 180.002 191.477 180.527C191.477 181.051 191.268 181.554 190.896 181.925L182.158 190.625C181.974 190.809 181.755 190.954 181.514 191.054C181.273 191.153 181.014 191.204 180.753 191.204Z" fill="#1E3B59"/>
<path d="M161.924 183.045H97.2804C96.8388 183.045 96.4152 182.871 96.103 182.56C95.7907 182.249 95.6152 181.827 95.6152 181.387C95.6152 180.948 95.7907 180.526 96.103 180.215C96.4152 179.904 96.8388 179.729 97.2804 179.729H161.924C162.366 179.729 162.79 179.904 163.102 180.215C163.414 180.526 163.59 180.948 163.59 181.387C163.59 181.827 163.414 182.249 163.102 182.56C162.79 182.871 162.366 183.045 161.924 183.045Z" fill="#1E3B59"/>
<path d="M152.578 190.837H97.281C96.84 190.836 96.4173 190.661 96.1057 190.35C95.7941 190.039 95.6191 189.618 95.6191 189.179C95.6191 188.74 95.7941 188.318 96.1057 188.008C96.4173 187.697 96.84 187.522 97.281 187.521H152.578C152.797 187.521 153.014 187.563 153.216 187.646C153.418 187.729 153.602 187.851 153.757 188.005C153.912 188.159 154.035 188.342 154.119 188.544C154.203 188.745 154.246 188.961 154.246 189.179C154.246 189.397 154.203 189.613 154.119 189.814C154.035 190.015 153.912 190.198 153.757 190.352C153.602 190.506 153.418 190.628 153.216 190.711C153.014 190.794 152.797 190.837 152.578 190.837V190.837Z" fill="#1E3B59"/>
<path d="M229.487 126.536L234.015 122.029C234.273 121.771 234.419 121.421 234.419 121.057C234.419 120.692 234.273 120.343 234.015 120.085L227.738 113.836C227.609 113.708 227.457 113.607 227.29 113.538C227.122 113.469 226.943 113.433 226.761 113.433C226.58 113.433 226.401 113.469 226.233 113.538C226.066 113.607 225.913 113.708 225.785 113.836L221.258 118.343L229.487 126.536Z" fill="#5333ED"/>
<path d="M221.258 118.343L218.623 120.965L226.852 129.159L229.486 126.536L221.258 118.343Z" fill="#E5E4E6"/>
<path d="M218.625 120.966L185.195 154.248L193.425 162.441L226.854 129.159L218.625 120.966Z" fill="#6E7076"/>
<path d="M221.38 123.709L187.951 156.992L190.668 159.697L224.098 126.415L221.38 123.709Z" fill="#5333ED"/>
<path d="M187.912 154.248C187.734 154.071 187.522 153.93 187.289 153.834C187.056 153.737 186.806 153.688 186.554 153.688C186.302 153.688 186.052 153.737 185.819 153.834C185.586 153.93 185.374 154.071 185.195 154.248L187.912 156.953C188.091 156.776 188.232 156.565 188.329 156.333C188.425 156.101 188.475 155.852 188.475 155.601C188.475 155.35 188.425 155.101 188.329 154.869C188.232 154.637 188.091 154.426 187.912 154.248V154.248Z" fill="#FFE19F"/>
<path d="M190.668 156.992C190.308 156.633 189.819 156.432 189.31 156.432C188.8 156.432 188.311 156.633 187.951 156.992L190.668 159.697C190.847 159.519 190.988 159.308 191.085 159.076C191.181 158.844 191.231 158.596 191.231 158.344C191.231 158.093 191.181 157.844 191.085 157.612C190.988 157.38 190.847 157.169 190.668 156.992Z" fill="#FFE19F"/>
<path d="M193.424 159.736C193.246 159.558 193.034 159.418 192.801 159.321C192.568 159.225 192.318 159.176 192.066 159.176C191.813 159.176 191.563 159.225 191.33 159.321C191.097 159.418 190.885 159.558 190.707 159.736L193.424 162.441C193.784 162.082 193.987 161.596 193.987 161.089C193.987 160.581 193.784 160.095 193.424 159.736V159.736Z" fill="#FFE19F"/>
<path d="M193.427 162.443L183.893 163.739L185.194 154.247L193.427 162.443Z" fill="#FFE19F"/>
<path d="M183.891 163.739L186.709 163.356C186.507 162.798 186.184 162.293 185.764 161.874C185.343 161.455 184.835 161.134 184.275 160.933L183.891 163.739Z" fill="#1E3B59"/>
</svg>
