<svg width="280" height="293" viewBox="0 0 280 293" fill="none" xmlns="http://www.w3.org/2000/svg">
<path d="M243.252 215.77C236.266 199.129 226.457 182.91 225.94 164.858C225.15 137.23 246.223 108.899 234.449 83.9159C225.687 65.3249 204 59.3674 187.803 49.4151C169.924 38.429 161.611 17.7402 143.978 6.82387C116.308 -10.3054 78.5033 7.87982 70.6463 38.4763C67.3065 51.4822 68.8676 65.6357 63.7621 78.0515C54.1902 101.328 25.5261 109.973 10.0874 129.816C-10.9848 156.9 2.68903 203.251 35.0489 214.431C44.6604 217.751 55.6889 218.608 63.132 225.561C79.1899 240.56 67.2355 272.075 83.8149 286.49C99.2839 299.939 122.23 286.036 142.284 281.965C159.774 278.415 177.735 283.103 195.531 284.405C213.328 285.707 233.618 282.3 243.842 267.61C254.144 252.808 250.238 232.411 243.252 215.77Z" fill="#EBE7FF"/>
<path d="M81.0639 102.808H207.821C210.194 102.808 212.47 103.755 214.148 105.441C215.827 107.127 216.769 109.413 216.769 111.797V188.744C216.769 189.925 216.538 191.094 216.088 192.184C215.639 193.275 214.979 194.266 214.149 195.1C213.318 195.935 212.331 196.597 211.245 197.049C210.16 197.5 208.996 197.733 207.821 197.733H81.0639C79.8887 197.733 78.7251 197.5 77.6394 197.049C76.5537 196.597 75.5672 195.935 74.7362 195.1C73.9053 194.265 73.2461 193.275 72.7964 192.184C72.3467 191.093 72.1152 189.925 72.1152 188.744V111.797C72.1152 110.616 72.3467 109.448 72.7964 108.357C73.2461 107.266 73.9053 106.276 74.7362 105.441C75.5672 104.606 76.5537 103.944 77.6394 103.492C78.7251 103.041 79.8887 102.808 81.0639 102.808V102.808Z" fill="#39D7DC"/>
<path d="M100.01 227.357L129.915 197.318L100.01 167.28L100.01 227.357Z" fill="#39D7DC"/>
<path d="M186.987 127.751H101.898C101.304 127.751 100.735 127.514 100.316 127.093C99.8959 126.671 99.6602 126.1 99.6602 125.504C99.6602 124.907 99.8959 124.336 100.316 123.914C100.735 123.493 101.304 123.256 101.898 123.256H186.987C187.58 123.256 188.15 123.493 188.569 123.914C188.989 124.336 189.225 124.907 189.225 125.504C189.225 126.1 188.989 126.671 188.569 127.093C188.15 127.514 187.58 127.751 186.987 127.751V127.751Z" fill="#1E3B59"/>
<path d="M186.987 140.902H101.898C101.603 140.902 101.312 140.844 101.04 140.732C100.768 140.619 100.521 140.453 100.313 140.245C100.105 140.036 99.9396 139.788 99.8269 139.515C99.7143 139.242 99.6562 138.949 99.6562 138.654C99.6562 138.358 99.7143 138.066 99.8269 137.793C99.9396 137.52 100.105 137.272 100.313 137.063C100.521 136.854 100.768 136.689 101.04 136.576C101.312 136.464 101.603 136.406 101.898 136.406H186.987C187.281 136.406 187.572 136.464 187.844 136.576C188.116 136.689 188.363 136.854 188.571 137.063C188.78 137.272 188.945 137.52 189.057 137.793C189.17 138.066 189.228 138.358 189.228 138.654C189.228 138.949 189.17 139.242 189.057 139.515C188.945 139.788 188.78 140.036 188.571 140.245C188.363 140.453 188.116 140.619 187.844 140.732C187.572 140.844 187.281 140.902 186.987 140.902V140.902Z" fill="#1E3B59"/>
<path d="M186.987 154.052H101.898C101.604 154.052 101.313 153.994 101.041 153.881C100.77 153.768 100.523 153.603 100.316 153.394C100.108 153.185 99.9429 152.938 99.8305 152.665C99.718 152.392 99.6602 152.1 99.6602 151.805C99.6602 151.51 99.718 151.217 99.8305 150.945C99.9429 150.672 100.108 150.424 100.316 150.215C100.523 150.007 100.77 149.841 101.041 149.728C101.313 149.615 101.604 149.557 101.898 149.557H186.987C187.281 149.557 187.572 149.615 187.843 149.728C188.115 149.841 188.361 150.007 188.569 150.215C188.777 150.424 188.942 150.672 189.054 150.945C189.167 151.217 189.225 151.51 189.225 151.805C189.225 152.1 189.167 152.392 189.054 152.665C188.942 152.938 188.777 153.185 188.569 153.394C188.361 153.603 188.115 153.768 187.843 153.881C187.572 153.994 187.281 154.052 186.987 154.052V154.052Z" fill="#1E3B59"/>
<path d="M157.81 167.202H101.898C101.304 167.202 100.735 166.966 100.316 166.544C99.8959 166.122 99.6602 165.551 99.6602 164.955C99.6602 164.359 99.8959 163.787 100.316 163.365C100.735 162.944 101.304 162.707 101.898 162.707H157.81C158.403 162.707 158.973 162.944 159.392 163.365C159.812 163.787 160.048 164.359 160.048 164.955C160.048 165.551 159.812 166.122 159.392 166.544C158.973 166.966 158.403 167.202 157.81 167.202H157.81Z" fill="#1E3B59"/>
<path d="M186.91 156.86H273.861C275.489 156.86 277.05 157.51 278.201 158.666C279.352 159.823 279.999 161.391 279.999 163.026V215.81C279.999 217.445 279.352 219.014 278.201 220.17C277.05 221.326 275.489 221.976 273.861 221.976H186.91C185.282 221.976 183.721 221.326 182.569 220.17C181.418 219.014 180.771 217.445 180.771 215.81V163.026C180.771 161.391 181.418 159.823 182.569 158.666C183.721 157.51 185.282 156.86 186.91 156.86V156.86Z" fill="#5333ED"/>
<path d="M260.866 242.296L240.352 221.691L260.865 201.086L260.866 242.296Z" fill="#5333ED"/>
<path d="M259.57 173.97H201.202C200.795 173.97 200.405 173.808 200.117 173.519C199.83 173.23 199.668 172.838 199.668 172.429C199.668 172.02 199.83 171.628 200.117 171.339C200.405 171.05 200.795 170.888 201.202 170.888H259.57C259.772 170.887 259.972 170.927 260.158 171.004C260.345 171.081 260.514 171.195 260.657 171.338C260.8 171.481 260.913 171.651 260.99 171.838C261.068 172.026 261.107 172.226 261.107 172.429C261.107 172.632 261.068 172.832 260.99 173.02C260.913 173.207 260.8 173.377 260.657 173.52C260.514 173.663 260.345 173.777 260.158 173.854C259.972 173.931 259.772 173.971 259.57 173.97V173.97Z" fill="#F8D2C4"/>
<path d="M259.569 182.991H201.201C200.795 182.99 200.405 182.828 200.118 182.539C199.831 182.25 199.67 181.858 199.67 181.45C199.67 181.041 199.831 180.65 200.118 180.361C200.405 180.072 200.795 179.909 201.201 179.908H259.569C259.771 179.908 259.971 179.947 260.157 180.025C260.344 180.102 260.513 180.215 260.656 180.359C260.799 180.502 260.912 180.672 260.989 180.859C261.067 181.046 261.107 181.247 261.107 181.45C261.107 181.652 261.067 181.853 260.989 182.04C260.912 182.227 260.799 182.398 260.656 182.541C260.513 182.684 260.344 182.797 260.157 182.875C259.971 182.952 259.771 182.992 259.569 182.991Z" fill="#F8D2C4"/>
<path d="M259.569 192.012H201.201C200.795 192.011 200.405 191.848 200.118 191.56C199.831 191.271 199.67 190.879 199.67 190.471C199.67 190.062 199.831 189.671 200.118 189.382C200.405 189.093 200.795 188.93 201.201 188.929H259.569C259.771 188.929 259.971 188.968 260.157 189.046C260.344 189.123 260.513 189.236 260.656 189.38C260.799 189.523 260.912 189.693 260.989 189.88C261.067 190.067 261.107 190.268 261.107 190.471C261.107 190.673 261.067 190.874 260.989 191.061C260.912 191.248 260.799 191.419 260.656 191.562C260.513 191.705 260.344 191.818 260.157 191.896C259.971 191.973 259.771 192.013 259.569 192.012Z" fill="#F8D2C4"/>
<path d="M239.555 201.035H201.202C200.794 201.035 200.404 200.872 200.116 200.583C199.828 200.294 199.666 199.901 199.666 199.492C199.666 199.083 199.828 198.691 200.116 198.402C200.404 198.112 200.794 197.95 201.202 197.95H239.555C239.962 197.95 240.353 198.112 240.641 198.402C240.929 198.691 241.091 199.083 241.091 199.492C241.091 199.901 240.929 200.294 240.641 200.583C240.353 200.872 239.962 201.035 239.555 201.035Z" fill="#F8D2C4"/>
</svg>
