<svg width="243" height="269" viewBox="0 0 243 269" fill="none" xmlns="http://www.w3.org/2000/svg">
<path d="M224.059 101.637C209.502 89.4027 188.702 84.8839 177.058 69.881C163.809 52.8103 160.827 26.6899 142.284 12.9977C111.964 -9.39038 72.5467 0.0384033 45.4554 22.7837C30.5784 35.213 19.6099 51.632 13.8569 70.0843C7.99662 89.2156 11.5019 109.395 10.2605 129.01C8.9216 150.169 -0.746704 169.803 0.0461462 191.616C1.08708 220.259 19.9094 246.491 49.345 251.419C74.934 255.702 102.534 241.356 113.594 218.02C118.096 208.522 120.615 197.142 129.341 191.227C143.242 181.803 161.374 192.437 177.846 195.85C201.319 200.715 227.321 188.043 237.83 166.619C248.34 145.194 242.37 117.026 224.059 101.637Z" fill="#EBE7FF"/>
<path d="M53.5603 119.107L39.4287 129.361L44.8717 112.832L30.6953 102.641L48.1901 102.678L53.5603 86.127L58.9299 102.678L76.4247 102.641L62.2484 112.832L67.6913 129.361L53.5603 119.107Z" fill="#39D7DC"/>
<path d="M111.619 119.107L97.4879 129.361L102.93 112.832L88.7539 102.641L106.249 102.678L111.619 86.127L116.989 102.678L134.484 102.641L120.308 112.832L125.75 129.361L111.619 119.107Z" fill="#39D7DC"/>
<path d="M169.679 119.107L155.548 129.361L160.991 112.832L146.814 102.641L164.309 102.678L169.679 86.127L175.049 102.678L192.544 102.641L178.368 112.832L183.81 129.361L169.679 119.107Z" fill="#39D7DC"/>
<path d="M135.198 126.418C134.315 126.905 133.634 127.686 133.274 128.624C132.915 129.562 132.9 130.596 133.232 131.543C132.863 130.623 132.182 129.859 131.307 129.385C130.432 128.91 129.417 128.754 128.439 128.943L122.046 131.529C120.973 132.061 120.132 132.963 119.681 134.067C119.23 135.171 119.199 136.401 119.594 137.526C119.134 136.38 118.256 135.45 117.135 134.92C116.014 134.391 114.733 134.302 113.549 134.671L107.675 136.999C106.689 137.571 105.933 138.466 105.538 139.531C105.143 140.596 105.133 141.765 105.509 142.837C105.398 142.558 92.1648 119.743 92.0104 119.497C90.929 117.776 88.419 116.132 86.3966 116.547L82.0484 118.978C80.7738 119.71 80.9566 119.936 80.3734 121.564C79.5217 123.941 79.9675 126.826 81.6288 129.686C81.6288 129.686 96.3261 154.992 102.08 164.899C103.734 167.747 103.651 168.72 102.09 167.708C99.9095 166.295 101.405 176.1 103.491 179.692C110.977 192.58 110.483 190.685 120.294 192.255C126.983 193.326 132.203 196.791 135.389 202.276L138.01 206.79L174.217 186.01L164.502 169.283C164.017 168.57 163.693 167.761 163.553 166.912C163.412 166.062 163.457 165.193 163.686 164.363C164.316 161.75 163.414 159.717 161.779 156.903L147.407 132.158C144.057 126.389 140.888 124.336 135.198 126.418Z" fill="#F9BFA0"/>
<path d="M176.729 177.071L131.217 203.192L162.908 257.757L208.42 231.636L176.729 177.071Z" fill="#E5E4E6"/>
<path d="M180.98 182.092L133.467 209.361L164.812 263.33L212.325 236.061L180.98 182.092Z" fill="#5333ED"/>
<path d="M180.98 182.092L175.979 184.962L207.324 238.932L212.325 236.061L180.98 182.092Z" fill="#6C6B71"/>
<path d="M173.914 189.481C174.209 189.312 174.547 189.234 174.887 189.256C175.226 189.278 175.551 189.4 175.821 189.606C176.091 189.811 176.293 190.092 176.402 190.412C176.512 190.732 176.523 191.077 176.435 191.404C176.347 191.731 176.164 192.024 175.908 192.247C175.652 192.47 175.336 192.612 174.999 192.656C174.662 192.7 174.319 192.644 174.014 192.495C173.709 192.345 173.455 192.109 173.285 191.816C173.172 191.622 173.099 191.407 173.069 191.185C173.04 190.962 173.055 190.736 173.113 190.519C173.172 190.303 173.273 190.099 173.41 189.921C173.547 189.743 173.719 189.594 173.914 189.481V189.481Z" fill="white"/>
<path d="M175.979 193.039C176.273 192.87 176.612 192.792 176.951 192.814C177.29 192.836 177.615 192.957 177.885 193.163C178.155 193.369 178.357 193.65 178.467 193.97C178.576 194.29 178.587 194.635 178.499 194.962C178.411 195.288 178.228 195.581 177.972 195.804C177.717 196.027 177.4 196.17 177.063 196.214C176.726 196.258 176.383 196.202 176.078 196.052C175.773 195.903 175.52 195.667 175.35 195.374C175.237 195.179 175.163 194.965 175.134 194.742C175.104 194.52 175.119 194.294 175.178 194.077C175.236 193.86 175.337 193.657 175.474 193.479C175.612 193.301 175.783 193.151 175.979 193.039V193.039Z" fill="white"/>
<path d="M178.045 196.596C178.34 196.427 178.678 196.349 179.017 196.371C179.357 196.393 179.682 196.515 179.952 196.72C180.222 196.926 180.424 197.207 180.533 197.527C180.642 197.847 180.654 198.192 180.566 198.519C180.478 198.845 180.294 199.139 180.039 199.362C179.783 199.584 179.466 199.727 179.129 199.771C178.792 199.815 178.449 199.759 178.144 199.609C177.839 199.46 177.586 199.224 177.416 198.931C177.188 198.538 177.126 198.072 177.244 197.634C177.362 197.196 177.65 196.823 178.045 196.596V196.596Z" fill="white"/>
<path d="M78.7419 114.284L81.8582 112.496C83.0599 111.806 84.4881 111.619 85.8284 111.976C87.1688 112.333 88.3116 113.205 89.0054 114.399L98.7363 131.153C99.0798 131.745 99.3028 132.398 99.3925 133.075C99.4822 133.752 99.4368 134.44 99.259 135.1C99.0812 135.759 98.7744 136.378 98.3562 136.92C97.9379 137.462 97.4164 137.916 96.8214 138.258L93.705 140.046C93.11 140.388 92.4531 140.609 91.7719 140.699C91.0907 140.788 90.3985 140.743 89.7348 140.566C89.0711 140.389 88.4489 140.084 87.9038 139.668C87.3587 139.253 86.9013 138.734 86.5577 138.143L76.827 121.389C76.1332 120.194 75.9451 118.775 76.3042 117.442C76.6634 116.11 77.5402 114.974 78.7419 114.284V114.284Z" fill="#F9BFA0"/>
<path d="M88.9276 119.805C88.7688 118.58 86.442 115.526 86.442 115.526C86.044 114.842 85.3893 114.343 84.6216 114.139C83.854 113.934 83.0361 114.041 82.3474 114.435L80.0624 115.747C79.3745 116.142 78.8726 116.793 78.6668 117.556C78.461 118.32 78.5682 119.133 78.9647 119.817C79.6618 121.248 80.4623 122.626 81.3601 123.942C81.4751 124.082 81.6313 124.183 81.8068 124.231C81.9823 124.279 82.1685 124.271 82.3393 124.208C83.878 123.496 87.6854 121.659 88.7492 120.452C88.8742 120.26 88.9365 120.034 88.9276 119.805Z" fill="#F8D2C4"/>
<path d="M79.5643 168.424C78.9922 168.028 78.5042 167.523 78.1283 166.939C77.7524 166.355 77.4959 165.703 77.3735 165.02C77.251 164.337 77.2651 163.637 77.4148 162.96C77.5644 162.283 77.8468 161.642 78.2459 161.073L79.8834 158.732C80.2824 158.163 80.7902 157.678 81.3779 157.305C81.9655 156.931 82.6214 156.676 83.3081 156.554C83.9948 156.432 84.699 156.446 85.3803 156.595C86.0616 156.744 86.7068 157.025 87.2789 157.421L118.951 179.341C119.523 179.737 120.011 180.242 120.387 180.826C120.763 181.41 121.019 182.062 121.142 182.745C121.264 183.428 121.25 184.128 121.101 184.805C120.951 185.482 120.668 186.123 120.269 186.692L118.632 189.033C118.233 189.602 117.725 190.087 117.137 190.461C116.55 190.834 115.894 191.089 115.207 191.211C114.521 191.333 113.816 191.319 113.135 191.17C112.454 191.021 111.809 190.74 111.237 190.344L79.5643 168.424Z" fill="#F9BFA0"/>
<path d="M85.1265 164.525C85.6075 164.86 85.9349 165.371 86.0369 165.946C86.1389 166.521 86.0069 167.112 85.6702 167.59L84.5375 169.198C84.2007 169.676 83.6867 170.002 83.1084 170.103C82.5302 170.205 81.9351 170.074 81.4542 169.739L77.0126 166.647C76.7744 166.481 76.5714 166.271 76.4152 166.027C76.2589 165.783 76.1525 165.511 76.102 165.227C76.0515 164.942 76.0579 164.65 76.1208 164.368C76.1837 164.086 76.3019 163.819 76.4687 163.582L78.9532 160.055C79.6545 159.059 79.6831 160.737 80.6849 161.434L85.1265 164.525Z" fill="#F9BFA0"/>
<path d="M81.1278 165.946C81.1278 165.946 86.2364 168.844 87.0425 170.158C87.1692 170.413 87.2137 170.702 87.1698 170.983C87.0054 171.511 86.627 172.2 86.1362 172.953L76.4434 166.186C76.9743 165.714 77.6343 165.399 78.3485 165.286C79.3263 165.131 80.3258 165.369 81.1278 165.946Z" fill="#F8D2C4"/>
<path d="M217.088 234.132C217.319 234.531 217.47 234.971 217.53 235.428C217.591 235.885 217.56 236.349 217.44 236.794C217.32 237.239 217.113 237.656 216.831 238.021C216.549 238.387 216.197 238.694 215.796 238.924L165.57 267.75C165.169 267.98 164.726 268.13 164.266 268.19C163.807 268.25 163.34 268.219 162.892 268.1C162.444 267.981 162.025 267.775 161.657 267.495C161.289 267.214 160.981 266.865 160.749 266.466L160.049 265.26C159.581 264.454 159.454 263.497 159.696 262.598C159.939 261.699 160.53 260.933 161.341 260.468L211.567 231.642C211.968 231.412 212.411 231.262 212.871 231.202C213.33 231.142 213.797 231.172 214.245 231.291C214.692 231.411 215.112 231.616 215.479 231.897C215.847 232.177 216.156 232.527 216.387 232.926L217.088 234.132Z" fill="#1E3B59"/>
</svg>
