<svg width="2429" height="1079" viewBox="0 0 2429 1079" fill="none" xmlns="http://www.w3.org/2000/svg">
<path d="M2428.84 0.422363H0.00195312V1078.02H2428.84V0.422363Z" fill="#FFF9F4"/>
<path d="M514.004 169.58H284.494V336.931H514.004V169.58Z" fill="#A87546"/>
<path d="M500.353 187.847H298.84V321.093H500.353V187.847Z" fill="#FCF4EA"/>
<path d="M466.671 209.992H332.236V301.408H466.671V209.992Z" fill="white"/>
<path d="M343.286 209.992H346.647C344.925 240.462 345.464 271.018 348.26 301.408H344.899C342.104 271.018 341.565 240.462 343.286 209.992V209.992Z" fill="#FE6F8B"/>
<path d="M356.951 209.992C357.005 240.455 357.058 270.927 357.112 301.408H353.751C353.697 270.944 353.644 240.473 353.59 209.992C353.59 207.814 356.951 207.841 356.951 209.992Z" fill="#3B322D"/>
<path d="M365.848 209.992H369.209C368.806 240.456 368.403 270.927 367.999 301.408H364.639C365.069 270.945 365.472 240.473 365.848 209.992Z" fill="#FE6F8B"/>
<path d="M389.912 209.992H393.273C393.65 240.456 394.017 270.927 394.375 301.408H391.015C390.638 270.918 390.271 240.446 389.912 209.992Z" fill="#3B322D"/>
<path d="M396.092 209.992H399.453C402.212 240.386 402.689 270.943 400.878 301.408H397.517C399.328 270.943 398.852 240.386 396.092 209.992V209.992Z" fill="#FE6F8B"/>
<path d="M405.343 209.992H408.704C408.65 240.456 408.606 270.927 408.57 301.408H405.209C405.236 270.945 405.281 240.473 405.343 209.992Z" fill="#3B322D"/>
<path d="M412.924 209.992H416.285C416.957 240.456 417.638 270.927 418.328 301.408H414.967C414.295 270.945 413.614 240.473 412.924 209.992Z" fill="#FE6F8B"/>
<path d="M426.232 209.992H429.593C429.028 240.483 428.446 270.954 427.845 301.408H424.484C425.076 270.918 425.658 240.446 426.232 209.992Z" fill="#3B322D"/>
<path d="M441.076 209.992H444.437C444.572 240.456 444.724 270.927 444.894 301.408H441.533C441.399 270.945 441.246 240.473 441.076 209.992Z" fill="#FE6F8B"/>
<path d="M454.519 209.992H457.88C457.719 240.456 457.566 270.927 457.423 301.408H454.062C454.224 270.945 454.376 240.473 454.519 209.992Z" fill="#3B322D"/>
<path d="M1235.34 923.03H1235.35C1301.96 930.32 1340.34 938.886 1340.34 948.049C1340.34 974.592 1018.4 996.111 621.266 996.111C619.039 996.111 616.815 996.11 614.593 996.109C612.89 996.11 611.185 996.111 609.478 996.111C352.844 996.111 127.613 987.126 0.363281 973.606V922.497C127.611 908.976 352.844 899.99 609.478 899.99C611.705 899.99 613.929 899.991 616.151 899.992C617.853 899.991 619.558 899.99 621.266 899.99C881.268 899.99 1109.04 909.212 1235.34 923.03Z" fill="#F8CDAE"/>
<path d="M884.141 857.67L908.557 936.005H891.263L854.639 859.705L884.141 857.67Z" fill="#C37F39"/>
<path d="M423.289 857.67L398.873 936.005H416.168L452.792 859.705L423.289 857.67Z" fill="#C37F39"/>
<path d="M419.909 592.183C436.222 579.207 459.102 579.373 479.879 581.056C535.913 585.593 591.789 596.678 647.89 593.056C703.163 589.487 757.246 571.687 812.619 573.025C830.119 573.448 848.413 576.119 862.526 586.475C884.973 602.946 890.683 633.494 894.671 661.048C913.892 647.891 941.76 652.456 959.138 667.966C976.516 683.475 984.344 707.591 984.588 730.882C984.832 754.173 978.306 776.979 970.891 799.059C962.421 824.283 950.845 851.25 927.12 863.295C912.254 870.843 894.911 871.228 878.24 871.455C726.267 873.527 574.288 875.599 422.3 875.675C407.738 875.682 392.498 875.51 379.656 868.644C366.204 861.452 357.394 847.962 350.248 834.485C337.13 809.732 327.654 783.214 322.114 755.753C318.635 738.49 316.752 720.49 320.826 703.357C324.899 686.225 335.763 669.979 351.954 663.052C362.332 658.613 372.656 659.619 383.09 662.948C396.395 667.194 398.052 664.983 398.751 650.484C399.773 629.298 402.017 606.416 419.909 592.183Z" fill="#FDE0A5"/>
<path d="M414.108 824.346C408.136 801.116 402.163 777.887 396.19 754.657L387.293 720.058C384.667 709.846 382.449 699.162 377.078 689.956C372.066 681.367 363.62 674.108 353.35 673.438C352.533 673.385 352.536 674.657 353.35 674.71C362.662 675.317 370.508 681.784 375.289 689.453C380.892 698.441 383.147 709.04 385.752 719.17C391.535 741.663 397.319 764.156 403.103 786.649C406.362 799.327 409.622 812.006 412.882 824.684C413.086 825.476 414.313 825.14 414.108 824.346Z" fill="#4D2C13"/>
<path d="M935.807 658.866C922.098 676.108 910.559 694.97 901.45 715.027C892.329 735.081 885.673 756.167 881.628 777.824C879.755 787.889 878.462 798.054 877.754 808.267C873.727 791.992 867.561 776.322 859.416 761.667C856.45 756.335 853.229 751.157 849.753 746.134C849.291 745.465 848.188 746.1 848.655 746.776C860.871 764.463 869.975 784.108 875.572 804.862C876.267 807.446 876.905 810.043 877.486 812.655C877.455 813.243 877.424 813.831 877.397 814.419C877.39 814.5 877.401 814.582 877.429 814.659C877.457 814.736 877.501 814.806 877.558 814.864C877.616 814.922 877.685 814.967 877.761 814.996C877.837 815.025 877.919 815.037 878.001 815.032C878.443 817.139 878.849 819.253 879.22 821.375C819.307 819.228 759.369 818.106 699.407 818.009C638.499 817.917 577.602 818.889 516.716 820.924C482.552 822.067 448.402 823.544 414.265 825.356C413.451 825.399 413.446 826.671 414.265 826.628C475.087 823.404 535.953 821.239 596.863 820.131C657.761 819.029 718.665 818.991 779.577 820.016C812.878 820.577 846.171 821.456 879.457 822.655C879.636 823.109 880.25 823.048 880.523 822.692C881.045 822.711 881.566 822.728 882.087 822.747C882.906 822.777 882.905 821.505 882.087 821.476C881.563 821.457 881.038 821.439 880.514 821.42C880 818.451 879.416 815.497 878.761 812.556C879.904 791.366 883.563 770.387 889.66 750.06C895.926 729.129 904.698 709.032 915.785 690.205C922.042 679.584 929.033 669.413 936.706 659.765C937.211 659.131 936.317 658.225 935.807 658.866Z" fill="#4D2C13"/>
<path d="M845.538 741.802C794.711 741.092 743.884 740.383 693.056 739.674C643.332 738.98 593.528 737.8 543.843 740.552C516.079 742.09 488.37 744.91 460.977 749.744C460.911 749.756 460.847 749.778 460.788 749.81C461.031 749.291 460.27 748.658 459.724 749.119C441.994 764.185 428.463 783.583 420.447 805.425C418.195 811.569 416.402 817.871 415.084 824.281C414.919 825.08 416.144 825.421 416.31 824.619C421.027 801.918 431.569 780.835 446.902 763.443C451.123 758.664 455.686 754.198 460.553 750.079C460.517 750.191 460.511 750.31 460.534 750.425C460.558 750.54 460.61 750.648 460.686 750.737C460.763 750.826 460.86 750.894 460.97 750.935C461.08 750.976 461.199 750.988 461.315 750.97C510.351 742.317 560.237 740.239 609.944 740.124C660.122 740.008 710.315 741.186 760.486 741.886C788.836 742.282 817.187 742.678 845.538 743.073C846.357 743.085 846.357 741.813 845.538 741.802Z" fill="#4D2C13"/>
<path d="M564.469 610.824C541.188 604.818 516.6 604.767 493.156 609.926C469.603 615.091 447.491 625.421 428.415 640.169C417.799 648.402 408.347 658.033 400.316 668.801C400.262 668.867 400.226 668.944 400.208 669.027C400.191 669.11 400.194 669.196 400.216 669.277C400.239 669.359 400.281 669.433 400.338 669.496C400.395 669.558 400.466 669.605 400.546 669.634C400.436 669.753 400.373 669.908 400.368 670.07C400.362 670.231 400.415 670.39 400.517 670.516C408.208 680.098 415.9 689.68 423.591 699.262C424.103 699.9 424.998 698.995 424.49 698.362C416.799 688.781 409.107 679.199 401.416 669.617C401.391 669.586 401.363 669.558 401.333 669.532C401.362 669.505 401.389 669.475 401.414 669.443C415.632 650.336 434.589 635.019 455.872 624.421C477.249 613.752 500.726 607.96 524.611 607.46C537.931 607.2 551.225 608.744 564.131 612.05C564.923 612.254 565.262 611.028 564.469 610.824Z" fill="#4D2C13"/>
<path d="M888.851 666.216C883.113 669.872 878.253 674.749 874.619 680.5C870.984 686.25 868.665 692.733 867.826 699.484C867.728 700.295 869 700.288 869.097 699.484C869.927 692.954 872.185 686.686 875.71 681.126C879.235 675.566 883.94 670.851 889.492 667.314C890.183 666.879 889.546 665.778 888.851 666.216Z" fill="#4D2C13"/>
<path d="M643.323 768.608C643.288 767.793 642.016 767.789 642.051 768.608C642.749 784.885 643.446 801.161 644.144 817.438C644.178 818.253 645.45 818.258 645.415 817.438C644.718 801.161 644.021 784.885 643.323 768.608Z" fill="#4D2C13"/>
<path d="M893.15 657.837C885.923 640.966 874.23 626.387 859.332 615.668C843.216 604.055 823.744 597.671 803.903 597.17C792.306 596.871 780.744 598.592 769.736 602.254C768.964 602.512 769.295 603.741 770.074 603.481C789.599 597.013 810.645 596.737 830.332 602.693C848.101 608.092 864.017 618.714 876.102 632.785C882.708 640.478 888.088 649.145 892.052 658.479C892.37 659.23 893.466 658.583 893.15 657.837Z" fill="#4D2C13"/>
<path d="M652.997 598.05C650.696 602.833 648.394 607.615 646.093 612.397C645.739 613.131 646.836 613.777 647.191 613.039C649.492 608.257 651.794 603.474 654.095 598.692C654.448 597.958 653.352 597.312 652.997 598.05Z" fill="#4D2C13"/>
<path d="M648.082 623.178C646.453 615.714 644.38 608.354 641.876 601.136C641.609 600.368 640.381 600.698 640.65 601.474C649.317 626.552 652.742 653.143 650.712 679.598C650.127 687.159 649.091 694.678 647.612 702.115C647.453 702.914 648.679 703.256 648.838 702.453C654.017 676.255 653.76 649.273 648.082 623.178V623.178Z" fill="#4D2C13"/>
<path d="M955.725 752.684C940.238 745.134 930.633 728.749 931.768 711.534C932.119 706.245 933.448 701.067 935.689 696.263C936.033 695.526 934.937 694.88 934.591 695.621C930.605 704.173 929.431 713.768 931.239 723.028C932.593 729.638 935.448 735.848 939.582 741.18C943.716 746.512 949.019 750.824 955.083 753.782C955.816 754.139 956.462 753.043 955.725 752.684Z" fill="#4D2C13"/>
<path d="M370.026 733.92C369.034 729.209 367.108 724.745 364.362 720.79C363.898 720.123 362.795 720.758 363.263 721.432C367.902 728.13 370.083 736.225 369.438 744.347C368.76 752.067 365.494 759.331 360.17 764.963C357.24 768.084 353.761 770.64 349.907 772.505C349.171 772.862 349.815 773.959 350.549 773.603C357.621 770.148 363.384 764.496 366.975 757.492C370.655 750.214 371.732 741.895 370.026 733.92V733.92Z" fill="#4D2C13"/>
<path d="M410.469 837.604C407.756 846.081 405.043 854.559 402.33 863.037C402.08 863.818 403.308 864.153 403.556 863.375C406.269 854.897 408.982 846.42 411.695 837.942C411.945 837.16 410.718 836.826 410.469 837.604Z" fill="#4D2C13"/>
<path d="M891.683 848.711C888.969 843.625 886.256 838.538 883.542 833.452C883.157 832.73 882.059 833.371 882.444 834.094C885.158 839.18 887.871 844.266 890.585 849.353C890.97 850.075 892.068 849.433 891.683 848.711Z" fill="#4D2C13"/>
<path d="M893.116 928.056C885.93 910.788 878.744 893.52 871.559 876.252C871.249 875.507 870.018 875.834 870.332 876.59C877.518 893.858 884.704 911.126 891.89 928.394C892.2 929.139 893.431 928.812 893.116 928.056Z" fill="#4D2C13"/>
<path d="M430.998 880.406C423.93 897.583 416.862 914.761 409.794 931.938C409.483 932.694 410.713 933.023 411.02 932.276C418.088 915.099 425.156 897.921 432.224 880.744C432.536 879.988 431.306 879.659 430.998 880.406Z" fill="#4D2C13"/>
<path d="M195.962 623.292C195.906 622.974 195.85 622.656 195.792 622.341C195.649 622.771 195.507 623.201 195.365 623.633C195.113 624.393 194.862 625.154 194.612 625.914C194.668 626.219 194.721 626.522 194.772 626.827C194.796 626.727 194.831 626.63 194.876 626.537L194.922 626.453C194.953 626.401 194.988 626.351 195.026 626.303C195.047 626.28 195.067 626.257 195.087 626.235C195.107 626.212 195.128 626.19 195.151 626.171C195.174 626.148 195.198 626.126 195.225 626.107C195.242 626.092 195.258 626.079 195.276 626.067C195.375 625.994 195.485 625.936 195.601 625.896C195.628 625.885 195.656 625.875 195.685 625.868C195.842 625.823 196.006 625.809 196.168 625.828C196.179 625.828 196.191 625.83 196.201 625.833C196.235 625.836 196.268 625.842 196.3 625.851C196.341 625.858 196.381 625.869 196.42 625.884C196.27 625.019 196.117 624.155 195.962 623.292ZM182.694 606.62C182.661 606.605 182.629 606.587 182.6 606.567C182.58 606.558 182.561 606.547 182.544 606.534C182.515 606.516 182.488 606.496 182.462 606.475C182.451 606.468 182.439 606.459 182.429 606.45C182.417 606.441 182.406 606.432 182.396 606.422C182.325 606.363 182.262 606.296 182.205 606.224C182.177 606.188 182.152 606.152 182.126 606.117C182.101 606.08 182.078 606.042 182.058 606.002C182.038 605.967 182.02 605.93 182.004 605.893C181.992 605.869 181.982 605.845 181.974 605.819C181.969 605.806 181.964 605.791 181.959 605.776C181.95 605.756 181.944 605.736 181.941 605.715C181.931 605.694 181.925 605.671 181.92 605.649C181.91 605.615 181.902 605.581 181.898 605.547C181.898 605.544 181.895 605.539 181.895 605.537C181.826 605.806 181.763 606.076 181.699 606.348V606.353L182.46 610.873C182.78 609.504 183.106 608.139 183.439 606.775C183.181 606.79 182.924 606.737 182.694 606.62V606.62ZM195.962 623.292C195.906 622.974 195.85 622.656 195.792 622.341C195.649 622.771 195.507 623.201 195.365 623.633C195.113 624.393 194.862 625.154 194.612 625.914C194.668 626.219 194.721 626.522 194.772 626.827C194.796 626.727 194.831 626.63 194.876 626.537L194.922 626.453C194.953 626.401 194.988 626.351 195.026 626.303C195.047 626.28 195.067 626.257 195.087 626.235C195.107 626.212 195.128 626.19 195.151 626.171C195.174 626.148 195.198 626.126 195.225 626.107C195.242 626.092 195.258 626.079 195.276 626.067C195.375 625.994 195.485 625.936 195.601 625.896C195.628 625.885 195.656 625.875 195.685 625.868C195.842 625.823 196.006 625.809 196.168 625.828C196.179 625.828 196.191 625.83 196.201 625.833C196.235 625.836 196.268 625.842 196.3 625.851C196.341 625.858 196.381 625.869 196.42 625.884C196.27 625.019 196.117 624.155 195.962 623.292ZM182.694 606.62C182.661 606.605 182.629 606.587 182.6 606.567C182.58 606.558 182.561 606.547 182.544 606.534C182.515 606.516 182.488 606.496 182.462 606.475C182.451 606.468 182.439 606.459 182.429 606.45C182.417 606.441 182.406 606.432 182.396 606.422C182.325 606.363 182.262 606.296 182.205 606.224C182.177 606.189 182.151 606.154 182.126 606.117C182.101 606.08 182.078 606.042 182.058 606.002C182.037 605.967 182.02 605.931 182.004 605.893C181.992 605.869 181.981 605.845 181.974 605.819C181.969 605.806 181.964 605.791 181.959 605.776C181.95 605.756 181.944 605.736 181.941 605.715C181.931 605.694 181.925 605.671 181.92 605.649C181.91 605.615 181.903 605.581 181.898 605.547C181.898 605.544 181.895 605.539 181.895 605.537C181.826 605.806 181.763 606.076 181.699 606.348V606.353L182.46 610.873C182.78 609.504 183.106 608.139 183.439 606.775C183.181 606.79 182.924 606.737 182.694 606.62V606.62ZM295.013 387.157C288.916 393.3 283.061 399.661 277.446 406.24C277.446 406.24 277.445 406.24 277.445 406.24C277.445 406.24 277.444 406.241 277.444 406.241C277.444 406.241 277.444 406.241 277.444 406.242C277.443 406.242 277.443 406.242 277.443 406.243C275.77 408.196 274.12 410.168 272.494 412.159C272.492 412.161 272.492 412.164 272.489 412.164C272.006 412.756 271.524 413.35 271.044 413.944C260.849 426.595 251.467 439.88 242.953 453.719C228.067 477.858 215.696 503.503 205.426 529.926C202.679 536.991 200.085 544.111 197.643 551.285C197.229 552.498 196.819 553.71 196.415 554.922V554.924C196.069 555.962 195.726 557 195.385 558.037C195.143 558.772 194.904 559.505 194.668 560.24C194.711 559.51 194.752 558.782 194.795 558.053C194.825 557.531 194.853 557.01 194.884 556.488C194.927 555.733 194.973 554.975 195.016 554.22C195.787 540.877 196.557 527.536 197.328 514.195C198.325 496.918 199.323 479.641 200.322 462.364C200.385 461.273 200.449 460.183 200.512 459.093C200.51 459.093 200.512 459.091 200.512 459.091C200.51 459.088 200.51 459.088 200.512 459.086C200.744 455.055 200.977 451.023 201.212 446.992C201.211 446.992 201.211 446.991 201.21 446.991C201.21 446.99 201.21 446.989 201.21 446.988C201.21 446.988 201.21 446.987 201.21 446.986C201.211 446.986 201.211 446.985 201.212 446.985C201.211 446.984 201.211 446.984 201.21 446.983C201.21 446.982 201.21 446.981 201.21 446.981C201.21 446.98 201.21 446.979 201.21 446.979C201.211 446.978 201.211 446.977 201.212 446.977C201.82 436.45 202.427 425.923 203.035 415.396C203.046 415.288 203.034 415.179 203.001 415.076C202.967 414.973 202.913 414.878 202.84 414.797C202.768 414.717 202.68 414.652 202.581 414.607C202.483 414.562 202.376 414.538 202.267 414.537C202.143 414.522 202.017 414.533 201.897 414.569C201.777 414.605 201.666 414.665 201.57 414.745C201.474 414.826 201.396 414.925 201.34 415.037C201.284 415.149 201.252 415.271 201.245 415.396L199.416 447.048V447.051L198.602 461.143L194.273 536.091V536.111L193.104 556.328L192.976 558.51L192.783 561.893L192.679 563.676C192.681 563.681 192.679 563.689 192.679 563.696L192.478 567.155C191.3 570.963 190.159 574.78 189.054 578.608C188.719 579.77 188.386 580.932 188.058 582.095C187.879 582.723 187.703 583.351 187.528 583.979C187.396 583.453 187.263 582.927 187.129 582.403C186.707 580.732 186.275 579.064 185.835 577.4C185.809 577.296 185.781 577.194 185.753 577.092C185.092 574.582 184.413 572.077 183.716 569.576V569.569C180.939 559.589 177.896 549.689 174.588 539.87C174.222 538.784 172.492 539.25 172.861 540.346C176.317 550.603 179.483 560.951 182.358 571.39C182.912 573.402 183.456 575.416 183.988 577.433C184.873 580.782 185.728 584.139 186.552 587.502C185.023 593.092 183.569 598.701 182.19 604.329V604.331C182.091 604.733 181.992 605.135 181.895 605.537C181.826 605.806 181.763 606.076 181.699 606.348V606.353C181.028 609.108 180.375 611.864 179.741 614.622C179.303 616.522 178.874 618.423 178.451 620.326C174.016 640.312 170.379 660.465 167.301 680.705C166.648 657.879 165.762 635.06 164.643 612.249C163.781 594.659 162.782 577.078 161.645 559.507V559.505C161.045 550.237 160.405 540.973 159.727 531.714V531.711C159.628 530.363 159.528 529.015 159.427 527.667C159.43 527.665 159.427 527.665 159.427 527.665C159.096 523.204 158.756 518.746 158.407 514.292C157.695 505.209 156.946 496.128 156.159 487.047C155.121 475.083 154.02 463.125 152.855 451.173C152.527 447.806 152.194 444.44 151.856 441.074C152.379 438.309 152.903 435.543 153.425 432.775L153.715 431.241L154.345 427.909V427.907L161.302 391.105L170.625 341.771L171.569 336.784L176.328 311.602C176.541 310.476 174.814 309.992 174.601 311.127C173.12 318.963 171.639 326.798 170.157 334.632C169.613 337.516 169.068 340.401 168.522 343.285C165.422 359.682 162.322 376.078 159.224 392.473C157.298 402.657 155.373 412.841 153.448 423.026C153.45 423.026 153.448 423.029 153.448 423.029C153.142 424.651 152.836 426.274 152.529 427.897V427.902C152.092 430.214 151.655 432.525 151.217 434.835C150.607 428.858 149.981 422.883 149.34 416.909C149.218 415.775 147.428 415.762 147.55 416.909C148.414 424.934 149.249 432.963 150.055 440.997C149.625 443.269 149.195 445.541 148.765 447.814C146.186 461.461 143.607 475.11 141.026 488.759C140.497 491.562 139.967 494.364 139.436 497.165C139.284 497.974 139.131 498.78 138.979 499.589C137.391 507.982 135.805 516.375 134.22 524.768L131.003 541.79L129.68 548.795C129.212 545.974 128.731 543.156 128.235 540.341V540.338C127.175 534.27 126.052 528.213 124.866 522.168C119.476 494.685 112.836 467.488 104.946 440.578C104.819 440.143 104.692 439.71 104.565 439.278C103.14 434.453 101.676 429.641 100.172 424.842V424.84C97.5551 416.475 94.8151 408.149 91.9521 399.861C90.5176 395.708 89.0535 391.566 87.5597 387.435C87.5595 387.427 87.5568 387.42 87.5521 387.414C84.0626 377.767 80.4087 368.182 76.5903 358.657C75.2728 355.371 73.9359 352.091 72.5794 348.819C72.4786 348.585 72.2915 348.399 72.057 348.3C71.8225 348.2 71.5587 348.195 71.3205 348.285C71.2168 348.311 71.1203 348.36 71.0379 348.428C70.9555 348.496 70.8894 348.582 70.8444 348.679C70.7993 348.776 70.7764 348.882 70.7774 348.989C70.7783 349.096 70.8031 349.201 70.85 349.297C76.1477 362.08 81.1496 374.979 85.8557 387.994C85.8571 387.996 85.858 387.997 85.8582 387.999C87.341 392.097 88.7941 396.205 90.2175 400.324C90.243 400.398 90.2684 400.474 90.2938 400.548C93.0228 408.45 95.6408 416.389 98.1477 424.364C98.6564 425.977 99.1591 427.591 99.6559 429.207C100.986 433.525 102.285 437.854 103.552 442.193C110.226 465.045 115.999 488.134 120.872 511.461C122.805 520.704 124.594 529.975 126.239 539.275C127.104 544.148 127.928 549.03 128.711 553.92C128.342 555.873 127.973 557.825 127.605 559.777V559.779C125.987 568.338 124.369 576.896 122.749 585.455C120.171 581.785 117.318 578.316 114.214 575.078C114.214 575.075 114.214 575.075 114.211 575.075C111.149 571.878 107.85 568.915 104.343 566.212C103.929 565.891 103.512 565.576 103.089 565.26H103.087C102.881 565.105 102.672 564.953 102.464 564.803C101.912 564.398 101.355 564.001 100.793 563.617C100.452 563.376 100.106 563.142 99.7602 562.91C99.432 562.686 99.104 562.468 98.7708 562.254C98.7047 562.208 98.6385 562.165 98.5724 562.124C98.5699 562.122 98.5673 562.119 98.5648 562.119C98.3562 561.982 98.1451 561.847 97.934 561.712C97.4813 561.425 97.0261 561.141 96.5683 560.86C96.4157 560.766 96.2631 560.675 96.1104 560.583C96.0062 560.52 95.9019 560.456 95.7976 560.395C95.7951 560.392 95.7925 560.392 95.79 560.39C95.3678 560.138 94.9414 559.89 94.5107 559.645L94.5081 559.642C94.2996 559.523 94.0936 559.403 93.8825 559.286C93.8596 559.273 93.8392 559.261 93.8164 559.248C91.6749 558.047 89.4833 556.942 87.2418 555.931H87.2393C86.5068 555.598 85.7718 555.278 85.0265 554.97C82.4934 553.912 79.9119 552.979 77.2821 552.17C76.1783 551.829 75.7052 553.558 76.8039 553.897C78.0756 554.288 79.3354 554.711 80.5833 555.163C81.5549 555.514 82.518 555.885 83.4726 556.275C83.4882 556.28 83.5035 556.285 83.5184 556.292C83.9532 556.468 84.3882 556.649 84.818 556.834C86.1075 557.381 87.3809 557.962 88.6381 558.576C89.3808 558.94 90.1175 559.313 90.8483 559.696C92.0945 560.349 93.3229 561.033 94.5336 561.748C94.5338 561.75 94.5347 561.752 94.5361 561.753C94.8617 561.941 95.1822 562.137 95.5051 562.335H95.5128C101.886 566.216 107.73 570.903 112.902 576.281C112.904 576.281 112.904 576.283 112.907 576.286C116.364 579.877 119.503 583.761 122.289 587.894C122.248 588.11 122.208 588.326 122.167 588.542C121.452 592.319 120.739 596.096 120.026 599.873C118.026 610.445 116.028 621.017 114.031 631.588C107.388 666.732 100.48 701.851 95.2661 737.244C91.9089 760.04 89.2867 782.978 87.9921 805.98C87.8039 809.312 87.6454 812.644 87.5165 815.976C87.3766 819.503 87.2723 823.032 87.2037 826.561C87.135 829.929 87.1002 833.298 87.0994 836.668C87.0994 840.196 87.1375 843.724 87.2138 847.251C87.2698 849.985 87.3512 852.72 87.458 855.454C87.5038 856.601 89.2943 856.608 89.2485 855.454C89.1417 852.732 89.0603 850.011 89.0043 847.289C88.9255 843.759 88.8874 840.232 88.8899 836.707C88.8899 833.316 88.9247 829.929 88.9942 826.543C89.0629 823.013 89.1671 819.485 89.307 815.958C89.4367 812.631 89.5953 809.305 89.7826 805.98C92.8626 751.454 103.402 697.425 113.537 643.814C116.249 629.465 118.961 615.114 121.674 600.763C122.307 597.416 122.94 594.068 123.574 590.719C123.614 590.498 123.657 590.279 123.698 590.058C123.968 590.488 124.237 590.915 124.499 591.35C126.709 595 128.631 598.817 130.25 602.765C130.255 602.771 130.258 602.779 130.26 602.787C130.26 602.788 130.261 602.788 130.261 602.789C130.261 602.789 130.261 602.79 130.261 602.79C130.261 602.79 130.261 602.791 130.261 602.791C130.261 602.792 130.26 602.792 130.26 602.793C130.4 603.126 130.532 603.459 130.664 603.795C131.145 605.008 131.596 606.233 132.017 607.47C132.061 607.612 132.141 607.741 132.25 607.843C132.358 607.946 132.491 608.019 132.635 608.055C133.246 608.21 134.004 607.755 133.744 606.994C133.353 605.847 132.937 604.71 132.498 603.583V603.581C132.32 603.128 132.139 602.681 131.954 602.23C131.949 602.213 131.939 602.197 131.933 602.182C129.827 597.062 127.228 592.158 124.174 587.54C125.733 579.292 127.292 571.043 128.851 562.793V562.791C129.08 561.58 129.309 560.375 129.538 559.164C130.023 562.308 130.491 565.453 130.942 568.6C132.267 577.802 133.45 587.023 134.492 596.264C134.698 598.085 134.898 599.908 135.092 601.732C135.459 605.158 135.804 608.584 136.13 612.01V612.012C136.3 613.805 136.467 615.598 136.628 617.391C138.518 638.552 139.671 659.764 140.087 681.026C140.637 709.346 139.86 737.65 137.758 765.938C137.493 769.468 137.208 772.998 136.903 776.526C136.885 776.651 136.9 776.778 136.945 776.895C136.99 777.012 137.064 777.117 137.16 777.197C134.861 786.76 132.704 796.355 130.69 805.98C130.021 809.183 129.368 812.387 128.731 815.594C128.642 816.034 128.556 816.472 128.469 816.912C127.859 820.004 127.266 823.1 126.689 826.198C126.01 829.817 125.352 833.44 124.715 837.068C124.097 840.59 123.499 844.117 122.92 847.648C122.816 848.266 122.716 848.884 122.615 849.502C122.432 850.629 124.156 851.115 124.342 849.978C124.469 849.202 124.596 848.426 124.723 847.651C125.306 844.121 125.907 840.594 126.529 837.07C127.17 833.436 127.831 829.806 128.513 826.18C129.174 822.642 129.857 819.108 130.563 815.576C131.198 812.374 131.851 809.176 132.521 805.98C137.519 782.096 143.401 758.419 150.167 734.95C151.278 731.097 152.413 727.249 153.572 723.408C154.386 720.707 155.213 718.01 156.052 715.318C156.055 715.315 156.052 715.315 156.052 715.315C156.551 713.713 157.053 712.112 157.56 710.513C158.323 708.105 159.095 705.699 159.875 703.295C160.233 702.197 158.504 701.726 158.148 702.82C156.889 706.693 155.654 710.575 154.445 714.463C153.997 715.898 153.553 717.335 153.112 718.774C152.662 720.247 152.215 721.719 151.772 723.192C147.285 738.091 143.151 753.089 139.37 768.186C141.339 742.593 142.222 716.948 142.02 691.253C141.786 662.798 140.224 634.394 137.333 606.043C136.992 602.701 136.634 599.361 136.257 596.022V596.017C135.977 593.558 135.688 591.1 135.39 588.644V588.639C133.986 577.051 132.362 565.492 130.519 553.96C131.232 550.191 131.944 546.421 132.656 542.65C135.245 528.967 137.832 515.284 140.416 501.603C140.571 500.789 140.723 499.978 140.876 499.164C141.41 496.346 141.942 493.528 142.473 490.71C145.098 476.831 147.721 462.953 150.342 449.075C150.457 448.48 150.569 447.887 150.68 447.292C150.754 448.037 150.828 448.785 150.899 449.53C152.181 462.603 153.385 475.684 154.511 488.772C155.528 500.586 156.484 512.405 157.377 524.231C157.476 525.556 157.575 526.881 157.675 528.206C158.41 538.092 159.101 547.982 159.748 557.874C160.444 568.546 161.09 579.221 161.686 589.898C162.08 596.989 162.452 604.08 162.802 611.173C164.114 637.764 165.111 664.369 165.791 690.988C165.343 694.114 164.908 697.241 164.486 700.371C164.298 701.759 164.112 703.147 163.929 704.534V704.537C163.639 706.729 163.355 708.922 163.077 711.116C162.629 714.634 162.195 718.152 161.775 721.671C158.417 749.714 155.816 777.846 153.338 805.98C153.239 807.105 153.14 808.23 153.041 809.355L152.514 815.376C152.336 817.395 152.16 819.415 151.985 821.436C151.886 822.583 153.677 822.578 153.776 821.436C153.954 819.409 154.13 817.383 154.305 815.358C154.579 812.232 154.854 809.106 155.129 805.98C157.54 778.619 160.065 751.265 163.29 723.986C163.407 722.986 163.527 721.987 163.649 720.989C164.407 714.669 165.209 708.354 166.055 702.044C166.187 708.006 166.304 713.966 166.406 719.924V719.926C166.653 734.413 166.805 748.9 166.864 763.387C166.874 766.121 166.88 768.855 166.882 771.589C165.061 783.034 163.37 794.498 161.81 805.98C161.385 809.086 160.972 812.192 160.569 815.299C160.564 815.345 160.556 815.393 160.551 815.439C160.404 816.579 162.197 816.566 162.342 815.439C162.349 815.388 162.354 815.335 162.362 815.284C162.764 812.181 163.177 809.08 163.601 805.98C164.636 798.381 165.729 790.788 166.879 783.202C166.864 790.794 166.823 798.387 166.757 805.98C166.732 809.068 166.7 812.156 166.663 815.243C166.625 818.771 166.58 822.299 166.528 825.829C166.475 829.433 166.416 833.036 166.353 836.638C166.292 840.168 166.223 843.698 166.147 847.226C166.053 851.814 165.948 856.403 165.834 860.993C165.831 861.057 165.831 861.123 165.829 861.186C165.817 861.339 165.85 861.491 165.924 861.624C165.998 861.758 166.109 861.867 166.243 861.939C166.38 862.018 166.534 862.06 166.692 862.062C166.849 862.064 167.005 862.025 167.143 861.949C167.281 861.874 167.397 861.764 167.481 861.63C167.564 861.497 167.612 861.344 167.619 861.186C167.736 856.519 167.843 851.853 167.94 847.188C168.013 843.658 168.082 840.128 168.146 836.6C168.209 833.004 168.267 829.408 168.319 825.813C168.369 822.286 168.415 818.757 168.456 815.228C168.492 812.146 168.523 809.063 168.55 805.98C168.647 794.535 168.687 783.09 168.67 771.645C171.696 752.646 175.084 733.71 178.833 714.835C179.792 710.005 180.773 705.181 181.778 700.363C183.103 694.007 184.471 687.661 185.883 681.323C185.29 691.611 184.696 701.899 184.1 712.187V712.189C183.052 730.321 182.005 748.452 180.959 766.582C180.201 779.715 179.442 792.848 178.683 805.98C178.507 809.032 178.331 812.085 178.154 815.139C177.95 818.669 177.747 822.199 177.543 825.727C177.337 829.28 177.132 832.832 176.928 836.384C176.722 839.916 176.517 843.449 176.315 846.982C175.961 853.114 175.607 859.247 175.252 865.38C175.186 866.533 176.976 866.527 177.042 865.38C177.398 859.231 177.754 853.082 178.108 846.933C178.311 843.401 178.516 839.868 178.721 836.335C178.924 832.795 179.129 829.254 179.334 825.712C179.537 822.182 179.741 818.651 179.944 815.121C180.122 812.074 180.299 809.027 180.473 805.98C182.299 774.379 184.125 742.777 185.949 711.175C186.371 703.896 186.792 696.617 187.211 689.338L188.292 670.662C190.212 662.292 192.203 653.94 194.266 645.607C194.403 645.048 194.541 644.488 194.68 643.929C195.006 642.614 195.335 641.3 195.667 639.986C195.84 639.292 196.015 638.598 196.191 637.903H196.194C196.273 637.583 196.354 637.26 196.435 636.94C196.501 637.362 196.565 637.781 196.629 638.204C196.687 638.577 196.743 638.951 196.799 639.325C197.682 645.162 198.475 651.013 199.18 656.877C199.953 663.329 200.621 669.794 201.184 676.27V676.272L201.336 678.088C201.939 685.299 202.409 692.519 202.745 699.75V699.753C203.92 724.922 203.478 750.141 201.42 775.254C200.576 785.524 199.457 795.766 198.063 805.98C197.656 808.979 197.225 811.975 196.768 814.969C196.229 818.506 195.658 822.039 195.054 825.567C194.462 829.008 193.84 832.445 193.19 835.878C192.808 837.884 192.417 839.889 192.015 841.893C191.789 843.017 193.513 843.5 193.742 842.368C194.179 840.186 194.605 838 195.019 835.811C195.665 832.398 196.279 828.978 196.863 825.551C197.465 822.024 198.034 818.49 198.569 814.951C199.022 811.965 199.451 808.975 199.856 805.98C203.558 778.689 205.333 751.17 205.167 723.629C205.116 715.188 204.883 706.749 204.467 698.313C204.134 691.433 203.677 684.56 203.096 677.694C203.015 676.735 202.932 675.778 202.847 674.823C201.751 662.518 200.271 650.256 198.406 638.036C198.292 637.306 198.18 636.576 198.063 635.846C197.895 634.76 197.723 633.676 197.547 632.593C197.732 631.871 197.918 631.146 198.106 630.423C198.279 629.752 198.453 629.081 198.628 628.412C201.565 617.106 204.632 605.839 207.827 594.608V594.605C207.98 594.061 208.135 593.522 208.29 592.98C208.809 591.167 209.33 589.355 209.854 587.545C210.515 585.269 211.182 582.994 211.853 580.721C211.865 580.671 211.879 580.622 211.896 580.574C212.217 579.483 212.54 578.393 212.865 577.303C212.919 577.117 212.975 576.932 213.031 576.746C213.57 574.933 214.113 573.12 214.661 571.308C215.279 569.258 215.903 567.209 216.533 565.161C216.886 564.001 217.243 562.843 217.604 561.687V561.684C217.949 560.555 218.3 559.431 218.654 558.304C218.852 557.661 219.053 557.02 219.254 556.376C219.277 556.303 219.3 556.229 219.323 556.158C219.557 555.418 219.788 554.675 220.022 553.935V553.932C220.638 551.979 221.258 550.028 221.881 548.08C222.118 547.337 222.355 546.596 222.594 545.857C223.298 543.662 224.008 541.469 224.722 539.278C225.175 537.889 225.63 536.503 226.088 535.119C226.498 533.873 226.91 532.628 227.324 531.383V531.38C227.991 529.369 228.662 527.359 229.339 525.353C229.707 524.259 227.978 523.789 227.612 524.877C226.734 527.487 225.864 530.097 225 532.708V532.711C224.944 532.868 224.893 533.026 224.842 533.184C223.385 537.594 221.948 542.01 220.531 546.432C220.529 546.439 220.526 546.446 220.523 546.452C220.503 546.516 220.483 546.577 220.465 546.641C220.31 547.121 220.155 547.604 220.002 548.085C219.648 549.189 219.297 550.294 218.949 551.399C218.669 552.282 218.39 553.166 218.112 554.052C218.072 554.176 218.033 554.304 217.993 554.431C216.83 558.124 215.684 561.822 214.554 565.525C214.101 566.992 213.654 568.461 213.211 569.93C213.01 570.594 212.81 571.257 212.611 571.919C212.443 572.476 212.275 573.03 212.11 573.587C211.914 574.241 211.718 574.889 211.525 575.543V575.546C211.505 575.614 211.484 575.68 211.464 575.749C211.337 576.171 211.212 576.591 211.085 577.016C210.737 578.191 210.389 579.367 210.042 580.543C208.786 584.806 207.548 589.074 206.329 593.347C206.298 593.456 206.265 593.565 206.235 593.675V593.677C205.095 597.675 203.973 601.678 202.867 605.684C202.725 606.198 202.583 606.711 202.443 607.223C202.069 608.571 201.705 609.919 201.336 611.269C201.332 611.276 201.329 611.284 201.329 611.292C200.701 613.597 200.078 615.904 199.462 618.213C199.327 618.727 199.19 619.238 199.052 619.752C198.437 622.066 197.827 624.383 197.224 626.703C197.107 627.148 196.991 627.593 196.875 628.038C196.858 628.101 196.842 628.168 196.824 628.231L196.802 628.101C196.695 627.471 196.588 626.845 196.476 626.214V626.212C196.458 626.102 196.44 625.993 196.42 625.884C196.27 625.019 196.117 624.155 195.962 623.292C195.906 622.974 195.85 622.656 195.792 622.341C195.784 622.295 195.777 622.252 195.766 622.208C195.695 621.794 195.619 621.382 195.54 620.97C195.431 620.349 195.317 619.73 195.199 619.113C194.797 616.944 194.381 614.778 193.95 612.617V612.615C193.836 612.02 193.716 611.425 193.597 610.832C193.208 608.891 192.808 606.953 192.399 605.018C192.318 604.631 192.231 604.247 192.15 603.861C192.618 595.747 193.087 587.634 193.556 579.521C193.788 575.505 194.019 571.489 194.251 567.473C195.84 562.346 197.5 557.242 199.23 552.162C199.772 550.565 200.323 548.97 200.884 547.378C200.885 547.377 200.885 547.376 200.886 547.375C200.886 547.373 200.886 547.372 200.886 547.37C201.593 545.341 202.316 543.316 203.056 541.294C212.794 514.551 224.618 488.535 238.932 463.923C248.682 447.081 259.679 430.992 271.833 415.793C271.909 415.696 271.985 415.602 272.062 415.508C272.715 414.697 273.372 413.888 274.033 413.082C278.83 407.219 283.817 401.517 288.995 395.975C291.384 393.419 293.812 390.902 296.279 388.424C297.091 387.605 295.827 386.336 295.013 387.157V387.157ZM187.511 653.12C187.18 658.878 186.848 664.636 186.514 670.392C183.055 685.464 179.827 700.585 176.831 715.755C174.529 727.399 172.364 739.068 170.335 750.762C169.756 754.101 169.189 757.442 168.637 760.785C168.57 746.934 168.42 733.085 168.184 719.237C168.064 712.271 167.923 705.306 167.759 698.344C167.759 698.344 167.762 698.344 167.759 698.341C167.734 697.212 167.707 696.081 167.68 694.948L167.581 691.011C170.636 669.67 174.265 648.41 178.759 627.323C179.189 625.306 179.627 623.29 180.074 621.275C180.845 617.803 181.64 614.338 182.46 610.878V610.873C182.78 609.504 183.106 608.139 183.439 606.775C183.67 605.822 183.904 604.868 184.141 603.914C185.196 599.644 186.292 595.385 187.429 591.136C188.452 595.419 189.425 599.713 190.349 604.016C190.275 605.31 190.201 606.606 190.125 607.902C190.074 608.746 190.026 609.593 189.978 610.438C189.467 619.268 188.956 628.099 188.447 636.929C188.426 637.288 188.406 637.647 188.386 638.008C188.228 640.724 188.071 643.439 187.915 646.154V646.157C187.78 648.476 187.645 650.796 187.511 653.118V653.12ZM189.665 646.879C189.685 646.541 189.703 646.202 189.723 645.864C189.754 645.33 189.784 644.793 189.815 644.259C189.904 642.713 189.994 641.167 190.085 639.62V639.618C190.591 630.846 191.097 622.075 191.603 613.307C191.623 612.974 191.641 612.638 191.661 612.305V612.302C191.679 612.01 191.694 611.715 191.712 611.422V611.42C191.725 611.198 191.738 610.977 191.75 610.756C191.778 610.901 191.809 611.043 191.837 611.188C192.023 612.104 192.205 613.02 192.384 613.937C193.17 617.92 193.912 621.913 194.612 625.914C194.668 626.219 194.721 626.522 194.772 626.827V626.83C194.83 627.16 194.889 627.493 194.945 627.827V627.829C195.062 628.506 195.179 629.187 195.293 629.866V629.869C195.438 630.741 195.582 631.614 195.726 632.486C195.395 633.783 195.057 635.08 194.729 636.377C194.701 636.492 194.67 636.606 194.642 636.721C194.604 636.873 194.563 637.029 194.525 637.181C192.587 644.831 190.711 652.497 188.897 660.178C189.154 655.745 189.41 651.312 189.665 646.879V646.879ZM191.076 591.436L190.731 597.403C189.985 594.104 189.21 590.813 188.406 587.527C189.182 584.697 189.977 581.873 190.792 579.055V579.053C191.201 577.629 191.617 576.207 192.038 574.788C191.951 576.276 191.866 577.763 191.781 579.249C191.544 583.31 191.31 587.373 191.076 591.436V591.436ZM182.694 606.62C182.661 606.605 182.629 606.587 182.6 606.567C182.58 606.558 182.561 606.547 182.544 606.534C182.515 606.516 182.488 606.496 182.462 606.475C182.451 606.468 182.439 606.459 182.429 606.45C182.418 606.441 182.407 606.432 182.396 606.422C182.325 606.363 182.262 606.296 182.205 606.224C182.177 606.189 182.151 606.154 182.126 606.117C182.101 606.08 182.078 606.042 182.058 606.002C182.038 605.967 182.02 605.93 182.004 605.893C181.992 605.869 181.982 605.845 181.974 605.819C181.969 605.806 181.964 605.791 181.959 605.776C181.95 605.756 181.944 605.736 181.941 605.715C181.931 605.694 181.925 605.671 181.92 605.649C181.91 605.615 181.902 605.581 181.898 605.547C181.898 605.544 181.895 605.539 181.895 605.537C181.826 605.806 181.763 606.076 181.699 606.348V606.353L182.46 610.873C182.78 609.504 183.106 608.139 183.439 606.775C183.181 606.79 182.924 606.737 182.694 606.62V606.62ZM195.962 623.292C195.906 622.974 195.85 622.656 195.792 622.341C195.649 622.771 195.507 623.201 195.365 623.633C195.113 624.393 194.862 625.154 194.612 625.914C194.668 626.219 194.721 626.522 194.772 626.827C194.796 626.727 194.831 626.63 194.876 626.537L194.922 626.453C194.953 626.401 194.988 626.351 195.026 626.303C195.047 626.28 195.067 626.257 195.087 626.235C195.107 626.212 195.128 626.19 195.151 626.171C195.174 626.148 195.198 626.126 195.225 626.107C195.242 626.092 195.258 626.079 195.276 626.067C195.375 625.994 195.485 625.936 195.601 625.896C195.628 625.885 195.656 625.875 195.685 625.868C195.842 625.823 196.006 625.809 196.168 625.828C196.179 625.828 196.191 625.83 196.201 625.833C196.235 625.836 196.268 625.842 196.3 625.851C196.341 625.858 196.381 625.869 196.42 625.884C196.27 625.019 196.117 624.155 195.962 623.292V623.292ZM182.694 606.62C182.661 606.605 182.629 606.587 182.6 606.567C182.58 606.558 182.561 606.547 182.544 606.534C182.515 606.516 182.488 606.496 182.462 606.475C182.451 606.468 182.439 606.459 182.429 606.45C182.417 606.441 182.406 606.432 182.396 606.422C182.325 606.363 182.262 606.296 182.205 606.224C182.177 606.188 182.152 606.152 182.126 606.117C182.101 606.08 182.078 606.042 182.058 606.002C182.038 605.967 182.02 605.93 182.004 605.893C181.992 605.869 181.982 605.845 181.974 605.819C181.969 605.806 181.964 605.791 181.959 605.776C181.95 605.756 181.944 605.736 181.941 605.715C181.931 605.694 181.925 605.671 181.92 605.649C181.91 605.615 181.902 605.581 181.898 605.547C181.898 605.544 181.895 605.539 181.895 605.537C181.826 605.806 181.763 606.076 181.699 606.348V606.353L182.46 610.873C182.78 609.504 183.106 608.139 183.439 606.775C183.181 606.79 182.924 606.737 182.694 606.62V606.62ZM195.962 623.292C195.906 622.974 195.85 622.656 195.792 622.341C195.649 622.771 195.507 623.201 195.365 623.633C195.113 624.393 194.862 625.154 194.612 625.914C194.668 626.219 194.721 626.522 194.772 626.827C194.796 626.727 194.831 626.63 194.876 626.537L194.922 626.453C194.953 626.401 194.988 626.351 195.026 626.303C195.047 626.28 195.067 626.257 195.087 626.235C195.107 626.212 195.128 626.19 195.151 626.171C195.174 626.148 195.198 626.126 195.225 626.107C195.242 626.092 195.258 626.079 195.276 626.067C195.375 625.994 195.485 625.936 195.601 625.896C195.628 625.885 195.656 625.875 195.685 625.868C195.842 625.823 196.006 625.809 196.168 625.828C196.179 625.828 196.191 625.83 196.201 625.833C196.235 625.836 196.268 625.842 196.3 625.851C196.341 625.858 196.381 625.869 196.42 625.884C196.27 625.019 196.117 624.155 195.962 623.292V623.292Z" fill="#18442F"/>
<path d="M135.092 601.732C134.513 602.633 133.617 603.285 132.582 603.561C132.554 603.568 132.526 603.576 132.498 603.581V603.584C131.923 603.731 131.331 603.802 130.738 603.795H130.664C130.407 603.792 130.143 603.777 129.863 603.752C127.48 603.533 124.654 602.327 121.674 600.763C121.129 600.478 120.58 600.178 120.026 599.873C115.013 597.103 109.72 593.672 105.452 592.446C92.6871 588.779 79.4083 587.093 66.6839 583.288C66.5669 583.255 66.455 583.219 66.3406 583.186C65.5903 582.96 64.8476 582.726 64.105 582.484C57.5063 580.329 51.1153 577.584 45.0095 574.282C44.5187 574.017 44.0329 573.75 43.5471 573.476C43.3309 573.361 43.1173 573.242 42.9011 573.119C42.5654 572.929 42.2305 572.736 41.8965 572.542V571.736L43.4581 570.014L44.0125 569.404L45.0553 568.251L45.9837 567.227C45.9862 567.227 45.9862 567.227 45.9862 567.224L46.2431 566.939C46.2431 566.937 46.2456 566.937 46.2456 566.934L46.7772 566.347L48.0488 564.948L49.0255 563.869L50.5794 562.153L50.9482 561.748L52.0928 560.482L52.314 560.24L55.3711 556.865L55.5492 556.669L56.7802 555.311L54.7785 555.23L53.105 555.163L51.5637 555.1L51.3221 555.09L48.0387 554.957L42.8197 554.744C42.5716 554.734 42.3369 554.629 42.1648 554.45C41.9926 554.271 41.8965 554.033 41.8965 553.784V510.446L48.4659 520.856L46.9883 513.938L46.6805 512.509L44.2389 501.066C50.2255 501.486 56.1601 502.462 61.966 503.981C62.1212 504.022 62.2763 504.062 62.4315 504.103C63.2148 504.309 63.9973 504.526 64.779 504.754C70.6302 506.464 76.3142 508.701 81.7609 511.438C81.9949 511.553 82.2263 511.67 82.4578 511.789C82.4832 511.837 82.5112 511.886 82.5392 511.934C85.3419 516.848 88.2083 521.912 90.9297 526.736C90.9297 526.737 90.9297 526.737 90.9298 526.737C90.93 526.738 90.9301 526.738 90.9304 526.738C90.9306 526.739 90.9309 526.739 90.9312 526.739C90.9315 526.739 90.9318 526.739 90.9322 526.739C91.1433 527.12 91.3595 527.497 91.5706 527.871C93.1958 530.755 94.7624 533.54 96.2249 536.147C96.525 536.681 96.8251 537.21 97.115 537.731C101.624 545.761 104.984 551.788 105.712 553.098C105.712 553.098 105.712 553.103 105.714 553.103C105.808 553.274 105.859 553.363 105.859 553.363C105.882 553.185 105.89 552.783 105.89 552.19V552.188C105.897 551.791 105.892 551.308 105.887 550.748C105.882 550.219 105.874 549.623 105.864 548.96C105.859 548.719 105.854 548.467 105.851 548.207C105.836 547.442 105.821 546.605 105.801 545.702C105.793 545.4 105.788 545.087 105.778 544.766C105.765 544.135 105.747 543.477 105.732 542.79C105.714 542.05 105.695 541.281 105.673 540.483C105.661 539.898 105.643 539.301 105.628 538.69C105.6 537.683 105.57 536.644 105.539 535.575C105.523 534.967 105.506 534.354 105.488 533.728C105.434 531.843 105.376 529.883 105.315 527.871C106.457 528.947 107.571 530.05 108.657 531.18C108.827 531.35 108.993 531.526 109.158 531.701C110.363 532.968 111.532 534.27 112.663 535.608C118.801 542.888 123.835 551.032 127.605 559.777V559.78C128.037 560.777 128.452 561.78 128.851 562.791V562.793C129.606 564.706 130.303 566.642 130.942 568.6C132.733 574.093 134.048 579.729 134.874 585.447C135.016 586.429 135.202 587.51 135.39 588.639V588.644C135.851 591.078 136.141 593.542 136.257 596.017V596.022C136.305 598.273 136.026 600.308 135.092 601.732Z" fill="#35684F"/>
<path d="M269.679 566.707C273.525 564.664 277.253 562.406 280.845 559.943C264.93 556.971 251.636 554.423 250.231 553.949C250.231 553.949 279.734 545.043 306.029 536.811C316.434 524.194 324.183 509.605 328.812 493.92L304.053 493.814L331.261 483.943C333.406 473.465 334.569 462.768 337.556 452.5C340.977 440.737 347.29 429.138 357.844 422.919C327.856 422.199 298.005 431.4 272.945 447.839L260.699 494.769L244.437 471.987C236.785 480.276 230.15 489.45 224.673 499.313C216.808 513.534 211.328 528.965 203.615 543.269C199.197 551.464 186.246 561.568 183.739 569.503C180.299 580.387 195.631 579.643 204.312 580.266C226.785 581.879 249.751 577.28 269.679 566.707Z" fill="#35684F"/>
<path d="M277.11 360.399C278.376 357.869 279.784 355.412 281.326 353.04C283.508 363.329 285.373 371.923 285.703 372.828C285.703 372.828 291.021 353.527 295.952 336.32C303.982 329.363 313.335 324.101 323.448 320.847L323.908 336.925L329.89 319.099C336.661 317.54 343.589 316.616 350.211 314.515C357.796 312.107 365.23 307.824 369.102 300.872C370.042 320.336 364.538 339.868 354.257 356.403L323.972 365.096L339.024 375.298C333.761 380.398 327.908 384.852 321.589 388.565C312.477 393.897 302.542 397.699 293.374 402.934C288.122 405.933 281.764 414.503 276.65 416.257C269.636 418.662 269.877 408.693 269.335 403.065C267.934 388.495 270.558 373.508 277.11 360.399Z" fill="#4DB27C"/>
<path d="M145.109 292.114C145.06 289.286 145.17 286.456 145.439 283.64C152.137 291.749 157.769 298.503 158.48 299.152C158.48 299.152 154.257 279.582 150.661 262.047C154.557 252.164 160.41 243.169 167.868 235.602L175.719 249.64L172.768 231.07C178.047 226.554 183.761 222.527 188.657 217.598C194.265 211.952 198.871 204.714 199.085 196.759C208.93 213.575 213.095 233.436 211.638 252.852L188.82 274.58L206.885 276.653C204.582 283.61 201.456 290.268 197.574 296.485C191.967 305.43 184.922 313.4 179.219 322.285C175.952 327.375 174.285 337.915 170.564 341.837C165.461 347.217 161.059 338.269 157.973 333.531C149.985 321.266 145.371 306.767 145.109 292.114Z" fill="#4DB27C"/>
<path d="M189.723 418.447C190.317 414.132 190.667 409.788 190.771 405.434C179.049 416.601 169.204 425.891 167.998 426.754C167.998 426.754 178.037 397.617 186.747 371.476C182.603 355.656 175.306 340.836 165.294 327.905L150.722 347.921L158.635 320.081C151.394 312.211 143.399 305.009 136.819 296.579C129.282 286.922 123.569 275.015 124.701 262.818C106.572 286.716 96.5671 316.308 95.2363 346.249L126.129 383.639L98.1395 383.496C100.385 394.552 103.942 405.301 108.736 415.513C115.667 430.212 124.974 443.685 132.062 458.309C136.123 466.686 136.74 483.101 141.707 489.777C148.521 498.935 156.889 486.066 162.473 479.39C176.93 462.109 186.638 440.794 189.723 418.447Z" fill="#35684F"/>
<path d="M270.98 324.56C270.956 326.081 270.907 327.601 270.832 329.122C270.711 331.677 270.519 334.227 270.255 336.772C270.252 336.772 270.252 336.772 270.255 336.775C270.218 337.126 270.182 337.474 270.143 337.821V337.824C270.106 338.163 270.067 338.499 270.028 338.834L268.277 340.367L267.131 341.368L265.828 342.505L261.955 345.894L254.846 352.111L248.775 357.417L247.94 358.149H247.937L246.749 359.189L246.123 359.736L242.392 362.999L241.025 364.193L238.718 366.213L236.81 367.879L238.679 368.175L246.256 369.37L247.187 369.518L261.964 371.852C261.417 373.285 260.845 374.71 260.249 376.128C260.132 376.415 260.008 376.699 259.887 376.986C259.264 378.438 258.615 379.878 257.939 381.307C257.936 381.316 257.93 381.325 257.927 381.334C257.734 381.742 257.54 382.151 257.341 382.556C257.238 382.77 257.132 382.985 257.029 383.2C256.567 384.137 256.093 385.069 255.608 385.997C255.13 386.916 254.64 387.828 254.136 388.733V388.736C253.319 390.212 252.473 391.67 251.596 393.111C251.405 393.423 251.215 393.734 251.024 394.046C250.622 394.693 250.217 395.337 249.803 395.975C249.64 396.228 249.476 396.479 249.31 396.734C248.908 397.35 248.498 397.964 248.079 398.575C247.974 398.732 247.868 398.889 247.759 399.047C247.169 399.905 246.57 400.757 245.96 401.602C245.482 402.267 244.999 402.927 244.512 403.582C244.17 404.042 243.828 404.498 243.477 404.955C243.072 405.496 242.658 406.037 242.241 406.575C239.804 409.732 237.282 412.828 234.748 415.915C234.18 416.611 233.609 417.306 233.037 418.002C228.731 423.248 224.447 428.509 220.543 434.057C215.669 440.984 212.712 455.631 207.273 460.898C199.813 468.124 194.186 455.34 190.15 448.531C179.7 430.894 174.107 410.334 174.612 389.818C174.71 385.858 175.032 381.906 175.576 377.981C180.105 383.965 184.266 389.437 187.386 393.492C187.988 394.272 188.548 394.997 189.067 395.666C189.557 396.301 190.008 396.881 190.419 397.405L190.422 397.408C190.628 397.674 190.824 397.922 191.009 398.158C192 399.412 192.66 400.217 192.901 400.459C192.901 400.459 192.75 399.585 192.481 398.013C192.378 397.402 192.254 396.685 192.115 395.872C190.606 387.003 187.169 366.721 184.163 348.077C190.202 334.48 198.925 322.243 209.809 312.099L219.963 332.206L218.136 316.432L217.789 313.418L216.936 306.049C223.165 301.163 229.777 296.746 235.876 291.708C236.584 291.125 237.283 290.532 237.974 289.93V289.927C238.646 289.344 239.31 288.749 239.967 288.143C245.292 283.221 250.063 277.328 252.956 270.745C253.325 269.908 253.663 269.06 253.969 268.203C254.965 265.433 255.578 262.541 255.793 259.606C257.537 262.899 259.131 266.26 260.573 269.69C260.848 270.343 261.114 270.993 261.38 271.65V271.652C261.801 272.702 262.208 273.756 262.602 274.815C263.122 276.218 263.618 277.63 264.089 279.051C264.256 279.547 264.419 280.043 264.573 280.542C265.078 282.117 265.552 283.701 265.994 285.292C266.375 286.653 266.732 288.018 267.065 289.389C267.279 290.263 267.485 291.143 267.685 292.023C267.911 293.051 268.128 294.081 268.335 295.113C268.45 295.684 268.56 296.257 268.667 296.83C268.667 296.83 268.67 296.83 268.667 296.833C269.26 300.02 269.739 303.225 270.103 306.448C270.221 307.473 270.324 308.501 270.418 309.529C270.62 311.74 270.77 313.955 270.865 316.175C270.905 317.067 270.935 317.962 270.956 318.854C271.004 320.756 271.013 322.658 270.98 324.56Z" fill="#558D71"/>
<path d="M98.9616 383.503C98.809 384.047 98.6488 384.591 98.486 385.133C98.2622 385.871 98.029 386.604 97.7866 387.333C96.4411 391.382 94.9889 397.73 91.9521 399.862C91.462 400.219 90.8934 400.455 90.2939 400.548C89.2791 400.703 88.1167 400.439 86.7789 399.607C81.7558 396.492 77.071 385.81 72.2056 381.336C63.7134 373.523 54.0537 367.052 45.6429 359.15L45.6043 359.114C44.4289 358 43.4937 356.657 42.856 355.168C42.2184 353.679 41.8919 352.076 41.8965 350.456V336.255L48.8246 333.562C46.7259 332.403 44.9762 330.703 43.7577 328.638C42.5392 326.573 41.8965 324.22 41.8965 321.823V277.733C45.8311 279.544 49.8318 281.222 53.7282 283.109L55.7577 303.56L60.1654 286.543C70.1496 292.474 78.8326 300.361 85.6929 309.731C86.7535 329.266 87.7149 351.126 87.7149 351.126C88.2566 350.292 91.9394 342.456 96.4259 332.781C96.6827 332.229 96.9413 331.672 97.2016 331.11C98.2673 334.013 99.1683 336.974 99.9001 339.979C101.058 344.758 101.79 349.63 102.087 354.539C102.674 364.301 101.617 374.091 98.9616 383.503V383.503Z" fill="#558D71"/>
<path d="M183.573 491.568C181.761 487.648 179.73 483.832 177.488 480.14C173.672 495.737 170.419 508.762 169.872 510.127C169.872 510.127 162.671 480.423 155.963 453.932C144.039 442.936 130.017 434.462 114.738 429.018L113.275 453.53L104.992 426.045C94.7341 423.346 84.2049 421.608 74.2002 418.087C62.74 414.054 51.5995 407.166 46.0199 396.374C43.6627 426.03 51.1361 456.096 66.0407 481.813L111.842 496.515L88.3897 511.368C96.179 519.401 104.899 526.475 114.366 532.44C128.018 541.008 142.997 547.281 156.74 555.704C164.612 560.528 173.908 573.907 181.628 576.826C192.217 580.83 192.322 565.605 193.415 557.043C196.244 534.877 192.951 511.883 183.573 491.568Z" fill="#558D71"/>
<path d="M243.708 612.877C243.702 614.177 243.672 615.477 243.62 616.775C243.608 617.083 243.596 617.395 243.578 617.703C243.454 620.343 243.236 622.976 242.925 625.604C242.668 627.778 242.35 629.942 241.972 632.095C241.812 633.008 241.641 633.919 241.458 634.826C241.228 635.981 240.979 637.131 240.711 638.276C240.518 639.11 240.315 639.945 240.104 640.773C239.952 641.366 239.796 641.956 239.635 642.545C238.955 643.147 238.272 643.75 237.588 644.356C237.137 644.758 236.687 645.154 236.236 645.556H236.233C234.54 647.053 232.838 648.553 231.145 650.044C230.482 650.63 229.82 651.214 229.158 651.794C213.163 665.872 198.426 678.665 198.426 678.665C199.811 678.532 212.177 675.605 226.951 672.037C226.416 672.911 225.869 673.778 225.312 674.638C225.067 675.019 224.816 675.394 224.565 675.769C223.117 677.939 221.591 680.057 219.987 682.121C206.98 698.836 189.077 711.598 169.209 718.852C161.532 721.655 148.684 728.183 147.451 717.537C146.55 709.778 153.758 696.148 154.396 687.431C155.503 672.216 154.269 656.892 155.542 641.689C156.442 631.136 158.6 620.729 161.97 610.688L184.653 623.953L183.232 615.502L182.758 612.666L177.11 579.052C187.289 563.072 200.525 549.26 216.057 538.409C216.271 538.263 216.483 538.115 216.698 537.97C218.14 536.978 219.602 536.016 221.085 535.083C221.412 534.877 221.741 534.671 222.071 534.469C222.884 533.964 223.705 533.468 224.532 532.981C225.164 532.609 225.8 532.241 226.44 531.878C226.893 531.621 227.349 531.367 227.807 531.116C227.808 531.116 227.81 531.116 227.811 531.115C227.813 531.115 227.814 531.114 227.816 531.113C227.994 531.01 228.175 530.913 228.354 530.813C232.22 528.702 236.191 526.79 240.252 525.083C238.502 527.572 237.101 530.288 236.088 533.157C235.789 533.982 235.523 534.82 235.284 535.669C234.631 537.997 234.171 540.374 233.908 542.778V542.781C233.805 543.673 233.728 544.568 233.675 545.466C233.654 545.798 233.636 546.131 233.621 546.461C233.594 547.12 233.576 547.782 233.573 548.441C233.567 549.185 233.575 549.929 233.597 550.672C233.633 552.054 233.721 553.433 233.848 554.803C233.941 555.852 234.059 556.893 234.202 557.926C234.214 558.023 234.229 558.12 234.241 558.216C234.401 559.368 234.583 560.516 234.788 561.66C234.897 562.268 235.01 562.874 235.127 563.477C235.293 564.324 235.466 565.168 235.647 566.008C235.985 567.571 236.345 569.131 236.726 570.686C236.992 571.783 237.266 572.881 237.549 573.978C237.784 574.91 238.023 575.84 238.265 576.769C238.374 577.189 238.48 577.61 238.592 578.03C239.133 580.138 239.674 582.245 240.182 584.358C240.364 585.105 240.542 585.849 240.708 586.596C240.787 586.92 240.86 587.243 240.932 587.566L240.218 588.259L238.187 590.227L237.561 590.832L235.949 592.395L235.632 592.704L235.462 592.867C235.462 592.867 235.462 592.868 235.462 592.868C235.462 592.868 235.462 592.869 235.461 592.869C235.461 592.869 235.461 592.87 235.46 592.87C235.46 592.87 235.46 592.87 235.459 592.87L234.649 593.656L233.793 594.485L229.007 599.123L224.208 603.776L223.924 604.051L222.155 605.766L221.596 606.304C221.596 606.304 221.595 606.304 221.595 606.304C221.594 606.304 221.594 606.304 221.594 606.305C221.594 606.305 221.593 606.305 221.593 606.306C221.593 606.306 221.593 606.306 221.593 606.307L221.421 606.476L222.05 606.195C222.051 606.194 222.052 606.193 222.054 606.193C222.055 606.192 222.057 606.192 222.059 606.192L222.763 605.881L223.613 605.503C223.615 605.502 223.617 605.501 223.619 605.5L227.416 603.818L229.962 602.688L230.108 602.624L232.043 601.766L232.759 601.448L235.278 600.332L235.287 600.329L238.876 598.736L239.653 598.391L242.668 597.055C242.701 597.306 242.737 597.554 242.767 597.805C242.955 599.226 243.114 600.652 243.245 602.083C243.321 602.896 243.386 603.71 243.442 604.523C243.451 604.623 243.457 604.723 243.463 604.819C243.587 606.673 243.664 608.527 243.696 610.383C243.708 611.211 243.714 612.043 243.708 612.877Z" fill="#4DB27C"/>
<path d="M90.8176 399.262C84.7329 375.486 76.042 352.454 64.9028 330.584C64.3796 329.557 62.8338 330.462 63.3563 331.488C74.4201 353.222 83.0505 376.111 89.0905 399.738C89.3759 400.854 91.1038 400.381 90.8176 399.262Z" fill="#18442F"/>
<path d="M156.592 440.146C152.203 416.261 147.813 392.376 143.424 368.491C142.176 361.701 140.928 354.91 139.68 348.119C139.472 346.987 137.745 347.467 137.953 348.595C142.342 372.48 146.732 396.365 151.121 420.25C152.369 427.041 153.617 433.831 154.865 440.622C155.073 441.754 156.8 441.275 156.592 440.146Z" fill="#18442F"/>
<path d="M190.919 238.028C177.134 256.595 168.612 278.536 166.251 301.54C165.573 308.175 165.424 314.854 165.806 321.514C165.871 322.659 167.662 322.667 167.597 321.514C165.913 291.918 174.719 262.676 192.466 238.932C193.156 238.008 191.602 237.114 190.919 238.028Z" fill="#18442F"/>
<path d="M242.101 300.083C239.649 322.126 224.958 340.215 215.934 359.813C206.799 379.715 201.28 401.084 199.636 422.92C198.692 435.421 199.042 447.985 200.681 460.414C200.829 461.54 202.622 461.555 202.472 460.414C199.558 438.202 200.757 415.643 206.008 393.866C208.624 382.983 212.246 372.367 216.826 362.154C221.297 352.213 226.931 342.902 232.083 333.315C237.686 322.888 242.571 311.961 243.892 300.083C244.019 298.94 242.227 298.949 242.101 300.083Z" fill="#18442F"/>
<path d="M335.038 334.981C307.657 355.92 285.805 383.229 271.38 414.535C270.901 415.574 272.444 416.485 272.927 415.439C287.214 384.409 308.842 357.325 335.942 336.528C336.844 335.836 335.953 334.28 335.038 334.981Z" fill="#18442F"/>
<path d="M176.031 558.989C165.368 536.447 152.558 514.985 137.778 494.9C133.657 489.303 129.388 483.819 124.971 478.449C124.239 477.558 122.978 478.831 123.704 479.715C139.415 498.844 153.253 519.436 165.029 541.208C168.349 547.35 171.501 553.578 174.484 559.894C174.977 560.935 176.522 560.027 176.031 558.989Z" fill="#18442F"/>
<path d="M304.021 456.92C287.567 477.805 271.112 498.69 254.658 519.575C250.009 525.475 245.36 531.375 240.712 537.275C240.006 538.171 241.265 539.447 241.978 538.542C258.433 517.657 274.887 496.772 291.342 475.887C295.991 469.987 300.639 464.086 305.288 458.186C305.993 457.29 304.734 456.014 304.021 456.92Z" fill="#18442F"/>
<path d="M137.648 616.307C129.676 592.34 114.161 571.167 93.8874 556.13C88.0289 551.789 81.7872 547.99 75.2398 544.78C74.2089 544.274 73.3001 545.818 74.3359 546.327C96.8258 557.454 115.353 575.224 127.407 597.23C130.826 603.48 133.675 610.023 135.921 616.783C136.283 617.871 138.014 617.405 137.648 616.307Z" fill="#18442F"/>
<path d="M212.297 572.365C205.167 593.956 198.036 615.548 190.905 637.139C184.84 655.501 178.765 674.006 169.733 691.17C164.65 700.83 158.614 709.979 151.309 718.11C150.541 718.965 151.804 720.236 152.576 719.376C165.474 705.02 174.289 687.71 181.311 669.864C189.033 650.24 195.158 629.966 201.768 609.951C205.854 597.581 209.939 585.211 214.025 572.841C214.387 571.744 212.658 571.274 212.297 572.365Z" fill="#18442F"/>
<path d="M223.223 805.981L221.881 814.737L220.254 825.335L218.802 834.796L217.167 845.457L201.789 945.687L200.168 956.267L198.729 965.643H91.6836L90.1081 956.076L88.3635 945.491L72.1145 846.884L70.3638 836.253L68.7949 826.729L67.0529 816.161L65.375 805.981H223.223Z" fill="#FE6F8B"/>
<path d="M221.882 814.737L220.255 825.335C213.446 825.395 206.639 825.458 199.834 825.522C175.261 825.749 150.689 825.976 126.118 826.202C107.009 826.378 87.9015 826.553 68.7963 826.729L67.0547 816.161C76.0681 816.079 85.0815 815.997 94.0949 815.913C118.665 815.686 143.237 815.46 167.811 815.233C185.835 815.066 203.858 814.901 221.882 814.737Z" fill="white"/>
<path d="M218.8 834.796L217.164 845.457C209.62 845.823 202.072 846.141 194.52 846.413C169.89 847.305 145.248 847.716 120.596 847.646C104.431 847.598 88.2702 847.344 72.112 846.884L70.3613 836.253C76.2846 836.429 82.2098 836.575 88.1371 836.692C112.78 837.185 137.424 837.196 162.071 836.725C180.989 836.365 199.899 835.722 218.8 834.796Z" fill="white"/>
<path d="M201.786 945.688L200.166 956.267C196.011 956.261 191.856 956.254 187.699 956.246L90.106 956.077L88.3613 945.491C95.0677 945.503 101.775 945.515 108.484 945.527C139.584 945.582 170.685 945.635 201.786 945.688Z" fill="#DDB891"/>
<path d="M95.4852 859.692C92.7175 859.692 90.066 862.126 90.1939 864.983C90.3223 867.85 92.5188 870.275 95.4852 870.275C98.253 870.275 100.905 867.841 100.777 864.983C100.648 862.116 98.4517 859.692 95.4852 859.692Z" fill="#DDB891"/>
<path d="M122.088 908.298C121.877 907.645 121.5 907.058 120.994 906.595C120.531 906.089 119.944 905.712 119.291 905.501C118.664 905.17 117.96 905.013 117.252 905.045L115.846 905.234C114.963 905.478 114.158 905.947 113.511 906.595C113.235 906.952 112.959 907.309 112.684 907.666C112.209 908.476 111.96 909.398 111.961 910.336V910.79C111.929 911.498 112.086 912.202 112.417 912.829C112.628 913.481 113.005 914.068 113.511 914.531C113.974 915.037 114.561 915.414 115.214 915.625C115.841 915.956 116.544 916.113 117.252 916.081C117.721 916.018 118.19 915.955 118.659 915.892C119.542 915.649 120.347 915.18 120.994 914.531C121.27 914.174 121.546 913.817 121.821 913.461C122.296 912.651 122.545 911.729 122.544 910.79V910.336C122.576 909.628 122.419 908.925 122.088 908.298V908.298Z" fill="white"/>
<path d="M195.055 927.606C194.817 926.967 194.444 926.386 193.961 925.903C193.479 925.421 192.898 925.048 192.258 924.809C191.631 924.479 190.928 924.322 190.22 924.354L188.813 924.543C187.93 924.786 187.125 925.255 186.478 925.903C186.202 926.26 185.927 926.617 185.651 926.974C185.176 927.784 184.927 928.706 184.928 929.645V930.099C184.913 931.14 185.216 932.161 185.797 933.026C186.379 933.89 187.21 934.556 188.181 934.934C188.808 935.265 189.512 935.422 190.22 935.39C190.689 935.327 191.157 935.264 191.626 935.201C192.509 934.957 193.314 934.488 193.961 933.84C194.237 933.483 194.513 933.126 194.789 932.769C195.263 931.959 195.512 931.037 195.511 930.099V929.645C195.543 928.937 195.386 928.233 195.055 927.606V927.606Z" fill="white"/>
<path d="M166.08 861.584C165.869 860.931 165.492 860.344 164.986 859.881C164.523 859.375 163.936 858.998 163.283 858.787C162.656 858.456 161.953 858.299 161.245 858.331L159.838 858.52C158.955 858.764 158.15 859.233 157.503 859.881L156.676 860.952C156.201 861.762 155.952 862.684 155.953 863.623V864.076C155.921 864.784 156.079 865.488 156.409 866.115C156.62 866.767 156.997 867.354 157.503 867.818C157.967 868.323 158.553 868.7 159.206 868.912C159.833 869.242 160.537 869.4 161.245 869.367C161.714 869.304 162.182 869.241 162.651 869.178C163.534 868.935 164.339 868.466 164.986 867.818C165.262 867.461 165.538 867.104 165.814 866.747C166.288 865.937 166.537 865.015 166.536 864.076V863.623C166.568 862.915 166.411 862.211 166.08 861.584V861.584Z" fill="#DDB891"/>
<path d="M177.118 904.59C174.35 904.59 171.699 907.024 171.827 909.882C171.955 912.748 174.152 915.173 177.118 915.173C179.886 915.173 182.537 912.739 182.409 909.882C182.281 907.015 180.084 904.59 177.118 904.59Z" fill="#DDB891"/>
<path d="M134.936 876.473C132.169 876.473 129.517 878.906 129.645 881.764C129.773 884.631 131.97 887.055 134.936 887.055C137.704 887.055 140.356 884.622 140.228 881.764C140.099 878.897 137.903 876.473 134.936 876.473Z" fill="white"/>
<path d="M200.706 855.158C197.938 855.158 195.287 857.591 195.415 860.449C195.543 863.316 197.74 865.74 200.706 865.74C203.474 865.74 206.125 863.307 205.997 860.449C205.869 857.582 203.672 855.158 200.706 855.158Z" fill="#DDB891"/>
<path d="M158.822 926.438C158.611 925.785 158.234 925.198 157.728 924.735C157.265 924.229 156.678 923.852 156.025 923.641C155.399 923.31 154.695 923.153 153.987 923.185C153.518 923.248 153.049 923.311 152.58 923.374C151.697 923.618 150.893 924.087 150.245 924.735C149.969 925.092 149.694 925.449 149.418 925.806C148.943 926.616 148.694 927.538 148.695 928.476V929.384C148.663 930.092 148.821 930.795 149.151 931.422C149.362 932.075 149.739 932.662 150.245 933.125C150.709 933.631 151.295 934.008 151.948 934.219C152.575 934.55 153.279 934.707 153.987 934.675L155.393 934.486C156.277 934.242 157.081 933.773 157.728 933.125C158.004 932.768 158.28 932.411 158.556 932.054C159.03 931.244 159.28 930.322 159.278 929.384V928.476C159.31 927.768 159.153 927.065 158.822 926.438V926.438Z" fill="#DDB891"/>
<path d="M103.947 930.519C103.736 929.867 103.359 929.28 102.853 928.817C102.39 928.311 101.803 927.934 101.15 927.722C100.524 927.392 99.8198 927.235 99.1118 927.267L97.7052 927.456C96.8222 927.699 96.0176 928.168 95.3703 928.817C95.0945 929.173 94.8187 929.53 94.5429 929.887C94.0684 930.697 93.819 931.619 93.8205 932.558V933.012C93.7884 933.72 93.9457 934.423 94.2762 935.05C94.4875 935.703 94.8645 936.29 95.3703 936.753C95.8338 937.259 96.4205 937.636 97.0732 937.847C97.7001 938.178 98.4039 938.335 99.1118 938.303C99.5807 938.24 100.05 938.177 100.518 938.114C101.402 937.87 102.206 937.401 102.853 936.753C103.129 936.396 103.405 936.039 103.681 935.682C104.155 934.872 104.405 933.95 104.403 933.012V932.558C104.435 931.85 104.278 931.146 103.947 930.519V930.519Z" fill="#DDB891"/>
<path d="M740.122 335.097C737.146 309.859 725.777 285.29 704.525 270.46C694.721 263.619 683.212 259.084 671.258 258.094C670.808 258.056 670.358 258.026 669.905 258C669.335 257.83 668.763 257.665 668.188 257.507C668.043 257.461 667.886 257.465 667.744 257.52C667.602 257.574 667.482 257.676 667.405 257.807C667.363 257.713 667.301 257.628 667.225 257.559C667.148 257.49 667.058 257.438 666.959 257.405C666.861 257.373 666.758 257.362 666.655 257.372C666.552 257.382 666.452 257.413 666.362 257.464C666.655 238.592 666.946 219.72 667.235 200.846C667.286 197.578 668.259 3.96132 668.31 0.693115H666.215C665.938 18.6212 665.561 226.895 665.286 244.823C665.22 249.18 665.153 253.537 665.086 257.894L665.052 257.927C655.314 258.252 645.784 260.836 637.216 265.475C629.004 269.907 621.68 275.813 615.61 282.9C613.959 284.812 612.403 286.798 610.943 288.856C603.295 299.625 598.401 312.217 595.754 325.109C589.919 353.503 594.986 382.563 602.262 410.192C603.221 413.831 604.213 417.461 605.238 421.08C605.282 421.255 605.394 421.406 605.548 421.499C605.575 421.66 605.66 421.806 605.787 421.908C605.914 422.01 606.075 422.062 606.238 422.054L675.529 421.268C675.663 421.391 675.838 421.458 676.02 421.456C676.202 421.454 676.376 421.383 676.508 421.258L700.558 420.986C707.259 420.909 713.963 420.833 720.668 420.757C720.742 420.851 720.837 420.927 720.945 420.979C721.054 421.031 721.173 421.058 721.293 421.056C721.413 421.055 721.531 421.026 721.638 420.972C721.746 420.918 721.839 420.84 721.911 420.744C723.58 420.724 725.249 420.705 726.919 420.688C728.008 420.673 727.848 418.73 726.427 419.331L726.317 419.223C731.858 404.19 736.599 388.553 739.089 372.647C741.032 360.243 741.607 347.674 740.122 335.097ZM606.624 420.579C598.958 393.271 592.3 364.897 595.464 336.358C597.59 317.181 604.434 298.254 616.915 283.711C620.867 279.087 625.375 274.969 630.338 271.452C639.672 264.852 650.624 260.422 662.069 259.537C642.581 270.81 626.691 287.382 616.246 307.326C604.671 329.461 600.764 354.943 604.686 379.582C606.961 393.949 611.888 407.767 619.216 420.332C619.238 420.368 619.263 420.402 619.29 420.434L606.624 420.579ZM632.602 420.284L620.399 420.421C620.506 420.313 620.573 420.172 620.589 420.02C620.604 419.869 620.568 419.717 620.485 419.589C607.606 397.577 602.369 371.37 605.564 346.081C608.092 326.048 616.177 306.985 628.41 291C630.509 288.259 632.726 285.612 635.061 283.06C643.267 274.086 652.834 266.46 663.412 260.462C649.149 275.548 638.167 293.427 631.16 312.97C623.287 335.093 620.786 358.772 623.863 382.052C625.594 395.19 629.062 408.041 634.176 420.266L632.602 420.284ZM635.73 420.248C635.719 420.194 635.702 420.141 635.679 420.09C626.419 398.09 622.601 374.18 624.547 350.39C626.078 332.178 631.009 314.415 639.085 298.02C640.845 294.431 642.749 290.916 644.797 287.475C650.475 277.944 657.212 269.084 664.88 261.065C664.864 261.172 664.871 261.282 664.902 261.385C664.915 261.431 664.928 261.477 664.941 261.523C664.925 261.564 664.91 261.607 664.895 261.647C664.727 261.674 664.573 261.755 664.456 261.879C664.34 262.003 664.269 262.162 664.254 262.332C664.208 262.8 664.167 263.268 664.122 263.736C658.97 277.729 654.851 292.081 651.799 306.677C650.792 311.497 649.902 316.341 649.129 321.21C645.795 342.154 644.634 363.387 645.665 384.57C646.252 396.476 647.537 408.338 649.515 420.093C644.919 420.144 640.324 420.195 635.73 420.248V420.248ZM650.924 420.075C650.954 419.966 650.959 419.851 650.939 419.739C644.732 382.542 645.468 344.517 653.109 307.588C654.058 302.997 655.111 298.429 656.27 293.882C658.356 285.713 660.786 277.643 663.562 269.674C662.255 284.026 661.248 298.402 660.543 312.802C660.36 316.523 660.199 320.245 660.06 323.967C659.279 344.548 659.121 365.14 659.584 385.742C659.839 397.157 660.286 408.564 660.927 419.963C657.593 420.001 654.258 420.039 650.924 420.075V420.075ZM675.333 419.8C671.022 419.849 666.71 419.897 662.397 419.945C661.268 399.629 660.737 379.292 660.805 358.933C660.861 343.887 661.248 328.847 661.967 313.814C662.232 308.27 662.541 302.728 662.896 297.191C663.603 286.137 664.49 275.099 665.559 264.076C665.574 264.033 665.589 263.99 665.607 263.944C670.898 283.282 674.665 303.005 676.874 322.932C676.94 323.53 677.004 324.127 677.065 324.725C679.195 344.827 679.741 365.064 678.7 385.252C678.102 396.811 676.98 408.327 675.333 419.8V419.8ZM688.726 419.648C684.753 419.694 680.781 419.739 676.81 419.783C679.718 399.401 680.991 378.819 680.618 358.234C680.417 347.435 679.764 336.656 678.659 325.897C677.627 315.788 676.195 305.73 674.364 295.726C672.26 284.23 669.633 272.848 666.482 261.581C666.489 261.564 666.497 261.543 666.505 261.523C679.722 273.474 684.115 292.063 686.684 309.078C687.938 317.385 688.937 325.728 689.682 334.107C691.035 349.308 691.572 364.571 691.292 379.829C691.053 393.08 690.199 406.299 688.729 419.485C688.721 419.539 688.72 419.594 688.726 419.648V419.648ZM690.168 419.633C690.183 419.584 690.194 419.535 690.201 419.485C692.854 395.613 693.499 371.56 692.129 347.58C691.892 343.477 691.597 339.379 691.244 335.285C690.565 327.452 689.672 319.64 688.566 311.851C687.223 302.389 685.529 292.91 682.314 283.881C679.255 275.3 674.73 267.192 668.066 260.958C677.174 263.621 685.084 269.349 691.226 276.546C698.599 285.186 703.195 295.815 706.209 306.677C709.449 318.351 711.214 330.496 712.132 342.559C712.366 345.606 712.534 348.656 712.636 351.71C713.439 374.586 710.67 397.447 704.431 419.47C699.678 419.523 694.923 419.577 690.168 419.633V419.633ZM720.876 419.284C715.904 419.34 710.934 419.396 705.965 419.452C712.037 397.804 714.796 375.362 714.149 352.888C714.078 350.456 713.967 348.026 713.816 345.598C713.05 333.334 711.39 321.007 708.371 309.089C705.545 297.926 701.214 286.944 694.113 277.777C687.469 269.204 678.451 262.301 667.929 259.389C668.506 259.407 669.084 259.43 669.658 259.463C690.407 265.73 707.15 281.241 717.776 299.874C729.356 320.175 733.049 343.617 731.66 366.711C731.513 369.165 731.309 371.612 731.05 374.053C729.417 389.458 725.714 404.586 720.876 419.284V419.284ZM728.311 409.184C727.189 412.509 726.018 415.814 724.798 419.101C724.782 419.146 724.77 419.193 724.763 419.241C723.984 419.248 723.206 419.257 722.428 419.266C727.868 402.661 731.881 385.315 733.069 367.832C733.825 357.401 733.43 346.919 731.889 336.574C728.359 313.547 717.735 291.466 700.441 275.616C693.355 269.065 685.147 263.845 676.21 260.205C683.487 261.47 690.502 263.936 696.969 267.505C707.647 273.393 716.74 281.778 723.473 291.944C730.539 302.57 735.061 314.714 737.439 327.215C740.241 341.956 739.964 356.873 737.746 371.571C735.819 384.361 732.421 396.984 728.311 409.184V409.184Z" fill="#BC7123"/>
<path d="M939.493 350.96C993.453 350.96 1037.2 307.216 1037.2 253.256C1037.2 199.296 993.453 155.553 939.493 155.553C885.532 155.553 841.789 199.296 841.789 253.256C841.789 307.216 885.532 350.96 939.493 350.96Z" fill="#FDD076"/>
<path d="M1039.13 210.871C1028.19 184.821 1007.56 164.042 981.584 152.921C961.759 144.489 939.858 142.206 918.719 146.367C897.581 150.528 878.179 160.942 863.029 176.259C850.463 188.888 841.18 204.401 835.988 221.443C830.797 238.485 829.855 256.539 833.245 274.029C836.634 291.518 844.253 307.913 855.436 321.781C866.619 335.65 881.026 346.571 897.4 353.591C917.225 362.023 939.126 364.306 960.264 360.145C981.403 355.984 1000.8 345.57 1015.96 330.253C1031.17 314.865 1041.49 295.316 1045.62 274.071C1049.74 252.826 1047.48 230.835 1039.13 210.871V210.871ZM939.492 359.609C881.27 359.609 833.902 311.898 833.902 253.256C833.902 194.614 881.27 146.903 939.492 146.903C997.714 146.903 1045.08 194.614 1045.08 253.256C1045.08 311.898 997.714 359.609 939.492 359.609Z" fill="#FDD076"/>
<path d="M941.228 160.224C941.176 157.773 937.361 157.764 937.413 160.224C937.545 166.499 937.678 172.773 937.811 179.047C937.863 181.499 941.678 181.507 941.626 179.047C941.493 172.773 941.36 166.499 941.228 160.224Z" fill="#C37F39"/>
<path d="M1031.69 248.436L1015.93 247.878C1013.47 247.792 1013.47 251.607 1015.93 251.693C1021.18 251.879 1026.44 252.065 1031.69 252.251C1034.15 252.338 1034.15 248.522 1031.69 248.436Z" fill="#C37F39"/>
<path d="M943.312 325.545V344.366C943.312 346.821 947.128 346.825 947.128 344.366V325.545C947.128 323.09 943.312 323.086 943.312 325.545Z" fill="#C37F39"/>
<path d="M870.437 246.556L847.55 247.18C845.1 247.247 845.09 251.062 847.55 250.995L870.437 250.371C872.887 250.304 872.897 246.489 870.437 246.556Z" fill="#C37F39"/>
<path d="M991.228 293.8L942.735 253.309C942.48 253.092 942.174 252.942 941.846 252.874C941.46 238.268 941.075 223.662 940.689 209.056C940.624 206.606 936.809 206.596 936.874 209.056C937.264 223.811 937.653 238.565 938.043 253.32C938.041 253.729 938.178 254.126 938.431 254.447C938.684 254.769 939.039 254.994 939.438 255.087C939.53 255.452 939.741 255.775 940.037 256.007C956.202 269.504 972.366 283.001 988.53 296.498C990.402 298.061 993.115 295.376 991.228 293.8Z" fill="#C37F39"/>
<path d="M1222.05 790.292C1224.75 791.085 1227.26 792.433 1229.41 794.252C1231.56 796.07 1233.3 798.318 1234.53 800.851C1234.88 801.585 1233.79 802.231 1233.43 801.493C1232.29 799.103 1230.65 796.98 1228.63 795.262C1226.61 793.543 1224.26 792.268 1221.71 791.519C1220.93 791.289 1221.26 790.061 1222.05 790.292Z" fill="#4D2C13"/>
<path d="M1231.02 774.214C1234.23 775.597 1237.44 776.981 1240.65 778.364C1241.4 778.687 1240.75 779.783 1240.01 779.462C1236.8 778.079 1233.59 776.695 1230.38 775.312C1229.63 774.989 1230.27 773.893 1231.02 774.214Z" fill="#4D2C13"/>
<path d="M1123.19 737.035L997.546 726.353L997.037 735.509L1024.51 740.596L1013.82 942.537H1030.1L1054.01 741.613L1078.93 745.174L1139.97 943.046L1152.69 942.537L1107.42 748.225L1122.68 749.243L1123.19 737.035Z" fill="#A87546"/>
<path d="M1005.81 728.897V736.527C1005.8 736.692 1005.73 736.848 1005.61 736.963C1005.5 737.077 1005.34 737.141 1005.17 737.141C1005.01 737.141 1004.85 737.077 1004.73 736.963C1004.61 736.848 1004.54 736.692 1004.54 736.527V728.897C1004.54 728.732 1004.61 728.576 1004.73 728.461C1004.85 728.347 1005.01 728.283 1005.17 728.283C1005.34 728.283 1005.5 728.347 1005.61 728.461C1005.73 728.576 1005.8 728.732 1005.81 728.897V728.897Z" fill="#4D2C13"/>
<path d="M1022.38 860.028C1024.31 835.241 1026.24 810.454 1028.17 785.668C1029.25 771.673 1030.34 757.677 1031.43 743.682C1031.49 742.872 1032.77 742.865 1032.7 743.682C1030.78 768.469 1028.85 793.256 1026.92 818.042C1024.99 842.829 1023.06 867.615 1021.14 892.402C1020.05 906.397 1018.96 920.392 1017.87 934.387C1017.81 935.198 1016.54 935.205 1016.6 934.387C1018.53 909.601 1020.46 884.814 1022.38 860.028Z" fill="#4D2C13"/>
<path d="M1086.71 746.155C1092.78 767.567 1098.85 788.979 1104.92 810.392C1110.99 831.804 1117.07 853.216 1123.14 874.628C1126.55 886.678 1129.97 898.727 1133.39 910.777C1133.43 910.937 1133.4 911.106 1133.32 911.248C1133.23 911.39 1133.1 911.494 1132.94 911.538C1132.78 911.582 1132.61 911.562 1132.46 911.483C1132.32 911.404 1132.21 911.272 1132.16 911.115C1126.09 889.702 1120.02 868.29 1113.95 846.878C1107.87 825.466 1101.8 804.054 1095.73 782.641C1092.31 770.592 1088.9 758.543 1085.48 746.493C1085.44 746.333 1085.47 746.164 1085.55 746.022C1085.64 745.88 1085.77 745.776 1085.93 745.732C1086.09 745.688 1086.26 745.708 1086.4 745.787C1086.55 745.866 1086.66 745.998 1086.71 746.155V746.155Z" fill="#4D2C13"/>
<path d="M1136.43 913.906C1138.62 921.709 1140.81 929.513 1143 937.317C1143.04 937.477 1143.01 937.646 1142.93 937.788C1142.85 937.93 1142.71 938.034 1142.55 938.078C1142.39 938.122 1142.22 938.102 1142.08 938.023C1141.93 937.945 1141.82 937.812 1141.77 937.655L1135.21 914.244C1135.17 914.083 1135.19 913.914 1135.28 913.772C1135.36 913.63 1135.5 913.526 1135.66 913.482C1135.82 913.439 1135.99 913.458 1136.13 913.537C1136.28 913.616 1136.38 913.748 1136.43 913.906V913.906Z" fill="#4D2C13"/>
<path d="M1078.93 744.028H1085.04C1085.2 744.034 1085.36 744.103 1085.47 744.222C1085.59 744.34 1085.65 744.499 1085.65 744.664C1085.65 744.829 1085.59 744.987 1085.47 745.106C1085.36 745.224 1085.2 745.294 1085.04 745.3H1078.93C1078.77 745.294 1078.61 745.224 1078.5 745.106C1078.38 744.987 1078.32 744.829 1078.32 744.664C1078.32 744.499 1078.38 744.34 1078.5 744.222C1078.61 744.103 1078.77 744.034 1078.93 744.028Z" fill="#4D2C13"/>
<path d="M1026.5 739.756L1054.52 740.981C1055.33 741.017 1055.34 742.288 1054.52 742.253L1026.5 741.028C1025.69 740.992 1025.68 739.72 1026.5 739.756Z" fill="#4D2C13"/>
<path d="M1201.72 623.316C1180.15 622.61 1156.86 624.2 1140.05 637.729C1129.92 645.879 1123.22 657.661 1119.1 669.991C1114.98 682.32 1113.24 695.298 1111.52 708.184C1108.36 731.95 1105.19 755.716 1102.03 779.483C1100.74 789.163 1099.63 799.759 1104.85 808.017C1110.23 816.542 1120.78 820.047 1130.63 822.216C1154.79 827.528 1179.71 828.5 1204.21 825.088C1217.89 823.177 1231.84 819.684 1242.73 811.195C1260.33 797.479 1266.39 773.927 1270.84 752.059C1276.84 722.515 1282.29 692.209 1281.71 661.94C1281.31 641.154 1273.14 631.51 1252.56 628.168C1235.73 625.466 1218.75 623.846 1201.72 623.316V623.316Z" fill="#FDD076"/>
<path d="M1031.67 793.26C1023.81 793.127 1019.7 793.105 1013.36 799.364C1008.91 803.752 1007.42 817.38 1010.06 823.892C1011.88 828.4 1015.69 830.677 1019.32 832.286C1047.9 844.981 1076.6 837.337 1106.58 840.956C1115.01 841.972 1126.32 841.77 1134.19 837.616C1151.53 828.47 1135.36 802.764 1123.45 799.897C1117.06 798.359 1111.37 791.668 1104.92 791.565C1094.5 791.398 1043.33 793.458 1031.67 793.26Z" fill="#FDD076"/>
<path d="M1144.78 685.187C1146.07 687.002 1148.5 687.146 1150.23 685.876C1152.03 684.56 1152.63 682.073 1151.15 680.283C1149.82 678.675 1147.38 678.166 1145.6 679.293C1145.48 679.426 1145.34 679.536 1145.18 679.617C1143.68 681.071 1143.59 683.504 1144.78 685.187ZM1146.08 680.517C1146.1 680.486 1146.12 680.459 1146.15 680.438C1146.18 680.416 1146.21 680.4 1146.24 680.391C1146.85 680.03 1147.56 679.89 1148.26 679.997C1148.96 680.103 1149.6 680.448 1150.07 680.973C1151.21 682.21 1150.74 683.944 1149.45 684.868C1146.55 686.961 1143.76 682.76 1146.08 680.517V680.517Z" fill="#4D2C13"/>
<path d="M1149.67 676.217C1151.7 672.15 1153.74 668.082 1155.78 664.015C1156.15 663.283 1157.25 663.926 1156.88 664.657C1154.84 668.724 1152.8 672.792 1150.76 676.859C1150.4 677.591 1149.3 676.947 1149.67 676.217Z" fill="#4D2C13"/>
<path d="M1147.73 669.382V675.995C1147.73 676.16 1147.66 676.316 1147.54 676.431C1147.42 676.545 1147.26 676.609 1147.09 676.609C1146.93 676.609 1146.77 676.545 1146.65 676.431C1146.53 676.316 1146.46 676.16 1146.46 675.995V669.382C1146.46 669.217 1146.53 669.061 1146.65 668.947C1146.77 668.832 1146.93 668.768 1147.09 668.768C1147.26 668.768 1147.42 668.832 1147.54 668.947C1147.66 669.061 1147.73 669.217 1147.73 669.382Z" fill="#4D2C13"/>
<path d="M1139.03 670.054C1140.86 672.962 1142.68 675.871 1144.5 678.779C1144.94 679.474 1143.84 680.113 1143.41 679.421C1141.58 676.513 1139.76 673.604 1137.93 670.696C1137.5 670.001 1138.6 669.362 1139.03 670.054Z" fill="#4D2C13"/>
<path d="M1154.91 680.532C1156.44 679.684 1157.96 678.837 1159.49 677.989C1160.21 677.591 1160.85 678.689 1160.13 679.087C1158.61 679.935 1157.08 680.782 1155.55 681.63C1154.84 682.028 1154.2 680.93 1154.91 680.532Z" fill="#4D2C13"/>
<path d="M1134.56 690.706C1137.11 688.841 1139.65 686.976 1142.19 685.111C1142.85 684.627 1143.49 685.73 1142.84 686.209C1140.29 688.074 1137.75 689.939 1135.21 691.804C1134.54 692.289 1133.91 691.186 1134.56 690.706Z" fill="#4D2C13"/>
<path d="M1151.27 688.033L1154.32 698.206C1154.56 698.992 1153.33 699.327 1153.1 698.544C1152.08 695.153 1151.06 691.762 1150.05 688.371C1149.81 687.586 1151.04 687.25 1151.27 688.033Z" fill="#4D2C13"/>
<path d="M1208.37 684.679C1209.66 686.493 1212.08 686.637 1213.82 685.368C1215.62 684.051 1216.22 681.564 1214.74 679.774C1213.41 678.166 1210.97 677.657 1209.19 678.784C1209.07 678.917 1208.93 679.027 1208.77 679.109C1207.26 680.562 1207.17 682.995 1208.37 684.679ZM1209.67 680.008C1209.69 679.977 1209.71 679.951 1209.74 679.929C1209.76 679.908 1209.79 679.892 1209.83 679.882C1210.43 679.521 1211.15 679.382 1211.85 679.488C1212.54 679.594 1213.18 679.939 1213.66 680.464C1214.8 681.702 1214.32 683.435 1213.04 684.36C1210.13 686.452 1207.34 682.251 1209.67 680.008V680.008Z" fill="#4D2C13"/>
<path d="M1213.25 675.708C1215.29 671.641 1217.33 667.573 1219.37 663.506C1219.73 662.774 1220.83 663.417 1220.46 664.147C1218.42 668.215 1216.39 672.282 1214.35 676.35C1213.98 677.082 1212.88 676.438 1213.25 675.708Z" fill="#4D2C13"/>
<path d="M1211.31 668.874V675.487C1211.31 675.651 1211.24 675.808 1211.12 675.922C1211 676.037 1210.84 676.101 1210.68 676.101C1210.51 676.101 1210.35 676.037 1210.23 675.922C1210.12 675.808 1210.05 675.651 1210.04 675.487V668.874C1210.05 668.709 1210.12 668.553 1210.23 668.438C1210.35 668.324 1210.51 668.26 1210.68 668.26C1210.84 668.26 1211 668.324 1211.12 668.438C1211.24 668.553 1211.31 668.709 1211.31 668.874V668.874Z" fill="#4D2C13"/>
<path d="M1202.62 669.547C1204.44 672.456 1206.27 675.364 1208.09 678.272C1208.53 678.968 1207.43 679.607 1206.99 678.914C1205.17 676.006 1203.34 673.097 1201.52 670.189C1201.08 669.494 1202.18 668.855 1202.62 669.547Z" fill="#4D2C13"/>
<path d="M1218.5 680.024C1220.02 679.177 1221.55 678.329 1223.07 677.481C1223.79 677.083 1224.43 678.181 1223.72 678.579C1222.19 679.427 1220.66 680.275 1219.14 681.122C1218.42 681.52 1217.78 680.422 1218.5 680.024Z" fill="#4D2C13"/>
<path d="M1198.15 690.198C1200.69 688.333 1203.24 686.467 1205.78 684.602C1206.44 684.118 1207.08 685.221 1206.42 685.7C1203.88 687.565 1201.33 689.431 1198.79 691.296C1198.13 691.78 1197.5 690.677 1198.15 690.198Z" fill="#4D2C13"/>
<path d="M1214.85 687.525L1217.91 697.698C1218.14 698.484 1216.91 698.82 1216.68 698.037C1215.66 694.645 1214.64 691.254 1213.63 687.863C1213.39 687.078 1214.62 686.742 1214.85 687.525Z" fill="#4D2C13"/>
<path d="M1186.26 761.96C1187.55 763.774 1189.98 763.918 1191.71 762.649C1193.51 761.333 1194.11 758.845 1192.63 757.055C1191.3 755.447 1188.86 754.938 1187.08 756.065C1186.96 756.199 1186.82 756.309 1186.66 756.39C1185.15 757.844 1185.06 760.276 1186.26 761.96ZM1187.56 757.289C1187.58 757.259 1187.6 757.232 1187.63 757.21C1187.66 757.189 1187.69 757.173 1187.72 757.164C1188.33 756.802 1189.04 756.663 1189.74 756.769C1190.44 756.875 1191.08 757.22 1191.55 757.745C1192.69 758.983 1192.22 760.716 1190.93 761.641C1188.03 763.733 1185.23 759.533 1187.56 757.289V757.289Z" fill="#4D2C13"/>
<path d="M1191.15 752.989C1193.19 748.922 1195.23 744.854 1197.27 740.787C1197.63 740.055 1198.73 740.698 1198.36 741.429L1192.25 753.631C1191.88 754.363 1190.78 753.719 1191.15 752.989Z" fill="#4D2C13"/>
<path d="M1189.21 746.154V752.767C1189.21 752.932 1189.14 753.088 1189.02 753.202C1188.9 753.317 1188.74 753.381 1188.58 753.381C1188.41 753.381 1188.25 753.317 1188.13 753.202C1188.01 753.088 1187.95 752.932 1187.94 752.767V746.154C1187.95 745.989 1188.01 745.833 1188.13 745.719C1188.25 745.604 1188.41 745.54 1188.58 745.54C1188.74 745.54 1188.9 745.604 1189.02 745.719C1189.14 745.833 1189.21 745.989 1189.21 746.154V746.154Z" fill="#4D2C13"/>
<path d="M1180.51 746.827C1182.33 749.736 1184.16 752.644 1185.98 755.553C1186.42 756.248 1185.32 756.887 1184.88 756.194C1183.06 753.286 1181.24 750.378 1179.41 747.469C1178.98 746.774 1180.08 746.135 1180.51 746.827Z" fill="#4D2C13"/>
<path d="M1196.39 757.305C1197.92 756.457 1199.44 755.609 1200.97 754.761C1201.68 754.363 1202.33 755.461 1201.61 755.859C1200.08 756.707 1198.56 757.555 1197.03 758.403C1196.31 758.8 1195.67 757.703 1196.39 757.305Z" fill="#4D2C13"/>
<path d="M1176.04 767.478C1178.59 765.613 1181.13 763.748 1183.67 761.883C1184.33 761.398 1184.97 762.501 1184.31 762.981C1181.77 764.846 1179.23 766.711 1176.68 768.576C1176.02 769.06 1175.39 767.957 1176.04 767.478Z" fill="#4D2C13"/>
<path d="M1192.75 764.806L1195.8 774.979C1196.03 775.765 1194.81 776.1 1194.57 775.317C1193.56 771.926 1192.54 768.535 1191.52 765.144C1191.28 764.358 1192.51 764.023 1192.75 764.806Z" fill="#4D2C13"/>
<path d="M1229.65 748.744C1228.25 764.041 1226.71 781.517 1214.38 790.673C1206.42 796.581 1195.88 797.359 1185.98 797.694C1169.07 798.266 1152.15 798.188 1135.23 797.459C1124.11 796.98 1112.72 796.25 1102.07 799.484C1091.42 802.718 1081.47 810.912 1079.68 821.9C1078.87 826.859 1079.93 832.321 1083.4 835.957C1087.97 840.747 1095.3 841.312 1101.91 841.573C1153.1 843.587 1204.3 845.601 1255.49 847.616C1261.38 847.848 1267.58 848.016 1272.83 845.312C1282.79 840.173 1285.23 827.258 1286.29 816.097C1291.35 762.948 1291.35 709.463 1291.34 656.075C1291.34 651.385 1291.3 646.514 1289.27 642.284C1285.71 634.837 1275.69 629.992 1267.59 630.53C1260.19 631.021 1257.64 636.741 1255.11 642.917C1246.38 664.25 1239.91 686.666 1235.39 709.254C1232.78 722.306 1230.86 735.488 1229.65 748.744V748.744Z" fill="#DDB891"/>
<path d="M1229.2 783.612C1244.18 788.358 1257.49 797.284 1267.58 809.338C1268.1 809.963 1267.2 810.867 1266.68 810.238C1256.75 798.341 1243.63 789.529 1228.86 784.839C1228.08 784.593 1228.41 783.365 1229.2 783.612Z" fill="#4D2C13"/>
<path d="M1258.39 634.864C1260.91 633.028 1263.8 631.779 1266.86 631.207C1269.93 630.636 1273.08 630.757 1276.09 631.561C1279.09 632.365 1281.88 633.833 1284.25 635.856C1286.62 637.878 1288.51 640.406 1289.77 643.252C1290.11 643.992 1289.01 644.639 1288.67 643.894C1287.52 641.324 1285.84 639.025 1283.74 637.148C1281.64 635.271 1279.16 633.857 1276.48 632.998C1270.57 631.16 1264.03 632.374 1259.03 635.962C1258.37 636.44 1257.73 635.337 1258.39 634.864Z" fill="#4D2C13"/>
<path d="M1251.37 738.052L1125.73 727.37L1125.22 736.526L1152.69 741.613L1142.01 943.555H1158.29L1182.2 742.63L1207.12 746.191L1268.16 944.063L1280.88 943.555L1235.61 749.243L1250.87 750.26L1251.37 738.052Z" fill="#C37F39"/>
<path d="M1150.57 861.045C1152.5 836.258 1154.43 811.472 1156.35 786.685C1157.44 772.69 1158.53 758.695 1159.62 744.699C1159.68 743.889 1160.95 743.882 1160.89 744.699C1158.96 769.486 1157.04 794.273 1155.11 819.059C1153.18 843.846 1151.25 868.633 1149.32 893.419C1148.24 907.414 1147.15 921.409 1146.06 935.405C1146 936.215 1144.72 936.222 1144.79 935.405C1146.72 910.618 1148.64 885.831 1150.57 861.045Z" fill="#4D2C13"/>
<path d="M1214.89 747.172C1220.96 768.584 1227.03 789.996 1233.11 811.409C1239.18 832.821 1245.25 854.233 1251.32 875.645C1254.74 887.695 1258.16 899.744 1261.57 911.794C1261.61 911.954 1261.58 912.123 1261.5 912.265C1261.42 912.407 1261.28 912.511 1261.12 912.555C1260.96 912.599 1260.79 912.579 1260.65 912.5C1260.5 912.421 1260.4 912.289 1260.35 912.132C1254.27 890.719 1248.2 869.307 1242.13 847.895C1236.06 826.483 1229.99 805.071 1223.91 783.658C1220.5 771.609 1217.08 759.56 1213.66 747.51C1213.63 747.35 1213.65 747.181 1213.74 747.039C1213.82 746.897 1213.95 746.793 1214.11 746.749C1214.27 746.705 1214.44 746.725 1214.59 746.804C1214.73 746.883 1214.84 747.015 1214.89 747.172V747.172Z" fill="#4D2C13"/>
<path d="M1264.62 914.924C1266.81 922.728 1269 930.532 1271.19 938.335C1271.23 938.496 1271.2 938.665 1271.12 938.807C1271.03 938.949 1270.9 939.053 1270.74 939.097C1270.58 939.141 1270.41 939.121 1270.26 939.042C1270.12 938.963 1270.01 938.831 1269.96 938.673L1263.39 915.262C1263.36 915.102 1263.38 914.933 1263.47 914.791C1263.55 914.649 1263.69 914.545 1263.84 914.501C1264 914.457 1264.17 914.477 1264.32 914.556C1264.46 914.635 1264.57 914.767 1264.62 914.924V914.924Z" fill="#4D2C13"/>
<path d="M1207.12 745.047H1213.22C1213.39 745.053 1213.55 745.122 1213.66 745.241C1213.77 745.359 1213.84 745.518 1213.84 745.683C1213.84 745.848 1213.77 746.006 1213.66 746.125C1213.55 746.243 1213.39 746.313 1213.22 746.319H1207.12C1206.96 746.313 1206.8 746.243 1206.68 746.125C1206.57 746.006 1206.51 745.848 1206.51 745.683C1206.51 745.518 1206.57 745.359 1206.68 745.241C1206.8 745.122 1206.96 745.053 1207.12 745.047V745.047Z" fill="#4D2C13"/>
<path d="M1154.69 740.773L1182.7 741.998C1183.51 742.034 1183.52 743.306 1182.7 743.27C1173.36 742.861 1164.02 742.453 1154.69 742.045C1153.87 742.009 1153.87 740.737 1154.69 740.773Z" fill="#4D2C13"/>
<path d="M674.479 646.678L647.209 712.231L649.307 721.671L679.199 648.776L674.479 646.678Z" fill="#25110E"/>
<path d="M570.117 724.293L649.305 721.67L647.208 712.231L574.837 711.707L570.117 724.293Z" fill="#25110E"/>
<path d="M420.9 728.667H882.191V721.325H420.9V728.667Z" fill="#A87546"/>
<path d="M559.407 735.485H744.197V727.094H559.407V735.485Z" fill="#A87546"/>
<path d="M646.139 947.352H656.104V734.435H646.139V947.352Z" fill="#A87546"/>
<path d="M695.738 941.097H604.178V947.249H695.738V941.097Z" fill="#A87546"/>
<path d="M742.978 726.96C696.846 727.093 650.714 727.226 604.582 727.359C591.559 727.397 578.536 727.435 565.513 727.472C563.378 727.478 563.373 728.75 565.513 728.744C611.645 728.611 657.777 728.478 703.91 728.345C716.933 728.307 729.955 728.27 742.978 728.232C745.113 728.226 745.118 726.954 742.978 726.96Z" fill="#4D2C13"/>
<path d="M654.709 735.307C652.109 735.406 649.509 735.504 646.908 735.603C646.093 735.634 646.088 736.906 646.908 736.875L654.709 736.578C655.525 736.547 655.529 735.276 654.709 735.307Z" fill="#4D2C13"/>
<path d="M655.894 940.957C652.786 941.019 649.677 941.081 646.569 941.143C645.752 941.16 645.749 942.431 646.569 942.415C649.677 942.353 652.786 942.291 655.894 942.228C656.711 942.212 656.714 940.94 655.894 940.957Z" fill="#4D2C13"/>
</svg>
