<svg width="598" height="642" viewBox="0 0 598 642" fill="none" xmlns="http://www.w3.org/2000/svg">
<path d="M597.503 0H0V642H597.503V0Z" fill="#FFF9F4"/>
<path d="M471.205 569.039H471.201C428.958 562.195 352.778 557.627 265.816 557.627C265.245 557.627 264.675 557.627 264.106 557.628C263.363 557.627 262.619 557.627 261.874 557.627C129.046 557.627 21.3691 568.285 21.3691 581.431C21.3691 585.97 34.2072 590.213 56.4854 593.823H56.4888C98.7323 600.667 174.913 605.235 261.874 605.235C262.445 605.235 263.015 605.234 263.584 605.234C264.328 605.234 265.072 605.235 265.816 605.235C398.644 605.235 506.321 594.576 506.321 581.43C506.321 576.892 493.483 572.649 471.205 569.039Z" fill="#F8CDAE"/>
<path d="M486.093 376.989C486.116 376.981 486.14 376.974 486.164 376.97C486.184 376.965 486.204 376.961 486.224 376.959C486.23 376.957 486.237 376.956 486.243 376.956C486.34 376.945 486.438 376.953 486.531 376.98C486.548 376.984 486.565 376.99 486.581 376.997C486.651 377.021 486.716 377.055 486.775 377.098C486.786 377.106 486.795 377.114 486.806 377.123C486.821 377.134 486.836 377.147 486.849 377.161C486.863 377.172 486.876 377.185 486.887 377.199C486.899 377.212 486.912 377.226 486.924 377.239C486.947 377.268 486.967 377.298 486.986 377.329L487.013 377.379C487.04 377.434 487.061 377.492 487.075 377.552C487.106 377.37 487.137 377.189 487.171 377.008C487.021 376.554 486.871 376.101 486.722 375.648C486.637 375.39 486.552 375.134 486.468 374.878C486.433 375.066 486.399 375.255 486.366 375.445C486.274 375.959 486.183 376.474 486.093 376.989ZM493.829 365.603C494.026 366.415 494.22 367.229 494.412 368.044L494.866 365.351V365.348C494.828 365.186 494.79 365.025 494.749 364.864C494.749 364.866 494.747 364.869 494.747 364.87C494.744 364.891 494.74 364.911 494.734 364.931C494.731 364.945 494.727 364.958 494.722 364.97C494.719 364.983 494.716 364.995 494.711 365.007C494.708 365.016 494.705 365.025 494.702 365.033C494.697 365.048 494.691 365.063 494.684 365.077C494.674 365.099 494.664 365.121 494.652 365.142C494.64 365.165 494.626 365.188 494.611 365.21C494.596 365.231 494.581 365.252 494.564 365.274C494.53 365.317 494.492 365.357 494.45 365.392C494.444 365.398 494.438 365.403 494.431 365.409C494.424 365.414 494.418 365.419 494.411 365.424C494.395 365.436 494.379 365.448 494.362 365.459C494.352 365.466 494.341 365.473 494.329 365.478C494.311 365.49 494.292 365.501 494.273 365.51C494.136 365.579 493.982 365.611 493.829 365.603V365.603ZM486.093 376.989C486.116 376.981 486.14 376.974 486.164 376.97C486.184 376.965 486.204 376.961 486.224 376.959C486.23 376.957 486.237 376.956 486.243 376.956C486.34 376.945 486.438 376.953 486.531 376.98C486.548 376.984 486.565 376.99 486.581 376.997C486.651 377.021 486.716 377.055 486.775 377.098C486.786 377.106 486.795 377.114 486.806 377.123C486.821 377.134 486.836 377.147 486.849 377.161C486.863 377.172 486.876 377.185 486.887 377.199C486.899 377.212 486.912 377.226 486.924 377.239C486.947 377.268 486.967 377.298 486.986 377.329L487.013 377.379C487.04 377.434 487.061 377.492 487.075 377.552C487.106 377.37 487.137 377.189 487.171 377.008C487.021 376.554 486.871 376.101 486.722 375.648C486.637 375.39 486.552 375.134 486.468 374.878C486.433 375.066 486.399 375.255 486.366 375.445C486.274 375.959 486.183 376.474 486.093 376.989ZM493.829 365.603C494.026 366.415 494.22 367.229 494.412 368.044L494.866 365.351V365.348C494.828 365.186 494.79 365.025 494.749 364.864C494.749 364.866 494.747 364.869 494.747 364.87C494.744 364.891 494.74 364.911 494.734 364.931C494.731 364.945 494.727 364.958 494.722 364.97C494.719 364.983 494.716 364.995 494.711 365.007C494.708 365.016 494.705 365.025 494.702 365.033C494.697 365.048 494.691 365.063 494.684 365.077C494.675 365.099 494.664 365.121 494.652 365.142C494.64 365.165 494.626 365.188 494.611 365.21C494.597 365.232 494.581 365.253 494.564 365.274C494.53 365.317 494.492 365.357 494.45 365.392C494.444 365.398 494.438 365.403 494.431 365.409C494.424 365.414 494.418 365.419 494.411 365.424C494.395 365.436 494.379 365.448 494.362 365.459C494.352 365.466 494.341 365.473 494.329 365.478C494.311 365.49 494.292 365.501 494.273 365.51C494.136 365.579 493.982 365.611 493.829 365.603V365.603ZM426.585 235.483C428.054 236.961 429.501 238.461 430.926 239.983C434.012 243.283 436.984 246.681 439.843 250.177C440.237 250.658 440.628 251.14 441.017 251.623C441.063 251.679 441.108 251.735 441.154 251.793C448.396 260.85 454.95 270.438 460.76 280.475C469.289 295.141 476.336 310.645 482.139 326.581C482.578 327.786 483.009 328.993 483.432 330.202C483.432 330.203 483.432 330.204 483.432 330.205C483.432 330.205 483.433 330.206 483.433 330.207C483.768 331.155 484.097 332.106 484.418 333.058C485.451 336.084 486.44 339.126 487.386 342.182C487.524 344.575 487.662 346.968 487.8 349.361C488.08 354.196 488.36 359.031 488.638 363.866C488.589 364.096 488.538 364.325 488.489 364.555C488.245 365.709 488.007 366.864 487.776 368.02C487.704 368.373 487.633 368.728 487.565 369.082V369.084C487.307 370.374 487.059 371.664 486.821 372.955C486.751 373.323 486.683 373.692 486.618 374.061C486.571 374.307 486.525 374.552 486.483 374.799C486.477 374.825 486.472 374.851 486.468 374.878C486.433 375.066 486.399 375.256 486.366 375.445C486.274 375.959 486.183 376.474 486.093 376.989C486.081 377.055 486.07 377.12 486.06 377.185V377.186C485.993 377.562 485.93 377.935 485.866 378.311C485.861 378.337 485.857 378.363 485.852 378.388C485.842 378.35 485.832 378.311 485.822 378.273C485.754 378.008 485.684 377.743 485.614 377.477C485.255 376.095 484.892 374.714 484.525 373.335C484.443 373.029 484.361 372.724 484.28 372.418C483.912 371.044 483.541 369.669 483.168 368.294C483.168 368.289 483.166 368.285 483.163 368.281C482.944 367.476 482.727 366.673 482.504 365.869C482.421 365.565 482.336 365.259 482.251 364.952C481.593 362.565 480.924 360.18 480.244 357.797V357.796C480.226 357.73 480.206 357.665 480.188 357.6C479.462 355.054 478.725 352.511 477.976 349.97C477.769 349.269 477.562 348.568 477.354 347.868C477.278 347.615 477.204 347.365 477.128 347.113C477.116 347.073 477.104 347.033 477.092 346.992V346.991C476.977 346.601 476.86 346.215 476.743 345.825C476.645 345.493 476.545 345.163 476.445 344.831C476.327 344.437 476.207 344.042 476.087 343.646C475.822 342.771 475.555 341.896 475.287 341.021C474.614 338.814 473.931 336.61 473.238 334.409C473.213 334.334 473.191 334.258 473.166 334.184C473.001 333.656 472.835 333.129 472.668 332.603C472.46 331.944 472.251 331.285 472.04 330.628C471.949 330.342 471.857 330.054 471.764 329.767C471.754 329.729 471.742 329.693 471.73 329.655C471.728 329.651 471.726 329.647 471.725 329.643C470.881 327.007 470.025 324.376 469.156 321.748C469.126 321.654 469.095 321.56 469.062 321.466V321.465C468.548 319.906 468.03 318.351 467.506 316.798C467.287 316.149 466.257 316.43 466.476 317.081C466.88 318.277 467.28 319.475 467.677 320.673V320.675C467.924 321.418 468.169 322.16 468.413 322.901C468.686 323.726 468.958 324.552 469.227 325.379C469.653 326.684 470.076 327.991 470.496 329.3C470.638 329.741 470.78 330.183 470.92 330.625C471.293 331.787 471.662 332.95 472.028 334.112V334.114C472.168 334.555 472.306 334.998 472.445 335.439C472.459 335.481 472.472 335.525 472.486 335.569C472.606 335.952 472.725 336.334 472.844 336.718C473.054 337.389 473.263 338.059 473.47 338.732V338.734C473.683 339.423 473.896 340.113 474.108 340.804C474.482 342.024 474.854 343.245 475.223 344.467C475.549 345.546 475.873 346.626 476.195 347.708C476.228 347.818 476.261 347.929 476.293 348.039C476.487 348.69 476.68 349.339 476.871 349.989C476.881 350.017 476.889 350.047 476.896 350.076C477.298 351.431 477.695 352.787 478.088 354.143C478.4 355.222 478.711 356.302 479.02 357.382C479.112 357.705 479.205 358.026 479.296 358.35V358.352C481.201 365.045 483.028 371.759 484.778 378.496C484.882 378.895 484.986 379.294 485.088 379.695C485.2 380.125 485.311 380.557 485.422 380.988C485.317 381.633 485.215 382.279 485.114 382.926C485.044 383.361 484.978 383.796 484.909 384.231C483.799 391.508 482.916 398.815 482.263 406.153C482.212 406.723 482.162 407.293 482.115 407.864C481.769 411.955 481.497 416.05 481.298 420.151C481.049 425.175 480.91 430.204 480.881 435.238C480.782 451.65 481.839 468.049 484.046 484.312C484.287 486.096 484.542 487.878 484.812 489.658C485.132 491.766 485.471 493.871 485.829 495.975C486.177 498.016 486.543 500.054 486.928 502.089C487.174 503.392 487.427 504.695 487.689 505.996C487.826 506.67 488.853 506.383 488.718 505.713C488.479 504.518 488.245 503.323 488.018 502.128C487.63 500.084 487.26 498.035 486.907 495.984C486.548 493.882 486.207 491.776 485.886 489.668C485.614 487.884 485.357 486.099 485.114 484.312C484.285 478.228 483.618 472.125 483.113 466.002C481.887 451.037 481.624 436.008 482.324 421.009V421.008C482.524 416.7 482.804 412.397 483.163 408.099L483.254 407.017V407.015C483.589 403.157 483.987 399.304 484.449 395.459C484.867 391.965 485.34 388.479 485.867 384.999C485.901 384.777 485.934 384.554 485.969 384.331C486.007 384.079 486.045 383.829 486.084 383.578C486.133 383.769 486.181 383.961 486.228 384.152H486.23C486.334 384.566 486.438 384.98 486.542 385.394C486.739 386.176 486.935 386.959 487.13 387.743C487.213 388.076 487.296 388.41 487.377 388.743C488.606 393.71 489.793 398.686 490.937 403.673L491.581 414.803C491.831 419.14 492.082 423.478 492.333 427.816C493.42 446.649 494.507 465.481 495.596 484.312C495.701 486.128 495.806 487.943 495.911 489.759C496.033 491.863 496.154 493.967 496.275 496.07C496.396 498.181 496.518 500.292 496.64 502.401C496.762 504.506 496.883 506.611 497.006 508.717C497.218 512.381 497.43 516.046 497.641 519.709C497.68 520.393 498.747 520.396 498.708 519.709C498.497 516.055 498.286 512.4 498.074 508.745C497.953 506.64 497.831 504.535 497.709 502.43C497.588 500.312 497.465 498.196 497.342 496.079C497.221 493.976 497.1 491.872 496.978 489.77C496.874 487.951 496.769 486.132 496.663 484.312C496.211 476.485 495.759 468.659 495.307 460.834C494.682 450.029 494.058 439.224 493.435 428.42V428.419C493.08 422.288 492.726 416.158 492.372 410.027C493.211 413.804 494.026 417.586 494.819 421.373C495.417 424.245 496.002 427.12 496.574 429.997C498.806 441.241 500.825 452.526 502.63 463.851C502.62 470.671 502.643 477.492 502.701 484.312C502.718 486.149 502.737 487.986 502.757 489.823C502.782 491.925 502.809 494.028 502.839 496.131C502.87 498.274 502.904 500.416 502.942 502.559C502.98 504.662 503.021 506.765 503.065 508.868C503.123 511.649 503.186 514.43 503.256 517.21C503.26 517.304 503.289 517.395 503.338 517.475C503.388 517.554 503.458 517.62 503.54 517.665C503.622 517.71 503.715 517.733 503.809 517.732C503.903 517.731 503.995 517.706 504.076 517.659C504.156 517.616 504.222 517.551 504.266 517.471C504.31 517.391 504.33 517.301 504.323 517.21C504.322 517.172 504.322 517.133 504.32 517.095C504.252 514.361 504.19 511.626 504.134 508.891C504.088 506.789 504.047 504.686 504.011 502.581C503.973 500.435 503.938 498.288 503.906 496.14C503.876 494.036 503.849 491.934 503.826 489.832C503.803 487.992 503.785 486.152 503.77 484.312C503.73 479.788 503.706 475.263 503.697 470.738C504.382 475.259 505.033 479.784 505.651 484.312C505.902 486.16 506.148 488.008 506.389 489.856C506.393 489.886 506.396 489.918 506.401 489.949C506.487 490.62 507.556 490.628 507.468 489.949C507.465 489.921 507.46 489.893 507.457 489.865C507.216 488.013 506.97 486.162 506.718 484.312C505.789 477.469 504.781 470.638 503.696 463.818C503.699 462.188 503.702 460.559 503.706 458.93C503.741 450.297 503.832 441.664 503.979 433.031V433.029C504.04 429.478 504.109 425.927 504.188 422.375C504.691 426.135 505.169 429.898 505.622 433.665C505.695 434.26 505.766 434.855 505.836 435.45C507.757 451.706 509.262 468.007 510.699 484.312C510.863 486.175 511.027 488.037 511.19 489.9C511.295 491.108 511.4 492.315 511.506 493.522C511.565 494.203 512.632 494.206 512.573 493.522C512.468 492.319 512.363 491.115 512.257 489.911L511.944 486.323C511.885 485.653 511.825 484.983 511.766 484.312C510.29 467.546 508.74 450.782 506.739 434.071C506.487 431.973 506.229 429.876 505.963 427.781C505.798 426.473 505.629 425.166 505.455 423.86V423.858C505.346 423.031 505.235 422.204 505.123 421.377C504.872 419.513 504.613 417.649 504.346 415.786C504.752 399.925 505.346 384.071 506.127 368.223C506.334 363.996 506.556 359.77 506.792 355.545C507.147 349.182 507.532 342.821 507.947 336.462C508.332 330.566 508.744 324.673 509.182 318.782C509.241 317.992 509.3 317.203 509.36 316.413C509.891 309.367 510.461 302.323 511.068 295.282C511.739 287.483 512.456 279.688 513.22 271.898C513.262 271.454 513.306 271.008 513.35 270.564C513.417 270.919 513.484 271.272 513.552 271.626C515.114 279.897 516.677 288.167 518.241 296.437C518.558 298.116 518.875 299.796 519.193 301.475C519.284 301.96 519.375 302.444 519.467 302.929C521.007 311.083 522.548 319.236 524.091 327.389C524.516 329.635 524.94 331.882 525.364 334.129C524.266 340.998 523.298 347.886 522.462 354.795V354.798C522.283 356.262 522.111 357.726 521.945 359.191V359.194C521.721 361.185 521.507 363.175 521.304 365.166C519.585 382.036 518.654 398.962 518.511 415.944C518.387 431.241 518.913 446.523 520.09 461.79C517.838 452.796 515.374 443.859 512.7 434.977C512.436 434.1 512.17 433.222 511.901 432.344C511.637 431.487 511.373 430.63 511.107 429.775C510.386 427.458 509.65 425.145 508.9 422.837C508.688 422.185 507.657 422.466 507.871 423.12C508.336 424.553 508.796 425.986 509.25 427.422C509.552 428.375 509.852 429.329 510.149 430.283C510.149 430.283 510.148 430.283 510.149 430.285C510.648 431.89 511.14 433.497 511.627 435.106C512.318 437.395 512.994 439.687 513.656 441.984C517.686 455.958 521.191 470.067 524.172 484.312C524.572 486.216 524.961 488.122 525.339 490.03C525.759 492.134 526.166 494.24 526.56 496.349C526.968 498.51 527.362 500.674 527.742 502.839C528.112 504.938 528.471 507.04 528.819 509.144C528.894 509.606 528.97 510.068 529.046 510.531C529.157 511.208 530.184 510.919 530.075 510.247C530.014 509.879 529.955 509.511 529.893 509.142C529.548 507.039 529.191 504.937 528.823 502.837C528.443 500.676 528.051 498.517 527.647 496.36C527.303 494.514 526.949 492.669 526.586 490.826C526.534 490.564 526.483 490.303 526.43 490.041C526.051 488.13 525.662 486.22 525.263 484.312C524.064 478.575 522.779 472.858 521.407 467.16C521.465 467.112 521.509 467.05 521.536 466.98C521.562 466.91 521.571 466.834 521.56 466.76C521.38 464.657 521.21 462.554 521.051 460.45C519.795 443.618 519.332 426.751 519.663 409.85C519.908 397.19 520.595 384.549 521.724 371.929C521.821 370.86 521.92 369.792 522.021 368.723V368.722C522.215 366.679 522.421 364.637 522.639 362.597C522.756 361.51 522.875 360.424 522.997 359.338C523.618 353.834 524.324 348.339 525.113 342.853C525.381 340.977 525.66 339.102 525.949 337.23C526.086 337.952 526.222 338.67 526.359 339.391V339.393C527.288 344.308 528.217 349.224 529.146 354.14C527.326 356.892 525.777 359.814 524.522 362.865C524.519 362.874 524.513 362.884 524.51 362.894C524.399 363.162 524.291 363.429 524.185 363.699V363.7C523.923 364.372 523.676 365.049 523.443 365.733C523.288 366.186 523.74 366.457 524.103 366.365C524.19 366.343 524.269 366.3 524.333 366.239C524.398 366.178 524.446 366.101 524.472 366.016C524.723 365.28 524.992 364.55 525.278 363.826C525.357 363.626 525.436 363.428 525.519 363.229C525.519 363.229 525.519 363.229 525.519 363.228C525.518 363.228 525.518 363.228 525.518 363.228C525.518 363.227 525.518 363.227 525.519 363.227C525.519 363.227 525.519 363.226 525.519 363.226C525.52 363.221 525.522 363.217 525.525 363.212C526.489 360.86 527.635 358.586 528.952 356.41C529.108 356.151 529.269 355.897 529.429 355.64C529.454 355.772 529.479 355.903 529.504 356.034C529.881 358.029 530.258 360.024 530.636 362.02C532.251 370.572 533.868 379.124 535.484 387.675C541.524 419.622 547.805 451.819 549.64 484.312C549.751 486.293 549.845 488.275 549.924 490.258C550.007 492.36 550.069 494.463 550.11 496.566C550.151 498.583 550.172 500.602 550.172 502.622C550.172 504.724 550.149 506.827 550.104 508.929C550.071 510.551 550.022 512.172 549.958 513.794C549.931 514.482 550.998 514.477 551.025 513.794C551.089 512.165 551.138 510.535 551.171 508.906C551.218 506.804 551.241 504.702 551.239 502.6C551.239 500.591 551.218 498.584 551.177 496.577C551.138 494.473 551.075 492.37 550.991 490.268C550.915 488.283 550.82 486.297 550.707 484.312C549.936 470.605 548.373 456.935 546.372 443.351C543.265 422.259 539.149 401.332 535.19 380.389C534 374.088 532.81 367.789 531.618 361.489C531.192 359.239 530.767 356.988 530.342 354.737C530.317 354.608 530.293 354.479 530.269 354.351C531.929 351.888 533.8 349.573 535.86 347.433C535.862 347.432 535.862 347.43 535.863 347.43C538.945 344.225 542.428 341.432 546.225 339.12H546.23C546.422 339.002 546.613 338.885 546.807 338.773C546.808 338.772 546.809 338.771 546.809 338.77C547.53 338.344 548.262 337.936 549.005 337.547C549.44 337.318 549.879 337.096 550.322 336.88C551.071 336.515 551.83 336.169 552.599 335.842C552.855 335.731 553.114 335.624 553.373 335.519C553.382 335.515 553.391 335.511 553.4 335.508C553.969 335.277 554.543 335.056 555.122 334.846C555.866 334.576 556.617 334.325 557.374 334.091C558.029 333.89 557.747 332.859 557.089 333.062C555.525 333.543 553.987 334.099 552.474 334.731C552.03 334.914 551.592 335.105 551.156 335.304H551.154C549.82 335.904 548.515 336.563 547.236 337.28C547.223 337.288 547.211 337.295 547.197 337.303C547.071 337.373 546.948 337.444 546.824 337.515L546.823 337.517C546.566 337.662 546.312 337.81 546.06 337.961C546.059 337.962 546.057 337.962 546.056 337.964C545.994 338 545.931 338.038 545.869 338.076C545.778 338.13 545.687 338.185 545.596 338.241C545.324 338.408 545.052 338.577 544.783 338.749C544.657 338.829 544.531 338.909 544.407 338.991C544.405 338.991 544.404 338.993 544.402 338.994C544.363 339.019 544.323 339.044 544.284 339.072C544.085 339.199 543.89 339.329 543.694 339.463C543.488 339.601 543.282 339.74 543.079 339.884C542.744 340.113 542.412 340.349 542.083 340.59C541.959 340.68 541.835 340.771 541.712 340.863H541.71C541.459 341.051 541.21 341.239 540.963 341.43C538.873 343.041 536.908 344.806 535.083 346.712C535.081 346.712 535.081 346.712 535.081 346.713C533.232 348.643 531.531 350.71 529.995 352.897C529.029 347.797 528.065 342.697 527.101 337.597V337.595C526.882 336.431 526.662 335.268 526.442 334.105C526.909 331.192 527.4 328.283 527.915 325.378C528.896 319.837 529.962 314.312 531.113 308.803C534.016 294.917 537.456 281.158 541.435 267.525C542.189 264.94 542.963 262.36 543.757 259.786C544.054 258.824 544.353 257.862 544.655 256.901C546.148 252.148 547.708 247.417 549.335 242.708C549.351 242.664 549.366 242.619 549.381 242.575C550.23 240.12 551.096 237.672 551.979 235.23C551.979 235.229 551.979 235.228 551.98 235.227C554.784 227.475 557.765 219.788 560.922 212.167C560.95 212.11 560.965 212.047 560.966 211.983C560.966 211.92 560.953 211.857 560.926 211.799C560.899 211.741 560.859 211.69 560.81 211.649C560.761 211.609 560.704 211.58 560.642 211.564C560.5 211.51 560.343 211.514 560.203 211.573C560.063 211.632 559.952 211.743 559.892 211.882C559.085 213.833 558.289 215.787 557.502 217.745C555.227 223.419 553.049 229.131 550.969 234.882C550.966 234.885 550.965 234.889 550.965 234.894C550.074 237.355 549.201 239.824 548.347 242.299C546.642 247.237 545.009 252.199 543.449 257.184V257.186C542.552 260.046 541.679 262.913 540.831 265.788C540.756 266.046 540.68 266.304 540.604 266.563C535.906 282.575 531.949 298.782 528.734 315.184C528.027 318.787 527.358 322.396 526.725 326.011V326.013C526.43 327.691 526.143 329.37 525.865 331.051L525.076 326.877L523.159 316.733C522.213 311.731 521.268 306.73 520.323 301.728C520.233 301.246 520.142 300.766 520.051 300.284C519.735 298.614 519.42 296.944 519.103 295.275C517.567 287.142 516.029 279.009 514.491 270.875C514.235 269.521 513.979 268.167 513.723 266.813C514.205 262.025 514.703 257.24 515.216 252.458C515.289 251.775 514.222 251.782 514.149 252.458C513.765 256.017 513.393 259.578 513.03 263.141C512.77 261.763 512.509 260.386 512.248 259.009V259.006C512.066 258.039 511.884 257.072 511.701 256.105C511.701 256.105 511.7 256.104 511.701 256.104C510.554 250.035 509.406 243.966 508.259 237.896C506.412 228.125 504.565 218.354 502.718 208.584C502.394 206.866 502.069 205.147 501.743 203.428C500.861 198.758 499.979 194.089 499.096 189.421C498.968 188.745 497.939 189.033 498.067 189.704L500.902 204.71L501.465 207.682L507.021 237.081L511.166 259.012V259.013L511.542 260.999L511.715 261.913C512.027 263.562 512.339 265.21 512.65 266.858C512.448 268.865 512.25 270.871 512.054 272.877C511.36 279.999 510.704 287.125 510.085 294.255C509.617 299.665 509.171 305.077 508.746 310.49C508.538 313.147 508.335 315.803 508.138 318.459C508.138 318.459 508.136 318.459 508.138 318.461C508.077 319.264 508.018 320.067 507.959 320.871V320.872C507.554 326.39 507.173 331.911 506.816 337.433V337.435C506.139 347.906 505.543 358.383 505.029 368.864C504.362 382.456 503.835 396.054 503.445 409.659C501.612 397.597 499.444 385.588 496.801 373.678C496.549 372.544 496.293 371.411 496.033 370.278C495.654 368.632 495.265 366.99 494.866 365.351V365.348C494.828 365.186 494.79 365.025 494.749 364.864C494.691 364.625 494.632 364.386 494.573 364.146V364.145C493.75 360.79 492.884 357.448 491.974 354.117C492.465 352.112 492.974 350.112 493.502 348.117C493.818 346.915 494.142 345.715 494.473 344.516C496.186 338.299 498.072 332.132 500.132 326.016C500.352 325.363 499.322 325.085 499.103 325.733C497.131 331.581 495.318 337.481 493.664 343.431V343.435C493.248 344.926 492.844 346.419 492.45 347.914C492.433 347.974 492.416 348.035 492.401 348.097C492.139 349.09 491.882 350.084 491.63 351.078C491.549 351.391 491.47 351.704 491.392 352.018C491.287 351.644 491.182 351.269 491.077 350.895C490.881 350.202 490.683 349.51 490.482 348.817C489.825 346.536 489.145 344.261 488.442 341.992L488.323 339.931C488.323 339.926 488.321 339.922 488.323 339.919L488.261 338.856L488.145 336.841L488.07 335.54L487.372 323.493V323.48L484.793 278.818L484.308 270.42V270.419L483.218 251.557C483.214 251.482 483.195 251.409 483.161 251.343C483.128 251.276 483.081 251.217 483.024 251.169C482.967 251.121 482.901 251.085 482.829 251.064C482.758 251.042 482.683 251.036 482.609 251.044C482.544 251.045 482.48 251.06 482.422 251.086C482.363 251.113 482.31 251.152 482.267 251.2C482.224 251.248 482.192 251.305 482.172 251.366C482.152 251.427 482.145 251.492 482.151 251.557C482.513 257.83 482.876 264.103 483.238 270.376C483.238 270.376 483.238 270.377 483.239 270.377C483.239 270.378 483.239 270.378 483.239 270.378C483.239 270.379 483.239 270.379 483.239 270.38C483.238 270.38 483.238 270.38 483.238 270.381C483.238 270.381 483.238 270.381 483.239 270.382C483.239 270.382 483.239 270.382 483.239 270.383C483.239 270.383 483.239 270.384 483.239 270.384C483.238 270.385 483.238 270.385 483.238 270.385C483.377 272.787 483.516 275.19 483.655 277.592C483.656 277.594 483.656 277.594 483.655 277.595C483.655 277.595 483.656 277.597 483.655 277.597C483.692 278.247 483.73 278.896 483.768 279.546C484.362 289.841 484.957 300.137 485.552 310.432C486.011 318.383 486.471 326.334 486.93 334.284C486.956 334.734 486.983 335.186 487.009 335.636C487.027 335.946 487.043 336.257 487.062 336.568C487.087 337.003 487.112 337.436 487.137 337.871C486.997 337.433 486.854 336.997 486.71 336.559C486.507 335.94 486.302 335.322 486.096 334.704V334.702C485.855 333.979 485.611 333.257 485.364 332.535C483.906 328.262 482.36 324.019 480.726 319.807C474.606 304.061 467.234 288.779 458.363 274.394C453.29 266.147 447.699 258.23 441.623 250.691C441.338 250.337 441.051 249.983 440.762 249.63C440.761 249.63 440.761 249.629 440.759 249.627C439.789 248.442 438.806 247.267 437.81 246.102C437.81 246.102 437.81 246.102 437.81 246.101C437.81 246.101 437.81 246.101 437.81 246.101C437.809 246.101 437.809 246.101 437.809 246.101C437.809 246.1 437.809 246.1 437.809 246.1C434.464 242.184 430.974 238.394 427.34 234.729C426.855 234.239 426.102 234.995 426.585 235.483ZM491.402 393.219C491.322 391.835 491.242 390.452 491.161 389.07V389.069C491.069 387.45 490.976 385.832 490.881 384.214C490.869 383.999 490.857 383.785 490.845 383.572C490.54 378.309 490.236 373.047 489.932 367.785C489.903 367.282 489.875 366.777 489.844 366.274C489.8 365.502 489.756 364.731 489.711 363.958C490.261 361.394 490.841 358.835 491.451 356.283C492.128 358.816 492.782 361.354 493.411 363.897C493.552 364.466 493.691 365.034 493.829 365.603C494.026 366.415 494.22 367.229 494.412 368.044V368.047C494.902 370.11 495.376 372.175 495.834 374.243C496.101 375.443 496.362 376.645 496.618 377.847C499.296 390.413 501.459 403.082 503.279 415.8L503.22 418.146C503.203 418.82 503.187 419.494 503.173 420.168C503.171 420.169 503.173 420.169 503.173 420.169C503.074 424.321 502.99 428.471 502.92 432.62C502.779 440.873 502.689 449.126 502.65 457.379C502.318 455.388 501.98 453.397 501.637 451.406C500.429 444.438 499.139 437.484 497.767 430.545C495.981 421.506 494.058 412.495 491.997 403.513C491.798 400.081 491.6 396.651 491.402 393.22V393.219ZM490.576 397.426C489.493 392.85 488.375 388.282 487.222 383.722C487.2 383.631 487.175 383.538 487.153 383.447C487.136 383.379 487.118 383.311 487.101 383.243C486.906 382.47 486.704 381.697 486.507 380.924C486.592 380.404 486.678 379.884 486.765 379.364V379.363C486.833 378.958 486.903 378.552 486.972 378.149V378.147C487.006 377.949 487.04 377.75 487.075 377.553V377.552C487.106 377.37 487.137 377.189 487.171 377.008C487.588 374.623 488.03 372.244 488.498 369.87C488.605 369.323 488.713 368.777 488.824 368.232C488.841 368.146 488.859 368.061 488.876 367.974C488.883 368.106 488.891 368.238 488.899 368.37V368.372C488.909 368.546 488.918 368.722 488.929 368.896V368.897C488.941 369.096 488.952 369.296 488.964 369.495C489.265 374.72 489.567 379.947 489.869 385.174V385.175C489.922 386.097 489.975 387.018 490.029 387.94C490.047 388.258 490.066 388.578 490.084 388.896C490.096 389.098 490.107 389.299 490.119 389.501C490.272 392.143 490.424 394.784 490.576 397.426ZM488.858 349.199C488.808 348.312 488.757 347.426 488.705 346.541C488.956 347.386 489.204 348.233 489.447 349.082V349.084C489.934 350.763 490.408 352.446 490.869 354.132C490.39 356.09 489.928 358.052 489.484 360.017L489.277 356.462C489.138 354.041 488.998 351.62 488.858 349.199ZM493.829 365.603C494.026 366.415 494.22 367.229 494.412 368.044L494.866 365.351V365.348C494.828 365.186 494.79 365.025 494.749 364.864C494.749 364.866 494.747 364.869 494.747 364.87C494.744 364.891 494.74 364.911 494.734 364.931C494.731 364.945 494.727 364.958 494.722 364.97C494.719 364.983 494.716 364.995 494.711 365.007C494.708 365.016 494.705 365.025 494.702 365.033C494.697 365.048 494.691 365.063 494.684 365.077C494.674 365.099 494.664 365.121 494.652 365.142C494.64 365.165 494.626 365.188 494.611 365.21C494.597 365.232 494.581 365.253 494.564 365.274C494.53 365.317 494.492 365.357 494.45 365.392C494.444 365.398 494.438 365.403 494.431 365.409C494.424 365.414 494.418 365.419 494.411 365.424C494.395 365.436 494.379 365.448 494.362 365.459C494.352 365.466 494.341 365.473 494.329 365.478C494.311 365.49 494.292 365.501 494.273 365.51C494.136 365.579 493.982 365.611 493.829 365.603V365.603ZM486.093 376.989C486.116 376.981 486.14 376.974 486.164 376.97C486.184 376.965 486.204 376.961 486.224 376.959C486.23 376.957 486.237 376.956 486.243 376.956C486.34 376.945 486.438 376.953 486.531 376.98C486.548 376.984 486.565 376.99 486.581 376.997C486.651 377.021 486.716 377.055 486.775 377.098C486.786 377.106 486.795 377.114 486.806 377.123C486.821 377.134 486.836 377.147 486.849 377.161C486.863 377.172 486.876 377.185 486.887 377.199C486.899 377.212 486.912 377.226 486.924 377.239C486.947 377.268 486.967 377.298 486.986 377.329L487.013 377.379C487.04 377.434 487.061 377.492 487.075 377.552C487.106 377.37 487.137 377.189 487.171 377.008C487.021 376.554 486.871 376.101 486.722 375.648C486.637 375.39 486.552 375.134 486.468 374.878C486.433 375.066 486.399 375.255 486.366 375.445C486.274 375.959 486.183 376.474 486.093 376.989V376.989ZM493.829 365.603C494.026 366.415 494.22 367.229 494.412 368.044L494.866 365.351V365.348C494.828 365.186 494.79 365.025 494.749 364.864C494.749 364.866 494.747 364.869 494.747 364.87C494.744 364.891 494.74 364.911 494.734 364.931C494.731 364.945 494.727 364.958 494.722 364.97C494.719 364.983 494.716 364.995 494.711 365.007C494.708 365.016 494.705 365.025 494.702 365.033C494.697 365.048 494.691 365.063 494.684 365.077C494.674 365.099 494.664 365.121 494.652 365.142C494.64 365.165 494.626 365.188 494.611 365.21C494.596 365.231 494.581 365.252 494.564 365.274C494.53 365.317 494.492 365.357 494.45 365.392C494.444 365.398 494.438 365.403 494.431 365.409C494.424 365.414 494.418 365.419 494.411 365.424C494.395 365.436 494.379 365.448 494.362 365.459C494.352 365.466 494.341 365.473 494.329 365.478C494.311 365.49 494.292 365.501 494.273 365.51C494.136 365.579 493.982 365.611 493.829 365.603V365.603ZM486.093 376.989C486.116 376.981 486.14 376.974 486.164 376.97C486.184 376.965 486.204 376.961 486.224 376.959C486.23 376.957 486.237 376.956 486.243 376.956C486.34 376.945 486.438 376.953 486.531 376.98C486.548 376.984 486.565 376.99 486.581 376.997C486.651 377.021 486.716 377.055 486.775 377.098C486.786 377.106 486.795 377.114 486.806 377.123C486.821 377.134 486.836 377.147 486.849 377.161C486.863 377.172 486.876 377.185 486.887 377.199C486.899 377.212 486.912 377.226 486.924 377.239C486.947 377.268 486.967 377.298 486.986 377.329L487.013 377.379C487.04 377.434 487.061 377.492 487.075 377.552C487.106 377.37 487.137 377.189 487.171 377.008C487.021 376.554 486.871 376.101 486.722 375.648C486.637 375.39 486.552 375.134 486.468 374.878C486.433 375.066 486.399 375.255 486.366 375.445C486.274 375.959 486.183 376.474 486.093 376.989V376.989Z" fill="#18442F"/>
<path d="M522.639 362.598C522.984 363.135 523.518 363.523 524.135 363.687C524.151 363.692 524.168 363.696 524.185 363.699V363.701C524.527 363.789 524.88 363.831 525.233 363.827H525.277C525.43 363.825 525.588 363.816 525.755 363.801C527.175 363.671 528.859 362.952 530.635 362.02C530.959 361.85 531.287 361.672 531.617 361.49C534.604 359.839 537.758 357.795 540.302 357.064C547.909 354.879 555.822 353.874 563.404 351.606C563.474 351.587 563.541 351.566 563.609 351.546C564.056 351.411 564.499 351.271 564.941 351.127C568.873 349.843 572.682 348.207 576.32 346.24C576.613 346.082 576.902 345.923 577.192 345.759C577.321 345.691 577.448 345.62 577.577 345.547C577.777 345.433 577.976 345.319 578.176 345.203V344.722L577.245 343.696L576.915 343.333L576.293 342.646L575.74 342.035C575.738 342.035 575.738 342.035 575.738 342.034L575.585 341.864C575.585 341.862 575.584 341.862 575.584 341.861L575.267 341.511L574.509 340.677L573.927 340.035L573.001 339.012L572.781 338.771L572.099 338.016L571.968 337.872L570.146 335.861L570.04 335.744L569.306 334.935L570.499 334.886L571.496 334.847L572.415 334.809L572.559 334.803L574.515 334.724L577.625 334.597C577.773 334.591 577.913 334.528 578.016 334.422C578.118 334.315 578.176 334.173 578.176 334.025V308.199L574.261 314.402L575.141 310.28L575.325 309.428L576.78 302.609C573.212 302.86 569.676 303.441 566.216 304.346C566.123 304.371 566.031 304.395 565.938 304.419C565.472 304.542 565.005 304.671 564.54 304.807C561.053 305.826 557.666 307.159 554.42 308.79C554.28 308.858 554.142 308.928 554.004 308.999C553.989 309.028 553.973 309.057 553.956 309.086C552.286 312.014 550.578 315.031 548.956 317.907C548.956 317.907 548.956 317.907 548.956 317.907C548.956 317.907 548.956 317.908 548.956 317.908C548.955 317.908 548.955 317.908 548.955 317.908C548.955 317.908 548.955 317.908 548.954 317.908C548.829 318.135 548.7 318.36 548.574 318.583C547.605 320.301 546.672 321.961 545.8 323.514C545.622 323.833 545.443 324.148 545.27 324.459C542.583 329.243 540.581 332.835 540.147 333.616C540.147 333.616 540.147 333.619 540.146 333.619C540.09 333.721 540.059 333.774 540.059 333.774C540.046 333.667 540.041 333.428 540.041 333.075V333.073C540.036 332.837 540.04 332.549 540.043 332.216C540.046 331.9 540.05 331.545 540.056 331.15C540.059 331.006 540.062 330.856 540.064 330.701C540.073 330.245 540.082 329.747 540.094 329.209C540.099 329.028 540.102 328.842 540.108 328.651C540.115 328.275 540.126 327.882 540.135 327.473C540.146 327.032 540.157 326.574 540.17 326.099C540.177 325.75 540.188 325.394 540.197 325.03C540.214 324.43 540.232 323.811 540.25 323.173C540.259 322.811 540.27 322.446 540.281 322.073C540.312 320.95 540.347 319.781 540.384 318.583C539.703 319.224 539.039 319.881 538.392 320.554C538.291 320.656 538.192 320.76 538.093 320.865C537.375 321.62 536.679 322.396 536.005 323.193C532.347 327.532 529.347 332.385 527.101 337.596V337.598C526.843 338.192 526.595 338.79 526.358 339.392V339.394C525.908 340.533 525.493 341.687 525.112 342.854C524.045 346.127 523.261 349.486 522.769 352.893C522.684 353.478 522.574 354.122 522.461 354.795V354.798C522.222 356.222 521.975 357.778 521.945 359.192V359.195C521.916 360.536 522.082 361.749 522.639 362.598Z" fill="#35684F"/>
<path d="M442.437 341.726C440.145 340.508 437.924 339.163 435.783 337.695C445.267 335.924 453.189 334.405 454.027 334.123C454.027 334.123 436.446 328.816 420.776 323.911C414.575 316.392 409.958 307.698 407.199 298.351L421.953 298.288L405.74 292.405C404.461 286.161 403.768 279.787 401.988 273.668C399.95 266.658 396.188 259.746 389.898 256.04C407.768 255.611 425.557 261.094 440.491 270.89L447.789 298.857L457.479 285.28C462.039 290.22 465.993 295.687 469.257 301.565C473.944 310.039 477.21 319.235 481.806 327.759C484.439 332.642 492.156 338.664 493.651 343.392C495.701 349.878 486.564 349.435 481.39 349.806C467.998 350.767 454.313 348.027 442.437 341.726Z" fill="#35684F"/>
<path d="M438.006 218.784C437.252 217.276 436.413 215.812 435.494 214.398C434.194 220.53 433.082 225.651 432.886 226.19C432.886 226.19 429.716 214.688 426.778 204.434C421.993 200.289 416.419 197.153 410.393 195.214L410.119 204.795L406.554 194.172C402.519 193.243 398.39 192.693 394.444 191.44C389.924 190.006 385.494 187.453 383.187 183.311C382.626 194.909 385.907 206.549 392.033 216.402L410.081 221.583L401.111 227.662C404.247 230.701 407.735 233.356 411.501 235.568C416.931 238.746 422.851 241.012 428.314 244.131C431.444 245.918 435.233 251.025 438.28 252.07C442.46 253.504 442.317 247.563 442.639 244.209C443.475 235.527 441.911 226.595 438.006 218.784Z" fill="#4DB27C"/>
<path d="M516.67 178.091C516.699 176.406 516.633 174.72 516.473 173.041C512.482 177.874 509.126 181.898 508.702 182.285C508.702 182.285 511.218 170.623 513.361 160.174C511.039 154.284 507.552 148.924 503.107 144.415L498.429 152.78L500.188 141.714C497.041 139.023 493.636 136.623 490.719 133.686C487.377 130.322 484.632 126.008 484.505 121.268C478.638 131.289 476.156 143.124 477.024 154.694L490.622 167.642L479.857 168.877C481.229 173.024 483.092 176.991 485.405 180.696C488.747 186.026 492.945 190.776 496.343 196.071C498.29 199.104 499.284 205.385 501.501 207.722C504.542 210.928 507.165 205.596 509.004 202.772C513.764 195.464 516.514 186.823 516.67 178.091Z" fill="#4DB27C"/>
<path d="M490.082 253.376C489.728 250.804 489.519 248.215 489.457 245.621C496.442 252.276 502.309 257.812 503.028 258.326C503.028 258.326 497.045 240.963 491.855 225.385C494.325 215.957 498.673 207.126 504.639 199.42L513.323 211.348L508.607 194.757C512.923 190.068 517.687 185.776 521.608 180.752C526.099 174.998 529.504 167.902 528.83 160.634C539.633 174.875 545.595 192.509 546.388 210.351L527.978 232.633L544.658 232.548C543.32 239.136 541.2 245.541 538.343 251.627C534.213 260.387 528.666 268.415 524.443 277.13C522.023 282.122 521.655 291.904 518.695 295.882C514.635 301.34 509.648 293.67 506.32 289.692C497.705 279.394 491.92 266.693 490.082 253.376Z" fill="#35684F"/>
<path d="M441.66 197.426C441.674 198.333 441.704 199.239 441.748 200.145C441.82 201.668 441.935 203.187 442.092 204.704C442.094 204.704 442.094 204.704 442.092 204.706C442.114 204.915 442.136 205.122 442.159 205.329V205.331C442.181 205.533 442.204 205.733 442.228 205.933L443.271 206.846L443.954 207.443L444.73 208.12L447.038 210.14L451.274 213.845L454.893 217.007L455.39 217.443H455.392L456.1 218.063L456.473 218.389L458.696 220.333L459.511 221.045L460.885 222.248L462.022 223.241L460.909 223.418L456.393 224.129L455.838 224.218L447.033 225.609C447.359 226.463 447.7 227.312 448.055 228.157C448.125 228.328 448.199 228.497 448.271 228.668C448.642 229.533 449.029 230.391 449.431 231.243C449.433 231.248 449.437 231.254 449.438 231.259C449.554 231.502 449.669 231.746 449.788 231.987C449.849 232.115 449.912 232.243 449.974 232.371C450.249 232.929 450.532 233.485 450.82 234.038C451.105 234.585 451.398 235.129 451.698 235.668V235.67C452.184 236.549 452.689 237.418 453.211 238.277C453.325 238.463 453.438 238.648 453.552 238.834C453.792 239.22 454.033 239.603 454.28 239.984C454.377 240.135 454.475 240.284 454.574 240.436C454.813 240.803 455.058 241.169 455.307 241.533C455.37 241.627 455.433 241.721 455.498 241.814C455.849 242.326 456.207 242.834 456.57 243.337C456.855 243.733 457.142 244.127 457.433 244.517C457.637 244.791 457.84 245.063 458.049 245.335C458.291 245.658 458.538 245.98 458.786 246.301C460.239 248.182 461.741 250.027 463.251 251.867C463.59 252.281 463.93 252.696 464.271 253.11C466.837 256.236 469.39 259.371 471.716 262.678C474.621 266.806 476.383 275.534 479.624 278.672C484.069 282.979 487.423 275.361 489.828 271.303C496.055 260.793 499.389 248.541 499.088 236.315C499.029 233.955 498.837 231.6 498.513 229.261C495.814 232.827 493.334 236.088 491.475 238.504C491.116 238.969 490.782 239.401 490.473 239.8C490.181 240.178 489.913 240.524 489.668 240.836L489.666 240.838C489.543 240.996 489.426 241.144 489.316 241.285C488.725 242.032 488.333 242.512 488.188 242.656C488.188 242.656 488.278 242.135 488.439 241.198C488.5 240.834 488.574 240.407 488.657 239.922C489.556 234.638 491.605 222.551 493.396 211.441C489.797 203.338 484.599 196.046 478.113 190.001L472.062 201.983L473.15 192.583L473.358 190.787L473.866 186.396C470.154 183.484 466.213 180.851 462.579 177.85C462.157 177.502 461.741 177.149 461.329 176.79V176.788C460.929 176.441 460.533 176.086 460.141 175.725C456.968 172.792 454.125 169.28 452.401 165.358C452.181 164.858 451.98 164.353 451.797 163.842C451.204 162.192 450.838 160.469 450.71 158.72C449.671 160.682 448.721 162.685 447.862 164.729C447.698 165.118 447.539 165.505 447.381 165.896V165.898C447.13 166.523 446.888 167.152 446.653 167.783C446.343 168.619 446.047 169.46 445.766 170.307C445.667 170.603 445.57 170.898 445.478 171.195C445.177 172.134 444.895 173.078 444.631 174.026C444.404 174.837 444.192 175.651 443.993 176.468C443.865 176.988 443.743 177.513 443.624 178.037C443.489 178.65 443.36 179.263 443.237 179.878C443.168 180.219 443.102 180.56 443.038 180.902C443.038 180.902 443.037 180.902 443.038 180.904C442.685 182.803 442.4 184.713 442.182 186.634C442.112 187.244 442.051 187.857 441.995 188.47C441.874 189.787 441.785 191.107 441.728 192.43C441.705 192.962 441.687 193.495 441.674 194.026C441.646 195.16 441.641 196.293 441.66 197.426Z" fill="#558D71"/>
<path d="M544.169 232.551C544.26 232.875 544.356 233.199 544.453 233.522C544.586 233.962 544.725 234.399 544.87 234.833C545.671 237.246 546.537 241.029 548.346 242.299C548.638 242.512 548.977 242.653 549.335 242.708C549.939 242.801 550.632 242.643 551.429 242.148C554.423 240.291 557.214 233.925 560.114 231.259C565.174 226.603 570.931 222.748 575.943 218.039L575.966 218.017C576.666 217.353 577.224 216.553 577.604 215.665C577.983 214.778 578.178 213.823 578.175 212.858V204.395L574.047 202.79C575.297 202.099 576.34 201.086 577.066 199.856C577.792 198.626 578.175 197.223 578.175 195.794V169.521C575.831 170.6 573.447 171.6 571.125 172.725L569.915 184.912L567.289 174.771C561.339 178.305 556.165 183.005 552.076 188.589C551.444 200.23 550.871 213.257 550.871 213.257C550.549 212.76 548.354 208.09 545.68 202.325C545.527 201.996 545.373 201.664 545.218 201.329C544.583 203.059 544.046 204.823 543.61 206.614C542.92 209.462 542.484 212.366 542.307 215.291C541.957 221.108 542.587 226.942 544.169 232.551Z" fill="#558D71"/>
<path d="M493.748 296.949C494.828 294.612 496.039 292.339 497.375 290.138C499.649 299.433 501.587 307.195 501.913 308.008C501.913 308.008 506.204 290.307 510.202 274.52C517.307 267.968 525.663 262.918 534.768 259.674L535.64 274.281L540.576 257.903C546.689 256.294 552.963 255.258 558.925 253.16C565.755 250.757 572.394 246.652 575.718 240.221C577.123 257.893 572.67 275.81 563.788 291.136L536.494 299.897L550.47 308.748C545.828 313.535 540.631 317.75 534.99 321.305C526.855 326.411 517.928 330.149 509.739 335.168C505.047 338.043 499.508 346.016 494.908 347.755C488.597 350.141 488.535 341.069 487.884 335.966C486.197 322.757 488.16 309.055 493.748 296.949Z" fill="#558D71"/>
<path d="M457.912 369.239C457.915 370.013 457.933 370.788 457.964 371.561C457.971 371.745 457.978 371.931 457.989 372.114C458.063 373.687 458.193 375.257 458.378 376.822C458.531 378.118 458.721 379.408 458.946 380.691C459.041 381.235 459.143 381.777 459.252 382.318C459.389 383.006 459.537 383.692 459.697 384.374C459.813 384.871 459.933 385.368 460.059 385.862C460.149 386.215 460.243 386.567 460.339 386.918C460.744 387.277 461.151 387.636 461.558 387.997C461.827 388.237 462.095 388.473 462.364 388.713H462.366C463.375 389.605 464.389 390.498 465.398 391.387C465.793 391.736 466.187 392.084 466.582 392.43C476.114 400.819 484.896 408.443 484.896 408.443C484.07 408.363 476.701 406.619 467.897 404.493C468.216 405.014 468.542 405.53 468.874 406.043C469.02 406.27 469.169 406.493 469.319 406.717C470.182 408.01 471.091 409.272 472.047 410.502C479.798 420.463 490.467 428.068 502.307 432.391C506.881 434.061 514.537 437.951 515.273 431.607C515.81 426.983 511.514 418.861 511.134 413.666C510.474 404.599 511.209 395.468 510.451 386.408C509.914 380.119 508.628 373.918 506.62 367.934L493.103 375.839L493.95 370.803L494.233 369.113L497.599 349.082C491.532 339.559 483.645 331.328 474.389 324.862C474.261 324.775 474.135 324.687 474.007 324.6C473.148 324.009 472.276 323.436 471.393 322.88C471.198 322.757 471.002 322.634 470.805 322.514C470.321 322.213 469.832 321.917 469.339 321.627C468.962 321.406 468.583 321.186 468.202 320.97C467.932 320.816 467.66 320.665 467.387 320.516C467.386 320.516 467.385 320.516 467.384 320.515C467.384 320.515 467.383 320.514 467.382 320.514C467.276 320.452 467.168 320.395 467.061 320.335C464.757 319.077 462.391 317.938 459.971 316.921C461.014 318.404 461.849 320.022 462.452 321.732C462.631 322.224 462.789 322.723 462.931 323.229C463.321 324.616 463.595 326.033 463.751 327.465V327.467C463.813 327.998 463.859 328.532 463.89 329.067C463.903 329.265 463.913 329.463 463.922 329.66C463.939 330.053 463.949 330.447 463.951 330.84C463.955 331.283 463.95 331.726 463.937 332.17C463.915 332.993 463.863 333.815 463.787 334.631C463.731 335.256 463.661 335.877 463.576 336.492C463.569 336.55 463.56 336.608 463.553 336.665C463.458 337.352 463.349 338.036 463.227 338.718C463.162 339.08 463.095 339.441 463.025 339.8C462.926 340.305 462.823 340.808 462.715 341.309C462.513 342.24 462.299 343.169 462.072 344.096C461.913 344.75 461.75 345.404 461.582 346.058C461.441 346.613 461.299 347.167 461.155 347.721C461.09 347.972 461.027 348.222 460.96 348.473C460.638 349.728 460.315 350.984 460.012 352.244C459.904 352.689 459.798 353.132 459.699 353.577C459.652 353.77 459.609 353.963 459.566 354.155L459.991 354.568L461.202 355.741L461.575 356.102L462.535 357.033L462.724 357.217L462.825 357.314C462.825 357.314 462.825 357.315 462.825 357.315C462.825 357.315 462.825 357.315 462.826 357.315C462.826 357.316 462.826 357.316 462.826 357.316C462.826 357.316 462.827 357.316 462.827 357.316L463.31 357.784L463.82 358.278L466.672 361.042L469.532 363.815L469.701 363.979L470.755 365.001L471.088 365.321C471.089 365.321 471.089 365.321 471.089 365.322C471.089 365.322 471.089 365.322 471.09 365.322C471.09 365.322 471.09 365.322 471.09 365.322C471.09 365.323 471.09 365.323 471.09 365.323L471.193 365.424L470.818 365.257C470.817 365.256 470.816 365.255 470.816 365.255C470.815 365.255 470.814 365.255 470.813 365.255L470.393 365.069L469.886 364.844C469.885 364.844 469.884 364.843 469.883 364.842L467.62 363.84L466.103 363.166L466.016 363.129L464.863 362.617L464.436 362.428L462.935 361.763L462.93 361.761L460.791 360.811L460.328 360.606L458.531 359.81C458.512 359.959 458.49 360.107 458.472 360.257C458.36 361.103 458.265 361.953 458.187 362.806C458.142 363.291 458.103 363.775 458.07 364.26C458.065 364.32 458.061 364.379 458.058 364.437C457.984 365.541 457.937 366.646 457.919 367.752C457.912 368.246 457.908 368.741 457.912 369.239Z" fill="#4DB27C"/>
<path d="M549.023 241.943C552.649 227.774 557.828 214.049 564.466 201.017C564.778 200.404 565.699 200.944 565.388 201.555C558.794 214.507 553.651 228.147 550.052 242.227C549.882 242.892 548.852 242.61 549.023 241.943Z" fill="#18442F"/>
<path d="M509.827 266.306C512.442 252.072 515.058 237.839 517.674 223.606C518.418 219.559 519.161 215.512 519.905 211.465C520.029 210.791 521.058 211.076 520.934 211.749C518.319 225.982 515.703 240.216 513.087 254.449C512.343 258.496 511.6 262.543 510.856 266.589C510.732 267.264 509.703 266.978 509.827 266.306Z" fill="#18442F"/>
<path d="M489.37 145.861C497.585 156.925 502.664 170 504.071 183.708C504.475 187.663 504.563 191.643 504.336 195.611C504.297 196.294 503.23 196.298 503.269 195.611C504.272 177.975 499.024 160.549 488.449 146.4C488.038 145.849 488.964 145.316 489.37 145.861Z" fill="#18442F"/>
<path d="M458.872 182.841C460.333 195.977 469.088 206.756 474.465 218.435C479.909 230.295 483.198 243.029 484.178 256.041C484.74 263.491 484.531 270.978 483.555 278.384C483.466 279.056 482.398 279.064 482.487 278.384C484.224 265.148 483.509 251.705 480.38 238.727C478.821 232.242 476.663 225.916 473.933 219.83C471.269 213.906 467.912 208.357 464.842 202.644C461.503 196.431 458.592 189.919 457.805 182.841C457.729 182.16 458.797 182.165 458.872 182.841Z" fill="#18442F"/>
<path d="M403.489 203.636C419.806 216.114 432.828 232.388 441.424 251.043C441.709 251.663 440.79 252.206 440.502 251.582C431.988 233.091 419.1 216.951 402.95 204.558C402.413 204.145 402.944 203.218 403.489 203.636Z" fill="#18442F"/>
<path d="M498.24 337.126C504.594 323.693 512.228 310.903 521.035 298.934C523.492 295.599 526.036 292.331 528.668 289.131C529.104 288.6 529.855 289.358 529.422 289.885C520.06 301.284 511.814 313.555 504.796 326.53C502.818 330.19 500.94 333.902 499.162 337.665C498.868 338.285 497.948 337.744 498.24 337.126Z" fill="#18442F"/>
<path d="M421.972 276.301C431.778 288.747 441.583 301.193 451.389 313.638C454.159 317.154 456.929 320.67 459.699 324.186C460.12 324.72 459.37 325.48 458.945 324.941C449.139 312.495 439.334 300.05 429.528 287.604C426.758 284.088 423.988 280.572 421.218 277.056C420.797 276.522 421.547 275.762 421.972 276.301Z" fill="#18442F"/>
<path d="M521.116 371.283C525.867 357.001 535.112 344.384 547.194 335.423C550.685 332.836 554.405 330.572 558.306 328.659C558.921 328.358 559.462 329.278 558.845 329.581C545.493 336.133 534.357 346.875 527.219 359.916C525.182 363.639 523.484 367.539 522.145 371.567C521.929 372.216 520.898 371.938 521.116 371.283Z" fill="#18442F"/>
<path d="M476.633 345.098C480.882 357.964 485.132 370.831 489.381 383.698C492.995 394.64 496.615 405.667 501.998 415.896C505.027 421.653 508.624 427.104 512.977 431.95C513.435 432.459 512.682 433.217 512.222 432.704C504.536 424.149 499.283 413.834 495.098 403.199C490.497 391.505 486.847 379.423 482.907 367.496C480.473 360.125 478.038 352.753 475.604 345.382C475.388 344.728 476.418 344.448 476.633 345.098Z" fill="#18442F"/>
<path d="M470.121 484.312L470.921 489.531L471.89 495.846L472.755 501.484L473.73 507.837L482.894 567.566L483.86 573.87L484.718 579.458H548.508L549.446 573.757L550.486 567.449L560.169 508.687L561.212 502.352L562.147 496.677L563.185 490.379L564.185 484.312H470.121Z" fill="#FE6F8B"/>
<path d="M470.92 489.53L471.889 495.846C475.947 495.882 480.003 495.919 484.059 495.957C498.702 496.092 513.345 496.228 527.987 496.363C539.375 496.467 550.761 496.572 562.146 496.676L563.184 490.379C557.813 490.33 552.442 490.281 547.07 490.231C532.429 490.096 517.786 489.961 503.142 489.826C492.401 489.727 481.661 489.628 470.92 489.53Z" fill="white"/>
<path d="M472.754 501.484L473.729 507.838C478.224 508.056 482.722 508.245 487.223 508.407C501.9 508.939 516.584 509.184 531.275 509.142C540.908 509.113 550.539 508.962 560.168 508.688L561.211 502.353C557.681 502.457 554.15 502.544 550.618 502.614C535.933 502.908 521.247 502.914 506.56 502.634C495.286 502.42 484.017 502.036 472.754 501.484Z" fill="white"/>
<path d="M482.895 567.566L483.86 573.871C486.336 573.867 488.812 573.863 491.289 573.858L549.447 573.757L550.486 567.449C546.49 567.456 542.493 567.464 538.495 567.471C519.962 567.503 501.428 567.535 482.895 567.566Z" fill="#DDB891"/>
<path d="M546.242 516.32C547.891 516.32 549.471 517.771 549.395 519.474C549.318 521.182 548.01 522.627 546.242 522.627C544.592 522.627 543.012 521.176 543.089 519.474C543.165 517.765 544.474 516.32 546.242 516.32Z" fill="#DDB891"/>
<path d="M530.387 545.284C530.634 544.721 531.036 544.24 531.547 543.896C532.057 543.553 532.654 543.362 533.269 543.346L534.107 543.458C534.633 543.604 535.113 543.883 535.499 544.269C535.663 544.482 535.827 544.695 535.992 544.907C536.274 545.39 536.423 545.94 536.422 546.499V546.769C536.4 547.598 536.061 548.388 535.474 548.974C534.887 549.561 534.098 549.9 533.269 549.922C532.989 549.885 532.71 549.847 532.431 549.81C531.904 549.665 531.425 549.385 531.039 548.999C530.875 548.786 530.711 548.573 530.546 548.361C530.263 547.878 530.115 547.329 530.116 546.769V546.499C530.097 546.077 530.19 545.658 530.387 545.284V545.284Z" fill="white"/>
<path d="M486.905 556.791C487.152 556.228 487.554 555.746 488.064 555.403C488.574 555.06 489.172 554.869 489.786 554.853L490.625 554.965C491.151 555.11 491.63 555.39 492.016 555.776C492.18 555.989 492.345 556.202 492.509 556.414C492.792 556.897 492.941 557.446 492.94 558.006V558.276C492.918 559.105 492.578 559.895 491.992 560.481C491.405 561.068 490.616 561.407 489.786 561.429C489.507 561.392 489.228 561.354 488.948 561.316C488.422 561.171 487.942 560.892 487.557 560.506C487.392 560.293 487.228 560.08 487.064 559.867C486.781 559.385 486.632 558.835 486.633 558.276V558.006C486.614 557.584 486.708 557.164 486.905 556.791V556.791Z" fill="white"/>
<path d="M504.172 517.448C504.419 516.885 504.821 516.404 505.332 516.06C505.842 515.717 506.439 515.526 507.054 515.51L507.892 515.622C508.419 515.768 508.898 516.047 509.284 516.433L509.777 517.071C510.059 517.554 510.208 518.103 510.207 518.663V518.933C510.185 519.762 509.846 520.552 509.259 521.138C508.673 521.725 507.883 522.064 507.054 522.086C506.775 522.049 506.495 522.011 506.216 521.974C505.69 521.828 505.21 521.549 504.824 521.163C504.66 520.95 504.496 520.737 504.331 520.525C504.049 520.042 503.9 519.493 503.901 518.933V518.663C503.882 518.241 503.975 517.822 504.172 517.448V517.448Z" fill="#DDB891"/>
<path d="M497.595 543.076C499.245 543.076 500.825 544.527 500.748 546.229C500.672 547.938 499.363 549.383 497.595 549.383C495.946 549.383 494.366 547.932 494.442 546.229C494.519 544.521 495.828 543.076 497.595 543.076Z" fill="#DDB891"/>
<path d="M522.73 526.319C524.379 526.319 525.96 527.77 525.883 529.473C525.807 531.181 524.498 532.626 522.73 532.626C521.081 532.626 519.501 531.175 519.577 529.473C519.653 527.764 520.962 526.319 522.73 526.319Z" fill="white"/>
<path d="M483.543 513.617C485.192 513.617 486.772 515.068 486.696 516.77C486.619 518.479 485.31 519.924 483.543 519.924C481.893 519.924 480.313 518.473 480.389 516.77C480.466 515.062 481.775 513.617 483.543 513.617Z" fill="#DDB891"/>
<path d="M508.497 556.095C508.744 555.531 509.146 555.05 509.656 554.707C510.166 554.364 510.764 554.173 511.378 554.156C511.658 554.194 511.937 554.231 512.217 554.269C512.743 554.414 513.222 554.693 513.608 555.08C513.772 555.292 513.937 555.505 514.101 555.718C514.384 556.201 514.532 556.75 514.531 557.309V557.85C514.509 558.679 514.17 559.469 513.583 560.055C512.997 560.642 512.208 560.981 511.378 561.003L510.54 560.89C510.014 560.745 509.534 560.466 509.149 560.08C508.984 559.867 508.82 559.654 508.656 559.441C508.373 558.959 508.224 558.409 508.225 557.85V557.309C508.206 556.888 508.3 556.468 508.497 556.095V556.095Z" fill="#DDB891"/>
<path d="M541.198 558.527C541.445 557.964 541.847 557.483 542.357 557.139C542.867 556.796 543.465 556.605 544.079 556.589L544.918 556.701C545.444 556.847 545.923 557.126 546.309 557.512C546.473 557.725 546.638 557.938 546.802 558.151C547.085 558.633 547.234 559.183 547.233 559.742V560.012C547.211 560.842 546.871 561.631 546.285 562.217C545.698 562.804 544.909 563.143 544.079 563.165C543.8 563.128 543.521 563.09 543.241 563.053C542.715 562.908 542.236 562.628 541.85 562.242C541.685 562.029 541.521 561.816 541.357 561.604C541.074 561.121 540.925 560.572 540.926 560.012V559.742C540.907 559.32 541.001 558.901 541.198 558.527V558.527Z" fill="#DDB891"/>
<path d="M299.344 330.279C299.282 334.186 292.262 338.352 292.238 342.02C289.813 344.78 288.322 345.961 284.483 347.314C280.644 348.667 270.543 349.999 266.282 348.922C262.267 347.793 246.714 342.875 261.082 340.713C263.992 340.276 269.285 341.538 273.004 340.819C275.987 340.242 273.681 338.796 274.236 338.399C275.091 337.788 275.521 338.864 276.516 338.586C278.615 337.997 276.848 336.235 280.392 336.118C281.102 336.095 299.16 332.025 299.344 330.279Z" fill="#F19164"/>
<path d="M264.336 338.632C263.706 338.389 262.937 337.908 263.111 337.172C263.26 336.542 263.975 336.455 264.566 336.423C267.641 336.256 270.786 336.044 273.877 335.908C275.726 335.827 277.648 335.675 279.441 336.142C281.415 336.656 283.476 337.532 284.999 338.76C285.464 339.134 281.349 341.222 280.893 341.285C279.53 341.472 278.33 341.117 277.052 340.945C272.72 340.361 268.441 340.214 264.336 338.632Z" fill="#F19164"/>
<path d="M389.024 274.564C385.425 284.4 378.361 291.676 372.3 299.92C366.435 307.9 366.293 318.829 358.734 325.751C358.639 325.839 358.51 325.937 358.41 326.021C349.213 333.829 333.977 338.588 322.752 340.853C311.407 343.142 300.841 346.929 289.605 348.929C288.691 342.966 288.661 337.152 287.938 331.005C296.439 327.817 309.21 322.103 316.711 318.425C325.124 314.3 332.994 303.621 334.952 300.043C340.184 290.477 341.156 286.174 345.511 278.602C348.02 274.239 349.127 272.577 351.907 268.814C352.283 268.305 352.429 268.147 352.72 267.806C354.708 265.479 357.105 263.535 359.792 262.072C359.808 262.063 359.827 262.055 359.837 262.05C362.419 260.727 364.836 259.297 367.642 258.314C371.002 259.156 375.995 257.905 379.14 258.358C383.768 259.024 387.456 260.736 389.417 264.679C391.014 267.889 390.128 271.546 389.024 274.564Z" fill="#9ABED6"/>
<path d="M370.609 548.706L374.494 568.131L383.559 567.807L384.207 545.469L370.609 548.706Z" fill="#F19164"/>
<path d="M426.617 547.087L430.178 568.778L438.92 568.455L439.243 544.497L426.617 547.087Z" fill="#F19164"/>
<path d="M362.689 547.058C363.355 549.545 364.221 552.274 366.448 553.565C368.188 554.574 370.335 554.441 372.339 554.278L390.47 552.804C391.723 552.702 393.056 552.571 394.047 551.797C395.536 550.635 395.725 548.484 395.699 546.596C395.549 535.953 392.503 525.599 390.198 515.207C383.419 484.642 383.009 452.567 390.021 422.055C389.665 466.838 403.653 510.346 417.491 552.94C426.178 552.312 434.865 551.685 443.552 551.057C444.266 530.803 442.768 510.53 439.085 490.601C437.241 480.626 434.846 470.718 434.063 460.604C432.966 446.438 435.053 432.247 436 418.069C436.946 403.892 436.666 389.21 431.145 376.118C423.38 383.526 411.064 383.457 400.711 380.627C390.359 377.798 380.568 372.698 369.903 371.501C361.215 370.525 347.443 373.354 343.919 382.778C342.31 387.081 343.554 393.369 343.526 397.898C343.484 404.809 343.569 411.719 343.783 418.628C344.641 446.445 347.556 474.16 352.503 501.547C355.268 516.849 358.663 532.019 362.689 547.058Z" fill="#1F4734"/>
<path d="M378.173 564.406C376.406 563.777 374.978 562.187 373.105 562.069C371.673 561.98 370.355 562.786 369.147 563.562C361.43 568.52 353.712 573.478 345.995 578.436C344.889 579.146 343.674 580.026 343.526 581.332C343.381 582.609 344.395 583.788 345.587 584.268C346.78 584.747 348.111 584.689 349.394 584.623L381.077 582.992C382.602 582.914 384.326 582.736 385.257 581.526C386.068 580.471 385.978 579.004 385.849 577.68C385.562 574.73 386.128 568.756 384.698 566.147C382.97 562.998 381.111 565.452 378.173 564.406Z" fill="#1D2A4F"/>
<path d="M441.114 564.799C440.153 563.807 438.99 563.033 437.704 562.529C436.418 562.025 435.039 561.804 433.66 561.88C431.405 562.021 429.123 563.083 427.934 565.004C426.993 566.524 426.82 568.384 426.709 570.168C426.447 574.398 426.399 578.638 426.565 582.873C426.623 584.36 426.763 585.981 427.787 587.062C428.864 588.199 430.583 588.385 432.148 588.467C435.153 588.623 438.161 588.651 441.173 588.551C443.544 588.473 446.271 588.116 447.552 586.119C448.925 583.979 447.88 581.151 446.635 578.933C444.206 574.603 444.567 568.406 441.114 564.799Z" fill="#1D2A4F"/>
<path d="M436.334 392.169C427.383 391.554 418.637 394.563 409.792 396.052C389.669 399.438 360.513 409.73 343.095 399.098C341.733 398.267 343.787 341.109 346.409 330.802C346.741 329.5 349.499 328.587 349.85 327.289C352.967 315.739 356.793 303.257 352.305 292.166C350.96 288.84 362.76 260.31 367.315 258.735C374.548 256.235 382.112 254.62 389.632 253.288C393.2 252.652 396.855 252.672 400.416 253.347C401.679 253.587 402.923 253.916 404.14 254.331C404.197 254.35 404.257 254.371 404.321 254.392C405.204 254.684 406.232 254.952 407.338 255.214C407.36 255.22 407.383 255.226 407.406 255.231C409.789 255.839 412.545 256.495 413.143 256.699C413.158 256.707 413.173 256.71 413.186 256.716C413.19 256.718 413.192 256.718 413.196 256.72C421.342 259.787 425.227 261.059 429.672 268.851C431.279 271.67 432.555 274.062 433.511 276.456C433.713 282.855 431.338 289.747 430.747 296.335C429.942 305.344 432.607 314.311 432.709 323.358C432.792 330.665 431.2 337.964 431.596 345.241C431.625 345.769 431.664 346.296 431.715 346.822C432.47 354.604 433.285 360.032 434.326 367.78C435.458 376.208 437.333 380.358 436.334 392.169Z" fill="#9ABED6"/>
<path d="M360.526 353.107C354.743 352.638 345.617 352.707 341.219 349.643C340.049 348.827 337.379 347.298 338.254 346.27C337.416 346.127 336.777 345.441 336.84 344.752C336.903 344.063 337.659 343.46 338.514 343.417C337.761 343.202 337.219 342.577 337.225 341.933C337.232 341.289 337.787 340.671 338.544 340.466C337.682 339.608 338.401 338.219 339.604 337.691C340.808 337.163 342.264 337.243 343.629 337.338C347.479 337.607 351.329 337.875 355.179 338.143C353.349 337.089 350.489 337.403 348.659 336.349C348.141 336.05 347.226 335.264 346.981 334.776C346.439 333.691 347.149 332.996 347.594 332.629C348.1 332.213 349.248 332.578 349.858 332.889C350.469 333.2 352.488 333.959 353.113 334.186C356.296 335.342 357.468 334.942 360.234 335.639C366.143 337.126 369.077 342.785 374.797 344.693C374.655 347.401 377.832 359.137 373.788 357.333C369.081 355.234 365.393 353.501 360.526 353.107Z" fill="#F19164"/>
<path d="M437.333 322.501C437.258 327.763 437.786 336.513 435.109 341.043C434.164 342.617 432.979 344.033 431.596 345.241C428.636 347.871 424.876 349.723 421.172 351.261C404.405 358.203 386.249 361.14 368.148 359.838C369.19 352.918 369.409 345.899 368.799 338.928C376.721 340.617 385.138 338.011 391.711 333.28C398.284 328.55 403.217 321.869 407.281 314.864C409.898 310.351 412.271 305.21 411.256 300.094C410.218 294.855 405.93 290.996 402.859 286.629C399.787 282.259 398.099 275.675 401.951 271.977C403.053 270.919 404.54 270.187 405.221 268.821C406.2 266.863 405.1 264.51 403.762 262.776C401.751 260.171 395.673 256.675 399.361 253.828C399.675 253.595 400.034 253.431 400.416 253.347C401.678 253.587 402.923 253.917 404.14 254.332C404.196 254.35 404.257 254.371 404.321 254.392C404.989 254.605 406.109 254.903 407.338 255.214C407.36 255.22 407.383 255.226 407.406 255.231C409.788 255.839 412.545 256.495 413.143 256.699C413.158 256.707 413.173 256.711 413.186 256.716C413.19 256.718 413.192 256.718 413.196 256.72C421.342 259.788 425.227 261.059 429.672 268.851C431.279 271.67 432.554 274.062 433.511 276.456C434.864 279.837 435.582 283.22 435.709 287.797C436.018 298.883 437.494 311.413 437.333 322.501Z" fill="#9ABED6"/>
<path d="M406.085 326.281C394.256 328.828 382.917 333.274 372.509 339.447C372.463 339.476 372.429 339.522 372.416 339.576C372.403 339.629 372.411 339.686 372.439 339.734C372.467 339.781 372.512 339.816 372.565 339.831C372.618 339.846 372.675 339.839 372.723 339.813C383.1 333.66 394.404 329.229 406.198 326.69C406.465 326.633 406.352 326.223 406.085 326.281Z" fill="#78A4C2"/>
<path d="M416.773 280.229C416.28 281.268 415.821 282.319 415.396 283.382C413.335 275.632 413.255 267.487 415.164 259.698C415.229 259.433 414.82 259.319 414.754 259.585C412.798 267.566 412.908 275.914 415.075 283.84C415.081 283.866 415.093 283.891 415.11 283.912C415.126 283.933 415.147 283.951 415.17 283.964C411.222 294.174 410.395 305.328 412.796 316.009C412.856 316.275 413.265 316.163 413.205 315.896C410.524 303.971 411.909 291.491 417.139 280.444C417.256 280.198 416.89 279.982 416.773 280.229Z" fill="#78A4C2"/>
<path d="M421.554 348.249C406.109 353.53 389.873 356.127 373.551 355.927C373.496 355.929 373.444 355.952 373.405 355.992C373.367 356.031 373.346 356.084 373.346 356.139C373.346 356.194 373.367 356.247 373.405 356.287C373.444 356.327 373.496 356.35 373.551 356.352C389.911 356.553 406.185 353.951 421.667 348.658C421.924 348.57 421.813 348.16 421.554 348.249Z" fill="#78A4C2"/>
<path d="M396.998 267.811C389.621 272.302 379.904 271.752 373.069 266.48C372.853 266.313 372.641 266.682 372.854 266.847C379.804 272.207 389.719 272.74 397.212 268.178C397.445 268.036 397.232 267.668 396.998 267.811Z" fill="#78A4C2"/>
<path d="M422.138 383.84C411.934 383.993 402.071 386.727 392.416 389.815C382.212 393.078 372.043 396.452 361.858 399.774C361.599 399.858 361.71 400.268 361.971 400.183C371.95 396.928 381.918 393.635 391.911 390.422C401.73 387.266 411.752 384.421 422.138 384.264C422.193 384.263 422.245 384.239 422.284 384.2C422.322 384.16 422.343 384.107 422.343 384.052C422.343 383.997 422.322 383.944 422.284 383.905C422.245 383.865 422.193 383.842 422.138 383.84Z" fill="#78A4C2"/>
<path d="M403.392 373.983C393.671 375.501 384.175 378.215 375.119 382.063C374.869 382.169 375.085 382.535 375.334 382.429C384.357 378.6 393.819 375.901 403.505 374.393C403.774 374.351 403.66 373.942 403.392 373.983Z" fill="#78A4C2"/>
<path d="M394.393 305.975C386.042 301.479 378.928 294.992 373.684 287.089C373.534 286.862 373.166 287.075 373.317 287.303C378.599 295.269 385.765 301.808 394.179 306.341C394.42 306.471 394.634 306.104 394.393 305.975Z" fill="#78A4C2"/>
<path d="M366.383 303.362C363.86 312.526 358.819 321.23 351.681 328.734C351.476 328.949 351.814 329.211 352.02 328.994C359.212 321.435 364.303 312.664 366.845 303.431C366.918 303.167 366.456 303.098 366.383 303.362Z" fill="#78A4C2"/>
<path d="M385.88 310.622C383.352 309.558 381.07 307.984 379.179 305.997C377.287 304.01 375.827 301.655 374.888 299.077C374.795 298.822 374.385 298.932 374.479 299.19C375.441 301.836 376.94 304.255 378.883 306.293C380.826 308.331 383.17 309.944 385.767 311.031C386.019 311.137 386.129 310.726 385.88 310.622Z" fill="#78A4C2"/>
<path d="M391.662 406.868C390.75 411.983 389.838 417.097 388.926 422.212C388.878 422.479 389.287 422.594 389.335 422.325L392.071 406.981C392.119 406.714 391.71 406.599 391.662 406.868Z" fill="#173627"/>
<path d="M431.544 457.425L426.462 442.134C426.377 441.876 425.966 441.987 426.053 442.247C427.747 447.344 429.44 452.441 431.134 457.538C431.22 457.796 431.63 457.685 431.544 457.425Z" fill="#173627"/>
<path d="M415.132 501.234L411.429 524.141C411.386 524.408 411.795 524.524 411.838 524.254C413.073 516.618 414.307 508.982 415.542 501.347C415.585 501.079 415.176 500.964 415.132 501.234Z" fill="#173627"/>
<path d="M383.839 479.779C381.668 473.482 379.496 467.185 377.324 460.888C377.236 460.631 376.826 460.742 376.915 461.001C379.087 467.298 381.258 473.595 383.43 479.892C383.518 480.149 383.928 480.038 383.839 479.779Z" fill="#173627"/>
<path d="M442.032 579.644C439.818 578.919 437.477 578.668 435.16 578.909C432.843 579.149 430.603 579.875 428.585 581.04C428.539 581.069 428.506 581.115 428.492 581.169C428.479 581.222 428.488 581.279 428.515 581.326C428.543 581.374 428.588 581.409 428.641 581.424C428.695 581.439 428.751 581.432 428.8 581.406C430.768 580.271 432.954 579.563 435.215 579.33C437.476 579.097 439.76 579.343 441.919 580.053C442.179 580.138 442.291 579.728 442.032 579.644Z" fill="#152038"/>
<path d="M434.085 568.065C434.066 567.794 433.641 567.792 433.661 568.065C433.833 570.443 434.005 572.821 434.177 575.199C434.197 575.469 434.622 575.472 434.602 575.199C434.43 572.821 434.258 570.443 434.085 568.065Z" fill="#152038"/>
<path d="M373.047 565.756C371.339 566.759 369.631 567.761 367.923 568.764C367.877 568.794 367.843 568.84 367.83 568.894C367.817 568.947 367.825 569.004 367.853 569.051C367.881 569.099 367.926 569.134 367.979 569.149C368.032 569.163 368.089 569.157 368.138 569.131C369.846 568.128 371.554 567.125 373.262 566.123C373.308 566.093 373.342 566.047 373.355 565.993C373.368 565.94 373.36 565.883 373.332 565.836C373.304 565.788 373.259 565.753 373.206 565.738C373.153 565.723 373.096 565.73 373.047 565.756V565.756Z" fill="#152038"/>
<path d="M382.426 574.524C380.696 574.173 378.897 574.455 377.356 575.316C375.815 576.178 374.633 577.564 374.026 579.221C373.932 579.479 374.342 579.589 374.435 579.334C375.011 577.784 376.12 576.49 377.564 575.684C379.008 574.877 380.691 574.611 382.313 574.933C382.58 574.988 382.694 574.578 382.426 574.524Z" fill="#152038"/>
<path d="M386.935 190.205C390.862 189.035 395.033 191.08 398.233 193.638C405.397 199.366 410.191 208.67 408.646 217.711C407.987 221.567 406.256 225.145 404.546 228.662C402.479 232.912 400.412 237.161 398.346 241.41C397.184 243.798 395.426 246.56 392.775 246.416C389.844 246.258 388.486 242.731 388.084 239.824C387.189 233.359 387.206 226.045 382.562 221.459C380.47 219.394 377.515 218.005 376.392 215.288C375.745 213.723 375.801 211.881 374.869 210.467C373.914 209.017 372.163 208.366 370.621 207.567C369.08 206.768 367.502 205.466 367.502 203.73C367.502 202.069 368.93 200.807 370.237 199.782C372.903 197.69 376.094 194.089 379.214 192.801C380.238 192.378 381.675 192.477 382.808 192.054C384.225 191.526 385.474 190.64 386.935 190.205Z" fill="#5B3A3C"/>
<path d="M392.699 218.571C394.633 219.582 395.218 222.256 394.442 224.296C393.666 226.336 391.87 227.815 389.991 228.926C393.23 236.33 393.137 246.462 396.376 253.866C397.151 258.905 394.104 264.23 389.622 264.884C385.858 265.434 379.367 265.079 376.943 262.148C373.143 257.553 376.228 257.65 374.783 245.966C371 247.738 366.272 245.549 363.982 242.055C361.693 238.561 361.325 234.163 361.427 229.987C361.559 224.622 362.353 219.294 363.789 214.124C364.895 210.147 366.739 205.879 370.527 204.241C374.766 202.408 379.878 204.785 382.644 208.482C384.76 211.309 384.788 214.84 386.487 217.656C388.746 221.398 389.367 216.828 392.699 218.571Z" fill="#F19164"/>
<path d="M375.198 207.384C373.827 208.452 371.956 208.62 370.451 209.489C366.42 211.82 366.258 218.245 362.138 220.416C358.845 222.152 354.533 219.988 352.818 216.684C351.103 213.38 351.388 209.403 352.159 205.762C352.618 203.595 353.305 201.342 354.943 199.851C356.218 198.69 357.966 198.097 359.099 196.797C360.581 195.096 360.826 192.394 362.72 191.169C365.05 189.662 368.061 191.383 370.833 191.495C374.042 191.624 377.049 189.516 380.251 189.752C381.602 189.876 382.883 190.406 383.926 191.272C384.97 192.138 385.728 193.298 386.1 194.602C386.929 197.726 385.501 200.601 382.576 201.465C380.923 201.954 379.763 201.753 378.392 203.054C377.079 204.301 376.673 206.236 375.198 207.384Z" fill="#5B3A3C"/>
<path d="M383.376 194.447C382.308 197.699 380.573 200.693 378.281 203.236C378.009 203.539 378.444 204.004 378.718 203.699C381.085 201.073 382.879 197.984 383.986 194.627C384.115 194.238 383.504 194.059 383.376 194.447Z" fill="#472E30"/>
<path d="M394.133 217.695C393.959 217.215 393.771 216.741 393.592 216.263C395.013 209.179 394.509 201.843 392.132 195.02C391.999 194.637 391.38 194.786 391.514 195.173C393.752 201.572 394.317 208.437 393.158 215.116C391.64 211.173 389.955 207.301 388.102 203.501C387.921 203.132 387.363 203.438 387.543 203.805C389.784 208.376 391.777 213.063 393.515 217.848C393.654 218.228 394.273 218.08 394.133 217.695Z" fill="#472E30"/>
<path d="M402.427 208.414C402.36 208.011 401.742 208.165 401.809 208.567C402.63 213.51 402.356 218.573 401.008 223.399C400.977 221.74 400.693 220.095 400.165 218.522C400.036 218.136 399.417 218.285 399.547 218.675C400.322 220.969 400.56 223.41 400.243 225.81C399.379 228.212 398.251 230.511 396.88 232.664C396.659 233.01 397.201 233.345 397.421 233C402.072 225.705 403.855 216.946 402.427 208.414Z" fill="#472E30"/>
<path d="M372.74 199.969C371.193 201.345 369.729 202.811 368.354 204.359C364.463 204.524 360.634 205.394 357.055 206.928C356.678 207.089 356.985 207.647 357.359 207.487C360.658 206.076 364.176 205.245 367.758 205.032C366.167 206.883 364.707 208.841 363.387 210.893C363.165 211.238 363.707 211.573 363.928 211.228C366.502 207.223 369.614 203.591 373.177 200.432C373.484 200.16 373.046 199.698 372.74 199.969Z" fill="#472E30"/>
<path d="M370.75 233.632L368.254 233.429C369.907 229.721 370.914 225.758 371.231 221.711C371.263 221.303 370.627 221.292 370.595 221.7C370.279 225.799 369.238 229.808 367.519 233.542C367.491 233.59 367.475 233.645 367.475 233.7C367.474 233.756 367.487 233.811 367.514 233.86C367.541 233.909 367.58 233.95 367.627 233.979C367.674 234.009 367.728 234.026 367.784 234.028C368.769 234.108 369.754 234.188 370.74 234.269C371.147 234.302 371.158 233.665 370.75 233.632Z" fill="#D6693E"/>
<path d="M375.23 235.271C373.801 237.937 370.679 238.758 368.117 237.119C367.771 236.898 367.437 237.439 367.782 237.66C370.607 239.466 374.181 238.572 375.771 235.606C375.964 235.247 375.424 234.91 375.23 235.271Z" fill="#D6693E"/>
<path d="M386.565 235.596C384.12 239.623 380.514 242.816 376.22 244.754C375.847 244.924 376.154 245.481 376.525 245.312C380.917 243.323 384.604 240.053 387.106 235.932C387.147 235.86 387.158 235.775 387.138 235.695C387.118 235.615 387.067 235.546 386.997 235.503C386.927 235.459 386.843 235.445 386.762 235.462C386.681 235.48 386.611 235.528 386.565 235.596V235.596Z" fill="#D6693E"/>
<path d="M392.143 220.859C392.054 220.459 391.437 220.612 391.525 221.012C391.669 221.675 391.636 222.363 391.429 223.008C391.285 222.733 391.142 222.457 390.998 222.182C390.809 221.818 390.25 222.123 390.44 222.487C390.661 222.912 390.883 223.338 391.105 223.764C390.812 224.266 390.408 224.695 389.923 225.016C389.585 225.241 389.887 225.802 390.228 225.574C390.991 225.078 391.583 224.36 391.925 223.517C392.267 222.674 392.343 221.747 392.143 220.859V220.859Z" fill="#D6693E"/>
<path d="M369.24 219.169C369.488 219.361 369.669 219.625 369.759 219.925C369.799 220.076 369.784 220.236 369.717 220.376C369.65 220.517 369.535 220.63 369.393 220.694C369.004 220.823 368.648 220.461 368.319 220.218C367.907 219.916 367.402 219.769 366.892 219.803C366.373 219.84 365.879 220.064 365.359 220.082C364.839 220.1 364.233 219.792 364.211 219.273C364.217 219.105 364.269 218.942 364.361 218.801C364.454 218.661 364.583 218.549 364.735 218.477C366.194 217.696 368.03 218.097 369.24 219.169Z" fill="#5B3A3C"/>
<path d="M378.368 219.555C379.001 219.559 379.625 219.708 380.193 219.989C380.743 220.298 381.184 220.864 381.192 221.495C381.201 221.648 381.172 221.802 381.108 221.942C381.044 222.081 380.946 222.204 380.824 222.297C380.378 222.59 379.799 222.291 379.317 222.062C378.292 221.58 377.142 221.428 376.026 221.628C375.423 221.738 374.821 221.95 374.213 221.872C373.766 221.815 373.029 221.406 373.079 220.86C373.135 220.236 374.088 220.095 374.569 219.963C375.805 219.623 377.088 219.485 378.368 219.555Z" fill="#5B3A3C"/>
<path d="M366.963 224.469C366.746 225.542 366.253 226.347 365.86 226.268C365.468 226.189 365.326 225.255 365.543 224.182C365.76 223.109 366.253 222.303 366.646 222.382C367.038 222.462 367.18 223.396 366.963 224.469Z" fill="#422A2C"/>
<path d="M377.209 225.713C376.992 226.786 376.499 227.591 376.107 227.512C375.714 227.433 375.572 226.499 375.789 225.426C376.006 224.353 376.5 223.547 376.892 223.626C377.284 223.706 377.426 224.64 377.209 225.713Z" fill="#422A2C"/>
<path d="M179.386 451.273C179.753 477.543 179.602 503.82 178.799 530.08V530.084C179.442 530.043 180.084 530 180.566 529.957V529.955C180.727 519.971 181.046 509.988 181.164 500.003C181.603 462.797 180.942 425.6 179.181 388.409C177.708 357.293 175.464 326.226 172.45 295.209C172.015 296.678 171.594 298.151 171.188 299.628C172.454 312.996 173.573 326.376 174.542 339.768C177.262 376.878 178.876 414.046 179.386 451.273Z" fill="#C64F39"/>
<path d="M83.7366 402.468C84.363 401.932 85.0478 401.433 85.8389 401.201C87.5663 400.693 89.475 401.6 90.5966 403.009C91.7182 404.417 92.1898 406.231 92.4698 408.01C93.135 412.235 92.8774 416.547 92.5414 420.812C93.1878 421.036 93.863 421.166 94.5463 421.198C94.9366 418.855 95.0199 416.472 94.7941 414.107C94.734 413.655 94.7127 413.199 94.7305 412.744C94.7794 412.102 95.0061 411.474 94.9702 410.831C94.9294 410.101 94.5539 409.428 94.4559 408.703C94.3839 408.17 94.4644 407.629 94.4652 407.091C94.446 406.36 94.3397 405.634 94.1485 404.928C93.7175 403.144 92.9909 401.238 91.3774 400.365C90.31 399.788 89.0353 399.77 87.8233 399.834C86.8919 399.883 85.9636 399.971 85.0385 400.099C84.4757 400.146 83.9269 400.299 83.4208 400.55C82.9095 400.84 82.5242 401.304 82.1509 401.758C81.192 402.924 80.233 404.09 79.2741 405.255C78.5386 406.037 78.0056 406.986 77.7216 408.02C77.1538 409.718 76.5842 411.423 76.2587 413.183C76.187 413.67 76.0801 414.152 75.939 414.624C75.8214 414.97 75.6569 415.3 75.5596 415.653C75.493 415.894 75.2774 417.119 75.6642 417.182C75.9807 417.234 76.2425 416.336 76.3085 416.139C76.7203 414.913 76.9893 413.64 77.4197 412.415C78.2629 410.014 79.3596 407.681 80.8571 405.615C81.69 404.457 82.6565 403.401 83.7366 402.468V402.468Z" fill="#563820"/>
<path d="M92.2361 401C90.1706 398.601 86.868 398.441 84.2006 399.944C81.2855 401.586 79.1763 404.744 77.7393 407.685C75.9877 411.283 75.1296 415.25 75.2376 419.25C75.2473 419.626 75.829 419.586 75.8192 419.212C75.6561 412.921 78.0065 405.938 82.8057 401.673C85.3489 399.413 89.2978 398.495 91.7747 401.358C93.7721 403.667 94.1671 407.027 94.3885 409.948C94.7143 414.244 94.3873 418.555 94.0591 422.84C94.0308 423.21 94.6016 423.331 94.6302 422.958C94.9576 418.683 95.2894 414.386 94.9837 410.099C94.7632 407.006 94.3445 403.449 92.2361 401Z" fill="#563820"/>
<path d="M85.8264 390.915C89.8057 390.047 94.2934 392.564 97.8639 390.605C100.089 389.386 101.149 386.813 101.959 384.41C103.042 381.203 103.974 377.95 104.755 374.65C106.108 368.933 113.783 339.248 119.868 326.35C121.194 311.741 121.956 297.123 121.235 282.465C120.787 273.376 121.041 259.395 130.373 254.79C130.331 254.544 130.287 254.297 130.242 254.053C127.553 254.149 125.093 255.599 122.803 256.912C118.937 259.125 102.799 284.309 101.19 288.957C97.6703 299.125 92.8209 319.225 91.8041 330.802C89.7001 354.75 82.8758 367.058 85.8264 390.915Z" fill="#B0404A"/>
<path d="M115.55 485.992C115.749 490.975 115.756 496.103 113.985 500.765C112.213 505.427 108.287 509.577 103.344 510.241C96.9914 511.095 91.4639 506.3 85.5846 503.747C75.8999 499.541 64.8301 501.432 54.283 501.924C43.7358 502.416 31.6631 500.616 25.7139 491.893C22.7453 487.54 21.8241 482.106 21.6389 476.841C21.1533 463.042 25.9399 448.728 37.5392 440.537C44.3158 435.752 51.2577 433.057 57.5776 427.477C62.791 422.874 67.5986 418.462 74.6637 416.972C108.773 409.774 114.662 463.782 115.55 485.992Z" fill="#FDC659"/>
<path d="M94.2044 444.319C94.8303 439.061 94.5185 433.667 92.399 428.759C92.2514 428.417 91.6991 428.605 91.8484 428.951C94.9457 436.123 94.1218 443.842 92.2736 451.245C92.2744 451.201 92.264 451.158 92.2434 451.119C92.2228 451.081 92.1927 451.048 92.1559 451.024C92.1192 451 92.077 450.986 92.0333 450.983C91.9896 450.98 91.9458 450.988 91.9061 451.007C78.2938 457.116 63.1787 459.062 48.4629 456.6C44.3049 455.902 40.2144 454.848 36.2362 453.452C35.8862 453.329 35.6226 453.849 35.9759 453.973C41.6962 455.976 47.6376 457.28 53.6708 457.857C53.6183 457.901 53.5845 457.964 53.5761 458.031C53.5677 458.099 53.5854 458.168 53.6256 458.223C54.1593 459.024 54.8608 459.7 55.6816 460.202C56.5024 460.705 57.4227 461.023 58.3787 461.134C59.3347 461.246 60.3035 461.148 61.2178 460.847C62.1321 460.546 62.9701 460.05 63.6735 459.394C63.9507 459.141 63.5097 458.759 63.2351 459.01C62.5916 459.601 61.8274 460.046 60.9952 460.314C60.163 460.581 59.2826 460.665 58.4149 460.559C57.5472 460.454 56.7127 460.161 55.9692 459.701C55.2257 459.241 54.5908 458.626 54.1084 457.897L54.1075 457.896C62.779 458.684 71.5214 457.985 79.9574 455.828C84.1201 454.759 88.1822 453.33 92.0978 451.558C92.1473 451.536 92.1899 451.5 92.2209 451.456C91.6018 453.909 90.8735 456.326 90.1406 458.676C87.414 467.419 84.4755 476.503 86.3634 485.738C87.2726 490.185 89.3037 494.37 92.6863 497.455C92.964 497.708 93.3478 497.269 93.0704 497.017C86.452 490.981 85.4846 481.233 86.9299 472.869C88.607 463.164 93.0363 454.135 94.2044 444.319Z" fill="#563820"/>
<path d="M42.7666 494.287C37.6526 490.086 34.0791 484.305 32.6075 477.853C31.0572 470.937 32.1647 463.569 35.5234 457.348C35.7021 457.016 35.1797 456.758 35.0017 457.087C29.7422 466.829 30.239 478.875 36.3795 488.099C38.0428 490.592 40.0657 492.825 42.3825 494.725C42.6721 494.963 43.0571 494.526 42.7666 494.287Z" fill="#563820"/>
<path d="M89.0496 426.2C85.3527 423.541 80.8749 422.189 76.324 422.359C71.7731 422.529 67.4086 424.21 63.9202 427.138C63.6367 427.378 63.9599 427.863 64.247 427.621C67.6285 424.765 71.8654 423.119 76.2877 422.941C80.7101 422.763 85.0655 424.064 88.6655 426.639C88.9677 426.856 89.3544 426.42 89.0496 426.2Z" fill="#563820"/>
<path d="M110.277 500.799C107.895 501.813 105.289 502.185 102.718 501.879C100.147 501.573 97.7012 500.599 95.6236 499.055C95.3253 498.83 94.9392 499.267 95.2395 499.493C97.3949 501.105 99.9348 502.125 102.607 502.451C105.278 502.776 107.989 502.397 110.468 501.349C110.811 501.202 110.623 500.65 110.277 500.799Z" fill="#563820"/>
<path d="M97.0675 399.647C97.2428 400.655 97.4852 401.656 97.5378 402.678C97.6244 404.36 97.1947 406.021 96.7686 407.65C96.5606 408.445 96.2899 409.324 95.5721 409.724C95.5087 409.766 95.437 409.795 95.3617 409.808C95.2864 409.822 95.2091 409.819 95.135 409.8C94.9372 409.728 94.8612 409.493 94.8108 409.289C94.5112 408.074 94.2116 406.86 93.9121 405.645C93.62 407.041 92.8912 408.308 91.8312 409.262C91.2489 409.784 90.4954 410.22 89.7234 410.097C88.9513 409.974 88.3148 409.05 88.7213 408.382C88.5988 408.628 88.3875 408.818 88.1302 408.914C87.8729 409.009 87.5888 409.003 87.3357 408.897C87.0826 408.791 86.8793 408.593 86.767 408.342C86.6548 408.092 86.642 407.808 86.7313 407.548C86.5539 407.749 86.3258 407.898 86.0709 407.98C85.816 408.063 85.5437 408.075 85.2825 408.016C84.7695 407.868 84.3908 407.282 84.564 406.777C84.4387 407.135 83.8858 407.154 83.6189 406.885C83.3521 406.616 83.3084 406.201 83.3175 405.823C83.3708 403.598 84.6862 401.622 86.0055 399.83C87.3248 398.038 88.7437 396.178 89.061 393.976C89.2788 392.464 88.9518 390.934 88.8144 389.413C88.6769 387.891 88.7661 386.243 89.6801 385.019C90.1519 384.419 90.7827 383.965 91.5005 383.707C92.2183 383.449 92.9942 383.398 93.7396 383.559C96.0416 384.071 98.1066 386.87 97.6336 389.2C96.916 392.735 96.4405 396.04 97.0675 399.647Z" fill="#FFB5A8"/>
<path d="M100.755 391.586L88.0051 391.831C87.3325 391.844 86.4774 391.847 85.9153 391.477C85.4896 386.31 86.2503 381.055 87.8762 376.131C88.2357 374.941 88.7426 373.801 89.3851 372.737C90.0257 371.735 90.8527 370.869 91.6758 370.011C92.9881 368.643 94.4408 367.206 96.3116 366.901C98.8934 366.481 104.27 367.565 105.079 370.611C105.559 372.422 104.689 374.507 104.223 376.228C103.573 378.628 102.972 381.041 102.418 383.466C102.257 384.174 100.933 391.583 100.755 391.586Z" fill="#B0404A"/>
<path d="M94.4141 402.898L93.7116 406.045C93.6851 406.164 93.8673 406.214 93.8939 406.095C94.128 405.046 94.3622 403.997 94.5964 402.948C94.6228 402.83 94.4406 402.779 94.4141 402.898Z" fill="#F29F91"/>
<path d="M90.1517 405.789C89.6338 406.751 89.1159 407.713 88.5981 408.675C88.5404 408.782 88.7036 408.877 88.7613 408.77C89.2792 407.808 89.797 406.846 90.3149 405.884C90.3726 405.777 90.2095 405.682 90.1517 405.789Z" fill="#F29F91"/>
<path d="M88.1472 404.525C87.6755 405.54 87.204 406.554 86.7324 407.568C86.6814 407.678 86.8443 407.774 86.8956 407.664L88.3104 404.621C88.3613 404.511 88.1984 404.415 88.1472 404.525Z" fill="#F29F91"/>
<path d="M86.3375 403.673C85.7907 404.634 85.2438 405.596 84.6969 406.557C84.6852 406.579 84.6824 406.604 84.6891 406.627C84.6957 406.651 84.7112 406.671 84.7324 406.684C84.7536 406.696 84.7787 406.7 84.8026 406.694C84.8264 406.688 84.847 406.673 84.8601 406.652C85.407 405.691 85.9539 404.73 86.5008 403.768C86.5124 403.747 86.5152 403.722 86.5086 403.698C86.502 403.674 86.4864 403.654 86.4652 403.642C86.4441 403.629 86.4189 403.626 86.3951 403.632C86.3713 403.637 86.3506 403.652 86.3375 403.673V403.673Z" fill="#F29F91"/>
<path d="M112.908 572.243C117.205 572.665 121.543 572.152 125.622 570.737C124.907 558.254 127.574 545.852 130.226 533.633C131.293 528.716 121.347 527.358 118.68 528.632C114.228 530.757 115.43 534.181 116.362 538.182C119.048 549.716 118.378 561.561 112.908 572.243Z" fill="#FFB5A8"/>
<path d="M165.285 568.391C170.381 570.016 176.312 568.662 180.198 564.987C178.01 561.402 177.444 557.033 177.668 552.84C177.892 548.646 178.849 544.531 179.496 540.381C179.896 537.818 180.108 534.951 178.558 532.87C177 530.781 174.035 530.154 171.485 530.693C163.496 532.381 164.423 537.267 164.609 543.981C164.834 552.118 165.06 560.255 165.285 568.391Z" fill="#FFB5A8"/>
<path d="M164.959 565.624C164.312 568.085 163.66 570.614 163.933 573.145C164.205 575.675 165.609 578.247 167.981 579.17C170.287 580.068 172.854 579.253 175.269 578.709C180.148 577.617 185.214 577.672 190.068 578.871C192.482 579.47 194.899 580.357 197.378 580.16C199.858 579.962 202.459 578.239 202.604 575.756C202.707 573.99 201.533 572.353 200.062 571.371C198.591 570.388 196.846 569.926 195.154 569.41C190.793 568.081 184.062 562.984 179.707 563.395C177.396 563.613 175.144 566.021 172.696 566.504C170.109 567.015 167.35 566.766 164.959 565.624Z" fill="#3B2733"/>
<path d="M115.955 400.323L112.455 536.651L134.903 540.774L157.936 418.487L159.81 540.774H184.548L198.417 388.22L193.544 369.104L130.198 388.22L115.955 400.323Z" fill="#3B2733"/>
<path d="M261.786 341.191C261.531 343.034 255.384 343.09 254.887 344.882C256.329 347.518 259.937 349.394 262.708 350.553C265.48 351.712 273.703 353.137 276.592 352.313C285.928 350.165 298.935 346.423 287.346 344.491C285 344.1 278.335 345.035 274.832 344.296C272.022 343.702 273.989 341.584 273.479 341.516C272.694 341.411 271.924 341.906 271.137 341.818C269.475 341.634 268.742 339.428 266.864 339.916C266.488 340.014 261.695 341.845 261.786 341.191Z" fill="#FFB5A8"/>
<path d="M157.204 193.37C152.543 195.502 148.919 199.35 145.534 203.198C142.11 207.09 138.764 211.133 136.509 215.801C134.122 220.742 133.047 226.197 131.993 231.582C130.845 237.456 129.696 243.331 128.717 249.235C128.433 250.947 128.163 252.691 128.398 254.41C128.633 256.129 129.448 257.849 130.911 258.781C132.271 259.648 133.979 259.728 135.589 259.655C140.329 259.443 145.216 258.013 148.561 254.649C150.983 252.214 152.403 248.989 154.157 246.036C156.857 241.493 160.407 237.523 163.464 233.213C166.521 228.902 169.143 224.06 169.574 218.793C169.823 215.761 169.346 212.614 170.323 209.733C171.055 207.576 172.55 205.746 173.315 203.6C177.031 193.165 164.657 189.961 157.204 193.37Z" fill="#3B2733"/>
<path d="M168.2 257.1C168.253 258.308 168.374 259.62 169.198 260.504C170.297 261.685 172.138 261.623 173.75 261.69C177.604 261.861 181.304 263.257 184.31 265.675C185.647 266.756 187.578 286.519 189.28 286.278C190.887 286.051 194.554 280.283 194.669 278.665C194.784 277.047 191.097 261.168 190.51 259.656C188.641 254.843 186.888 249.857 186.875 244.693C186.861 238.893 189.041 233.323 189.795 227.572C191.248 216.473 186.988 204.778 178.735 197.216C176.269 194.955 173.299 192.986 169.962 192.748C166.625 192.509 162.96 194.518 162.281 197.794C161.823 200.005 162.742 202.237 163.079 204.47C164.135 211.468 159.452 218.631 161.392 225.437C162.341 228.764 164.745 231.447 166.444 234.461C170.148 241.032 167.884 249.952 168.2 257.1Z" fill="#3B2733"/>
<path d="M175.052 247.36C179.007 245.246 180.387 240.354 181.386 235.981C182.574 230.788 183.768 225.512 183.481 220.192C183.206 215.085 181.232 209.672 176.851 207.033C171.803 203.993 164.846 205.709 160.724 209.92C156.602 214.13 154.951 220.247 154.83 226.138C154.893 224.502 153.149 223.142 151.528 223.37C149.906 223.598 148.653 225.136 148.484 226.765C148.315 228.393 149.089 230.025 150.266 231.163C151.298 232.16 153.403 232.428 154.22 233.324C154.971 234.149 154.854 236.66 155.31 237.9C156.048 239.907 157.104 241.105 158.804 242.337C163.396 245.665 169.047 250.571 175.052 247.36Z" fill="#FFB5A8"/>
<path d="M172.631 257.601C171.09 261.379 166.618 263.286 162.544 263.056C158.47 262.826 154.704 260.907 151.129 258.939C153.213 250.938 155.296 242.937 157.38 234.937C157.723 236.521 159.446 237.477 161.065 237.554C162.685 237.631 164.251 237.051 165.813 236.615C167.569 236.124 171.099 235.579 172.171 237.706C172.94 239.233 171.403 241.024 170.774 242.339C168.443 247.214 169.449 253.308 172.631 257.601Z" fill="#FFB5A8"/>
<path d="M155.07 225.459C150.821 221.842 148.659 215.926 149.575 210.422C150.491 204.917 154.451 200.02 159.642 197.973C163.771 196.345 175.225 195.75 174.639 202.678C174.148 208.477 168.329 214.92 164.336 218.728C161.564 221.378 158.447 223.642 155.07 225.459V225.459Z" fill="#3B2733"/>
<path d="M145.742 264.268C139.167 306.089 136.516 348.432 137.824 390.747C154.01 390.456 170.196 390.166 186.382 389.876C188.203 367.335 190.025 344.72 188.969 322.131C188.182 305.288 185.766 288.422 180.652 272.32C178.695 266.157 177.747 257.115 169.728 259.525C161.481 262.004 154.639 264.853 145.742 264.268Z" fill="white"/>
<path d="M121.235 282.466C123.09 320.116 115.154 357.512 113.051 395.148C112.616 402.919 112.801 411.68 118.359 417.128C119.977 418.714 121.949 419.891 124.113 420.562C126.277 421.232 128.569 421.377 130.8 420.984C133.031 420.591 135.136 419.671 136.94 418.301C138.744 416.932 140.195 415.151 141.173 413.108C142.857 409.589 143.023 405.563 143.16 401.665C144.592 360.783 146.024 319.901 147.456 279.019C147.742 270.853 147.653 251.571 134.761 253.459C121.126 255.457 120.726 272.126 121.235 282.466Z" fill="#B0404A"/>
<path d="M162.1 262.975C160.995 258.72 158.349 254.893 157.879 250.522C157.384 245.911 159.359 241.05 157.708 236.717C157.01 234.886 155.331 233.159 153.385 233.395C151.772 233.59 150.616 235.036 149.854 236.472C149.092 237.907 148.49 239.508 147.232 240.536C145.538 241.921 143.114 241.903 140.951 241.577C138.788 241.251 136.569 240.69 134.448 241.223C130.889 242.117 128.729 245.87 128.191 249.5C127.653 253.129 128.32 256.821 128.295 260.49C128.255 266.275 126.502 271.887 125.153 277.513C123.803 283.138 122.855 289.087 124.409 294.659C128.281 294.268 132.189 294.46 136.004 295.227C139.846 286.518 140.238 276.675 137.102 267.687C140.353 276.511 141.086 286.066 139.22 295.283L149.71 294.171C150.779 289.502 149.877 284.644 149.33 279.886C148.784 275.127 148.669 270.019 151.082 265.881L152.87 295.871C153.781 294.644 155.564 294.462 157.068 294.741C159.282 295.152 165.342 296.949 165.142 292.522C165.046 290.389 162.365 288.697 161.987 286.336C160.743 278.573 164.114 270.732 162.1 262.975Z" fill="#3B2733"/>
<path d="M160.996 243.016C162.49 245.206 164.77 246.735 167.363 247.288C167.717 247.364 167.567 247.906 167.214 247.83C164.48 247.238 162.079 245.616 160.51 243.3C160.306 243 160.792 242.719 160.996 243.016Z" fill="#F78B7C"/>
<path d="M150.92 225.919C151.03 226.756 151.304 227.564 151.725 228.296C151.918 227.471 152.11 226.645 152.303 225.819C152.385 225.467 152.928 225.616 152.845 225.969L152.151 228.945C152.775 229.779 153.586 230.456 154.519 230.919C154.843 231.08 154.559 231.565 154.235 231.404C153.186 230.881 152.283 230.107 151.606 229.149C150.93 228.192 150.501 227.082 150.358 225.919C150.311 225.561 150.874 225.565 150.92 225.919Z" fill="#F78B7C"/>
<path d="M181.379 330.851C181.667 307.581 180.609 283.622 171.441 262.277C170.927 261.351 170.491 260.384 170.137 259.386C170.608 258.775 171.012 258.115 171.342 257.417C171.457 257.173 171.567 256.588 171.763 256.413C172.038 256.167 172.157 256.336 172.491 256.499C173.077 256.786 173.683 257.031 174.304 257.232C175.116 257.378 175.919 257.569 176.71 257.804C176.772 257.804 176.813 257.797 176.822 257.777C176.814 257.794 176.806 257.812 176.798 257.829C184.456 260.117 190.888 266.312 195.284 273.195C200.641 281.583 203.788 291.184 208.602 299.896C219.675 319.935 239.919 334.661 262.395 339.026C263.573 339.254 261.969 353.423 256.502 353.73C250.348 354.075 241.882 350.415 235.69 349.311C221.611 346.8 206.889 344.479 194.821 336.245C204.178 359.745 207.665 385.173 204.981 410.325C204.513 414.657 203.314 419.711 199.278 421.354C195.491 422.894 191.335 420.548 187.925 418.292C184.593 416.089 181.14 413.759 179.162 410.288C176.479 405.578 177.037 399.772 177.611 394.381C179.858 373.279 181.113 352.102 181.379 330.851Z" fill="#B0404A"/>
<path d="M185.368 284.004C188.86 295.736 191.342 307.746 192.785 319.902C193.203 323.426 193.532 326.959 193.773 330.501C193.797 330.862 193.235 330.86 193.21 330.501C192.373 318.278 190.486 306.15 187.569 294.251C186.738 290.863 185.823 287.497 184.826 284.153C184.722 283.806 185.265 283.657 185.368 284.004Z" fill="#853038"/>
<path d="M187.368 380.1C187.368 380.056 187.379 380.014 187.398 379.976C187.418 379.937 187.445 379.904 187.48 379.878C187.514 379.851 187.554 379.833 187.596 379.825C187.638 379.816 187.682 379.818 187.724 379.828C192.202 380.976 196.681 382.123 201.16 383.271C201.51 383.361 201.362 383.903 201.011 383.813C196.65 382.696 192.29 381.579 187.929 380.462C187.929 384.306 188.244 389.289 192.239 391.095C194.351 392.05 197.001 391.773 198.769 390.24C199.592 389.516 200.214 388.593 200.575 387.558C200.936 386.524 201.025 385.414 200.832 384.336C200.767 383.982 201.309 383.83 201.374 384.186C202.262 389.032 197.855 393.253 193.046 391.974C187.847 390.591 187.348 384.561 187.368 380.1Z" fill="#853038"/>
<path d="M121.884 300.127C121.904 299.767 122.466 299.765 122.446 300.127C121.978 308.507 121.511 316.887 121.043 325.267C121.023 325.627 120.461 325.629 120.481 325.267C120.949 316.887 121.416 308.507 121.884 300.127Z" fill="#853038"/>
<path d="M170.267 194.845C172.575 196.786 174.028 199.556 174.312 202.559C174.347 202.918 173.785 202.916 173.749 202.559C173.467 199.705 172.073 197.078 169.869 195.243C169.592 195.01 169.991 194.614 170.267 194.845Z" fill="#261921"/>
<path d="M154.885 221.468C155.604 217.025 156.98 212.713 158.967 208.674C159.126 208.349 159.611 208.634 159.452 208.958C158.349 211.205 157.435 213.542 156.722 215.942C161.023 212.916 164.406 208.764 166.502 203.941C166.646 203.61 167.13 203.896 166.987 204.225C164.807 209.221 161.27 213.506 156.777 216.592C156.742 216.619 156.7 216.635 156.656 216.64C156.612 216.644 156.568 216.636 156.529 216.616C156.068 218.261 155.7 219.931 155.427 221.618C155.37 221.974 154.828 221.823 154.885 221.468Z" fill="#261921"/>
<path d="M153.112 202.058C153.261 201.729 153.746 202.015 153.597 202.342C151.112 207.828 149.81 213.775 149.777 219.798C149.775 219.871 149.744 219.94 149.691 219.991C149.639 220.041 149.569 220.069 149.496 220.069C149.423 220.069 149.353 220.041 149.301 219.991C149.248 219.94 149.217 219.871 149.215 219.798C149.253 213.676 150.58 207.632 153.112 202.058V202.058Z" fill="#261921"/>
<path d="M150.346 263.724C151.226 257.887 151.275 251.955 150.493 246.105C150.445 245.747 151.008 245.751 151.055 246.105C151.838 252.006 151.782 257.988 150.888 263.874C150.834 264.23 150.292 264.079 150.346 263.724Z" fill="#261921"/>
<path d="M139.356 237.012C139.445 236.662 139.987 236.811 139.898 237.162C137.779 245.49 137.111 254.122 137.924 262.677C137.958 263.037 137.396 263.035 137.362 262.677C136.548 254.071 137.222 245.389 139.356 237.012V237.012Z" fill="#261921"/>
<path d="M137.741 251.195C139.861 245.373 141.982 239.551 144.102 233.728C144.225 233.391 144.769 233.537 144.644 233.878C142.524 239.7 140.404 245.522 138.283 251.344C138.16 251.682 137.617 251.536 137.741 251.195Z" fill="#261921"/>
<path d="M114.514 528.193C115.268 528.427 116.022 528.662 116.776 528.896C117.327 515.102 117.879 501.309 118.43 487.515C118.985 473.635 119.54 459.756 120.094 445.876C120.408 438.034 120.721 430.192 121.035 422.349C121.049 421.989 121.612 421.987 121.597 422.349C121.042 436.229 120.488 450.108 119.933 463.988C119.378 477.868 118.823 491.747 118.268 505.627C117.956 513.441 117.644 521.255 117.331 529.069C122.506 530.677 127.681 532.285 132.856 533.894C133.2 534.001 133.053 534.544 132.706 534.436C126.592 532.536 120.478 530.635 114.364 528.735C114.02 528.628 114.167 528.085 114.514 528.193Z" fill="#DBDCE1"/>
<path d="M183.255 489.176C184.273 474.934 185.582 460.717 187.183 446.526C188.079 438.577 189.067 430.64 190.146 422.714C190.195 422.357 190.737 422.509 190.688 422.864C188.761 437.048 187.124 451.268 185.778 465.523C184.443 479.676 183.397 493.852 182.641 508.052C182.213 516.076 181.879 524.104 181.637 532.136C181.626 532.497 181.063 532.499 181.074 532.136C181.509 517.803 182.236 503.483 183.255 489.176Z" fill="#DBDCE1"/>
<path d="M166.194 534.225C172.057 533.526 177.92 532.827 183.784 532.127C184.142 532.085 184.139 532.647 183.784 532.69C177.92 533.389 172.057 534.088 166.194 534.788C165.835 534.83 165.838 534.268 166.194 534.225Z" fill="#DBDCE1"/>
<path d="M172.176 236.025L175.472 236.401C173.818 232.842 173.461 228.816 174.464 225.021C174.486 224.952 174.534 224.893 174.598 224.858C174.662 224.824 174.737 224.815 174.807 224.834C174.877 224.854 174.937 224.9 174.974 224.962C175.012 225.025 175.023 225.1 175.006 225.171C173.991 228.995 174.41 233.057 176.183 236.594C176.268 236.763 176.169 237.043 175.941 237.017C174.686 236.873 173.431 236.73 172.176 236.587C171.821 236.546 171.817 235.984 172.176 236.025Z" fill="#F78B7C"/>
<path d="M168.43 237.572C168.57 238.301 168.902 238.979 169.393 239.535C169.884 240.091 170.514 240.506 171.22 240.736C171.925 240.966 172.679 241.002 173.403 240.842C174.128 240.681 174.796 240.329 175.338 239.823C175.604 239.579 176.003 239.976 175.735 240.221C175.123 240.795 174.369 241.195 173.55 241.38C172.731 241.566 171.878 241.529 171.078 241.274C170.278 241.02 169.561 240.556 169 239.932C168.439 239.307 168.055 238.544 167.888 237.722C167.814 237.369 168.356 237.218 168.43 237.572Z" fill="#F78B7C"/>
<path d="M178.498 222.175C177.25 222.344 176.032 223.389 176.118 224.645C176.787 225.012 177.617 224.777 178.325 224.492C179.033 224.207 179.793 223.871 180.532 224.064C181.071 224.204 181.833 224.859 182.417 224.519C182.975 224.193 182.891 223.428 182.5 222.982C181.85 222.239 179.342 222.061 178.498 222.175Z" fill="#3B2733"/>
<path d="M169.333 221.353C168.1 220.94 166.668 220.923 165.569 221.617C165.094 221.917 164.667 222.479 164.874 223C165.068 223.488 165.707 223.629 166.224 223.538C166.741 223.446 167.228 223.196 167.752 223.175C168.36 223.15 168.933 223.435 169.47 223.72C170.007 224.006 170.566 224.307 171.174 224.321C172.503 224.351 172.567 223.49 171.927 222.737C171.387 222.101 170.105 221.611 169.333 221.353Z" fill="#3B2733"/>
<path d="M178.805 228.85C178.658 229.937 178.815 230.856 179.157 230.902C179.499 230.948 179.896 230.105 180.044 229.018C180.191 227.932 180.034 227.013 179.692 226.967C179.35 226.92 178.953 227.763 178.805 228.85Z" fill="#353535"/>
<path d="M167.561 227.538C167.414 228.624 167.571 229.543 167.913 229.589C168.255 229.636 168.652 228.793 168.799 227.706C168.947 226.619 168.79 225.701 168.448 225.654C168.106 225.608 167.709 226.451 167.561 227.538Z" fill="#353535"/>
<path d="M283.712 342.254C284.389 341.997 285.191 341.464 285.005 340.764C284.845 340.165 284.087 340 283.469 339.946L273.829 339.109C271.906 338.942 269.954 338.776 268.061 339.15C265.977 339.561 264.08 340.602 262.221 341.63C261.653 341.943 266.162 344.386 266.617 344.478C267.978 344.753 269.219 344.373 270.567 344.226C275.135 343.727 279.302 343.933 283.712 342.254Z" fill="#FFB5A8"/>
<path d="M262.759 339.867C262.759 339.867 262.572 343.19 262.502 343.625C262.431 344.061 262.071 345.822 262.071 345.822L258.639 344.067L259.201 339.867H262.759Z" fill="#B0404A"/>
<path d="M114.322 566.518C112.122 569.893 109.923 573.268 107.723 576.643C105.973 579.328 104.164 582.666 105.55 585.556C106.633 587.814 109.425 588.856 111.911 588.562C114.398 588.268 116.622 586.901 118.63 585.405C121.652 583.154 124.436 580.479 126.267 577.186C127.483 575 130.32 566.879 126.973 565.756C126.301 565.53 122.565 567.541 121.512 567.664C119.056 567.939 116.571 567.543 114.322 566.518V566.518Z" fill="#3B2733"/>
<path d="M127.499 565.5C124.499 567.5 121.999 567.5 114.999 566.5C114.499 567.333 112.899 569.7 110.499 572.5C107.499 576 98.4992 591 113.499 588.5C128.499 586 129.999 566.5 127.499 565.5Z" fill="#3B2733"/>
</svg>
