<svg width="562" height="1082" viewBox="0 0 562 1082" fill="none" xmlns="http://www.w3.org/2000/svg">
<path d="M542.001 0.5H20.25C9.20431 0.5 0.25 9.45432 0.25 20.5V1061.5C0.25 1072.55 9.20435 1081.5 20.25 1081.5H542.001C553.047 1081.5 562.001 1072.55 562.001 1061.5V20.5C562.001 9.45431 553.047 0.5 542.001 0.5Z" fill="#FFF9F4"/>
<path d="M205.463 330.387C181.899 277.203 234.955 273.971 243.193 296.192C259.294 324.297 252.474 336.479 241.414 340.202C244.144 350.911 251.363 375.112 244.268 383.723C235.399 394.487 229.503 399.621 223.648 385.47C218.964 374.149 215.121 350.681 213.784 340.362C210.317 341.356 203.799 340.753 205.463 330.387Z" fill="#FFB5A8"/>
<path d="M227.614 341.489C231.895 341.943 236.94 341.709 241.414 340.202M243.193 296.192C234.955 273.971 181.899 277.203 205.463 330.387M243.193 296.192C259.294 324.297 252.474 336.479 241.414 340.202M243.193 296.192C243.193 296.192 212.923 313.481 228.77 303.277C244.618 293.073 212.13 309.229 212.13 309.229L215.458 327.081C211.444 324.774 207.137 326.798 205.463 330.387M205.463 330.387C203.799 340.753 210.317 341.356 213.784 340.362C215.121 350.681 218.964 374.149 223.648 385.47C229.503 399.621 235.399 394.487 244.268 383.723C251.363 375.112 244.144 350.911 241.414 340.202" stroke="black" stroke-linecap="round" stroke-linejoin="round"/>
<path d="M205.196 330.765C181.067 281.169 232.375 269.837 243.747 296.192L212.407 308.944L216.012 328.215C209.356 324.531 205.423 329.348 205.196 330.765Z" fill="black"/>
<path d="M172.303 576.419L186.164 516.004H254.084L236.618 576.419H172.303Z" fill="black"/>
<path d="M295.343 576.419L283.378 511.583H230.508V542.08L242.296 565.367L253.882 576.419H295.343Z" fill="black"/>
<path d="M240.822 556.526L244.874 535.16" stroke="#558D71" stroke-linecap="round" stroke-linejoin="round"/>
<path d="M363.2 378.249C367.843 372.154 378.074 359.431 380.568 351.983C380.568 351.983 388.416 334.787 386.573 332.484C384.766 330.225 380.202 341.138 376.778 345.836C381.073 339.905 385.199 324.236 383.31 323.41C380.094 322.005 372.954 338.712 369.589 344.516C372.99 338.502 381.138 321.176 378.075 317.097C376.703 315.27 367.486 332.37 364.365 340.31C366.222 335.405 369.02 323.132 369.02 320.593C369.02 312.289 357.932 334.289 355.055 343.427L345.431 374.426L363.2 378.249Z" fill="#FFB5A8"/>
<path d="M363.2 378.249C367.843 372.154 378.074 359.431 380.568 351.983C380.568 351.983 388.416 334.787 386.573 332.484C384.731 330.181 380.023 341.568 376.579 346.103C380.944 340.392 385.228 324.249 383.31 323.41C380.094 322.005 372.954 338.712 369.589 344.516C372.99 338.502 381.138 321.176 378.075 317.097C376.683 315.243 367.213 332.878 364.231 340.655C366.084 336.009 369.02 323.194 369.02 320.593C369.02 312.289 357.932 334.289 355.055 343.427L345.431 374.426L363.2 378.249Z" stroke="black" stroke-linecap="round" stroke-linejoin="round"/>
<path d="M346.151 350.928C345.682 356.248 342.339 366.52 340.048 371.001L349.97 366.477L359.893 361.953C363.113 358.581 356.993 352.868 354.422 350.071C352.744 338.346 352.861 332.738 350.08 332.411C345.845 331.914 346.827 343.255 346.151 350.928Z" fill="#FFB5A8"/>
<path d="M340.047 371.001C342.339 366.52 345.682 356.248 346.15 350.928C346.826 343.255 345.845 331.914 350.08 332.411C352.86 332.738 352.743 338.346 354.422 350.072C357.606 350.086 360.157 357.893 356.937 361.264" stroke="#FFB5A8" stroke-linecap="round" stroke-linejoin="round"/>
<path d="M311.418 413.815C290.409 353.849 254.591 348.549 239.308 353.394H217.942C175.656 358.846 123.131 434.258 128.472 459.699C132.746 480.051 167.599 486.862 182.733 487.771L179.217 521.937L301.181 528.297L290.498 443.799C293.02 450.916 302.427 464.06 319.876 459.699C337.325 455.338 359.969 404.311 368.278 377.811L343.022 353.394L311.418 413.815Z" fill="#558D71"/>
<path d="M210.027 347.794C210.027 347.794 213.957 364.321 216.359 367.39L245.516 364.658L247.246 346.037L210.027 347.794Z" fill="#558D71"/>
<path d="M175.244 442.71C175.244 432.224 189.111 418.904 189.111 418.904L185.229 452.062C179.414 449.432 175.244 445.885 175.244 442.71Z" fill="#EAEAEA"/>
<path d="M217.123 460.281C217.123 460.281 198.618 458.119 185.229 452.062M185.229 452.062C179.414 449.432 175.244 445.885 175.244 442.71C175.244 432.224 189.111 418.904 189.111 418.904L185.229 452.062Z" stroke="black" stroke-linecap="round" stroke-linejoin="round"/>
<path d="M288.957 438.459C288.957 438.459 278.418 397.082 266.492 388.863" stroke="black" stroke-linecap="round" stroke-linejoin="round"/>
<path d="M239.83 315.048C255.441 314.663 255.746 315.048 242.361 322.129" stroke="black" stroke-linecap="round" stroke-linejoin="round"/>
<path d="M242.379 322.342L244.406 328.013C242.916 329.924 238.959 332.572 235.051 327.872" stroke="black" stroke-linecap="round" stroke-linejoin="round"/>
<ellipse rx="1.4872" ry="3.53128" transform="matrix(0.911399 -0.413966 0.397763 0.916426 243.547 309.856)" fill="black"/>
<ellipse rx="1.4872" ry="3.53129" transform="matrix(0.911399 -0.413966 0.397763 0.916426 231.012 314.84)" fill="black"/>
<path d="M32.5527 402.543H203.767L225.089 510.894H55.1479L32.5527 402.543Z" fill="white"/>
<path d="M20.082 402.543H191.99L213.398 510.894H42.7687L20.082 402.543Z" fill="#D1D5E0"/>
<rect x="159.777" y="555.053" width="94.3058" height="8.1044" fill="#D1D5E0"/>
<rect x="268.082" y="548.422" width="28.7338" height="14.7353" fill="#D1D5E0"/>
<rect x="268.082" y="548.422" width="21.3661" height="14.7353" fill="#D1D5E0"/>
<rect x="27.625" y="579.364" width="16.9124" height="302.457" transform="rotate(-90 27.625 579.364)" fill="#D1D5E0" stroke="#D1D5E0"/>
<rect x="116.387" y="491.784" width="25.3349" height="79.1239" fill="#D1D5E0"/>
<path d="M489.81 998.887C489.809 998.887 489.808 998.887 489.807 998.887V998.887C489.805 998.887 489.804 998.887 489.803 998.887C447.559 990.444 371.38 984.809 284.42 984.809C283.849 984.809 283.279 984.809 282.709 984.81C281.966 984.809 281.222 984.809 280.477 984.809C147.65 984.809 39.9727 997.958 39.9727 1014.18C39.9727 1019.78 52.8101 1025.01 75.0872 1029.46C75.0883 1029.46 75.0895 1029.46 75.0906 1029.46V1029.46C75.0917 1029.46 75.0928 1029.46 75.094 1029.46C117.338 1037.91 193.517 1043.54 280.477 1043.54C281.048 1043.54 281.619 1043.54 282.188 1043.54C282.931 1043.54 283.675 1043.54 284.42 1043.54C417.247 1043.54 524.925 1030.39 524.925 1014.17C524.924 1008.58 512.087 1003.34 489.81 998.887Z" fill="#F8CDAE"/>
<path d="M398.434 472.23C372.997 460.989 368.414 460.145 394.806 479.927L398.434 472.23Z" fill="#F19164"/>
<path d="M395.523 469.637C374.494 464.349 369.753 462.122 390.169 477.699" stroke="#232540" stroke-width="4" stroke-linecap="round" stroke-linejoin="round"/>
<ellipse rx="2.04617" ry="4.55689" transform="matrix(-0.814841 -0.579684 -0.610703 0.791859 391.905 462.009)" fill="#232540"/>
<ellipse rx="2.04617" ry="4.55689" transform="matrix(-0.814841 -0.579684 -0.610703 0.79186 407.517 472.092)" fill="#232540"/>
<path d="M393.163 456.481C382.215 469.114 366.301 495.229 394.598 502.64L394.598 539.695L430.811 539.695L426.007 514.944L423.447 501.469L430.217 498.943C441.414 495.013 453.205 473.508 431.902 454.468C419.269 445.043 404.953 445.044 393.163 456.481Z" fill="#F19164"/>
<path d="M393.163 456.481L402.005 461.407L394.598 473.591C399.356 469.353 405.714 472.002 406.773 473.591C412.919 482.81 403.717 490.715 396.418 491.277L423.447 501.469M393.163 456.481C382.215 469.114 366.301 495.229 394.598 502.64M393.163 456.481C404.953 445.044 419.269 445.043 431.902 454.468C453.205 473.508 441.414 495.013 430.217 498.943L423.447 501.469M394.598 502.64C398.528 503.482 390.555 507.356 394.598 502.64ZM394.598 502.64C391.736 504.886 401.204 505.335 394.598 502.64ZM394.598 502.64L394.598 539.695L430.811 539.695L426.007 514.944L423.447 501.469" stroke="#232540" stroke-linecap="round" stroke-linejoin="round"/>
<path d="M405.714 472.839C414.19 477.83 405.066 491.042 397.767 491.603L423.447 501.472L430.217 498.945C441.414 495.015 453.205 473.51 431.902 454.471C419.269 445.046 404.953 445.047 393.163 456.484L401.476 461.954L395.91 470.943C395.91 470.943 403.097 471.298 405.714 472.839Z" fill="#232540"/>
<path d="M203.462 488.003C202.037 490.116 221.76 517.12 230.074 528.1L236.08 525.349L249.475 519.011C249.386 516.134 248.993 519.855 247.907 516.05C246.55 511.294 248.743 486.249 245.605 484.135C243.096 482.444 240.48 493.998 239.486 499.986C235.852 488.83 228.124 466.976 226.281 468.808C224.439 470.639 228.042 486.128 230.074 493.644C226.647 485.189 219.02 468.525 215.923 469.511C213.13 470.4 218.753 484.251 222.826 493.077C219.239 485.739 212.981 474.915 209.965 474.915C207.825 474.915 214.116 492.878 217.557 499.806C210.804 490.646 205.242 485.361 203.462 488.003Z" fill="#F19164"/>
<path d="M230.074 528.1C221.76 517.12 202.037 490.116 203.462 488.003C205.242 485.361 210.804 490.646 217.557 499.806C214.116 492.878 207.825 474.915 209.965 474.915C213.377 474.915 220.94 488.769 224.088 495.756C220.076 487.419 212.826 470.497 215.923 469.511C219.02 468.525 226.647 485.189 230.074 493.644C228.042 486.128 224.439 470.639 226.281 468.808C228.124 466.976 235.852 488.83 239.486 499.986C240.48 493.998 243.096 482.444 245.605 484.135C248.743 486.249 246.55 511.294 247.907 516.05C248.993 519.855 249.386 516.134 249.475 519.011L236.08 525.349L230.074 528.1Z" stroke="#232540" stroke-linecap="round" stroke-linejoin="round"/>
<path d="M505.082 707.47C503.977 716.729 504.192 735.658 508.121 741.839C510.231 745.158 511.55 738.327 511.105 732.305C512.469 741.687 515.833 756.498 519.398 756.719C521.352 756.839 519.093 739.793 518.038 732.969C519.419 741.357 521.679 760.387 525.479 760.284C527.577 760.227 527.629 754.556 526.913 747.64C527.902 752.825 529.146 756.431 531.084 755.506C534.916 753.677 528.196 714.079 523.676 693.783L505.082 707.47Z" fill="#F19164"/>
<path d="M505.082 707.47C503.977 716.729 504.192 735.658 508.121 741.839C510.588 745.721 511.973 735.723 510.723 729.369C511.713 738.164 515.432 756.473 519.398 756.719C521.352 756.839 519.093 739.793 518.038 732.969C519.419 741.357 521.679 760.387 525.479 760.284C529.279 760.181 526.366 741.65 524.337 730.678C526.133 741.452 527.253 757.335 531.084 755.506C534.916 753.677 528.196 714.079 523.676 693.783L505.082 707.47Z" stroke="#232540" stroke-linecap="round" stroke-linejoin="round"/>
<path d="M457.944 994.697L455.295 968.783L486.021 968.783L491.318 1021.69L430.926 1021.69C435.623 1002.52 435.694 994.697 457.944 994.697Z" fill="#1F4734" stroke="#167FFC"/>
<path d="M336.669 993.626L336.627 973.023L367.884 970.377L367.989 1021.74L291.689 1021.58C295.889 1000.44 317.859 994.439 336.669 993.626Z" fill="#1F4734" stroke="#167FFC"/>
<path d="M323.604 981.737C333.683 780.889 357.203 702.203 367.702 687.966L440.15 677.548L374.002 987.987L323.604 981.737Z" fill="#232540"/>
<path d="M445.129 984.808L424.26 769.283L424.26 670.37C436.086 655.794 461.824 637.886 470.172 682.865C478.52 727.844 488.955 902.902 493.128 984.808L445.129 984.808Z" fill="#232540"/>
<path d="M425.314 748.536L429.553 747.476L433.791 746.417" stroke="#167FFC" stroke-linecap="round" stroke-linejoin="round"/>
<path d="M388.234 513.853L395.121 526.037L427.966 522.859L432.734 511.734L388.234 513.853Z" fill="#9ABED6" stroke="#9ABED6"/>
<path d="M530.903 704.557C503.384 532.817 439.52 508.122 411.028 517.243C356.824 517.243 305.747 554.425 286.984 573.017L251.543 506.72L223.027 526.446C226.531 541.291 266.136 610.9 281.772 617.214C294.281 622.266 332.849 598.273 350.57 585.645L350.57 699.296L478.784 699.296L473.572 646.68L500.674 715.081L530.903 704.557Z" fill="#9ABED6"/>
<mask id="mask0_593:5909" style="mask-type:alpha" maskUnits="userSpaceOnUse" x="223" y="506" width="308" height="210">
<path d="M530.903 704.557C503.384 532.817 439.52 508.122 411.028 517.243C356.824 517.243 305.747 554.425 286.984 573.017L251.543 506.72L223.027 526.446C226.531 541.291 266.136 610.9 281.772 617.214C294.281 622.266 332.849 598.273 350.57 585.645L350.57 699.296L478.784 699.296L473.572 646.68L500.674 715.081L530.903 704.557Z" fill="#9ABED6"/>
</mask>
<g mask="url(#mask0_593:5909)">
<path d="M223.396 648.997C239.777 617.601 301.939 523.047 313.213 558.033C324.486 585.244 336.068 603.588 348.942 606.091C369.01 609.993 382.768 592.507 394.595 579.038C411.723 559.531 439.332 509.972 472.691 525.67C501.602 539.275 538.007 567.033 561.989 531.06" stroke="#F19164" stroke-linecap="round" stroke-linejoin="round"/>
<path d="M257.637 673.725C273.379 653.815 285.556 640.204 310.898 633.779C327.39 629.598 345.628 626.17 362.681 626.17C390.323 626.17 410.567 632.898 432.217 609.896C444.177 597.189 445.791 571.956 459.336 560.539C471.749 550.076 489.773 556.025 504.923 551.984" stroke="#F19164" stroke-linecap="round" stroke-linejoin="round"/>
<path d="M343.236 704.161C349.204 694.723 354.85 682.651 364.795 676.685C381.007 666.957 399.602 660.465 418.056 656.712C429.955 654.292 442.335 654.762 453.987 652.379C469.201 649.267 465.726 638.942 472.206 625.601C474.754 620.355 500.765 615.386 521.914 610.211C538.403 606.177 550.246 609.883 538.102 621.744C511.479 647.747 461.221 688.677 487.935 704.161" stroke="#F19164" stroke-linecap="round" stroke-linejoin="round"/>
<path d="M226.256 585.432C232.851 557.734 263.707 547.62 288.817 542.738C296.508 541.243 304.113 542.128 311.855 541.575C320.043 540.991 323.637 533.703 328.975 528.366" stroke="#F19164" stroke-linecap="round" stroke-linejoin="round"/>
</g>
<path d="M472.993 640.466C472.287 609.563 458.372 541.295 438.029 521.8" stroke="#232540" stroke-linecap="round" stroke-linejoin="round"/>
<path d="M353.27 584.841C358.037 582.192 363.335 578.484 367.573 574.246" stroke="#232540" stroke-linecap="round" stroke-linejoin="round"/>
<path fill-rule="evenodd" clip-rule="evenodd" d="M319.705 110.349C320.306 110.849 320.908 111.348 321.51 111.85C321.608 111.931 321.687 112.032 321.741 112.147C321.795 112.262 321.823 112.387 321.823 112.514C321.823 112.641 321.795 112.767 321.741 112.882C321.687 112.997 321.608 113.098 321.51 113.179C321.301 113.364 321.029 113.461 320.75 113.45L320.721 113.452H316.574V134.194C316.572 135.315 316.125 136.389 315.332 137.182C314.539 137.975 313.465 138.421 312.343 138.423H310.496L305.917 145.57C305.823 145.719 305.693 145.841 305.538 145.925C305.383 146.01 305.21 146.053 305.034 146.052C304.858 146.05 304.686 146.005 304.532 145.921C304.378 145.837 304.247 145.716 304.15 145.57L299.572 138.423H278.018C277.465 138.424 276.918 138.317 276.408 138.106C275.897 137.895 275.433 137.586 275.042 137.195C274.652 136.805 274.342 136.341 274.131 135.831C273.921 135.32 273.813 134.773 273.814 134.221V113.452H269.643C268.713 113.452 268.196 112.418 268.876 111.85C268.892 111.842 268.907 111.83 268.919 111.817C269.593 111.219 270.297 110.645 271.001 110.072C271.337 109.797 271.673 109.523 272.006 109.247C274.129 107.478 276.252 105.708 278.375 103.937C280.837 101.881 283.302 99.8258 285.768 97.7726C287.802 96.0794 289.834 94.3847 291.864 92.6884C292.714 91.9822 293.563 91.2742 294.412 90.5647C294.631 90.3912 294.903 90.2969 295.182 90.2969C295.462 90.2969 295.733 90.3912 295.953 90.5647C296.154 90.7311 296.353 90.8976 296.553 91.064C296.753 91.2312 296.954 91.3983 297.156 91.5656C298.905 93.0236 300.656 94.4833 302.409 95.9447L303.851 97.1467V95.3621C303.877 95.0953 304.004 94.8486 304.207 94.6735C304.41 94.4984 304.672 94.4084 304.94 94.4223H310.384C310.651 94.4084 310.914 94.4984 311.117 94.6735C311.32 94.8486 311.447 95.0953 311.472 95.3621V103.508L312.425 104.299C314.283 105.845 316.143 107.391 318.005 108.936C318.572 109.408 319.139 109.878 319.705 110.349ZM291.197 130.663C291.38 130.872 291.566 131.085 291.768 131.306C296.689 123.318 303.241 116.458 310.996 111.176C309.264 109.606 307.439 108.142 305.531 106.791C299.864 107.987 292.173 121.141 290.958 124.529C289.101 122.213 286.838 120.255 284.279 118.75L280.312 123.228C288.411 127.482 289.724 128.982 291.197 130.663ZM278.016 142.219C275.895 142.217 273.861 141.373 272.361 139.874C270.861 138.374 270.017 136.341 270.015 134.221V117.248H269.642C268.642 117.252 267.666 116.949 266.844 116.381C266.022 115.812 265.395 115.005 265.046 114.069C264.743 113.247 264.681 112.356 264.869 111.501C265.057 110.646 265.486 109.862 266.105 109.244L266.122 109.221L266.176 109.174C266.26 109.092 266.348 109.014 266.439 108.937L266.512 108.876C267.209 108.264 267.916 107.687 268.601 107.129L268.671 107.071L268.672 107.07C268.975 106.823 269.277 106.577 269.577 106.328L270.943 105.188C270.065 104.457 269.187 103.725 268.31 102.992C267.481 102.304 266.651 101.613 265.822 100.919C265.608 100.75 265.343 100.657 265.07 100.657C264.797 100.657 264.532 100.75 264.318 100.919C264.12 101.083 263.923 101.247 263.727 101.411C263.533 101.573 263.339 101.734 263.143 101.896C261.432 103.318 259.722 104.744 258.014 106.172L256.606 107.345V105.603C256.581 105.343 256.457 105.102 256.259 104.931C256.06 104.76 255.804 104.672 255.543 104.685H250.227C249.966 104.672 249.709 104.76 249.511 104.931C249.313 105.102 249.189 105.343 249.164 105.603V113.557L248.234 114.329C246.416 115.838 244.6 117.348 242.786 118.857L239.363 121.701C239.268 121.781 239.191 121.88 239.138 121.992C239.085 122.104 239.058 122.227 239.058 122.351C239.058 122.475 239.085 122.597 239.138 122.709C239.191 122.821 239.268 122.921 239.363 123C239.567 123.18 239.833 123.275 240.105 123.264L240.134 123.266H244.183V143.519C244.185 144.613 244.621 145.662 245.396 146.436C246.17 147.21 247.219 147.646 248.314 147.648H250.118L254.588 154.626C254.68 154.771 254.807 154.891 254.958 154.973C255.109 155.055 255.279 155.098 255.451 155.096C255.622 155.095 255.791 155.051 255.941 154.969C256.091 154.887 256.219 154.769 256.313 154.626L260.784 147.648H281.829C282.369 147.649 282.903 147.544 283.402 147.338C283.9 147.133 284.353 146.83 284.735 146.449C285.116 146.068 285.418 145.615 285.624 145.117C285.83 144.618 285.935 144.084 285.934 143.545V142.219H278.016ZM195.131 161.324V178.817H202.352V163.03C202.351 161.738 202.706 161.092 203.418 161.092C203.57 161.074 203.724 161.101 203.86 161.171C203.996 161.241 204.109 161.35 204.183 161.483C204.349 161.981 204.416 162.507 204.379 163.03V178.817H211.599V162.904C211.599 161.696 211.955 161.092 212.665 161.092C212.815 161.073 212.967 161.099 213.102 161.168C213.237 161.236 213.349 161.343 213.422 161.474C213.582 161.977 213.645 162.505 213.608 163.03V178.817H220.829V161.945C220.972 159.822 220.354 157.717 219.086 156.007C218.461 155.306 217.685 154.756 216.816 154.399C215.947 154.041 215.009 153.886 214.071 153.945C212.866 153.905 211.672 154.177 210.603 154.735C209.531 155.397 208.629 156.301 207.972 157.376C207.431 156.324 206.606 155.445 205.591 154.838C204.575 154.232 203.41 153.922 202.227 153.945C201.276 153.909 200.328 154.075 199.446 154.43C198.563 154.786 197.766 155.323 197.105 156.007C196.441 156.719 195.925 157.556 195.586 158.468C195.247 159.381 195.092 160.351 195.131 161.324ZM225.543 180.807V186.585C226.715 187.05 227.963 187.291 229.224 187.296C230.585 187.309 231.932 187.026 233.172 186.468C234.413 185.909 235.517 185.088 236.409 184.061C238.128 182.087 239.02 179.528 238.899 176.914V161.091H232.248V170.46C232.248 171.622 231.827 172.203 230.984 172.203C230.107 172.204 229.669 171.676 229.669 170.62V161.091H223.018V172.239C222.952 173.945 223.522 175.614 224.618 176.923C225.115 177.515 225.74 177.988 226.445 178.306C227.149 178.625 227.917 178.781 228.69 178.763C229.901 178.735 231.082 178.379 232.105 177.731C231.978 178.749 231.48 179.685 230.705 180.357C229.931 181.03 228.935 181.393 227.909 181.377C227.09 181.344 226.286 181.151 225.543 180.807ZM240.589 154.548H247.81V168.968C247.717 169.758 247.909 170.556 248.352 171.217C248.97 171.667 249.736 171.866 250.495 171.776H250.869V178.817H248.948C247.818 178.883 246.688 178.712 245.628 178.316C244.568 177.92 243.603 177.306 242.794 176.515C241.244 174.759 240.451 172.461 240.589 170.123L240.589 154.548ZM262.662 179.049V172.167C262.177 172.472 261.616 172.632 261.044 172.629C260.717 172.639 260.391 172.581 260.088 172.459C259.785 172.336 259.51 172.152 259.282 171.917C258.94 171.546 258.712 171.084 258.626 170.585C258.541 170.087 258.601 169.575 258.801 169.111C259 168.647 259.33 168.25 259.75 167.969C260.17 167.688 260.662 167.534 261.168 167.527C261.518 167.514 261.867 167.582 262.187 167.727C262.506 167.872 262.788 168.09 263.009 168.362C263.493 169.006 263.735 169.799 263.694 170.603V178.817H270.344V170.123C270.412 168.87 270.228 167.616 269.802 166.435C269.376 165.255 268.717 164.172 267.864 163.251C266.965 162.39 265.899 161.723 264.732 161.29C263.565 160.858 262.322 160.669 261.079 160.736C259.242 160.73 257.446 161.269 255.917 162.286C254.388 163.302 253.195 164.75 252.49 166.445C251.785 168.14 251.6 170.006 251.957 171.807C252.315 173.607 253.199 175.261 254.498 176.558C255.374 177.425 256.417 178.105 257.563 178.557C258.71 179.01 259.936 179.225 261.168 179.19C261.669 179.186 262.169 179.138 262.662 179.049ZM287.846 178.817H281.196V168.808C281.196 167.788 280.775 167.278 279.934 167.279C279.104 167.279 278.689 167.789 278.688 168.808V178.817H272.037V168.932C272.011 167.854 272.2 166.783 272.594 165.78C272.988 164.777 273.579 163.863 274.331 163.091C275.105 162.308 276.032 161.693 277.055 161.285C278.078 160.878 279.174 160.686 280.275 160.722C281.375 160.758 282.457 161.021 283.451 161.494C284.445 161.968 285.33 162.642 286.051 163.474C287.34 165.196 287.976 167.319 287.846 169.465V178.817ZM307.836 154.548H301.184L301.184 169.073C301.184 171.432 300.33 172.611 298.623 172.611C298.284 172.616 297.947 172.554 297.632 172.427C297.317 172.301 297.031 172.113 296.79 171.875C296.546 171.649 296.352 171.375 296.22 171.07C296.089 170.766 296.023 170.437 296.026 170.105C296.02 169.767 296.083 169.432 296.209 169.119C296.336 168.806 296.524 168.522 296.763 168.283C296.989 168.041 297.263 167.849 297.568 167.719C297.873 167.588 298.202 167.523 298.533 167.527C299.136 167.549 299.713 167.774 300.171 168.166V160.841C299.376 160.771 298.783 160.736 298.391 160.736C297.193 160.727 296.006 160.965 294.905 161.436C293.803 161.907 292.811 162.601 291.99 163.474C291.123 164.316 290.436 165.325 289.971 166.441C289.506 167.556 289.272 168.755 289.285 169.963C289.261 171.183 289.49 172.394 289.958 173.52C290.427 174.647 291.124 175.663 292.006 176.506C293.382 177.836 295.128 178.719 297.014 179.039C298.901 179.359 300.841 179.102 302.578 178.301C303.783 177.765 304.85 176.963 305.7 175.955C307.183 174.071 307.941 171.718 307.836 169.324V154.548ZM316.536 154.548V178.817H309.884V154.548H316.536ZM330.898 161.401C329.786 160.935 328.589 160.702 327.384 160.718C326.137 160.687 324.896 160.906 323.735 161.363C322.575 161.82 321.518 162.504 320.626 163.377C319.738 164.217 319.035 165.234 318.564 166.362C318.092 167.49 317.862 168.705 317.887 169.927C317.87 171.146 318.104 172.356 318.575 173.48C319.046 174.604 319.745 175.619 320.626 176.462C322.381 178.197 324.75 179.171 327.218 179.173C329.687 179.174 332.057 178.203 333.814 176.471C334.676 175.618 335.361 174.604 335.83 173.486C336.298 172.368 336.541 171.169 336.544 169.957C336.547 168.745 336.311 167.544 335.848 166.424C335.385 165.303 334.706 164.286 333.848 163.429C333.014 162.558 332.01 161.868 330.898 161.401ZM326.217 167.473C326.529 167.34 326.866 167.274 327.206 167.279C327.548 167.273 327.888 167.338 328.204 167.471C328.52 167.604 328.804 167.802 329.039 168.052C329.52 168.564 329.786 169.24 329.785 169.943C329.783 170.645 329.513 171.32 329.03 171.83C328.797 172.077 328.515 172.273 328.204 172.408C327.892 172.542 327.555 172.611 327.216 172.611C326.876 172.611 326.54 172.542 326.228 172.408C325.916 172.273 325.635 172.077 325.401 171.83C324.917 171.321 324.646 170.645 324.645 169.943C324.643 169.24 324.911 168.563 325.392 168.052C325.624 167.803 325.905 167.606 326.217 167.473ZM347.592 160.914V168.024C347.21 167.79 346.776 167.656 346.328 167.635C345.119 167.635 344.514 168.559 344.515 170.407V178.817H337.864V169.128C337.749 166.893 338.5 164.699 339.961 163.003C340.674 162.24 341.544 161.641 342.511 161.247C343.478 160.852 344.519 160.672 345.562 160.718C346.243 160.732 346.921 160.798 347.592 160.914ZM367.115 154.548H360.464L360.464 169.073C360.464 171.432 359.61 172.611 357.903 172.611C357.563 172.616 357.227 172.554 356.912 172.427C356.597 172.301 356.311 172.113 356.069 171.875C355.825 171.649 355.632 171.375 355.5 171.07C355.369 170.766 355.302 170.437 355.306 170.105C355.3 169.767 355.362 169.432 355.489 169.119C355.615 168.806 355.803 168.522 356.042 168.283C356.269 168.041 356.543 167.849 356.848 167.719C357.153 167.588 357.481 167.523 357.813 167.527C358.415 167.549 358.992 167.774 359.45 168.166V160.841C358.656 160.771 358.063 160.736 357.671 160.736C356.473 160.727 355.286 160.965 354.184 161.436C353.083 161.907 352.09 162.601 351.269 163.474C350.402 164.316 349.715 165.325 349.25 166.441C348.785 167.556 348.552 168.755 348.564 169.963C348.54 171.183 348.769 172.394 349.238 173.52C349.706 174.647 350.403 175.663 351.285 176.506C352.661 177.836 354.407 178.719 356.294 179.039C358.181 179.359 360.12 179.102 361.858 178.301C363.063 177.765 364.13 176.963 364.98 175.955C366.463 174.071 367.22 171.718 367.115 169.324V154.548Z" fill="url(#paint0_linear_593:5909)"/>
<defs>
<linearGradient id="paint0_linear_593:5909" x1="115.695" y1="187.297" x2="318.335" y2="187.297" gradientUnits="userSpaceOnUse">
<stop stop-color="#3CABDB"/>
<stop offset="1" stop-color="#5333ED"/>
</linearGradient>
</defs>
</svg>
