<svg width="46" height="49" viewBox="0 0 46 49" fill="none" xmlns="http://www.w3.org/2000/svg">
<path d="M35.8117 48.3966L12.7397 48.3964C12.318 48.3953 11.9137 48.2281 11.6144 47.931C11.3151 47.6339 11.1449 47.2309 11.1406 46.8091L11.1427 21.9445C11.141 21.6797 11.1908 21.4171 11.2895 21.1714C11.5092 20.6221 12.1212 20.0217 13.374 18.8232C15.6349 16.6606 19.0516 13.3923 19.9014 9.59342L20.0027 9.14345C20.3183 7.74638 20.7954 5.63519 20.9234 3.9904C21.0302 2.61876 21.8039 0.80127 24.4986 0.80127C26.5644 0.80127 27.9649 1.80051 28.4009 3.40376C29.0822 5.90923 29.398 10.4562 27.4923 18.1341C27.4866 18.1544 27.4857 18.1757 27.4897 18.1963C27.4936 18.217 27.5023 18.2365 27.515 18.2532C27.5276 18.2702 27.544 18.284 27.5629 18.2934C27.5818 18.3028 27.6027 18.3075 27.6239 18.3071H41.3857C41.973 18.3085 42.5542 18.4263 43.0957 18.6536C43.6372 18.881 44.1283 19.2135 44.5405 19.6318C44.9407 20.0355 45.2556 20.5155 45.4666 21.0434C45.6775 21.5712 45.7802 22.1361 45.7684 22.7044C45.745 23.6197 45.4326 24.504 44.8759 25.2309C44.3193 25.9578 43.547 26.4899 42.6695 26.7512C43.4651 27.5559 43.9114 28.6418 43.9117 29.7735C43.9042 30.7114 43.6012 31.6231 43.0457 32.3789C42.4903 33.1347 41.7107 33.6961 40.8178 33.9833C41.3406 34.5093 41.7188 35.1613 41.9156 35.8764C42.1124 36.5914 42.1212 37.3451 41.9412 38.0645C41.7611 38.784 41.3983 39.4447 40.8879 39.9827C40.3775 40.5207 39.7368 40.9178 39.0279 41.1355C39.791 41.9472 40.2099 43.0231 40.1967 44.1371C40.1696 46.4858 38.2026 48.3966 35.8117 48.3966ZM24.4561 2.26332C22.8775 2.26332 22.4354 3.28841 22.3815 4.10395C22.2656 5.8557 21.7542 8.02764 21.4292 9.46586L21.3286 9.91263C20.3822 14.1434 16.7732 17.5957 14.3849 19.8801C13.6229 20.6091 12.7591 21.4353 12.6474 21.7145C12.6188 21.7859 12.6045 21.8622 12.6052 21.9391L12.6031 46.8038C12.6046 46.8389 12.6197 46.8722 12.6451 46.8964C12.6706 46.9207 12.7045 46.9342 12.7397 46.9339L35.8117 46.9341C37.4054 46.9341 38.7164 45.6719 38.7342 44.1203C38.7499 42.7496 37.7873 41.6562 36.4455 41.3898C36.2674 41.3544 36.1089 41.2541 36.0007 41.1083C35.8926 40.9625 35.8425 40.7817 35.8602 40.6011C35.878 40.4204 35.9623 40.2528 36.0967 40.1308C36.2312 40.0089 36.4062 39.9413 36.5878 39.9412H36.5992L37.7605 39.8631C38.4832 39.8632 39.1788 39.5884 39.7063 39.0945C40.2339 38.6006 40.5538 37.9246 40.6013 37.2035C40.6489 36.4824 40.4203 35.7703 39.9622 35.2114C39.504 34.6526 38.8504 34.2889 38.134 34.1942C37.9514 34.1702 37.7846 34.0783 37.6668 33.9367C37.5491 33.7951 37.4891 33.6143 37.4988 33.4304C37.5085 33.2466 37.5873 33.0731 37.7193 32.9448C37.8514 32.8164 38.027 32.7426 38.2111 32.7381C38.3355 32.7351 39.4312 32.7085 39.5944 32.7085C41.1418 32.7085 42.4492 31.3643 42.4492 29.7735C42.448 29.0513 42.1728 28.3565 41.6792 27.8293C41.1856 27.3021 40.5104 26.9819 39.7898 26.9332C39.6008 26.921 39.4239 26.8358 39.2964 26.6957C39.1688 26.5556 39.1007 26.3715 39.1062 26.1821C39.1118 25.9928 39.1906 25.8129 39.3261 25.6805C39.4616 25.5481 39.6432 25.4735 39.8327 25.4724C39.8327 25.4724 41.219 25.4639 41.4596 25.4639C42.2035 25.4602 42.9167 25.167 43.4481 24.6465C43.9795 24.1259 44.2873 23.4188 44.3063 22.6752C44.3135 22.3014 44.2455 21.93 44.1063 21.5831C43.9672 21.2362 43.7596 20.9208 43.4961 20.6557C43.2203 20.3758 42.8918 20.1534 42.5296 20.0013C42.1674 19.8493 41.7786 19.7705 41.3857 19.7696H27.6239C27.3774 19.7697 27.1343 19.7127 26.9136 19.6033C26.6928 19.4939 26.5003 19.3349 26.3511 19.1387C26.2019 18.9426 26.1 18.7146 26.0535 18.4726C26.007 18.2306 26.017 17.9812 26.0828 17.7437C27.6929 11.9087 27.5981 5.97238 26.9846 3.76867C26.6332 2.50615 25.2668 2.28082 24.4668 2.26341C24.4633 2.26332 24.4596 2.26332 24.4561 2.26332Z" fill="#5333ED"/>
<path d="M4.50767 45.4948C5.29017 45.4948 5.92452 44.8605 5.92452 44.078C5.92452 43.2955 5.29017 42.6611 4.50767 42.6611C3.72516 42.6611 3.09082 43.2955 3.09082 44.078C3.09082 44.8605 3.72516 45.4948 4.50767 45.4948Z" fill="#5333ED"/>
<path d="M10.7756 48.3965H1.79874C1.32184 48.3959 0.864628 48.2062 0.527416 47.869C0.190203 47.5318 0.000526587 47.0745 0 46.5976L0 21.2147C0.000533551 20.7378 0.190215 20.2806 0.52743 19.9434C0.864644 19.6062 1.32185 19.4165 1.79874 19.416H10.7756C11.2525 19.4166 11.7097 19.6062 12.0469 19.9434C12.3841 20.2806 12.5738 20.7379 12.5744 21.2147V46.5976C12.5738 47.0745 12.3842 47.5317 12.0469 47.869C11.7097 48.2062 11.2525 48.3959 10.7756 48.3965V48.3965ZM1.79874 20.8481C1.70153 20.8482 1.60832 20.8868 1.53958 20.9556C1.47084 21.0243 1.43217 21.1175 1.43206 21.2147V46.5976C1.43217 46.6949 1.47083 46.7881 1.53957 46.8568C1.60831 46.9256 1.70152 46.9643 1.79874 46.9644H10.7756C10.8728 46.9643 10.9661 46.9256 11.0348 46.8568C11.1035 46.7881 11.1422 46.6949 11.1423 46.5976V21.2147C11.1422 21.1175 11.1035 21.0243 11.0348 20.9556C10.966 20.8868 10.8728 20.8482 10.7756 20.8481H1.79874Z" fill="#5333ED"/>
</svg>
