<svg width="85" height="85" viewBox="0 0 85 85" fill="none" xmlns="http://www.w3.org/2000/svg">
<circle cx="42.5698" cy="42.8467" r="40.5" fill="#EAEAEA" stroke="white" stroke-width="3"/>
<path fill-rule="evenodd" clip-rule="evenodd" d="M18.6384 33.443C18.5698 33.8085 18.5698 34.2472 18.5698 35.1246V56.1803C18.5698 59.0088 18.5698 60.423 19.4485 61.3017C20.3272 62.1803 21.7414 62.1803 24.5698 62.1803H60.5698C63.3983 62.1803 64.8125 62.1803 65.6911 61.3017C66.5698 60.423 66.5698 59.0088 66.5698 56.1803V35.1246C66.5698 34.2472 66.5698 33.8085 66.5013 33.443C66.1971 31.8215 64.9287 30.553 63.3072 30.2489C62.9417 30.1803 62.503 30.1803 61.6256 30.1803C61.062 30.1803 60.7802 30.1803 60.5207 30.1462C59.3857 29.997 58.3689 29.3687 57.7279 28.4201C57.5813 28.2033 57.4553 27.9513 57.2033 27.4474L57.2033 27.4472L54.3421 21.7248C53.8041 20.649 53.5352 20.1111 53.0519 19.8124C52.5686 19.5137 51.9672 19.5137 50.7644 19.5137H34.3753C33.1725 19.5137 32.5711 19.5137 32.0878 19.8124C31.6045 20.1111 31.3355 20.649 30.7976 21.7248L27.9364 27.4472L27.9364 27.4472C27.6844 27.9513 27.5583 28.2033 27.4118 28.4201C26.7707 29.3687 25.754 29.997 24.6189 30.1462C24.3594 30.1803 24.0776 30.1803 23.5141 30.1803C22.6367 30.1803 22.1979 30.1803 21.8324 30.2489C20.2109 30.553 18.9425 31.8215 18.6384 33.443ZM51.2365 43.5137C51.2365 48.3001 47.3563 52.1803 42.5698 52.1803C37.7833 52.1803 33.9031 48.3001 33.9031 43.5137C33.9031 38.7272 37.7833 34.847 42.5698 34.847C47.3563 34.847 51.2365 38.7272 51.2365 43.5137ZM53.2365 43.5137C53.2365 49.4047 48.4608 54.1803 42.5698 54.1803C36.6788 54.1803 31.9031 49.4047 31.9031 43.5137C31.9031 37.6226 36.6788 32.847 42.5698 32.847C48.4608 32.847 53.2365 37.6226 53.2365 43.5137Z" fill="url(#paint0_linear_546:6186)"/>
<defs>
<linearGradient id="paint0_linear_546:6186" x1="-3.59661" y1="62.1803" x2="52.954" y2="62.1803" gradientUnits="userSpaceOnUse">
<stop stop-color="#3CABDB"/>
<stop offset="1" stop-color="#5333ED"/>
</linearGradient>
</defs>
</svg>
