<svg xmlns="http://www.w3.org/2000/svg" viewBox="0 0 130.47754 115.14648"><defs><style>.cls-1{fill:#5333ed;}</style></defs><g id="Layer_2" data-name="Layer 2"><g id="Layer_2-2" data-name="Layer 2"><path class="cls-1" d="M65.38763,57.57208a3.93747,3.93747,0,1,0,3.93744,3.9375A3.9375,3.9375,0,0,0,65.38763,57.57208Z"/><path class="cls-1" d="M81.04993,57.57208a3.93747,3.93747,0,1,0,3.9375,3.9375A3.93749,3.93749,0,0,0,81.04993,57.57208Z"/><path class="cls-1" d="M96.71228,57.57208a3.93747,3.93747,0,1,0,3.93744,3.9375A3.93745,3.93745,0,0,0,96.71228,57.57208Z"/><path class="cls-1" d="M123.61719,84.78027a43.45555,43.45555,0,0,0,6.86035-23.42773c0-23.49927-19.06928-42.9303-43.59931-45.70123A51.25346,51.25346,0,0,0,49.62744,0C22.2627,0,0,20.65918,0,46.05322A43.45192,43.45192,0,0,0,6.86035,69.481L.61182,95.53076a3.49973,3.49973,0,0,0,4.99463,3.9336L28.53369,87.76123A52.01911,52.01911,0,0,0,43.612,91.74707a51.22616,51.22616,0,0,0,37.23761,15.65869,53.14393,53.14393,0,0,0,21.09326-4.3457l22.92774,11.70361a3.49984,3.49984,0,0,0,4.99462-3.93359ZM29.95557,80.7168a3.49943,3.49943,0,0,0-3.09912.0415L9.19092,89.77539l4.831-20.14062a3.5005,3.5005,0,0,0-.51953-2.79981A36.5438,36.5438,0,0,1,7,46.05322C7,24.519,26.12256,7,49.62744,7A44.96841,44.96841,0,0,1,76.168,15.51025C50.99146,17.70734,31.22217,37.42413,31.22217,61.35254a43.20264,43.20264,0,0,0,6.09729,22.09289A44.01337,44.01337,0,0,1,29.95557,80.7168Zm86.5,4.21728,4.83105,20.14112-17.666-9.01758a3.5,3.5,0,0,0-3.09913-.04151,45.91793,45.91793,0,0,1-19.67187,4.38965A44.29118,44.29118,0,0,1,48.94849,87.21613,3.499,3.499,0,0,0,47.20813,85.294a36.82861,36.82861,0,0,1-8.986-23.94147c0-21.53418,19.12256-39.05322,42.62744-39.05322,23.50537,0,42.62793,17.519,42.62793,39.05322a36.54725,36.54725,0,0,1-6.50244,20.78174A3.50049,3.50049,0,0,0,116.45557,84.93408Z"/></g></g></svg>