<svg width="131" height="40" viewBox="0 0 131 40" fill="none" xmlns="http://www.w3.org/2000/svg">
<path d="M89.7646 19.9984L70.3352 0.5L65.7646 5.08747L80.6333 20.0114L65.7646 34.9125L70.3352 39.5L89.7646 19.9984Z" fill="#5333ED"/>
<path d="M111.587 39.5L107.072 34.9154L121.75 19.9903L107.072 5.06514L111.587 0.5L130.765 20L111.59 39.5H111.587ZM94.2766 39.5L89.7646 34.9154L104.443 19.9903L89.7646 5.08785L94.2766 0.5L113.457 20L94.2798 39.5H94.2766Z" fill="#5333ED" fill-opacity="0.5"/>
<path d="M41.7646 20L61.1935 39.5L65.7646 34.9121L50.894 19.987L65.7646 5.0619L61.1935 0.5L41.7646 20Z" fill="#5333ED"/>
<path d="M19.942 39.5L0.764648 20L19.942 0.5L24.4572 5.08785L9.77897 20.013L24.4572 34.9381L19.9452 39.5H19.942ZM37.2527 39.5L18.0721 20L37.2527 0.5L41.7646 5.08785L27.0865 20.013L41.7646 34.9381L37.2559 39.5H37.2527Z" fill="#5333ED" fill-opacity="0.5"/>
</svg>
