<svg width="44" height="44" viewBox="0 0 44 44" fill="none" xmlns="http://www.w3.org/2000/svg">
<path d="M21.8626 43.5263C18.6318 43.5354 15.4419 42.8044 12.5375 41.3894C11.4745 40.8724 10.4561 40.2684 9.49251 39.5838L9.19976 39.3701C6.54972 37.4141 4.3831 34.8768 2.86623 31.9531C1.29723 28.9271 0.483472 25.5665 0.494246 22.1579C0.494246 10.3565 10.0612 0.789551 21.8626 0.789551C33.6639 0.789551 43.2309 10.3565 43.2309 22.1579C43.2415 25.5648 42.4285 28.9239 40.861 31.9489C39.3463 34.8708 37.1827 37.4072 34.536 39.3637C33.5376 40.0945 32.4781 40.7379 31.3693 41.2868L31.1983 41.3723C28.2921 42.7948 25.0983 43.5317 21.8626 43.5263ZM21.8626 32.842C18.6605 32.8358 15.7249 34.6242 14.2619 37.4726C19.0514 39.8449 24.6738 39.8449 29.4632 37.4726V37.4619C27.9984 34.6167 25.0627 32.8323 21.8626 32.842ZM21.8626 28.5684C26.4912 28.5744 30.759 31.0687 33.036 35.0986L33.0681 35.0708L33.098 35.0451L33.0616 35.0772L33.0403 35.0943C38.4443 30.4255 40.3766 22.8894 37.8858 16.1964C35.3951 9.5033 29.0062 5.06389 21.8647 5.06389C14.7232 5.06389 8.33434 9.5033 5.84357 16.1964C3.3528 22.8894 5.28511 30.4255 10.6891 35.0943C12.9675 31.0664 17.235 28.574 21.8626 28.5684ZM21.8626 26.4316C17.142 26.4316 13.3153 22.6048 13.3153 17.8842C13.3153 13.1637 17.142 9.33689 21.8626 9.33689C26.5831 9.33689 30.4098 13.1637 30.4098 17.8842C30.4098 20.1511 29.5093 22.3252 27.9064 23.9281C26.3035 25.531 24.1294 26.4316 21.8626 26.4316ZM21.8626 13.6106C19.5023 13.6106 17.5889 15.5239 17.5889 17.8842C17.5889 20.2445 19.5023 22.1579 21.8626 22.1579C24.2228 22.1579 26.1362 20.2445 26.1362 17.8842C26.1362 15.5239 24.2228 13.6106 21.8626 13.6106Z" fill="url(#paint0_linear_542:4436)"/>
<defs>
<linearGradient id="paint0_linear_542:4436" x1="-19.2418" y1="43.5264" x2="31.1081" y2="43.5264" gradientUnits="userSpaceOnUse">
<stop stop-color="#3CABDB"/>
<stop offset="1" stop-color="#5333ED"/>
</linearGradient>
</defs>
</svg>
