<svg width="47" height="49" viewBox="0 0 47 49" fill="none" xmlns="http://www.w3.org/2000/svg">
<path d="M36.6408 0.801132L13.5688 0.801308C13.1471 0.802421 12.7428 0.96964 12.4435 1.26674C12.1442 1.56384 11.974 1.9669 11.9697 2.38861L11.9718 27.2533C11.9701 27.5181 12.0199 27.7806 12.1186 28.0263C12.3383 28.5757 12.9503 29.1761 14.2031 30.3745C16.464 32.5372 19.8807 35.8054 20.7305 39.6043L20.8318 40.0543C21.1474 41.4514 21.6245 43.5626 21.7525 45.2074C21.8593 46.579 22.633 48.3965 25.3277 48.3965C27.3935 48.3965 28.794 47.3972 29.23 45.794C29.9113 43.2885 30.2271 38.7416 28.3214 31.0636C28.3157 31.0434 28.3148 31.0221 28.3188 31.0014C28.3227 30.9808 28.3314 30.9613 28.3441 30.9446C28.3567 30.9275 28.3731 30.9138 28.392 30.9044C28.4109 30.895 28.4318 30.8903 28.453 30.8906H42.2148C42.8021 30.8893 43.3833 30.7715 43.9248 30.5441C44.4663 30.3167 44.9574 29.9843 45.3696 29.566C45.7698 29.1623 46.0847 28.6822 46.2957 28.1544C46.5066 27.6265 46.6093 27.0616 46.5975 26.4933C46.5741 25.5781 46.2617 24.6937 45.705 23.9669C45.1484 23.24 44.3761 22.7078 43.4986 22.4466C44.2942 21.6418 44.7405 20.5559 44.7408 19.4243C44.7333 18.4864 44.4303 17.5747 43.8749 16.8189C43.3194 16.0631 42.5398 15.5017 41.6469 15.2144C42.1697 14.6885 42.5479 14.0364 42.7447 13.3214C42.9415 12.6064 42.9503 11.8526 42.7703 11.1332C42.5902 10.4138 42.2274 9.75307 41.717 9.21504C41.2066 8.67701 40.5659 8.27992 39.857 8.06224C40.6201 7.25051 41.039 6.17468 41.0258 5.06065C40.9987 2.71192 39.0317 0.801132 36.6408 0.801132ZM25.2852 46.9344C23.7066 46.9344 23.2645 45.9093 23.2106 45.0938C23.0947 43.3421 22.5833 41.1701 22.2583 39.7319L22.1577 39.2851C21.2113 35.0544 17.6023 31.6021 15.214 29.3176C14.452 28.5887 13.5882 27.7625 13.4765 27.4833C13.4479 27.4119 13.4336 27.3356 13.4343 27.2587L13.4322 2.39397C13.4337 2.35881 13.4488 2.3256 13.4742 2.30132C13.4997 2.27704 13.5336 2.2636 13.5688 2.26381L36.6408 2.26364C38.2345 2.26364 39.5455 3.52583 39.5633 5.07743C39.579 6.44816 38.6164 7.54156 37.2746 7.80794C37.0965 7.84332 36.938 7.94366 36.8298 8.08945C36.7217 8.23523 36.6716 8.41604 36.6893 8.5967C36.7071 8.77736 36.7914 8.94497 36.9258 9.06692C37.0603 9.18887 37.2353 9.25646 37.4169 9.25653H37.4283L38.5896 9.33461C39.3123 9.33456 40.0079 9.60934 40.5354 10.1032C41.063 10.5971 41.3829 11.2731 41.4304 11.9942C41.478 12.7153 41.2495 13.4275 40.7913 13.9863C40.3331 14.5452 39.6795 14.9088 38.9631 15.0036C38.7805 15.0275 38.6137 15.1195 38.4959 15.261C38.3782 15.4026 38.3182 15.5834 38.3279 15.7673C38.3376 15.9512 38.4164 16.1246 38.5484 16.253C38.6805 16.3814 38.8561 16.4552 39.0402 16.4597C39.1646 16.4627 40.2603 16.4893 40.4235 16.4893C41.9709 16.4893 43.2783 17.8334 43.2783 19.4243C43.2771 20.1465 43.0019 20.8413 42.5083 21.3684C42.0147 21.8956 41.3395 22.2159 40.6189 22.2645C40.4299 22.2768 40.253 22.3619 40.1255 22.502C39.9979 22.6421 39.9298 22.8263 39.9353 23.0156C39.9409 23.205 40.0197 23.3848 40.1552 23.5172C40.2907 23.6496 40.4723 23.7242 40.6618 23.7254C40.6618 23.7254 42.0481 23.7338 42.2887 23.7338C43.0326 23.7375 43.7458 24.0307 44.2772 24.5513C44.8086 25.0719 45.1164 25.7789 45.1354 26.5226C45.1426 26.8963 45.0746 27.2677 44.9354 27.6146C44.7963 27.9616 44.5887 28.277 44.3252 28.5421C44.0494 28.8219 43.7209 29.0443 43.3587 29.1964C42.9965 29.3485 42.6077 29.4272 42.2148 29.4281H28.453C28.2065 29.4281 27.9634 29.485 27.7427 29.5945C27.5219 29.7039 27.3294 29.8629 27.1802 30.059C27.031 30.2552 26.9291 30.4831 26.8826 30.7251C26.8361 30.9671 26.8461 31.2166 26.9119 31.4541C28.522 37.2891 28.4272 43.2254 27.8137 45.4291C27.4623 46.6916 26.0959 46.9169 25.2959 46.9343C25.2924 46.9344 25.2887 46.9344 25.2852 46.9344Z" fill="#5333ED"/>
<path d="M5.33677 3.70292C6.11927 3.70292 6.75362 4.33727 6.75362 5.11977C6.75362 5.90228 6.11927 6.53662 5.33677 6.53662C4.55427 6.53662 3.91992 5.90228 3.91992 5.11977C3.91992 4.33727 4.55427 3.70292 5.33677 3.70292Z" fill="#5333ED"/>
<path d="M11.6047 0.801297H2.62784C2.15094 0.801847 1.69373 0.991545 1.35652 1.32877C1.0193 1.666 0.829628 2.12323 0.829102 2.60013L0.829102 27.983C0.829635 28.4599 1.01932 28.9171 1.35653 29.2543C1.69375 29.5915 2.15095 29.7812 2.62784 29.7817H11.6047C12.0816 29.7812 12.5388 29.5915 12.876 29.2543C13.2132 28.9171 13.4029 28.4599 13.4035 27.983V2.60013C13.4029 2.12323 13.2133 1.66601 12.876 1.32879C12.5388 0.991557 12.0816 0.801853 11.6047 0.801297V0.801297ZM2.62784 28.3497C2.53063 28.3496 2.43742 28.3109 2.36868 28.2422C2.29994 28.1734 2.26127 28.0802 2.26116 27.983V2.60013C2.26127 2.5029 2.29993 2.40969 2.36867 2.34094C2.43741 2.27218 2.53062 2.23349 2.62784 2.23337H11.6047C11.702 2.23349 11.7952 2.27217 11.8639 2.34093C11.9326 2.40969 11.9713 2.5029 11.9714 2.60013V27.983C11.9713 28.0802 11.9326 28.1734 11.8639 28.2422C11.7951 28.3109 11.7019 28.3496 11.6047 28.3497H2.62784Z" fill="#5333ED"/>
</svg>
