<svg width="276" height="156" viewBox="0 0 276 156" fill="none" xmlns="http://www.w3.org/2000/svg">
<path fill-rule="evenodd" clip-rule="evenodd" d="M199.709 32.892C200.662 33.6844 201.615 34.4767 202.571 35.2711C202.727 35.4007 202.853 35.5632 202.939 35.747C203.025 35.9308 203.07 36.1313 203.07 36.3344C203.07 36.5374 203.025 36.7379 202.939 36.9217C202.853 37.1055 202.727 37.268 202.571 37.3977C202.236 37.6934 201.801 37.8488 201.355 37.8314L201.309 37.8336H194.678V71.0088C194.674 72.8017 193.96 74.5201 192.692 75.7878C191.424 77.0556 189.706 77.7694 187.913 77.7731H184.96L177.639 89.2036C177.488 89.4415 177.28 89.6372 177.032 89.772C176.785 89.9068 176.507 89.9763 176.226 89.974C175.945 89.9714 175.67 89.8998 175.423 89.7654C175.177 89.631 174.968 89.4381 174.814 89.2036L167.494 77.7731H133.03C132.147 77.7752 131.272 77.6028 130.456 77.2658C129.639 76.9288 128.898 76.4338 128.273 75.8093C127.648 75.1847 127.153 74.4429 126.816 73.6265C126.479 72.8101 126.307 71.9351 126.309 71.0518V37.8338H119.641C118.152 37.8338 117.326 36.1804 118.413 35.2712C118.44 35.2583 118.463 35.2404 118.483 35.2186C119.56 34.2628 120.686 33.3448 121.81 32.4275C122.348 31.9888 122.886 31.5503 123.418 31.1078C126.813 28.2797 130.207 25.449 133.602 22.6159C137.539 19.3268 141.479 16.0402 145.421 12.7562C148.674 10.0481 151.923 7.33758 155.17 4.62465C156.527 3.49501 157.885 2.36275 159.243 1.22787C159.594 0.950475 160.028 0.799561 160.475 0.799561C160.922 0.799561 161.356 0.950475 161.706 1.22787C162.028 1.49422 162.347 1.76051 162.666 2.0268C162.987 2.29408 163.307 2.56135 163.63 2.8287C166.427 5.16073 169.226 7.49542 172.029 9.83277C172.798 10.4736 173.567 11.1144 174.335 11.7552V8.90086C174.376 8.4742 174.579 8.07962 174.904 7.79953C175.228 7.51944 175.648 7.3755 176.076 7.39776H184.78C185.208 7.37554 185.628 7.5195 185.953 7.79959C186.277 8.07967 186.481 8.47423 186.521 8.90086V21.9298L188.044 23.1944C191.015 25.6668 193.989 28.1392 196.965 30.6116C197.881 31.373 198.795 32.1325 199.709 32.892ZM154.102 65.3612C154.395 65.6964 154.692 66.036 155.015 66.3892C162.883 53.6135 173.359 42.6424 185.758 34.1936C182.99 31.6822 180.072 29.3404 177.021 27.181C167.96 29.0933 155.662 50.132 153.721 55.5511C150.752 51.8469 147.133 48.7144 143.041 46.3069L136.699 53.4705C149.648 60.2731 151.748 62.6721 154.102 65.3612ZM133.03 83.8441C129.638 83.8401 126.387 82.4911 123.989 80.0928C121.59 77.6945 120.241 74.4429 120.237 71.0513V43.9049H119.64C118.043 43.9111 116.481 43.4268 115.167 42.5176C113.853 41.6083 112.85 40.3177 112.293 38.8201C111.808 37.5065 111.709 36.0813 112.009 34.7134C112.309 33.3456 112.995 32.0925 113.986 31.1026L114.013 31.0671L114.099 30.9906C114.234 30.8608 114.374 30.7349 114.52 30.613L114.636 30.5151C115.75 29.5358 116.881 28.6133 117.976 27.7205L118.087 27.6295L118.088 27.6287C118.573 27.2331 119.057 26.8378 119.537 26.4388L121.721 24.6168C120.317 23.4466 118.914 22.2758 117.511 21.1046C116.185 20.004 114.859 18.8985 113.534 17.7881C113.191 17.5172 112.768 17.3698 112.331 17.3698C111.894 17.3698 111.471 17.5172 111.128 17.7881C110.812 18.0503 110.497 18.3126 110.183 18.5748C109.873 18.8335 109.563 19.0923 109.25 19.351C106.514 21.6256 103.78 23.9052 101.049 26.1897L98.7973 28.0668V25.2798C98.7578 24.8633 98.559 24.478 98.2423 24.2045C97.9256 23.9311 97.5154 23.7906 97.0976 23.8123H88.5989C88.181 23.7906 87.7709 23.9311 87.4542 24.2046C87.1375 24.478 86.9386 24.8633 86.8992 25.2798V38.0014L85.412 39.2361C82.5055 41.6502 79.6019 44.0643 76.7011 46.4784L71.2281 51.0278C71.0755 51.1544 70.9527 51.3131 70.8685 51.4925C70.7842 51.672 70.7405 51.8678 70.7405 52.0661C70.7405 52.2643 70.7842 52.4602 70.8685 52.6396C70.9527 52.8191 71.0755 52.9777 71.2281 53.1044C71.5544 53.393 71.9794 53.5447 72.4147 53.5278L72.4604 53.5299H78.9348V85.9223C78.9385 87.6729 79.6356 89.3507 80.8734 90.5885C82.1113 91.8263 83.7891 92.5233 85.5396 92.5269H88.4235L95.5712 103.688C95.7183 103.92 95.9221 104.111 96.1636 104.243C96.405 104.374 96.676 104.442 96.9509 104.44C97.2249 104.437 97.4939 104.367 97.7344 104.236C97.9748 104.105 98.1793 103.917 98.3297 103.688L105.477 92.5269H139.127C139.99 92.529 140.844 92.3608 141.641 92.0317C142.438 91.7027 143.163 91.2193 143.773 90.6095C144.383 89.9997 144.866 89.2754 145.195 88.4782C145.524 87.681 145.693 86.8266 145.69 85.9642V83.8441H133.03ZM0.503902 114.4V142.379H12.0497V117.13C12.0485 115.062 12.6169 114.029 13.7549 114.029C13.9979 114 14.2439 114.045 14.4616 114.156C14.6793 114.268 14.8589 114.442 14.9776 114.655C15.2435 115.452 15.35 116.292 15.2911 117.13V142.379H26.8352V116.928C26.8358 114.995 27.4043 114.029 28.5405 114.029C28.7802 113.999 29.0233 114.041 29.2389 114.15C29.4545 114.259 29.6326 114.43 29.7505 114.641C30.0054 115.444 30.1062 116.289 30.0476 117.13V142.379H41.5936V115.394C41.8212 111.998 40.8332 108.631 38.8061 105.897C37.8071 104.775 36.5661 103.895 35.1769 103.324C33.7878 102.752 32.2869 102.504 30.7877 102.598C28.8615 102.534 26.9514 102.969 25.2434 103.862C23.5283 104.92 22.0866 106.367 21.0354 108.087C20.1713 106.404 18.8524 104.997 17.2286 104.027C15.6048 103.057 13.7414 102.562 11.8501 102.598C10.3299 102.542 8.8148 102.806 7.4037 103.375C5.9926 103.943 4.71718 104.802 3.66065 105.897C2.59945 107.036 1.77418 108.374 1.23238 109.833C0.690595 111.292 0.443009 112.844 0.503902 114.4ZM49.1297 145.562V154.803C51.0035 155.547 53.0001 155.933 55.0161 155.941C57.1915 155.962 59.3453 155.509 61.3288 154.616C63.3123 153.722 65.0782 152.409 66.5044 150.766C69.2526 147.61 70.6785 143.516 70.4857 139.335V114.029H59.851V129.014C59.851 130.872 59.1775 131.801 57.8306 131.801C56.4285 131.802 55.7274 130.958 55.7274 129.269V114.028H45.0926V131.859C44.9872 134.587 45.8991 137.256 47.6514 139.35C48.4466 140.297 49.4447 141.053 50.5718 141.563C51.6989 142.072 52.9261 142.321 54.1626 142.292C56.0985 142.248 57.9859 141.678 59.6223 140.643C59.4197 142.271 58.6227 143.767 57.3843 144.843C56.1459 145.919 54.5534 146.5 52.913 146.473C51.6042 146.421 50.3186 146.112 49.1297 145.562ZM73.1896 103.563H84.7355V126.626C84.5867 127.891 84.8939 129.166 85.6017 130.224C86.5903 130.944 87.8143 131.263 89.0283 131.117H89.6262V142.379H86.5542C84.7484 142.484 82.9403 142.212 81.246 141.578C79.5517 140.944 78.0085 139.963 76.7152 138.698C74.2358 135.89 72.9683 132.214 73.1895 128.474L73.1896 103.563ZM108.478 142.75V131.744C107.703 132.23 106.805 132.486 105.89 132.482C105.368 132.499 104.847 132.406 104.362 132.21C103.877 132.014 103.439 131.719 103.074 131.344C102.526 130.75 102.161 130.01 102.025 129.214C101.888 128.417 101.985 127.598 102.304 126.855C102.622 126.112 103.149 125.478 103.821 125.028C104.493 124.579 105.28 124.333 106.088 124.321C106.649 124.3 107.207 124.41 107.718 124.642C108.229 124.874 108.679 125.222 109.032 125.657C109.806 126.687 110.194 127.955 110.127 129.241V142.379H120.76V128.474C120.87 126.469 120.575 124.464 119.894 122.575C119.213 120.687 118.159 118.955 116.795 117.482C115.358 116.106 113.654 115.039 111.788 114.347C109.922 113.655 107.933 113.353 105.946 113.46C103.01 113.45 100.138 114.313 97.6928 115.939C95.248 117.565 93.3411 119.88 92.214 122.591C91.0869 125.302 90.7904 128.287 91.362 131.167C91.9337 134.046 93.3477 136.691 95.4249 138.766C96.8254 140.153 98.4925 141.24 100.325 141.964C102.158 142.688 104.119 143.032 106.088 142.976C106.89 142.969 107.689 142.893 108.478 142.75ZM148.745 142.379H138.112V126.371C138.112 124.739 137.439 123.924 136.094 123.925C134.767 123.925 134.103 124.74 134.102 126.371V142.379H123.467V126.569C123.425 124.846 123.728 123.132 124.358 121.527C124.988 119.923 125.932 118.461 127.135 117.227C128.373 115.974 129.856 114.991 131.491 114.339C133.127 113.687 134.879 113.38 136.639 113.437C138.399 113.495 140.127 113.915 141.717 114.673C143.306 115.43 144.722 116.508 145.875 117.839C147.935 120.593 148.952 123.989 148.745 127.422V142.379ZM180.71 103.563H170.075L170.075 126.795C170.075 130.567 168.71 132.453 165.98 132.453C165.438 132.461 164.899 132.362 164.396 132.159C163.893 131.957 163.435 131.657 163.049 131.276C162.659 130.915 162.349 130.477 162.139 129.989C161.928 129.502 161.823 128.976 161.828 128.445C161.819 127.905 161.918 127.369 162.121 126.868C162.323 126.368 162.624 125.913 163.006 125.532C163.368 125.144 163.806 124.837 164.294 124.629C164.781 124.42 165.306 124.316 165.836 124.321C166.8 124.357 167.723 124.717 168.455 125.344V113.629C167.185 113.516 166.236 113.46 165.61 113.46C163.694 113.445 161.796 113.827 160.035 114.581C158.273 115.334 156.687 116.443 155.374 117.839C153.988 119.186 152.89 120.8 152.146 122.585C151.403 124.369 151.029 126.285 151.049 128.218C151.011 130.169 151.377 132.106 152.126 133.908C152.875 135.709 153.99 137.335 155.4 138.684C157.6 140.81 160.391 142.222 163.408 142.734C166.425 143.246 169.526 142.835 172.304 141.554C174.231 140.697 175.937 139.414 177.296 137.801C179.667 134.789 180.879 131.025 180.71 127.195V103.563ZM194.619 103.563V142.379H183.985V103.563H194.619ZM217.582 114.524C215.804 113.778 213.891 113.406 211.963 113.431C209.969 113.381 207.986 113.732 206.13 114.463C204.274 115.193 202.584 116.289 201.159 117.684C199.739 119.028 198.615 120.655 197.861 122.459C197.107 124.263 196.739 126.205 196.78 128.16C196.751 130.11 197.126 132.044 197.879 133.843C198.633 135.641 199.749 137.265 201.159 138.612C203.965 141.387 207.752 142.945 211.699 142.948C215.646 142.95 219.435 141.398 222.245 138.626C223.623 137.263 224.718 135.641 225.467 133.853C226.217 132.065 226.605 130.146 226.61 128.208C226.615 126.269 226.237 124.349 225.497 122.557C224.757 120.765 223.67 119.137 222.299 117.767C220.966 116.374 219.36 115.27 217.582 114.524ZM210.098 124.235C210.597 124.022 211.136 123.917 211.679 123.925C212.226 123.915 212.77 124.02 213.275 124.232C213.78 124.445 214.235 124.761 214.61 125.161C215.378 125.98 215.805 127.062 215.802 128.185C215.799 129.308 215.368 130.388 214.596 131.204C214.223 131.598 213.773 131.913 213.274 132.128C212.775 132.343 212.238 132.453 211.695 132.453C211.152 132.453 210.614 132.343 210.115 132.128C209.617 131.913 209.167 131.598 208.794 131.204C208.02 130.389 207.587 129.309 207.584 128.185C207.581 127.061 208.009 125.979 208.779 125.161C209.149 124.763 209.598 124.448 210.098 124.235ZM244.271 113.744V125.117C243.661 124.742 242.966 124.528 242.251 124.494C240.317 124.494 239.35 125.972 239.352 128.928V142.379H228.717V126.882C228.533 123.307 229.734 119.799 232.07 117.086C233.21 115.867 234.601 114.908 236.147 114.277C237.693 113.646 239.358 113.358 241.026 113.431C242.114 113.454 243.199 113.559 244.271 113.744ZM275.49 103.563H264.855L264.855 126.795C264.855 130.567 263.49 132.453 260.76 132.453C260.218 132.461 259.679 132.362 259.176 132.159C258.673 131.957 258.215 131.657 257.829 131.276C257.439 130.915 257.129 130.477 256.919 129.989C256.708 129.502 256.602 128.976 256.608 128.445C256.599 127.905 256.698 127.369 256.9 126.868C257.103 126.368 257.404 125.913 257.785 125.532C258.147 125.144 258.586 124.837 259.073 124.629C259.561 124.42 260.086 124.316 260.616 124.321C261.579 124.357 262.502 124.717 263.234 125.344V113.629C261.964 113.516 261.016 113.46 260.389 113.46C258.474 113.445 256.576 113.827 254.815 114.581C253.053 115.334 251.467 116.443 250.154 117.839C248.768 119.186 247.67 120.8 246.926 122.585C246.183 124.369 245.809 126.285 245.829 128.218C245.79 130.169 246.157 132.106 246.906 133.908C247.655 135.709 248.769 137.335 250.179 138.684C252.38 140.81 255.171 142.222 258.188 142.734C261.204 143.246 264.306 142.835 267.084 141.554C269.01 140.697 270.717 139.414 272.076 137.801C274.447 134.789 275.658 131.025 275.49 127.195V103.563Z" fill="url(#paint0_linear_484:4669)"/>
<defs>
<linearGradient id="paint0_linear_484:4669" x1="-126.505" y1="155.942" x2="197.495" y2="155.942" gradientUnits="userSpaceOnUse">
<stop stop-color="#3CABDB"/>
<stop offset="1" stop-color="#5333ED"/>
</linearGradient>
</defs>
</svg>
